M48
;Layer_Color=9474304
;FILE_FORMAT=2:5
INCH,LZ
;TYPE=PLATED
T1F00S00C0.01200
T2F00S00C0.03937
T3F00S00C0.04724
T4F00S00C0.06693
T5F00S00C0.10630
;TYPE=NON_PLATED
T6F00S00C0.05118
%
T01
X-00479Y-01238
X-00405Y-01169
X-00557Y-0116
X-0056Y-00983
X-00587
X-00589Y-00934
X-00532Y-00983
X-00381Y-01012
X-00366Y-00952
X-00287Y-009365
X-00264Y-00911
X-00234Y-009005
X-00173Y-00876
X-000915Y-009225
X0002471Y-0087481
X-00699Y-00883
X-00694Y-00921
X-00993Y-00905
Y-00982
Y-01052
X-00994Y-01122
X-01146Y-01123
X-01162Y-01084
X-01155Y-01049
Y-00982
X-0120939Y-00956
X-01148Y-00905
X-011395Y-008585
X-01112Y-00838
X-01256Y-01031
X-01367Y-01087
X-01462Y-01088
X-01497Y-01102
X-01553Y-01091
X-01641Y-0109
X-01727Y-01091
X-01817Y-01092
X-01906Y-01089
X-01994
X-02038Y-0103
X-02085Y-01025
X-02121Y-00984
X-02177Y-00986
X-02175Y-00921
X-02122Y-00854
X-02085Y-0089
X-02045Y-0088
X-02025Y-0085
X-01993Y-00868
X-01952Y-00869
X-01904
X-01818Y-00868
X-01729
X-0164Y-00869
X-01549Y-00868
X-01463Y-00869
X-01505Y-00927
X-01419Y-00928
X-0137Y-00942
X-01506Y-01029
X-01597Y-01032
X-01685Y-01031
X-01771Y-01032
X-01861Y-01033
X-0195Y-0103
X-01949Y-00927
X-0186Y-00928
X-01774Y-00927
X-01685
X-01596Y-00928
X-01451Y-01232
X-01262Y-01226
X-02288Y-00709
X-02287Y-0067
X-02339Y-00653
X-02379Y-00584
X-02297Y-00558
X-02408Y-00471
X-02396Y-00403
X-02393Y-00309
X-02298Y-00335
X-0256Y-00348
X-02558Y-00528
X-02509Y-00575
X-02381Y-00752
X-02557Y-00154
X-02555Y00029
X-0256Y00219
X-02561Y00408
X-02554Y006
X-02394Y00684
X-02352Y00649
X-02361Y00277
X-0221Y00267
X-02223Y00237
X-02229Y00186
X-02228Y00137
X-02226Y00036
X-02201Y00058
X-02245Y-00005
X-02237Y-00045
X-02031Y-00022
X-01994Y-00059
X-02036Y-00097
X-0203Y-00206
X-021Y-00213
X-02095Y-00162
X-02136Y-00303
X-02134Y-00362
X-02138Y-00475
X-02006Y-00477
Y-00534
X-0198Y-00574
X-02007Y-00612
X-02008Y-00669
X-02021Y-00733
X-01971Y-00712
X-01926
X-01871Y-00693
Y-00637
X-01838Y-0064
X-01843Y-00558
X-01841Y-005
X-0186Y-00473
Y-0044
X-01871Y-00402
Y-00372
X-0187Y-00337
X-01838Y-00291
X-01861Y-00263
X-01844Y-00231
X-0188Y-00223
X-01824Y-00188
X-01794Y-00189
X-01722Y-00191
X-01673
X-0164185Y-0018915
X-01611Y-0019
X-01577Y-00191
X-01478Y-002
X-01445
X-01484Y-00297
X-01513Y-00371
X-015675Y-00376
X-01578Y-00333
X-01662Y-00332
X-01701Y-00343
X-01702Y-00286
X-01701Y-00233
Y-00401
X-017Y-00455
X-01699Y-00511
X-01697Y-0055
X-01644Y-00597
X-01631Y-00652
X-0162Y-00682
X-01681Y-00697
X-0172Y-00694
X-0176Y-00695
X-01798
X-0174Y-00672
Y-00794
X-01701Y-00793
X-01661
X-01621Y-00792
X-01581Y-00817
X-01539Y-00795
X-01533Y-00695
X-01527Y-00559
X-0151Y-00428
X-01372Y-00423
X-01379Y-00466
X-01399Y-00503
X-01371Y-00577
X-01369Y-00373
X-012675Y-00265
X-01136Y-00251
X-01137Y-00293
X-01113Y-00272
X-01109Y-00314
X-010905Y-003385
X-01131Y-00352
X-011125Y-003765
X-01086Y-00393
X-01109Y-00431
X-011355Y-004135
X-011255Y-00498
X-011025Y-00518
X-010805Y-00539
Y-00598
X-011025Y-00577
X-011255Y-00557
X-011265Y-00616
X-011035Y-00641
X-01015Y-00645
X-00911
X-00868Y-00736
X-00969Y-00737
X-01089Y-00757
X-01111Y-00736
X-01134Y-00716
Y-00775
X-01111Y-00795
X-01089Y-00816
X-00762Y-0075355
X-00818Y-0048
X-00767Y-00423
X-00871Y-00422
Y-00334
X-0097Y-00333
X-01026
X-01035Y-00237
X-01066Y-00231
X-011Y-0023
X-0101Y-00215
X-00988Y-00236
X-00957
X-008889Y-001745
X-008479Y-00175
X-0084Y-00115
X-00971Y-00059
X-01107Y-00057
X-01134
X-01166
X-0119876
X-012285Y-000585
X-012605
X-01313Y-00062
X-01351Y-00064
X-01383Y-00052
X-01414Y-00066
X-015545Y-000685
X-01556Y-00036
X-01534Y-00007
X-01576Y-00003
X-01514Y00028
X-01513Y0007
X-01479Y00084
X-01405Y00103
X-0136Y0012
Y0008
X-0132
X-0128
X-0124
X-012
X-0116
X-0118Y001
X-0122
X-0126
X-013
X-0134
X-0132Y0012
X-0128
X-0124
X-012
X-0116
X-0118Y0014
X-0122
X-0126
X-013
X-0134
X-0132Y0016
X-0128
X-0124
X-012
X-0116
X-0118Y0018
X-0122
X-0126
X-013
X-0134
X-0136Y0016
Y002
X-0132
X-0128
X-0124
X-012
X-0116
Y0024
X-0118Y0022
X-012Y0024
X-0122Y0022
X-0124Y0024
X-0126Y0022
X-0128Y0024
X-013Y0022
X-0132Y0024
X-0134Y0022
X-0136Y0024
X-01406Y00257
X-01403Y00302
X-01342Y00305
X-012585
X-012265
X-01154
X-01126Y00304
X-010475Y00306
X-01007Y003185
X-00934Y003095
X-009286Y002671
X-00929Y00171
X-01017Y0015781
Y0012682
X-01047Y0007908
Y00047
X-01123Y00024
X-01213Y00019
X-01119Y00118
Y00172
X-0112153Y00202
X-01043Y00218
Y0018587
X-00855Y00205
X-008359Y002616
X-00815Y0032
X-00812Y00425
X-008765Y00437
X-009745Y00439
X-0109Y00419
X-0116776Y00412
X-0119876
X-012135Y00379
X-01289Y00426
X-0133Y00451
X-0137Y00448
X-01333Y00499
X-01295
X-01256Y00587
X-01253Y00622
X-01229Y00644
X-01252Y00669
X-01251Y007
X-01252Y00733
X-01179Y00729
X-01158Y00676
X-01116Y00677
X-01137Y00652
X-01094Y00653
X-01071Y00675
X-010495Y00699
X-010276Y006054
X-01213Y00599
Y00565
X-0116Y00538
X-0139062Y0060138
X-01495Y00607
Y00638
Y00671
X-01496Y00576
Y00544
X-01451Y00468
X-0145Y00398
X-01446Y00363
X-01505Y00329
X-01535Y00325
X-0157Y00326
X-01571Y00359
X-01565Y00291
X-01582Y00431
X-0162Y00424
X-01631Y00538
X-0163Y00571
X-01662Y00579
X-01657Y00611
X-01656Y00652
X-01635Y00679
X-01658Y00708
X-01634Y00732
X-01629Y00626
X-01694Y00551
X-01724Y00545
X-0172948Y0057552
X-01781Y00508
X-01771Y00465
Y00425
X-0176Y0037
X-01779Y00285
X-01777Y00251
X-01745Y00233
X-01841Y00223
X-01845Y00339
X-01846Y00473
X-018485Y00516
X-01849Y00546
X-0183Y00607
X-01831Y00693
X-01952Y00725
X-02005Y00724
X-02058Y00726
X-02117Y00679
X-02172Y00727
X-02213Y00587
X-02215Y00537
X-02214Y00487
X-02187Y00435
X-0223Y00388
X-02111Y00333
X-02006Y00337
Y00387
X-01983Y00287
X-02059Y00239
X-02032Y00136
X-02005Y0009
X-0184Y00087
X-01855Y00035
X-01791Y00006
X-01742Y-00008
X-01782Y-000625
X-01813Y-00063
X-019275Y-000085
X-01784Y00109
X-01745Y00117
X-016341Y-000696
X-016034Y-000704
X-015045Y00185
X-01472Y00197
X-01405Y00185
X-0109Y-00101
X-009225Y000515
X-00858Y00071
X-00825Y00075
X-0079Y0008
X-00866Y00105
X-00734Y00256
X-00769Y00464
X-0076318Y0055518
X-00764Y005895
X-0081Y00608
Y00559
X-00812Y00527
Y00702
X-0193Y00622
X-019932Y0055821
X-020188Y005238
X-02076Y00571
X-02069Y00623
X-01979Y-00244
X-02007Y-00302
X-02006Y-00362
X-01978Y-004
X-01977Y-00438
X-02102Y-00575
X-02139Y-00612
X-02175Y-00637
X-02218Y-00671
X-02217Y-00709
X-02195Y-0078
X-02191Y-00827
X-02121Y-00757
X-02101Y-00702
X-01907Y-00775
X-01821Y-00802
X-01039Y-00439
X-00969Y-00422
X-00952Y-0049
X-00652Y-00423
X-00644Y-00334
X-00614
X-00584
X-00554
X-006Y-00505
X-00571Y-00663
X-00541
X-00602Y-00754
X-00645
X-00665Y-00709
X-003925Y-0072
Y-00752
X-00393Y-00789
X-00437Y-00784
X-00288Y-00826
X-00252Y-00799
X-00255Y-00713
X-00266Y-00653
X-002355Y-006525
X-002985Y-006535
X-0017529Y-0067481
Y-0062481
Y-0057481
Y-0052481
X-0012529
Y-0047481
X-0017529
Y-0042481
X-00123Y-00373
X-00086Y-00374
X-00122Y-00328
X-00109Y-00268
X-0002529Y-0027481
X-00023Y-00228
X00026Y-00224
X00025Y-00175
X0007471Y-0017481
X0002471Y-0012481
X-00024Y-0012
X-00022Y-00075
X00029Y-00071
X00026Y-00025
X00025Y00025
X-00025
Y00075
X-001Y00065
X-00175Y00075
X-00225
X-00243Y00029
X-00286
X-0029Y00095
X-00245Y0015
X-00175Y00175
Y00225
X-00125Y00175
Y00125
X-0017Y00021
X-00175Y-00079
Y-00127
X-00225Y-00126
X-00126Y-00125
X-00121Y-00171
X-00219Y-00273
X-00237Y-00297
X-00025Y-00325
X0002471Y-0032481
X0002571Y-0037381
X0007471Y-0037481
Y-0042481
Y-0047481
X0002471
X-0002529
Y-0052481
Y-0057481
X-00022Y-00626
X-00067Y-0064
X0002471Y-0067481
X0007471Y-0077481
X-0002529
X-0012529
X-00112Y-00822
X-00175Y-00725
X0007471Y-0057481
X-0002529Y-0042481
X00026Y-00275
X0012Y00075
X00075Y00125
X00025Y00175
X-00025
X-00055Y00225
X-00025Y00275
X00025
Y00325
Y00375
X0007471Y0042519
Y0052519
Y0062519
Y0072519
X-0017529
X-00176Y00673
Y00623
Y00573
X-0017529Y0052519
X-0012529
X-00126Y00573
X-0012629Y0047419
X-00126Y00426
X-00174Y00425
X-00173Y00379
X-00125Y00375
X-00085Y00385
Y003
X-00235Y00325
X-00294Y003255
X-00371Y00325
X-00317Y00463
X-003385Y00492
X-002695Y005755
X-00359Y006265
X-00363Y00675
X-00464Y00587
X-004815Y005455
X-00457Y0044
X-00559Y00441
X-00586Y00464
X-0056Y00626
X-005585Y007065
X-006535Y006655
X-00667Y00587
X-00656Y00272
X-00682Y00255
X-00701Y00174
Y00104
X-00631
X-00561
Y00034
X-00631
X-00701
X-0058Y-00045
X-0048Y0001
X-00485Y-0015
X-00349Y-00026
X-00375Y0013
X-00561Y00174
X-00631
X00075Y00275
Y00325
X-00029Y00429
X-0002529Y0047519
X-00126Y00673
Y00772
Y00823
X-00176
X-0017529Y0077519
X-00176Y00876
X-0017609Y00926
X-00176Y00976
X-00127Y00973
X-00126Y00923
Y00873
X-0002529Y0087519
Y0082519
X0002471
X0007471
Y0087519
X0007411Y009246
X0002471Y0092519
Y0097519
X0007471
Y0102519
X0002471
X-0002529
Y0097519
Y0092519
X0002471Y0087519
X0007471Y0077519
X-00027Y00776
X-0002529Y0107519
X-00085Y01024
X-0013Y01025
X-00178Y010795
X-00122Y01167
X00014Y01232
X0003253Y0130053
X0007Y01184
Y0114
X00135Y01155
Y01195
X00232Y01226
X0023Y01261
Y01307
X00222Y01341
X0018Y01345
X00188Y01086
X-0035Y0106
Y0113
Y01185
X-00428Y01259
X-00456Y01286
X-004835Y013105
X-00559Y01251
Y012025
Y011535
X-005585Y011045
Y01056
X-005665Y01009
X-00567Y00968
X-00559Y009105
X-005585Y008585
Y00807
Y00757
X-004155Y007445
X-00345Y0078
X-00374Y0091
Y00954
X-00375Y009905
X-00412Y009405
X-003195Y009385
X-004145Y01092
X-0065Y01013
X-0063Y01312
X-0068Y0131
X-007125Y012885
X-007725Y012585
X-00785Y0131
Y012
X-00829Y0118309
Y0115209
X-00887Y01159
X-00889Y011095
X-00845Y010625
X-007835Y010875
X-007625Y010035
X-007225Y010025
X-0077Y0096
Y00928
Y00894
Y0086
X-0078Y0079
X-00843Y00787
X-00919Y00834
X-00911Y0087609
Y00909
X-00987Y00895
X-01008Y00917
X-01034Y00895
X-01065Y00915
X-01097Y00922
X-01129Y00923
X-01191Y00925
X-01223Y00889
X-01253
X-01295Y00866
X-01326Y00816
X-01415Y00815
X-01436Y00852
X-01471Y00855
X-01469Y00819
X-01503Y0077
X-01568Y00772
X-01598Y0077
X-01631Y00773
X-01772Y00802
X-01765Y00838
X-0172359Y00917
X-0169209Y0092809
X-016606Y00923
X-0159761Y0092139
X-0156611Y00928
X-0153461Y0092239
X-01503Y0089
Y01044
X-01535
X-01566
X-01598Y01045
X-01629Y01046
X-01661
X-01692Y01051
X-01723Y01047
X-01724Y01095
X-0169Y01085
X-01638Y01101
X-01639Y01143
X-01657Y01214
X-0164Y01242
X-0173Y01221
Y01189
X-0184Y01159
Y0112676
X-01918Y01036
X-0198Y009925
X-020325Y009945
X-02075Y01
X-021215Y01035
X-021665Y01077
X-022015Y01076
X-022335Y010715
X-02255Y00933
X-022055Y008475
X-02155
X-0208Y00849
X-0203
X-0198
X-0193
X-01878Y00796
Y00747
X-018875Y00959
X-01781Y00998
X-01497Y01076
X-01492Y01127
X-01493Y01159
X-01389Y01101
X-01368Y01074
X-01358Y01038
X-014Y01032
X-01316Y01004
X-01256Y01069
X-01214Y01068
X-01235Y01093
X-01191Y01092
X-0117Y01065
Y01034
X-01141Y01091
X-01117Y01113
Y01143
X-01116Y01174
X-01117Y01205
X-0109429Y0122471
X-01099Y01257
X-010455Y012635
X-009755Y0132
X-01045Y01137
X-01096Y01065
X-01259Y01133
X-01258Y01164
Y01196
Y01227
X-01255Y01259
X-01325Y01292
X-01332Y0132
X-01469Y01309
X-014965Y013905
X-015665Y013525
X-01598Y01353
X-016291Y01352
X-01724Y01365
X-01955Y01258
X-01958Y01197
X-01203Y01378
X-01161Y00768
X-0113Y00736
X-01098Y00767
X-01255Y00766
X-00962Y00818
X-02305Y00935
X-023915Y010335
X-02557Y00774
T02
X-02281Y-00872
X-02381
X-02481
X-02581
T03
X-02551Y-00627
Y-00252
Y00123
Y00498
Y00873
T04
X-02651Y-00727
X-02451
Y-00527
Y-00352
Y-00152
Y00023
X-02651
Y-00152
Y-00352
Y-00527
Y00223
Y00398
X-02451
Y00223
Y00598
X-02651
Y00773
Y00973
X-02451
Y00773
T05
X-00155Y-01165
X-0230364Y-0106617
X-0015403Y0131572
X-0230364Y0116021
T06
X-0007529Y-0099531
X-0019529Y0114569
M30
