%FSLAX25Y25*%
%MOIN*%
G70*
G01*
G75*
G04 Layer_Physical_Order=1*
G04 Layer_Color=255*
%ADD10R,0.03740X0.03937*%
%ADD11R,0.03937X0.03543*%
%ADD12R,0.03937X0.03740*%
%ADD13R,0.05906X0.01772*%
%ADD14R,0.03347X0.01772*%
%ADD15R,0.03347X0.01181*%
%ADD16R,0.02362X0.06102*%
%ADD17R,0.03543X0.03937*%
%ADD18R,0.03543X0.04331*%
%ADD19R,0.01575X0.03543*%
%ADD20R,0.07874X0.02362*%
%ADD21R,0.07087X0.04921*%
%ADD22R,0.03543X0.01575*%
%ADD23O,0.04331X0.01378*%
%ADD24O,0.01378X0.04331*%
%ADD25R,0.16535X0.16535*%
%ADD26R,0.04134X0.02559*%
%ADD27R,0.01181X0.05906*%
%ADD28R,0.05906X0.01181*%
%ADD29C,0.03937*%
%ADD30O,0.03347X0.01181*%
%ADD31O,0.01181X0.03347*%
%ADD32R,0.25000X0.25000*%
%ADD33R,0.08661X0.06102*%
%ADD34R,0.07008X0.14016*%
%ADD35R,0.05906X0.02165*%
%ADD36R,0.02165X0.05906*%
%ADD37C,0.02520*%
%ADD38R,0.09843X0.06890*%
%ADD39R,0.01181X0.03347*%
%ADD40R,0.08465X0.03740*%
%ADD41R,0.08465X0.12795*%
%ADD42R,0.04921X0.07087*%
%ADD43R,0.05512X0.04134*%
%ADD44R,0.06102X0.02362*%
%ADD45P,0.05568X4X360.0*%
%ADD46P,0.05568X4X270.0*%
%ADD47R,0.01772X0.05906*%
%ADD48C,0.00600*%
%ADD49C,0.01000*%
%ADD50C,0.01200*%
%ADD51C,0.00800*%
%ADD52C,0.03000*%
%ADD53C,0.01500*%
%ADD54C,0.02000*%
%ADD55C,0.00820*%
%ADD56C,0.04000*%
%ADD57C,0.02400*%
%ADD58C,0.00500*%
%ADD59C,0.06693*%
%ADD60C,0.09449*%
%ADD61C,0.07480*%
%ADD62C,0.17716*%
%ADD63C,0.22835*%
%ADD64C,0.02400*%
G36*
X-148746Y26378D02*
X-148448Y26179D01*
X-148097Y26109D01*
X-147400D01*
Y24211D01*
X-153832D01*
Y25721D01*
X-158968D01*
Y23000D01*
X-159000D01*
Y23000D01*
X-165331D01*
Y25820D01*
X-170468D01*
Y24471D01*
X-171050D01*
X-171050Y24471D01*
X-171480Y24386D01*
X-171844Y24143D01*
X-172693Y23293D01*
X-172936Y22929D01*
X-173022Y22500D01*
X-173022Y22500D01*
Y15050D01*
X-173022Y15050D01*
X-172936Y14621D01*
X-172693Y14257D01*
X-170820Y12384D01*
Y8931D01*
X-169471D01*
Y7969D01*
X-170820D01*
Y2832D01*
X-170721D01*
Y2468D01*
X-170721D01*
Y-2668D01*
X-169683D01*
X-169635Y-2784D01*
X-169913Y-3200D01*
X-176300D01*
Y2832D01*
X-175250D01*
Y5399D01*
Y7969D01*
X-176300D01*
Y23955D01*
X-176004Y24398D01*
X-175865Y25100D01*
X-176004Y25802D01*
X-176300Y26245D01*
Y27200D01*
X-149568D01*
X-148746Y26378D01*
D02*
G37*
G36*
X-152109Y14423D02*
X-151745Y14180D01*
X-151316Y14094D01*
X-151316Y14094D01*
X-147400D01*
Y10530D01*
X-147786Y10213D01*
X-147900Y10235D01*
X-148602Y10096D01*
X-149198Y9698D01*
X-149596Y9102D01*
X-149735Y8400D01*
X-149596Y7698D01*
X-149198Y7102D01*
X-148602Y6704D01*
X-148418Y6668D01*
Y2400D01*
X-148348Y2049D01*
X-148149Y1751D01*
X-147400Y1002D01*
Y65D01*
X-148302Y-54D01*
X-149453Y-531D01*
X-150442Y-1290D01*
X-151201Y-2279D01*
X-151583Y-3200D01*
X-153844D01*
X-153904Y-2898D01*
X-154302Y-2302D01*
X-154898Y-1904D01*
X-155600Y-1765D01*
X-156302Y-1904D01*
X-156898Y-2302D01*
X-157085Y-2582D01*
X-159679D01*
Y-900D01*
X-162051D01*
Y500D01*
X-162000D01*
Y700D01*
X-159679D01*
Y2468D01*
X-159679D01*
Y2733D01*
X-159580Y2832D01*
X-159580D01*
Y6000D01*
X-157000D01*
Y6150D01*
Y7820D01*
Y9179D01*
X-153732D01*
Y14120D01*
X-155278D01*
Y14679D01*
X-153832D01*
Y15492D01*
X-153370Y15683D01*
X-152109Y14423D01*
D02*
G37*
G36*
X-230350Y-114200D02*
X-236884D01*
X-237100Y-114157D01*
X-271850D01*
Y-97700D01*
X-230350D01*
Y-114200D01*
D02*
G37*
G36*
X-231051Y107300D02*
X-272549D01*
Y123757D01*
X-236600D01*
X-236386Y123800D01*
X-231051D01*
Y107300D01*
D02*
G37*
G36*
X-98200Y-115300D02*
X-107500D01*
X-113030Y-109770D01*
X-112839Y-109308D01*
X-110904D01*
Y-101701D01*
Y-94092D01*
X-113639D01*
X-113830Y-93630D01*
X-107500Y-87300D01*
X-98200D01*
Y-115300D01*
D02*
G37*
%LPC*%
G36*
X-171980Y4600D02*
X-173650D01*
Y2832D01*
X-171980D01*
Y4600D01*
D02*
G37*
G36*
X-106000Y-94092D02*
X-109304D01*
Y-100900D01*
X-106000D01*
Y-94092D01*
D02*
G37*
G36*
Y-102500D02*
X-109304D01*
Y-109308D01*
X-106000D01*
Y-102500D01*
D02*
G37*
G36*
X-157100Y4550D02*
X-158869D01*
Y2880D01*
X-157100D01*
Y4550D01*
D02*
G37*
G36*
X-163000Y26020D02*
X-164769D01*
Y24350D01*
X-163000D01*
Y26020D01*
D02*
G37*
G36*
X-159632D02*
X-161400D01*
Y24350D01*
X-159632D01*
Y26020D01*
D02*
G37*
G36*
X-171980Y7969D02*
X-173650D01*
Y6200D01*
X-171980D01*
Y7969D01*
D02*
G37*
G36*
X-153732Y4550D02*
X-155500D01*
Y2880D01*
X-153732D01*
Y4550D01*
D02*
G37*
G36*
Y7820D02*
X-155500D01*
Y6150D01*
X-153732D01*
Y7820D01*
D02*
G37*
%LPD*%
D10*
X-52350Y131300D02*
D03*
X-58650D02*
D03*
X-53050Y96700D02*
D03*
X-46750D02*
D03*
X-65950Y97000D02*
D03*
X-72250D02*
D03*
X-172250Y42400D02*
D03*
X-165950D02*
D03*
X-185650Y126100D02*
D03*
X-191950D02*
D03*
X-174450Y5400D02*
D03*
X-180750D02*
D03*
X-64750Y-49900D02*
D03*
X-71050D02*
D03*
X-63150Y-83000D02*
D03*
X-69450D02*
D03*
X-162050Y11500D02*
D03*
X-168350D02*
D03*
X-162050Y5400D02*
D03*
X-168350D02*
D03*
X-156650Y138800D02*
D03*
X-162950D02*
D03*
X-191750Y107500D02*
D03*
X-185450D02*
D03*
X-109950Y137800D02*
D03*
X-116250D02*
D03*
X-70150Y62600D02*
D03*
X-76450D02*
D03*
X-111450Y88200D02*
D03*
X-117750D02*
D03*
X-156650Y88100D02*
D03*
X-162950D02*
D03*
X-191950Y119700D02*
D03*
X-185650D02*
D03*
X-57850Y-109200D02*
D03*
X-64150D02*
D03*
X-226950Y-29400D02*
D03*
X-233250D02*
D03*
X-79450Y3500D02*
D03*
X-85750D02*
D03*
D11*
X-41500Y77850D02*
D03*
Y84150D02*
D03*
X-41400Y118650D02*
D03*
Y112350D02*
D03*
X-222600Y103250D02*
D03*
Y96950D02*
D03*
X-234500Y103250D02*
D03*
Y96950D02*
D03*
X-216700D02*
D03*
Y103250D02*
D03*
X-228600Y96950D02*
D03*
Y103250D02*
D03*
X-216300Y-68250D02*
D03*
Y-74550D02*
D03*
X-156400Y17050D02*
D03*
Y23350D02*
D03*
X-132800Y-111450D02*
D03*
Y-117750D02*
D03*
X-221400Y-41350D02*
D03*
Y-35050D02*
D03*
X-90900Y-21050D02*
D03*
Y-27350D02*
D03*
X-103000Y-54650D02*
D03*
Y-60950D02*
D03*
X-78000Y-54250D02*
D03*
Y-47950D02*
D03*
X-85400Y-27450D02*
D03*
Y-21150D02*
D03*
X-78000Y-65550D02*
D03*
Y-59250D02*
D03*
X-79700Y-27450D02*
D03*
Y-21150D02*
D03*
X-199400Y-17850D02*
D03*
Y-11550D02*
D03*
X-140500Y38650D02*
D03*
Y44950D02*
D03*
D12*
X-41300Y98950D02*
D03*
Y105250D02*
D03*
X-183900Y18650D02*
D03*
Y12350D02*
D03*
X-137700Y56150D02*
D03*
Y49850D02*
D03*
X-137300Y120150D02*
D03*
Y113850D02*
D03*
X-40700Y68850D02*
D03*
Y62550D02*
D03*
X-119900Y-111250D02*
D03*
Y-117550D02*
D03*
X-156300Y11650D02*
D03*
Y5350D02*
D03*
X-162200Y17250D02*
D03*
Y23550D02*
D03*
X-167900Y23350D02*
D03*
Y17050D02*
D03*
X-137400Y132050D02*
D03*
Y125750D02*
D03*
X-184200Y79550D02*
D03*
Y73250D02*
D03*
X-137700Y64050D02*
D03*
Y70350D02*
D03*
X-137600Y81750D02*
D03*
Y75450D02*
D03*
X-184500Y37250D02*
D03*
Y43550D02*
D03*
X-233900Y-68950D02*
D03*
Y-75250D02*
D03*
D13*
X-71217Y102684D02*
D03*
Y105243D02*
D03*
Y107802D02*
D03*
Y110361D02*
D03*
Y112920D02*
D03*
Y115480D02*
D03*
Y118039D02*
D03*
Y120598D02*
D03*
Y123157D02*
D03*
Y125716D02*
D03*
X-48383D02*
D03*
Y123157D02*
D03*
Y120598D02*
D03*
Y118039D02*
D03*
Y115480D02*
D03*
Y112920D02*
D03*
Y110361D02*
D03*
Y107802D02*
D03*
Y105243D02*
D03*
Y102684D02*
D03*
X-120939Y-105639D02*
D03*
Y-103079D02*
D03*
Y-100521D02*
D03*
Y-97961D02*
D03*
X-138261D02*
D03*
Y-100521D02*
D03*
Y-103079D02*
D03*
Y-105639D02*
D03*
X-219039Y-54739D02*
D03*
Y-52179D02*
D03*
Y-49621D02*
D03*
Y-47061D02*
D03*
X-236361D02*
D03*
Y-49621D02*
D03*
Y-52179D02*
D03*
Y-54739D02*
D03*
X-48483Y68184D02*
D03*
Y70743D02*
D03*
Y73302D02*
D03*
Y75861D02*
D03*
Y78421D02*
D03*
Y80980D02*
D03*
Y83539D02*
D03*
Y86098D02*
D03*
Y88657D02*
D03*
Y91216D02*
D03*
X-71317D02*
D03*
Y88657D02*
D03*
Y86098D02*
D03*
Y83539D02*
D03*
Y80980D02*
D03*
Y78421D02*
D03*
Y75861D02*
D03*
Y73302D02*
D03*
Y70743D02*
D03*
Y68184D02*
D03*
D14*
X-116247Y-49515D02*
D03*
Y-63885D02*
D03*
X-122153D02*
D03*
Y-49515D02*
D03*
X-117047Y-29015D02*
D03*
Y-43385D02*
D03*
X-122953D02*
D03*
Y-29015D02*
D03*
X-117547Y-9615D02*
D03*
Y-23985D02*
D03*
X-123453D02*
D03*
Y-9615D02*
D03*
X-116947Y-71415D02*
D03*
Y-85785D02*
D03*
X-122853D02*
D03*
Y-71415D02*
D03*
D15*
X-116247Y-51779D02*
D03*
Y-53747D02*
D03*
Y-55716D02*
D03*
Y-57684D02*
D03*
Y-59653D02*
D03*
Y-61621D02*
D03*
X-122153D02*
D03*
Y-59653D02*
D03*
Y-57684D02*
D03*
Y-55716D02*
D03*
Y-53747D02*
D03*
Y-51779D02*
D03*
X-117047Y-31279D02*
D03*
Y-33247D02*
D03*
Y-35216D02*
D03*
Y-37184D02*
D03*
Y-39153D02*
D03*
Y-41121D02*
D03*
X-122953D02*
D03*
Y-39153D02*
D03*
Y-37184D02*
D03*
Y-35216D02*
D03*
Y-33247D02*
D03*
Y-31279D02*
D03*
X-117547Y-11879D02*
D03*
Y-13847D02*
D03*
Y-15816D02*
D03*
Y-17784D02*
D03*
Y-19753D02*
D03*
Y-21721D02*
D03*
X-123453D02*
D03*
Y-19753D02*
D03*
Y-17784D02*
D03*
Y-15816D02*
D03*
Y-13847D02*
D03*
Y-11879D02*
D03*
X-116947Y-73679D02*
D03*
Y-75647D02*
D03*
Y-77616D02*
D03*
Y-79584D02*
D03*
Y-81553D02*
D03*
Y-83521D02*
D03*
X-122853D02*
D03*
Y-81553D02*
D03*
Y-79584D02*
D03*
Y-77616D02*
D03*
Y-75647D02*
D03*
Y-73679D02*
D03*
D16*
X-193000Y89230D02*
D03*
X-198000D02*
D03*
X-203000D02*
D03*
X-208000D02*
D03*
X-193000Y67970D02*
D03*
X-198000D02*
D03*
X-203000D02*
D03*
X-208000D02*
D03*
X-215500Y89030D02*
D03*
X-220500D02*
D03*
X-225500D02*
D03*
X-230500D02*
D03*
X-215500Y67770D02*
D03*
X-220500D02*
D03*
X-225500D02*
D03*
X-230500D02*
D03*
D17*
X-215150Y-80000D02*
D03*
X-208850D02*
D03*
X-93950Y47000D02*
D03*
X-87650D02*
D03*
X-52750Y62500D02*
D03*
X-46450D02*
D03*
X-90750Y55800D02*
D03*
X-84450D02*
D03*
X-84450Y60800D02*
D03*
X-90750D02*
D03*
X-84450Y70200D02*
D03*
X-90750D02*
D03*
X-90750Y75200D02*
D03*
X-84450D02*
D03*
X-71650Y-7400D02*
D03*
X-77950D02*
D03*
X-67950Y50700D02*
D03*
X-74250D02*
D03*
X-54450Y50500D02*
D03*
X-48150D02*
D03*
X-168350Y-100D02*
D03*
X-162050D02*
D03*
X-85450Y-49000D02*
D03*
X-91750D02*
D03*
X-60250Y-14900D02*
D03*
X-53950D02*
D03*
X-186450Y-6200D02*
D03*
X-192750D02*
D03*
X-128950Y38800D02*
D03*
X-135250D02*
D03*
X-88950Y-7400D02*
D03*
X-82650D02*
D03*
X-166650Y-6600D02*
D03*
X-172950D02*
D03*
X-39350Y-83200D02*
D03*
X-45650D02*
D03*
X-51050D02*
D03*
X-57350D02*
D03*
X-120950Y-92000D02*
D03*
X-127250D02*
D03*
D18*
X-172330Y31047D02*
D03*
X-161070D02*
D03*
Y36953D02*
D03*
X-172330D02*
D03*
D19*
X-63759Y58734D02*
D03*
X-58641D02*
D03*
Y50466D02*
D03*
X-61200D02*
D03*
X-63759D02*
D03*
D20*
X-192293Y18700D02*
D03*
Y13700D02*
D03*
X-228907Y23700D02*
D03*
Y18700D02*
D03*
Y13700D02*
D03*
Y8700D02*
D03*
Y3700D02*
D03*
X-192293D02*
D03*
Y8700D02*
D03*
X-228907Y28700D02*
D03*
Y33700D02*
D03*
Y38700D02*
D03*
Y43700D02*
D03*
Y48700D02*
D03*
Y53700D02*
D03*
Y58700D02*
D03*
X-192293Y23700D02*
D03*
Y28700D02*
D03*
Y33700D02*
D03*
Y38700D02*
D03*
Y43700D02*
D03*
Y48700D02*
D03*
Y53700D02*
D03*
Y58700D02*
D03*
D21*
X-81682Y-33400D02*
D03*
X-91918D02*
D03*
X-85682Y-55400D02*
D03*
X-95918D02*
D03*
X-91918Y-42200D02*
D03*
X-81682D02*
D03*
X-91618Y-73600D02*
D03*
X-81382D02*
D03*
X-95918Y-64500D02*
D03*
X-85682D02*
D03*
X-213418Y-41800D02*
D03*
X-203182D02*
D03*
X-67882Y-14500D02*
D03*
X-78118D02*
D03*
D22*
X-226766Y-36141D02*
D03*
Y-41259D02*
D03*
X-235034D02*
D03*
Y-38700D02*
D03*
Y-36141D02*
D03*
D23*
X-74321Y18077D02*
D03*
Y15518D02*
D03*
Y12959D02*
D03*
Y10400D02*
D03*
Y7841D02*
D03*
Y5282D02*
D03*
Y2723D02*
D03*
X-51880D02*
D03*
Y5282D02*
D03*
Y7841D02*
D03*
Y10400D02*
D03*
Y12959D02*
D03*
Y15518D02*
D03*
Y18077D02*
D03*
D24*
X-70777Y-821D02*
D03*
X-68218D02*
D03*
X-65659D02*
D03*
X-63100D02*
D03*
X-60541D02*
D03*
X-57982D02*
D03*
X-55423D02*
D03*
Y21621D02*
D03*
X-57982D02*
D03*
X-60541D02*
D03*
X-63100D02*
D03*
X-65659D02*
D03*
X-68218D02*
D03*
X-70777D02*
D03*
D25*
X-63100Y10400D02*
D03*
D26*
X-149728Y-114200D02*
D03*
X-140672Y-110460D02*
D03*
Y-117940D02*
D03*
X-217328Y-89100D02*
D03*
X-208272Y-85360D02*
D03*
Y-92840D02*
D03*
Y-105940D02*
D03*
Y-98460D02*
D03*
X-217328Y-102200D02*
D03*
D27*
X-185839Y-74330D02*
D03*
X-183870D02*
D03*
X-181902D02*
D03*
X-179933D02*
D03*
X-177965D02*
D03*
X-175996D02*
D03*
X-174028D02*
D03*
X-172059D02*
D03*
X-170091D02*
D03*
X-168122D02*
D03*
X-166154D02*
D03*
X-164185D02*
D03*
X-162216D02*
D03*
X-160248D02*
D03*
X-158280D02*
D03*
X-156311D02*
D03*
X-154342D02*
D03*
X-152374D02*
D03*
X-150406D02*
D03*
X-148437D02*
D03*
X-146468D02*
D03*
X-144500D02*
D03*
X-142532D02*
D03*
X-140563D02*
D03*
X-138594D02*
D03*
Y-13700D02*
D03*
X-140563D02*
D03*
X-142532D02*
D03*
X-144500D02*
D03*
X-146468D02*
D03*
X-148437D02*
D03*
X-150406D02*
D03*
X-152374D02*
D03*
X-154342D02*
D03*
X-156311D02*
D03*
X-158280D02*
D03*
X-160248D02*
D03*
X-162216D02*
D03*
X-164185D02*
D03*
X-166154D02*
D03*
X-168122D02*
D03*
X-170091D02*
D03*
X-172059D02*
D03*
X-174028D02*
D03*
X-175996D02*
D03*
X-177965D02*
D03*
X-179933D02*
D03*
X-181902D02*
D03*
X-183870D02*
D03*
X-185839D02*
D03*
D28*
X-131902Y-67637D02*
D03*
Y-65668D02*
D03*
Y-63700D02*
D03*
Y-61731D02*
D03*
Y-59763D02*
D03*
Y-57794D02*
D03*
Y-55826D02*
D03*
Y-53857D02*
D03*
Y-51889D02*
D03*
Y-49920D02*
D03*
Y-47952D02*
D03*
Y-45983D02*
D03*
Y-44015D02*
D03*
Y-42046D02*
D03*
Y-40078D02*
D03*
Y-38109D02*
D03*
Y-36141D02*
D03*
Y-34172D02*
D03*
Y-32204D02*
D03*
Y-30235D02*
D03*
Y-28267D02*
D03*
Y-26298D02*
D03*
Y-24330D02*
D03*
Y-22361D02*
D03*
Y-20393D02*
D03*
X-192532D02*
D03*
Y-22361D02*
D03*
Y-24330D02*
D03*
Y-26298D02*
D03*
Y-28267D02*
D03*
Y-30235D02*
D03*
Y-32204D02*
D03*
Y-34172D02*
D03*
Y-36141D02*
D03*
Y-38109D02*
D03*
Y-40078D02*
D03*
Y-42046D02*
D03*
Y-44015D02*
D03*
Y-45983D02*
D03*
Y-47952D02*
D03*
Y-49920D02*
D03*
Y-51889D02*
D03*
Y-53857D02*
D03*
Y-55826D02*
D03*
Y-57794D02*
D03*
Y-59763D02*
D03*
Y-61731D02*
D03*
Y-63700D02*
D03*
Y-65668D02*
D03*
Y-67637D02*
D03*
D29*
Y-13700D02*
D03*
X-131902Y-74330D02*
D03*
X-105334Y37066D02*
D03*
X-147066Y-4666D02*
D03*
X-19529Y114569D02*
D03*
X-7529Y-99531D02*
D03*
D30*
X-143720Y30964D02*
D03*
Y28995D02*
D03*
Y27027D02*
D03*
Y25058D02*
D03*
Y23090D02*
D03*
Y21121D02*
D03*
Y19153D02*
D03*
Y17184D02*
D03*
Y15216D02*
D03*
Y13247D02*
D03*
Y11279D02*
D03*
Y9310D02*
D03*
Y7342D02*
D03*
Y5373D02*
D03*
Y3405D02*
D03*
Y1436D02*
D03*
X-108680D02*
D03*
Y3405D02*
D03*
Y5373D02*
D03*
Y7342D02*
D03*
Y9310D02*
D03*
Y11279D02*
D03*
Y13247D02*
D03*
Y15216D02*
D03*
Y17184D02*
D03*
Y19153D02*
D03*
Y21121D02*
D03*
Y23090D02*
D03*
Y25058D02*
D03*
Y27027D02*
D03*
Y28995D02*
D03*
Y30964D02*
D03*
D31*
X-140964Y-1320D02*
D03*
X-138995D02*
D03*
X-137027D02*
D03*
X-135058D02*
D03*
X-133090D02*
D03*
X-131121D02*
D03*
X-129153D02*
D03*
X-127184D02*
D03*
X-125216D02*
D03*
X-123247D02*
D03*
X-121279D02*
D03*
X-119310D02*
D03*
X-117342D02*
D03*
X-115373D02*
D03*
X-113405D02*
D03*
X-111436D02*
D03*
Y33720D02*
D03*
X-113405D02*
D03*
X-115373D02*
D03*
X-117342D02*
D03*
X-119310D02*
D03*
X-121279D02*
D03*
X-123247D02*
D03*
X-125216D02*
D03*
X-127184D02*
D03*
X-129153D02*
D03*
X-131121D02*
D03*
X-133090D02*
D03*
X-135058D02*
D03*
X-137027D02*
D03*
X-138995D02*
D03*
X-140964D02*
D03*
D32*
X-126200Y16200D02*
D03*
D33*
X-64071Y-118500D02*
D03*
X-47929D02*
D03*
D34*
X-73096Y-101700D02*
D03*
X-110104D02*
D03*
D35*
X-97839Y103812D02*
D03*
Y106961D02*
D03*
Y110111D02*
D03*
Y113261D02*
D03*
Y116410D02*
D03*
Y119560D02*
D03*
Y122709D02*
D03*
Y125859D02*
D03*
X-130910D02*
D03*
Y122709D02*
D03*
Y119560D02*
D03*
Y116410D02*
D03*
Y113261D02*
D03*
Y110111D02*
D03*
Y106961D02*
D03*
Y103812D02*
D03*
X-144800Y103202D02*
D03*
Y106352D02*
D03*
Y109502D02*
D03*
Y112651D02*
D03*
Y115801D02*
D03*
Y118950D02*
D03*
Y122100D02*
D03*
Y125250D02*
D03*
X-177871D02*
D03*
Y122100D02*
D03*
Y118950D02*
D03*
Y115801D02*
D03*
Y112651D02*
D03*
Y109502D02*
D03*
Y106352D02*
D03*
Y103202D02*
D03*
X-144900Y54402D02*
D03*
Y57552D02*
D03*
Y60702D02*
D03*
Y63851D02*
D03*
Y67001D02*
D03*
Y70150D02*
D03*
Y73300D02*
D03*
Y76450D02*
D03*
X-177971D02*
D03*
Y73300D02*
D03*
Y70150D02*
D03*
Y67001D02*
D03*
Y63851D02*
D03*
Y60702D02*
D03*
Y57552D02*
D03*
Y54402D02*
D03*
X-97939Y54241D02*
D03*
Y57390D02*
D03*
Y60540D02*
D03*
Y63690D02*
D03*
Y66839D02*
D03*
Y69989D02*
D03*
Y73139D02*
D03*
Y76288D02*
D03*
X-131009D02*
D03*
Y73139D02*
D03*
Y69989D02*
D03*
Y66839D02*
D03*
Y63690D02*
D03*
Y60540D02*
D03*
Y57390D02*
D03*
Y54241D02*
D03*
D36*
X-103351Y131371D02*
D03*
X-106501D02*
D03*
X-109650D02*
D03*
X-112800D02*
D03*
X-115950D02*
D03*
X-119099D02*
D03*
X-122249D02*
D03*
X-125398D02*
D03*
Y98300D02*
D03*
X-122249D02*
D03*
X-119099D02*
D03*
X-115950D02*
D03*
X-112800D02*
D03*
X-109650D02*
D03*
X-106501D02*
D03*
X-103351D02*
D03*
X-150312Y130761D02*
D03*
X-153461D02*
D03*
X-156611D02*
D03*
X-159761D02*
D03*
X-162910D02*
D03*
X-166060D02*
D03*
X-169209D02*
D03*
X-172359D02*
D03*
Y97690D02*
D03*
X-169209D02*
D03*
X-166060D02*
D03*
X-162910D02*
D03*
X-159761D02*
D03*
X-156611D02*
D03*
X-153461D02*
D03*
X-150312D02*
D03*
X-150412Y81961D02*
D03*
X-153561D02*
D03*
X-156711D02*
D03*
X-159861D02*
D03*
X-163010D02*
D03*
X-166160D02*
D03*
X-169309D02*
D03*
X-172459D02*
D03*
Y48891D02*
D03*
X-169309D02*
D03*
X-166160D02*
D03*
X-163010D02*
D03*
X-159861D02*
D03*
X-156711D02*
D03*
X-153561D02*
D03*
X-150412D02*
D03*
X-103450Y81800D02*
D03*
X-106600D02*
D03*
X-109750D02*
D03*
X-112899D02*
D03*
X-116049D02*
D03*
X-119198D02*
D03*
X-122348D02*
D03*
X-125498D02*
D03*
Y48729D02*
D03*
X-122348D02*
D03*
X-119198D02*
D03*
X-116049D02*
D03*
X-112899D02*
D03*
X-109750D02*
D03*
X-106600D02*
D03*
X-103450D02*
D03*
D37*
X-20029Y105019D02*
D03*
Y100019D02*
D03*
Y95019D02*
D03*
Y90019D02*
D03*
Y85019D02*
D03*
Y80019D02*
D03*
Y75019D02*
D03*
Y70019D02*
D03*
Y65019D02*
D03*
Y60019D02*
D03*
Y55019D02*
D03*
Y50019D02*
D03*
Y45019D02*
D03*
Y40019D02*
D03*
Y35019D02*
D03*
Y30019D02*
D03*
Y25019D02*
D03*
Y20019D02*
D03*
Y15019D02*
D03*
Y10019D02*
D03*
Y5019D02*
D03*
Y19D02*
D03*
Y-4981D02*
D03*
Y-9981D02*
D03*
Y-14981D02*
D03*
Y-19981D02*
D03*
Y-24981D02*
D03*
Y-29981D02*
D03*
Y-34981D02*
D03*
Y-39981D02*
D03*
Y-44981D02*
D03*
Y-49981D02*
D03*
Y-54981D02*
D03*
Y-59981D02*
D03*
Y-64981D02*
D03*
Y-69981D02*
D03*
Y-74981D02*
D03*
Y-79981D02*
D03*
Y-84981D02*
D03*
Y-89981D02*
D03*
X-15029Y105019D02*
D03*
Y100019D02*
D03*
Y95019D02*
D03*
Y90019D02*
D03*
Y85019D02*
D03*
Y80019D02*
D03*
Y75019D02*
D03*
Y70019D02*
D03*
Y65019D02*
D03*
Y60019D02*
D03*
Y55019D02*
D03*
Y50019D02*
D03*
Y45019D02*
D03*
Y40019D02*
D03*
Y35019D02*
D03*
Y30019D02*
D03*
Y25019D02*
D03*
Y20019D02*
D03*
Y15019D02*
D03*
Y10019D02*
D03*
Y5019D02*
D03*
Y19D02*
D03*
Y-4981D02*
D03*
Y-9981D02*
D03*
Y-14981D02*
D03*
Y-19981D02*
D03*
Y-24981D02*
D03*
Y-29981D02*
D03*
Y-34981D02*
D03*
Y-39981D02*
D03*
Y-44981D02*
D03*
Y-49981D02*
D03*
Y-54981D02*
D03*
Y-59981D02*
D03*
Y-64981D02*
D03*
Y-69981D02*
D03*
Y-74981D02*
D03*
Y-79981D02*
D03*
Y-84981D02*
D03*
Y-89981D02*
D03*
X-29Y105019D02*
D03*
Y100019D02*
D03*
Y95019D02*
D03*
Y90019D02*
D03*
Y85019D02*
D03*
Y80019D02*
D03*
Y75019D02*
D03*
Y70019D02*
D03*
Y65019D02*
D03*
Y60019D02*
D03*
Y55019D02*
D03*
Y50019D02*
D03*
Y45019D02*
D03*
Y40019D02*
D03*
Y35019D02*
D03*
Y30019D02*
D03*
Y25019D02*
D03*
Y20019D02*
D03*
Y15019D02*
D03*
Y10019D02*
D03*
Y5019D02*
D03*
Y19D02*
D03*
Y-4981D02*
D03*
Y-9981D02*
D03*
Y-14981D02*
D03*
Y-19981D02*
D03*
Y-24981D02*
D03*
Y-29981D02*
D03*
Y-34981D02*
D03*
Y-39981D02*
D03*
Y-44981D02*
D03*
Y-49981D02*
D03*
Y-54981D02*
D03*
Y-59981D02*
D03*
Y-64981D02*
D03*
Y-69981D02*
D03*
Y-74981D02*
D03*
Y-79981D02*
D03*
Y-84981D02*
D03*
Y-89981D02*
D03*
X4971Y105019D02*
D03*
Y100019D02*
D03*
Y95019D02*
D03*
Y90019D02*
D03*
Y85019D02*
D03*
Y80019D02*
D03*
Y75019D02*
D03*
Y70019D02*
D03*
Y65019D02*
D03*
Y60019D02*
D03*
Y55019D02*
D03*
Y50019D02*
D03*
Y45019D02*
D03*
Y40019D02*
D03*
Y35019D02*
D03*
Y30019D02*
D03*
Y25019D02*
D03*
Y20019D02*
D03*
Y15019D02*
D03*
Y10019D02*
D03*
Y5019D02*
D03*
Y19D02*
D03*
Y-4981D02*
D03*
Y-9981D02*
D03*
Y-14981D02*
D03*
Y-19981D02*
D03*
Y-24981D02*
D03*
Y-29981D02*
D03*
Y-34981D02*
D03*
Y-39981D02*
D03*
Y-44981D02*
D03*
Y-49981D02*
D03*
Y-54981D02*
D03*
Y-59981D02*
D03*
Y-64981D02*
D03*
Y-69981D02*
D03*
Y-74981D02*
D03*
Y-79981D02*
D03*
Y-84981D02*
D03*
Y-89981D02*
D03*
D38*
X-225300Y-68900D02*
D03*
D39*
X-229237Y-74805D02*
D03*
X-227269D02*
D03*
X-225300D02*
D03*
X-223331D02*
D03*
X-221363D02*
D03*
Y-62994D02*
D03*
X-223331D02*
D03*
X-225300D02*
D03*
X-227269D02*
D03*
X-229237D02*
D03*
D40*
X-70417Y-57245D02*
D03*
Y-66300D02*
D03*
Y-75355D02*
D03*
X-71117Y-24245D02*
D03*
Y-33300D02*
D03*
Y-42355D02*
D03*
D41*
X-47583Y-66300D02*
D03*
X-48283Y-33300D02*
D03*
D42*
X-199400Y-103036D02*
D03*
Y-92800D02*
D03*
X-190533Y-103036D02*
D03*
Y-92800D02*
D03*
X-181667Y-103036D02*
D03*
Y-92800D02*
D03*
X-146200Y-102918D02*
D03*
Y-92682D02*
D03*
X-155067Y-102918D02*
D03*
Y-92682D02*
D03*
X-163933Y-102918D02*
D03*
Y-92682D02*
D03*
X-172800D02*
D03*
Y-102918D02*
D03*
X-103800Y-38718D02*
D03*
Y-28482D02*
D03*
X-81200Y47318D02*
D03*
Y37082D02*
D03*
D43*
X-126300Y-111357D02*
D03*
Y-118443D02*
D03*
D44*
X-51070Y29000D02*
D03*
Y34000D02*
D03*
Y39000D02*
D03*
Y44000D02*
D03*
X-72330Y29000D02*
D03*
Y34000D02*
D03*
Y39000D02*
D03*
Y44000D02*
D03*
X-64130Y-88300D02*
D03*
Y-93300D02*
D03*
Y-98300D02*
D03*
Y-103300D02*
D03*
X-42870Y-88300D02*
D03*
Y-93300D02*
D03*
Y-98300D02*
D03*
Y-103300D02*
D03*
D45*
X-206100Y122800D02*
D03*
X-156600Y-118700D02*
D03*
D46*
X11900Y-112700D02*
D03*
D47*
X-87761Y21939D02*
D03*
X-90320D02*
D03*
X-92879D02*
D03*
X-95439D02*
D03*
Y39261D02*
D03*
X-92879D02*
D03*
X-90320D02*
D03*
X-87761D02*
D03*
D48*
X-116947Y-85785D02*
X-114015D01*
X-117147D02*
X-116947D01*
X-170091Y-19279D02*
X-162900Y-26470D01*
Y-31450D02*
Y-26470D01*
X-170091Y-19279D02*
Y-13700D01*
X-168563Y-3500D02*
X-155700D01*
X-155600Y-3600D01*
X-162216Y-8917D02*
X-160340Y-7040D01*
X-155450Y-6850D02*
X-152110D01*
X-148437Y-10523D01*
Y-13700D02*
Y-10523D01*
X-170091Y-5027D02*
X-168563Y-3500D01*
X-170091Y-13700D02*
Y-5027D01*
X-109000Y-10100D02*
X-91650D01*
X-88950Y-7400D01*
X-147500Y2400D02*
Y8800D01*
X-112300Y2400D02*
X-111336Y1436D01*
X-108680D01*
X-147200Y19700D02*
X-145779Y21121D01*
X-143720D01*
X-147900Y8400D02*
X-147500Y8800D01*
Y2400D02*
X-146536Y1436D01*
X-143720D01*
X-140110Y-9847D02*
X-123685D01*
X-136300Y-13700D02*
X-134479Y-11879D01*
X-123453D01*
X-137631Y-17553D02*
X-133926Y-13847D01*
X-123453D01*
X-139353Y-8647D02*
X-129747D01*
X-131121Y-6021D02*
Y-1320D01*
X-131300Y-6200D02*
X-131121Y-6021D01*
X-135100Y-6400D02*
X-133090Y-4390D01*
X-138594Y-13700D02*
X-136300D01*
X-129153Y-8053D02*
Y-1320D01*
X-129747Y-8647D02*
X-129153Y-8053D01*
X-95439Y17839D02*
X-94800Y17200D01*
X-92400D01*
X-95439Y17839D02*
Y21939D01*
X-140450Y-4250D02*
X-139250D01*
X-140964Y-3736D02*
X-140450Y-4250D01*
X-139250D02*
X-138300Y-5200D01*
X-140964Y-3736D02*
Y-1320D01*
X-111784Y-12216D02*
X-102284D01*
X-112584Y-13416D02*
X-103984D01*
X-113484Y-14616D02*
X-104914D01*
X-106684Y-15816D02*
X-101000Y-21500D01*
X-117547Y-15816D02*
X-106684D01*
X-114385Y-9615D02*
X-111784Y-12216D01*
X-114121Y-11879D02*
X-112584Y-13416D01*
X-114253Y-13847D02*
X-113484Y-14616D01*
X-104914D02*
X-98800Y-20730D01*
X-103984Y-13416D02*
X-96250Y-21150D01*
X-117547Y-9615D02*
X-114385D01*
X-117547Y-11879D02*
X-114121D01*
X-133090Y-4390D02*
Y-1320D01*
X-123685Y-9847D02*
X-123453Y-9615D01*
X-140563Y-10300D02*
X-140110Y-9847D01*
X-141400Y-6600D02*
X-139353Y-8647D01*
X-141400Y-6600D02*
X-141100D01*
X-82350Y-9850D02*
Y-7400D01*
X-10819Y-59981D02*
X-10719D01*
X-6700Y-64000D01*
X-15029Y-59981D02*
X-10819D01*
X-43700Y-75700D02*
X-41950Y-73950D01*
X-43700Y-78400D02*
Y-75700D01*
X-41950Y-73950D02*
Y-16550D01*
X-9100Y-90450D02*
Y-75200D01*
X-34900Y-2600D02*
X-34700Y-2400D01*
X-19900D01*
X-17609D01*
X-22500D02*
X-19900D01*
X-117547Y-26153D02*
X-116500Y-27200D01*
X-111300D01*
X-117547Y-26153D02*
Y-23985D01*
X-111420Y-33850D02*
X-109050D01*
X-114600Y-33100D02*
X-112170D01*
X-111420Y-33850D01*
X-115722Y-43450D02*
X-111250D01*
X-112120Y-39750D02*
X-109050D01*
X-112686Y-39184D02*
X-112120Y-39750D01*
X-115957Y-39184D02*
X-112686D01*
X-28600Y3000D02*
X-25619Y19D01*
X-111916Y-17784D02*
X-106600Y-23100D01*
X-117547Y-17784D02*
X-111916D01*
X-113247Y-19753D02*
X-110000Y-23000D01*
X-117547Y-19753D02*
X-113247D01*
X-114679Y-21721D02*
X-113600Y-22800D01*
Y-25100D02*
Y-22800D01*
X-117547Y-21721D02*
X-114679D01*
X-99150Y-15350D02*
X-86940D01*
X-102284Y-12216D02*
X-99150Y-15350D01*
X-86940D02*
X-84790Y-17500D01*
X-96250Y-21150D02*
X-95900Y-21500D01*
X-96250Y-21150D02*
X-95700Y-21700D01*
Y-23600D02*
Y-21700D01*
X-98800Y-20800D02*
Y-20730D01*
Y-23600D02*
Y-20800D01*
X-117547Y-13847D02*
X-114253D01*
X-151000Y-27600D02*
X-144100D01*
X-134284Y-17784D01*
X-123453D01*
X-134197Y-15816D02*
X-123453D01*
X-137134Y-18753D02*
X-134197Y-15816D01*
X-137650Y-17553D02*
X-137631D01*
X-143397Y-23300D02*
X-137650Y-17553D01*
X-144400Y-26000D02*
X-137153Y-18753D01*
X-148700Y-23300D02*
X-143397D01*
X-149500Y-26000D02*
X-144400D01*
X-137153Y-18753D02*
X-137134D01*
X-140563Y-13700D02*
Y-10300D01*
X-150406Y-21595D02*
Y-13700D01*
Y-21595D02*
X-148700Y-23300D01*
X-162216Y-13700D02*
Y-8917D01*
X-73000Y-4500D02*
X-69000D01*
X-68218Y-3718D01*
Y-821D01*
X-74000Y-3500D02*
X-73000Y-4500D01*
X-87750Y-3500D02*
X-74000D01*
X-89900Y403D02*
Y10600D01*
X-88700Y900D02*
Y8400D01*
Y900D02*
X-87500Y-300D01*
X-162900Y-31450D02*
X-156750Y-37600D01*
X-154342Y-21158D02*
X-149500Y-26000D01*
X-155543Y-23057D02*
X-151000Y-27600D01*
X-155543Y-23057D02*
Y-17888D01*
X-154342Y-21158D02*
Y-13700D01*
X-131902Y-24330D02*
X-123798D01*
X-131902Y-22361D02*
X-128200D01*
X-179933Y-13700D02*
Y-7983D01*
X-178200Y-6250D01*
X-183779Y-13609D02*
Y-8779D01*
X-181300Y-6300D01*
X-183870Y-13700D02*
X-183779Y-13609D01*
X-126298Y-19753D02*
X-123453D01*
X-126938Y-20393D02*
X-126298Y-19753D01*
X-127950Y-20393D02*
X-126938D01*
X-56000Y62600D02*
X-55900Y62500D01*
X-52750D01*
X-52750Y62500D02*
X-52750Y62500D01*
X-52750Y62500D02*
Y67250D01*
X-51816Y68184D01*
X-48483D01*
X-89900Y10600D02*
X-83400Y17100D01*
X-92250Y11400D02*
X-90359Y13291D01*
X-92250Y5150D02*
Y11400D01*
X-90359Y13291D02*
Y20609D01*
X-97500Y86500D02*
X-94500Y83500D01*
X-105700Y86500D02*
X-97500D01*
X-105000Y69850D02*
X-104950Y69900D01*
X-105000Y61850D02*
Y64900D01*
Y59330D02*
Y61850D01*
X-54866Y102684D02*
X-48383D01*
X-56650Y100900D02*
X-54866Y102684D01*
X-107100Y58700D02*
Y67500D01*
Y58700D02*
X-102641Y54241D01*
X-111500Y58700D02*
Y67600D01*
Y58700D02*
X-106600Y53800D01*
Y48729D02*
Y53800D01*
X-119198Y48729D02*
Y68802D01*
X-100700Y31850D02*
X-99500Y33050D01*
X-21624Y43424D02*
X-20029Y45019D01*
X-31794Y43424D02*
X-21624D01*
X-33850Y45480D02*
Y49200D01*
Y45480D02*
X-31794Y43424D01*
X-31700Y46300D02*
X-23748D01*
X-26869Y30019D02*
X-20029D01*
X-29400Y32550D02*
X-26869Y30019D01*
X-44484Y102684D02*
X-43850Y102050D01*
X-48383Y102684D02*
X-44484D01*
X-41600Y57550D02*
X-26950D01*
X-46650Y62600D02*
X-41600Y57550D01*
X-41550Y74450D02*
X-41500Y74500D01*
Y77850D01*
X-58700Y58675D02*
X-58641Y58734D01*
X-58700Y55850D02*
Y58675D01*
X-59250Y55300D02*
X-58700Y55850D01*
X-62350Y55300D02*
X-59250D01*
X-62350D02*
X-59700D01*
X-76100D02*
X-62350D01*
X-55400Y54100D02*
X-54450Y53150D01*
X-59900Y54100D02*
X-55400D01*
X-109100Y109503D02*
X-103351Y103754D01*
X-107900Y110000D02*
X-101712Y103812D01*
X-106700Y110500D02*
X-103161Y106961D01*
X-106700Y110500D02*
Y115500D01*
X-103161Y106961D02*
X-97839D01*
X-107900Y110000D02*
Y113700D01*
X-111700Y105300D02*
X-110650Y104250D01*
X-108550D01*
X-106501Y102201D01*
Y98300D02*
Y102201D01*
X-111700Y114300D02*
X-109100Y111700D01*
Y109503D02*
Y111700D01*
X-101712Y103812D02*
X-97839D01*
X-111600Y117400D02*
X-107900Y113700D01*
X-140002Y88798D02*
Y103202D01*
X-103351Y98300D02*
Y103754D01*
X-110150Y103050D02*
X-109650Y102550D01*
Y98300D02*
Y102550D01*
X-41450Y109200D02*
X-41400Y109250D01*
Y112350D01*
X-102450Y136900D02*
X-97550Y132000D01*
X-105600Y136900D02*
X-102450D01*
X-127950Y-20393D02*
X-127407D01*
X-131902D02*
X-127950D01*
X-126911Y-22361D02*
X-126271Y-21721D01*
X-123453D01*
X-128200Y-22361D02*
X-126911D01*
X-128200D02*
X-127539D01*
X-123798Y-24330D02*
X-123453Y-23985D01*
X-115957Y-29347D02*
X-113100D01*
X-116900Y-33100D02*
X-114600D01*
X-117047Y-33247D02*
X-116900Y-33100D01*
X-113750Y-37650D02*
X-111250D01*
X-114100Y-37300D02*
X-113750Y-37650D01*
X-115872Y-37300D02*
X-114100D01*
X-111250D02*
X-110900D01*
X-115957Y-35247D02*
X-113100D01*
X-116057Y-43116D02*
X-115722Y-43450D01*
X-109050Y-39750D02*
X-108600Y-39300D01*
X-111250Y-43450D02*
X-111000Y-43200D01*
X-2360Y-22760D02*
X-29Y-20429D01*
X-2360Y-22984D02*
Y-22760D01*
X-115957Y-41147D02*
X-113200D01*
X-115407Y-49847D02*
X-112550D01*
X-115407Y-55747D02*
X-112550D01*
X-111920Y-59000D02*
X-111120Y-59800D01*
X-113550Y-59000D02*
X-111920D01*
X-114234Y-59684D02*
X-113550Y-59000D01*
X-115407Y-59684D02*
X-114234D01*
X-111120Y-59800D02*
X-108050D01*
X-115407Y-61647D02*
X-112650D01*
X-128263Y-61763D02*
X-126153Y-59653D01*
X-122153D01*
X-126221Y-61621D02*
X-122153D01*
X-128363Y-63763D02*
X-126221Y-61621D01*
X-131802Y-63763D02*
X-128363D01*
X-127263Y-65663D02*
X-125485Y-63885D01*
X-131902Y-65663D02*
X-127263D01*
X-125485Y-63885D02*
X-122153D01*
X-128263Y-59763D02*
X-126321Y-57821D01*
X-131902Y-59763D02*
X-128263D01*
X-126321Y-57821D02*
X-123568D01*
X-131902Y-61763D02*
X-128263D01*
X-114015Y-85785D02*
X-113950Y-85850D01*
X-125635Y-85785D02*
X-123053D01*
X-127350Y-87500D02*
X-125635Y-85785D01*
X-142588Y-87500D02*
X-127350D01*
X-123053Y-83558D02*
X-121669D01*
X-123053Y-81590D02*
X-121669D01*
X-123053Y-79621D02*
X-121669D01*
X-146468Y-80226D02*
X-141694Y-85000D01*
X-148437Y-79954D02*
X-142091Y-86300D01*
X-150406Y-79683D02*
X-142588Y-87500D01*
X-123053Y-77653D02*
X-121669D01*
X-144500Y-80497D02*
X-141197Y-83800D01*
X-123053Y-75684D02*
X-121669D01*
X-125247Y-75647D02*
X-123053D01*
X-123316Y-73716D02*
X-121669D01*
X-178700Y96200D02*
X-176500Y94000D01*
Y83800D02*
Y94000D01*
X-182300Y99800D02*
X-178700Y96200D01*
X-203000Y56530D02*
X-201880Y55410D01*
Y52380D02*
Y55410D01*
X-203000Y56530D02*
Y67970D01*
X-199320Y55821D02*
Y62679D01*
Y55821D02*
X-199200Y55941D01*
X-199320Y62679D02*
X-198000Y64000D01*
Y67970D01*
X-213320Y48820D02*
Y59200D01*
X-216920Y62800D02*
X-213320Y59200D01*
X-219700Y62800D02*
X-216920D01*
X-220500Y63600D02*
X-219700Y62800D01*
X-220500Y63600D02*
Y67770D01*
X-218000Y61100D02*
X-215880Y58979D01*
X-223900Y61100D02*
X-218000D01*
X-225500Y62700D02*
Y67770D01*
Y62700D02*
X-223900Y61100D01*
X-215880Y47280D02*
Y58979D01*
X4971Y55019D02*
X7500D01*
X8119Y75019D02*
X9800Y76700D01*
X4971Y75019D02*
X8119D01*
X-93261Y106961D02*
X-92100Y105800D01*
X-97839Y106961D02*
X-93261D01*
X-92100Y101500D02*
Y105800D01*
X-98700Y94900D02*
X-92100Y101500D01*
X-212100Y-75700D02*
X-208900D01*
X-207300Y-74100D01*
X-28600Y2900D02*
Y3000D01*
X-115422Y-63700D02*
X-110450D01*
X-22500Y-12600D02*
Y-12452D01*
X-20029Y-9981D01*
X-17748Y-12700D02*
X-17500D01*
X-20029Y-14981D02*
X-17748Y-12700D01*
X-20748Y-10700D02*
X-20029Y-9981D01*
X-127300Y-99400D02*
Y-92050D01*
X-127250Y-92000D01*
X-127350Y-92100D02*
X-127300Y-92050D01*
Y-99400D02*
X-126180Y-100521D01*
X-120939D01*
X-170500Y107000D02*
X-169000Y108500D01*
X-173500Y107000D02*
X-170500D01*
X-174148Y106352D02*
X-173500Y107000D01*
X-177871Y106352D02*
X-174148D01*
X-111700Y120500D02*
X-106700Y115500D01*
X-94500Y83500D02*
X-92000D01*
X-91900Y83400D01*
X-82350Y-7400D02*
X-77950D01*
X-82650D02*
X-82350D01*
X-78150Y-7200D02*
X-77950Y-7400D01*
X2500Y32548D02*
X4971Y35019D01*
X-23500Y32500D02*
X-12500D01*
X-15029Y30019D02*
X-8519D01*
X-8500Y30000D01*
X-12500Y32500D02*
X-9981Y35019D01*
X-33321Y13000D02*
X-32500Y12179D01*
X-37500Y13000D02*
X-33321D01*
X-32500Y12179D02*
X-17189D01*
X-15029Y10019D01*
X-20029Y20019D02*
X-17510Y17500D01*
X-2500Y27490D02*
X-29Y25019D01*
X-9981Y35019D02*
X-29D01*
X-88700Y8400D02*
X-86600Y10500D01*
X-89900Y403D02*
X-87997Y-1500D01*
X-71457D01*
X-87500Y-300D02*
X-75800D01*
X-71457Y-1500D02*
X-70777Y-821D01*
X-75800Y-300D02*
X-74321Y1180D01*
Y2723D01*
X-71900Y25600D02*
X-70777Y24477D01*
X-73400Y25600D02*
X-71900D01*
X-70777Y21621D02*
Y24477D01*
X-68218Y25482D02*
X-68200Y25500D01*
X-68218Y21621D02*
Y25482D01*
X-65659Y27141D02*
X-65600Y27200D01*
X-65659Y21621D02*
Y27141D01*
X-63100Y21621D02*
Y43741D01*
X-63759Y44400D02*
X-63100Y43741D01*
X-63759Y44400D02*
Y50466D01*
X-61200Y26300D02*
Y50466D01*
Y26300D02*
X-59900Y25000D01*
X-54000D01*
X-44500Y15500D01*
Y-5000D02*
Y15500D01*
X-82500Y7500D02*
X-79600Y10400D01*
X-74321D01*
X-74420Y10500D02*
X-74321Y10400D01*
X-206000Y-80000D02*
X-204600Y-81400D01*
Y-87900D02*
Y-81400D01*
X-208850Y-80000D02*
X-206000D01*
X-65659Y-5659D02*
Y-821D01*
X-67400Y-7400D02*
X-65659Y-5659D01*
X-71650Y-7400D02*
X-67400D01*
X-54500Y-5000D02*
X-44500D01*
Y-14000D02*
Y-5000D01*
X-55423Y-4077D02*
X-54500Y-5000D01*
X-55423Y-4077D02*
Y-821D01*
X-49341Y7841D02*
X-48000Y6500D01*
Y1000D02*
Y6500D01*
X-51880Y7841D02*
X-49341D01*
X-82350Y-7200D02*
X-81450Y-8100D01*
X-84000Y-11500D02*
X-82350Y-9850D01*
X-24500Y15000D02*
X-24481Y15019D01*
X-20029D01*
X-10000Y6500D02*
X-6603D01*
X-603Y12500D01*
X-17000Y2100D02*
X-15029Y129D01*
X2500Y37500D02*
X4971Y39971D01*
Y40019D01*
X-21900Y-27300D02*
X-20029Y-25429D01*
X-144100Y-108200D02*
X-142114Y-106214D01*
X-144100Y-118700D02*
Y-108200D01*
X-145100Y-119700D02*
X-144100Y-118700D01*
X-208272Y-92840D02*
Y-89228D01*
X-208500Y-102500D02*
X-208272Y-102728D01*
Y-105940D02*
Y-102728D01*
Y-92840D02*
Y-90272D01*
X-8019Y25019D02*
X-5500Y22500D01*
X-15029Y25019D02*
X-8019D01*
X2452Y7500D02*
X6500D01*
X-29Y5019D02*
X2452Y7500D01*
X6500D02*
X12000D01*
X2500Y17500D02*
Y17548D01*
X4971Y20019D01*
X-603Y12500D02*
X2452D01*
X4971Y15019D01*
X-2500Y7548D02*
X-29Y10019D01*
X-2500Y7500D02*
Y7548D01*
X-22148Y2900D02*
X-20029Y5019D01*
X-24300Y2900D02*
X-22148D01*
X-15029Y19D02*
Y129D01*
X-15019Y15019D02*
X-12500Y12500D01*
X-15029Y15019D02*
X-15019D01*
X-197100Y-71200D02*
Y-66200D01*
X-196569Y-65668D02*
X-192532D01*
X-197100Y-66200D02*
X-196569Y-65668D01*
X-117900Y70100D02*
Y72900D01*
X-119198Y68802D02*
X-117900Y70100D01*
X-165950Y42400D02*
X-162000D01*
X-182400Y-18800D02*
X-182000D01*
X-179400Y-18900D02*
X-177965Y-17465D01*
Y-13700D01*
X-182000Y-18800D02*
X-181902Y-18702D01*
Y-13700D01*
X-148097Y27027D02*
X-143720D01*
X-153500Y32430D02*
X-148097Y27027D01*
X-228907Y28700D02*
X-223000D01*
X-221000Y26700D01*
X-156311Y-17119D02*
X-155543Y-17888D01*
X-154342Y-19300D02*
Y-13700D01*
X-156311Y-17119D02*
Y-13700D01*
Y-54611D02*
X-152000Y-50300D01*
X-139900D01*
X-17609Y-2400D02*
X-15029Y-4981D01*
X-150406Y-18406D02*
Y-13700D01*
X-154500Y-13858D02*
X-154342Y-13700D01*
X-147095Y28995D02*
X-143720D01*
X-150500Y32400D02*
X-147095Y28995D01*
X-143720Y21121D02*
X-143541Y21300D01*
X-123753Y-71747D02*
X-121669D01*
X-127863Y-67637D02*
X-123753Y-71747D01*
X-131902Y-67637D02*
X-127863D01*
X-140700Y-79200D02*
X-138800Y-81100D01*
X-142532Y-80168D02*
Y-74330D01*
X-140700Y-74467D02*
X-140563Y-74330D01*
X-140700Y-79200D02*
Y-74467D01*
X-61200Y52800D02*
X-59900Y54100D01*
X-61200Y50466D02*
Y52800D01*
X-76500Y55700D02*
X-76318Y55518D01*
X-76100Y55300D01*
X-54450Y50500D02*
Y53150D01*
X-63993Y50700D02*
X-63759Y50466D01*
X-67950Y50700D02*
X-63993D01*
X-148400Y86800D02*
X-147100Y85500D01*
X-152700Y86800D02*
X-148400D01*
X-23748Y46300D02*
X-20029Y50019D01*
X-106600Y85600D02*
X-105700Y86500D01*
X-106600Y81800D02*
Y85600D01*
X-166300Y42050D02*
X-165950Y42400D01*
X-166300Y33000D02*
Y42050D01*
X-168253Y31047D02*
X-166300Y33000D01*
X-172330Y31047D02*
X-168253D01*
X-162200Y17250D02*
X-162050Y17101D01*
Y11500D02*
Y17101D01*
X-115400Y30500D02*
X-115373Y30527D01*
X-198300Y28700D02*
X-192293D01*
X-205900Y23900D02*
X-205700Y23700D01*
X-192293D01*
X-203200Y13600D02*
X-203100Y13700D01*
X-192293D01*
X-200500Y9000D02*
X-200200Y8700D01*
X-192293D01*
X-187400Y58700D02*
X-184900Y56200D01*
Y54600D02*
Y56200D01*
X-192293Y58700D02*
X-187400D01*
X-228907Y3700D02*
X-222700D01*
X-228907Y13700D02*
X-222800D01*
X-228907Y18700D02*
X-223000D01*
X-200600Y33700D02*
X-192293D01*
X-202300D02*
X-200600D01*
Y38700D02*
X-192293D01*
X-203200D02*
X-200600D01*
X-199320Y55821D02*
X-197200Y53700D01*
X-192293D01*
X-201880Y52380D02*
X-198200Y48700D01*
X-192293D01*
X-213320Y48820D02*
X-203200Y38700D01*
X-215880Y47280D02*
X-202300Y33700D01*
X-137900Y100400D02*
X-134300D01*
X-137900D02*
Y104070D01*
Y88900D02*
Y100400D01*
X-134300D02*
X-131600D01*
X-135370D02*
X-134300D01*
X-143600Y85200D02*
X-140002Y88798D01*
X-141500Y85300D02*
X-137900Y88900D01*
X-182300Y99800D02*
Y105600D01*
X-151900Y53730D02*
Y75400D01*
X-159800Y70800D02*
X-153561Y64561D01*
Y48891D02*
Y64561D01*
X-144800Y103202D02*
X-140002D01*
X-140182Y106352D02*
X-137900Y104070D01*
X-144800Y106352D02*
X-140182D01*
X-137900Y102930D02*
Y104070D01*
X-140002Y103202D02*
X-140000Y103200D01*
X-141500Y81500D02*
Y85300D01*
X-151900Y75400D02*
X-150300Y77000D01*
X-151900Y53730D02*
X-150412Y52242D01*
Y48891D02*
Y52242D01*
X-153561Y85939D02*
X-152700Y86800D01*
X-153561Y81961D02*
Y85939D01*
X-169309Y48891D02*
Y55100D01*
X-149598Y54402D02*
X-144900D01*
X-149600Y57600D02*
X-144948D01*
X-144900Y57552D01*
Y73300D02*
Y76450D01*
X-165800Y70800D02*
X-159800D01*
X-165600Y65200D02*
X-161100D01*
X-156711Y60811D01*
Y48891D02*
Y60811D01*
X-164500Y59900D02*
X-160400D01*
X-159861Y59361D01*
Y48891D02*
Y59361D01*
X-165700Y61100D02*
X-164500Y59900D01*
X-166200Y57900D02*
X-166160Y57860D01*
Y48891D02*
Y57860D01*
X-172459Y54441D02*
X-172400Y54500D01*
X-172459Y48891D02*
Y54441D01*
X-182300Y105600D02*
X-181548Y106352D01*
X-177871D01*
X-172359Y91700D02*
Y97690D01*
X-166060Y92300D02*
Y97690D01*
X-159800Y92100D02*
X-159761Y92139D01*
X-156611Y92800D02*
Y97690D01*
X-159761Y92139D02*
Y97690D01*
X-157000Y97302D02*
X-156611Y97690D01*
X-153600Y92100D02*
X-153461Y92239D01*
X-150312Y89012D02*
X-150300Y89000D01*
X-150312Y89012D02*
Y97690D01*
X-150300Y97702D02*
Y104400D01*
X-150312Y97690D02*
X-150300Y97702D01*
X-153500Y97729D02*
Y104400D01*
Y97729D02*
X-153461Y97690D01*
X-156600Y97702D02*
Y104400D01*
X-156611Y97690D02*
X-156600Y97702D01*
X-159800Y97730D02*
Y104500D01*
Y97730D02*
X-159761Y97690D01*
X-119200Y92600D02*
X-119099Y92701D01*
X-166100Y97731D02*
Y104600D01*
Y97731D02*
X-166060Y97690D01*
X-169209D02*
Y104591D01*
X-169200Y104600D01*
X-172359Y97690D02*
Y104641D01*
X-172300Y104700D01*
X-169209Y92809D02*
Y97690D01*
X-153461Y92239D02*
Y97690D01*
X-115800Y58500D02*
Y67600D01*
X-105000Y59330D02*
X-103060Y57390D01*
X-97939D01*
X-102641Y54241D02*
X-97939D01*
X-109400Y58900D02*
Y65300D01*
Y58900D02*
X-103450Y52950D01*
X-113700Y58500D02*
Y65200D01*
Y58500D02*
X-109750Y54550D01*
X-115800Y58500D02*
X-112899Y55599D01*
X-127700Y88400D02*
Y101400D01*
X-129500Y86600D02*
X-127700Y88400D01*
Y101400D02*
X-125600Y103500D01*
Y106900D01*
X-125398Y88998D02*
Y98300D01*
X-122300Y88900D02*
X-122249Y88951D01*
Y98300D01*
X-115407Y-51816D02*
X-115322Y-51900D01*
X-115507Y-63616D02*
X-115422Y-63700D01*
X-115407Y-57716D02*
X-115322Y-57800D01*
X-131902Y-55826D02*
X-123595D01*
X-123568Y-55853D01*
X-123595Y-53857D02*
X-123568Y-53884D01*
X-131902Y-53857D02*
X-123595D01*
X-131891Y-51900D02*
X-123584D01*
X-131902Y-51889D02*
X-131891Y-51900D01*
X-123584D02*
X-123568Y-51916D01*
X-123595Y-49920D02*
X-123568Y-49947D01*
X-131902Y-49920D02*
X-123595D01*
X-126000Y-43700D02*
X-125427Y-43127D01*
X-126000Y-46900D02*
Y-43700D01*
X-127052Y-47952D02*
X-126000Y-46900D01*
X-125427Y-43127D02*
X-123568D01*
X-131902Y-47952D02*
X-127052D01*
X-127300Y-42000D02*
X-126458Y-41158D01*
X-127300Y-45400D02*
Y-42000D01*
X-126458Y-41158D02*
X-123568D01*
X-127884Y-45983D02*
X-127300Y-45400D01*
X-131902Y-45983D02*
X-127884D01*
X-123568Y-37221D02*
X-123521Y-37268D01*
X-131854Y-36188D02*
X-128086D01*
X-127053Y-37221D01*
X-123568D01*
X-131854Y-38157D02*
X-128017D01*
X-126937Y-39237D02*
X-123521D01*
X-128017Y-38157D02*
X-126937Y-39237D01*
X-123568Y-33284D02*
X-123521Y-33332D01*
X-131854Y-32251D02*
X-128086D01*
X-127053Y-33284D01*
X-123568D01*
X-131854Y-34220D02*
X-128017D01*
X-126937Y-35300D02*
X-123521D01*
X-128017Y-34220D02*
X-126937Y-35300D01*
X-128065Y-30235D02*
X-126984Y-31316D01*
X-123568D01*
X-131902Y-30235D02*
X-128065D01*
X-127100Y-29300D02*
X-123616D01*
X-128133Y-28267D02*
X-127100Y-29300D01*
X-131902Y-28267D02*
X-128133D01*
X-123616Y-29300D02*
X-123568Y-29347D01*
X-153461Y135239D02*
X-149650Y139050D01*
X-106500Y136000D02*
X-105600Y136900D01*
X-106500Y131372D02*
Y136000D01*
X-153461Y130761D02*
Y135239D01*
X-121500Y102900D02*
Y106700D01*
X-122249Y102151D02*
X-121500Y102900D01*
X-122249Y98300D02*
Y102151D01*
X-123500Y103700D02*
Y109300D01*
X-125398Y101802D02*
X-123500Y103700D01*
X-119100Y98301D02*
Y109200D01*
X-125398Y98300D02*
Y101802D01*
X-119099Y92701D02*
Y98300D01*
X-112800Y92400D02*
Y98300D01*
X-109700Y92200D02*
X-109650Y92250D01*
Y98300D01*
X-125361Y73139D02*
X-125200Y73300D01*
X-126909Y57390D02*
X-125600Y58700D01*
X-131009Y57390D02*
X-126909D01*
X-125498Y55702D02*
X-121300Y59900D01*
X-125498Y48729D02*
Y55702D01*
X-122348Y55452D02*
X-121300Y56500D01*
X-122348Y48729D02*
Y55452D01*
X-112899Y48729D02*
Y55599D01*
X-109750Y48729D02*
Y54550D01*
X-103400Y89500D02*
X-103351Y89549D01*
Y98300D01*
X-103450Y48729D02*
Y52950D01*
X-20029Y35171D02*
X-17300Y37900D01*
X-12600Y42448D02*
Y42600D01*
X-15029Y40019D02*
X-12600Y42448D01*
X-20029Y80019D02*
X-17748Y82300D01*
X-20029Y64729D02*
X-17600Y62300D01*
X-20029Y64729D02*
Y65019D01*
Y59729D02*
X-17600Y57300D01*
X-20029Y59729D02*
Y60019D01*
X-15029Y59729D02*
X-12600Y57300D01*
X-15029Y59729D02*
Y60019D01*
X-98700Y89500D02*
Y94900D01*
X-98900Y89300D02*
X-98700Y89500D01*
X-100800Y95543D02*
X-97839Y98504D01*
X-100800Y91700D02*
Y95543D01*
X-97839Y98504D02*
Y103812D01*
X-2700Y77600D02*
X-281Y80019D01*
X-29D01*
X-15281Y60019D02*
X-15029D01*
X-106501Y91501D02*
Y98300D01*
Y131371D02*
X-106500Y131372D01*
X-112800Y98300D02*
Y102300D01*
X-117000Y106500D02*
X-112800Y102300D01*
X-121500Y106700D02*
X-121400Y106800D01*
X-130910Y106961D02*
X-125661D01*
X-181900Y-92800D02*
Y-90600D01*
X-178150Y60881D02*
X-177971Y60702D01*
Y57552D02*
X-172948D01*
X-156600Y48200D02*
X-156400Y48000D01*
X4971Y-39981D02*
X7471Y-42481D01*
X-2529Y-47481D02*
X-29Y-49981D01*
X-2529Y-52481D02*
X-29Y-54981D01*
X-15029Y-30171D02*
Y-29981D01*
X-20029Y-25429D02*
Y-24981D01*
X-29Y-20429D02*
Y-19981D01*
X-20310Y-29700D02*
X-20029Y-29981D01*
X-29Y-10229D02*
Y-9981D01*
X-20109Y-14900D02*
X-20029Y-14981D01*
X-2400Y-12000D02*
X-2048D01*
X-29Y-9981D01*
X-2200Y-7500D02*
X-29Y-5329D01*
Y-4981D01*
X2900Y-7052D02*
X4971Y-4981D01*
X2900Y-7100D02*
Y-7052D01*
X2600Y-2352D02*
X4971Y19D01*
X-20029Y19D02*
X-20029Y19D01*
X-14781Y75019D02*
X-12600Y77200D01*
X-15029Y75019D02*
X-14781D01*
X-20029Y65019D02*
Y65020D01*
Y60019D02*
Y60019D01*
X-147059Y54402D02*
X-144900D01*
X-15029Y100019D02*
X-10881D01*
X-20150Y-111850D02*
X-15500Y-116500D01*
X-175996Y-13700D02*
Y-9847D01*
X-173150Y-7000D01*
X-185839Y-13700D02*
Y-6812D01*
X-186450Y-6200D02*
X-185839Y-6812D01*
X-154342Y-17658D02*
Y-13700D01*
X-156311Y-74330D02*
Y-54611D01*
X-158280Y-79180D02*
Y-74330D01*
X-160248D02*
Y-69952D01*
X-162216Y-79084D02*
Y-74330D01*
Y-79084D02*
X-162100Y-79200D01*
X-162000Y-68200D02*
X-160248Y-69952D01*
X-166154Y-79246D02*
Y-74330D01*
X-174028Y-79372D02*
Y-74330D01*
Y-79372D02*
X-174000Y-79400D01*
X-179933Y-74330D02*
Y-69633D01*
X-115322Y-57800D02*
X-110350D01*
X-95200Y-49000D02*
X-91750D01*
X-94850Y-27350D02*
X-90900D01*
X-51050Y-83200D02*
X-45650D01*
X-42870Y-85979D01*
Y-88300D02*
Y-85979D01*
X-69900Y-88300D02*
X-64130D01*
X-235034Y-38700D02*
X-231300D01*
X-230600Y-39400D01*
X-236361Y-52179D02*
X-230700D01*
X-230600Y-50800D02*
Y-50200D01*
Y-39400D01*
Y-52079D02*
Y-50200D01*
X-230700Y-52179D02*
X-230600Y-52079D01*
X-217700Y-101828D02*
X-217328Y-102200D01*
X-217700Y-101828D02*
Y-98600D01*
X-217500Y-89272D02*
X-217328Y-89100D01*
X-217500Y-92100D02*
Y-89272D01*
X-144500Y-80497D02*
Y-74330D01*
X-146468Y-80226D02*
Y-74330D01*
X-148437Y-79954D02*
Y-74330D01*
X-142532Y-80168D02*
X-140200Y-82500D01*
X-150406Y-79683D02*
Y-74330D01*
X-140672Y-117940D02*
X-132991D01*
X-127200Y-115000D02*
X-126400Y-114200D01*
Y-111457D01*
X-126300Y-111357D01*
X-130050Y-115000D02*
X-127200D01*
X-132991Y-117940D02*
X-132800Y-117750D01*
X-130050Y-115000D01*
X-138261Y-97961D02*
Y-95461D01*
X-137000Y-94200D01*
X-115322Y-51900D02*
X-110350D01*
X-115407Y-53784D02*
X-114234D01*
X-113550Y-53100D01*
X-111920D01*
X-111120Y-53900D01*
X-108050D01*
X-181902Y-80002D02*
Y-74330D01*
X-138261Y-103079D02*
X-132100D01*
X-128100Y-109557D02*
X-126300Y-111357D01*
X-132100Y-103079D02*
X-128100Y-107080D01*
Y-109557D02*
Y-107080D01*
X-137870Y-92100D02*
X-127350D01*
X-142114Y-96344D02*
X-137870Y-92100D01*
X-142114Y-106214D02*
Y-96344D01*
X-145100Y-123200D02*
Y-119700D01*
X-226766Y-41259D02*
Y-39366D01*
X-221600Y-38200D02*
X-221100Y-37700D01*
X-226766Y-39366D02*
X-225600Y-38200D01*
X-221600D01*
X-221100Y-37700D02*
Y-35350D01*
X-221400Y-35050D02*
X-221100Y-35350D01*
X-230700Y-52179D02*
X-230351D01*
X-229700Y-55800D02*
X-227269Y-58232D01*
Y-62994D02*
Y-58232D01*
X-230351Y-52179D02*
X-225300Y-57230D01*
X-225100Y-45050D02*
X-221400Y-41350D01*
X-225100Y-55200D02*
X-221600Y-58700D01*
X-225100Y-55200D02*
Y-45050D01*
X-15029Y-64981D02*
X-11819D01*
X-9100Y-67700D01*
Y-81700D02*
Y-75200D01*
Y-67700D01*
X-229237Y-79063D02*
Y-74805D01*
X-225600Y-82700D02*
X-219100D01*
X-229237Y-79063D02*
X-225600Y-82700D01*
X-158280Y-81520D02*
X-158100Y-81700D01*
X-158300Y-79200D02*
X-158280Y-79180D01*
Y-81520D02*
Y-79180D01*
X-111970Y-75700D02*
X-108900D01*
X-112770Y-74900D02*
X-111970Y-75700D01*
X-114400Y-74900D02*
X-112770D01*
X-115084Y-75584D02*
X-114400Y-74900D01*
X-116257Y-75584D02*
X-115084D01*
X-116257Y-79516D02*
X-116172Y-79600D01*
X-116257Y-73616D02*
X-116172Y-73700D01*
X-116147Y-81600D02*
X-108900D01*
X-116157Y-81590D02*
X-116147Y-81600D01*
X-116157Y-83558D02*
X-116098Y-83500D01*
X-116157Y-77547D02*
X-113400D01*
X-20029Y-39981D02*
X-20029D01*
X-17529Y-42481D01*
X-116172Y-73700D02*
X-111200D01*
X-150500Y32400D02*
Y32900D01*
X-116172Y-79600D02*
X-111200D01*
X-98350Y-27350D02*
X-90900D01*
X-99800Y-44400D02*
X-95200Y-49000D01*
X-99800Y-28800D02*
X-98350Y-27350D01*
X-99800Y-44400D02*
Y-28800D01*
X-115872Y-31400D02*
X-110900D01*
X-115957Y-37216D02*
X-115872Y-37300D01*
X-115957Y-31316D02*
X-115872Y-31400D01*
X-23700Y-29700D02*
X-20310D01*
X4971Y-24981D02*
Y-24771D01*
X2600Y-22400D02*
X4971Y-24771D01*
X-29Y-24981D02*
X81D01*
X2600Y-27500D01*
X-15029Y-29981D02*
X-15019D01*
X-15029D02*
X-12210Y-32800D01*
X-12200D01*
X-15029Y-14981D02*
Y-14929D01*
X-12600Y-12500D01*
X-15029Y-19981D02*
Y-19929D01*
X-12600Y-17500D01*
Y-17100D01*
X-25619Y19D02*
X-20029D01*
X-150250Y125250D02*
X-144800D01*
X-150500Y125000D02*
X-150250Y125250D01*
X-150500Y122500D02*
Y125000D01*
Y122500D02*
X-150100Y122100D01*
X-144800D01*
X-101641Y125859D02*
X-97839D01*
X-102500Y125000D02*
X-101641Y125859D01*
X-102500Y123500D02*
Y125000D01*
Y123500D02*
X-101500Y122500D01*
X-98049D01*
X-97839Y122709D01*
X-175996Y-74330D02*
Y-69504D01*
X-177965Y-74330D02*
X-177915Y-74280D01*
Y-70585D01*
X-176830Y-69500D01*
X-176000D01*
X-92250Y1000D02*
Y5150D01*
Y1000D02*
X-87750Y-3500D01*
X-116157Y-71647D02*
X-113400D01*
X-116098Y-83500D02*
X-110930D01*
X-110730Y-83700D01*
X-9100Y-91200D02*
Y-90450D01*
Y-92200D02*
Y-90450D01*
X-9150Y-92250D02*
X-9100Y-92200D01*
X-44500Y-14000D02*
X-41950Y-16550D01*
X-111147Y103050D02*
X-110150D01*
X-114100Y106003D02*
Y109100D01*
Y106003D02*
X-111147Y103050D01*
X-111700Y105300D02*
Y111300D01*
X-43850Y102050D02*
X-34800D01*
X-31950Y99200D01*
Y93850D02*
Y99200D01*
X-23500Y107000D02*
X-22500Y108000D01*
X-17850D01*
X-17800Y107950D01*
X-22019Y90019D02*
X-20029D01*
X-23500Y91500D02*
X-22019Y90019D01*
X-23500Y91500D02*
Y107000D01*
X-10881Y100019D02*
X-8150Y102750D01*
X-124793Y-79584D02*
X-123053D01*
X-125065Y-81553D02*
X-123053D01*
X-125336Y-83521D02*
X-123053D01*
X-128115Y-86300D02*
X-125336Y-83521D01*
X-128512Y-85000D02*
X-125065Y-81553D01*
X-129009Y-83800D02*
X-124793Y-79584D01*
X-124522Y-77616D02*
X-123053D01*
X-138800Y-81100D02*
X-129703D01*
X-140200Y-82500D02*
X-129406D01*
X-141197Y-83800D02*
X-129009D01*
X-141694Y-85000D02*
X-128512D01*
X-142091Y-86300D02*
X-128115D01*
X-129406Y-82500D02*
X-124953Y-78047D01*
X-124522Y-77616D01*
X-138594Y-77905D02*
Y-74330D01*
Y-77905D02*
X-136900Y-79600D01*
X-129900D01*
X-126700Y-76400D01*
Y-74250D01*
X-126129Y-73679D01*
X-123053D01*
X-125500Y-76897D02*
Y-75900D01*
X-125247Y-75647D01*
X-129703Y-81100D02*
X-125500Y-76897D01*
X-196857Y-20393D02*
X-192532D01*
X-199400Y-17850D02*
X-196857Y-20393D01*
X-93400Y30950D02*
X-91370Y28920D01*
X-80500Y18500D02*
X-77518Y15518D01*
X-74321D01*
X-99500Y33050D02*
X-92530D01*
X-89900Y30420D01*
X-79300Y19800D02*
X-77577Y18077D01*
X-74321D01*
X-92879Y26691D02*
X-92860Y26710D01*
X-84400Y26300D02*
X-83550D01*
X-81900Y24650D01*
Y17400D02*
Y24650D01*
Y17400D02*
X-77459Y12959D01*
X-74321D01*
X-83400Y17100D02*
Y22689D01*
X-92860Y26710D02*
X-87422D01*
X-83400Y22689D01*
X-92860Y21958D02*
Y26710D01*
X-92879Y21939D02*
X-92860Y21958D01*
X-80500Y18500D02*
Y26040D01*
X-83183Y30420D02*
X-79300Y26537D01*
X-89900Y30420D02*
X-83183D01*
X-79300Y19800D02*
Y26537D01*
X-83380Y28920D02*
X-80500Y26040D01*
X-91370Y28920D02*
X-83380D01*
X-225300Y-62994D02*
Y-60000D01*
Y-57230D01*
X-207300Y-74100D02*
Y-64100D01*
X-221600Y-58700D02*
X-212700D01*
X-207300Y-64100D01*
X7500Y55019D02*
X13000Y60519D01*
Y112200D01*
X13500Y112700D01*
Y115500D01*
X11000Y117000D02*
X13500Y119500D01*
X4971Y60019D02*
X10019D01*
X11000Y61000D01*
Y117000D01*
X13600Y130700D02*
X23000D01*
X9100Y126200D02*
X13600Y130700D01*
X20000Y131900D02*
X22200Y134100D01*
X12700Y131900D02*
X20000D01*
X7000Y126200D02*
X12700Y131900D01*
X7000Y118400D02*
Y126200D01*
Y109400D02*
Y114000D01*
Y109400D02*
X9800Y106600D01*
Y76700D02*
Y106600D01*
X7000Y114000D02*
Y114600D01*
X9100Y116700D01*
Y126200D01*
X-105000Y61850D02*
Y69850D01*
D49*
X-174600Y-22300D02*
X-173600Y-23300D01*
X-170100D01*
X-174600Y-22300D02*
Y-18100D01*
X-174028Y-17528D01*
X-111436Y-4964D02*
X-110700Y-5700D01*
X-111436Y-4964D02*
Y-1320D01*
X-113405Y-5595D02*
Y-1320D01*
X-115373Y-3627D02*
X-113405Y-5595D01*
X-113400Y-5600D01*
Y-5700D02*
Y-5600D01*
X-115373Y-3627D02*
Y-1320D01*
X-19919Y-84981D02*
X-17300Y-87600D01*
X-20029Y-84981D02*
X-19919D01*
X-17500Y7491D02*
Y7500D01*
X-146468Y-18668D02*
Y-13700D01*
X-148100Y-20300D02*
X-146468Y-18668D01*
X-144500Y-20000D02*
Y-13700D01*
X-88890Y-17660D02*
Y-17450D01*
Y-17660D02*
X-85400Y-21150D01*
X-126952Y-26298D02*
X-126750Y-26500D01*
X-131902Y-26298D02*
X-126952D01*
X-105114Y30964D02*
X-104750Y30600D01*
X-108680Y30964D02*
X-105114D01*
X-97450Y43900D02*
X-95477Y41927D01*
Y39900D02*
Y41927D01*
X-121550Y37700D02*
X-121279Y37429D01*
Y33720D02*
Y37429D01*
X-127184Y35225D02*
X-124709Y37700D01*
X-121550D01*
X-121350Y37900D01*
X-127184Y33720D02*
Y35225D01*
X-115400Y30500D02*
Y33693D01*
X-113405Y31322D02*
X-112600Y30518D01*
X-113405Y31322D02*
Y33720D01*
X-63000Y131200D02*
X-62900Y131300D01*
X-58650D01*
X-44100Y94050D02*
X-41200D01*
X-46750Y96700D02*
X-44100Y94050D01*
X-36000Y62550D02*
X-35900Y62650D01*
X-40700Y62550D02*
X-36000D01*
X-103900Y-43900D02*
X-103800Y-43800D01*
X-235200Y64900D02*
X-234500D01*
X-208000Y63400D02*
X-206900Y62300D01*
X-208000Y63400D02*
Y67970D01*
X-219850Y-78100D02*
X-216300Y-74550D01*
X-224600Y-78100D02*
X-219850D01*
X-20029Y105019D02*
X-20029D01*
X-17055Y102045D01*
X-15029Y100019D01*
X-17509Y102500D02*
X-17055Y102045D01*
X-171900Y22500D02*
X-171050Y23350D01*
X-171900Y15050D02*
Y22500D01*
X-215150Y-82450D02*
X-212200Y-85400D01*
X-215150Y-82450D02*
Y-80000D01*
X-17500Y7491D02*
X-15029Y5019D01*
X-22500Y7500D02*
Y7548D01*
X-20029Y10019D01*
X-64750Y-49900D02*
X-64000Y-50650D01*
X-60350D01*
X-60000Y-51000D01*
X-149728Y-110228D02*
X-149700Y-110200D01*
X-192600Y-71200D02*
X-192532Y-71131D01*
X-206650Y-22650D02*
X-204800Y-24500D01*
X-206650Y-22650D02*
Y-19050D01*
X-209500Y-16200D02*
X-206650Y-19050D01*
X-204800Y-24500D02*
X-201700D01*
X-197933Y-28267D01*
X-192532D01*
X-148067Y33720D02*
X-140964D01*
X-118961Y-105639D02*
X-116200Y-108400D01*
X-156140Y23090D02*
X-143720D01*
X-156400Y23350D02*
X-156140Y23090D01*
X-153100Y17000D02*
X-151316Y15216D01*
X-156350Y17000D02*
X-153100D01*
X-157700Y-19100D02*
X-157300D01*
X-103800Y-43800D02*
Y-38718D01*
X-121300Y1900D02*
X-121279Y1879D01*
X-151316Y15216D02*
X-143720D01*
X-163000Y-7000D02*
X-162900Y-6900D01*
X-140558Y25058D02*
X-140500Y25000D01*
X-143720Y19153D02*
X-140547D01*
X-87650Y43700D02*
Y47000D01*
Y40050D02*
Y43700D01*
X-161070Y36953D02*
X-159823Y38200D01*
X-87800Y39900D02*
X-87650Y40050D01*
X-156400Y11750D02*
X-156300Y11650D01*
X-156400Y11750D02*
Y17050D01*
X-162050Y17101D02*
Y17699D01*
X-167900Y17050D02*
X-167700Y17250D01*
X-162200D01*
X-162050Y5400D02*
Y11500D01*
Y17699D02*
X-156400Y23350D01*
Y17050D02*
X-156350Y17000D01*
X-168350Y5400D02*
Y11500D01*
Y-100D02*
Y5400D01*
X-171900Y15050D02*
X-168350Y11500D01*
X-171050Y23350D02*
X-167900D01*
X-111900Y11800D02*
X-111379Y11279D01*
X-108680D01*
X-111453Y-1302D02*
X-111436Y-1320D01*
X-121279D02*
Y1879D01*
X-141490Y9310D02*
X-140500Y10300D01*
X-143720Y9310D02*
X-141490D01*
X-141479Y11279D02*
X-140500Y10300D01*
X-143720Y11279D02*
X-141479D01*
X-143720Y25058D02*
X-140558D01*
X-140600Y30200D02*
X-140300D01*
X-141347Y30946D02*
X-140600Y30200D01*
X-143702Y30946D02*
X-141347D01*
X-143720Y30964D02*
X-143702Y30946D01*
X-137027Y33720D02*
Y35225D01*
X-140453Y38650D02*
X-137027Y35225D01*
X-140500Y38650D02*
X-140453D01*
X-129153Y38598D02*
X-128950Y38800D01*
X-129153Y33720D02*
Y38598D01*
X-134200Y30500D02*
X-133090Y31610D01*
Y33720D01*
X-135058Y31358D02*
X-134200Y30500D01*
X-135058Y31358D02*
Y33720D01*
X-111450D02*
X-111436D01*
X-112600Y30518D02*
X-111450Y31667D01*
X-5916Y70906D02*
X-29Y65019D01*
X-5916Y70906D02*
Y119332D01*
X-2529Y67519D02*
X-29Y65019D01*
X-197830Y-24330D02*
X-192532D01*
X-197900Y-24400D02*
X-197830Y-24330D01*
X-192532Y-22361D02*
X-188061D01*
X-188000Y-22300D01*
X-166850Y-7000D02*
X-163000D01*
X-174028Y-17528D02*
Y-13700D01*
X-172059Y-18959D02*
Y-13700D01*
X-172200Y-19100D02*
X-172059Y-18959D01*
X-192532Y-26298D02*
X-186102D01*
X-186100Y-26300D01*
X-185235Y-30235D02*
X-184100Y-29100D01*
X-186015Y-44015D02*
X-186000Y-44000D01*
X-192532Y-45983D02*
X-187317D01*
X-197606Y-57794D02*
X-192532D01*
X-166154Y-16946D02*
Y-13700D01*
X-164185Y-18915D02*
X-164000Y-19100D01*
X-166154Y-16946D02*
X-164185Y-18915D01*
Y-13700D01*
X-160248Y-18148D02*
Y-13700D01*
X-161100Y-19000D02*
X-160248Y-18148D01*
X-158280Y-18121D02*
Y-13700D01*
Y-18121D02*
X-157300Y-19100D01*
X-168122Y-69722D02*
X-168100Y-69700D01*
X-136900Y-39200D02*
Y-37300D01*
X-135415Y-44015D02*
X-131902D01*
X-137900Y-46600D02*
Y-46500D01*
X-135415Y-44015D01*
X-136900Y-39200D02*
X-136022Y-40078D01*
X-131902D01*
X-136946Y-42046D02*
X-131902D01*
X-137200Y-42300D02*
X-136946Y-42046D01*
X-164185Y-74330D02*
Y-70115D01*
X-164900Y-69400D02*
X-164185Y-70115D01*
X-164900Y-69400D02*
Y-66800D01*
X-163300Y-65200D02*
X-163100D01*
X-164900Y-66800D02*
X-163300Y-65200D01*
X-172059Y-74330D02*
Y-69459D01*
X-172000Y-69400D01*
X-168122Y-74330D02*
Y-69722D01*
X-170091Y-79291D02*
Y-74330D01*
X-170100Y-79300D02*
X-170091Y-79291D01*
X-154342Y-74330D02*
Y-70643D01*
X-153300Y-69600D01*
Y-69500D01*
X-152374Y-77974D02*
Y-74330D01*
X-153900Y-79500D02*
X-152374Y-77974D01*
X-187317Y-45983D02*
X-186000Y-47300D01*
X-192532Y-49920D02*
X-184179D01*
X-184100Y-50000D01*
X-192532Y-55826D02*
X-184326D01*
X-184300Y-55800D01*
X-183870Y-74330D02*
Y-64070D01*
X-183800Y-64000D01*
X-192532Y-63700D02*
X-187100D01*
X-185839Y-74330D02*
Y-70561D01*
X-187100Y-69300D02*
X-185839Y-70561D01*
X-17529Y-67481D02*
X-15029Y-69981D01*
X-79700Y-31418D02*
Y-27450D01*
X-81682Y-33400D02*
X-79700Y-31418D01*
X-92018Y-33300D02*
X-91918Y-33400D01*
X-97000Y-33300D02*
X-92018D01*
X-91918Y-33400D02*
X-87100D01*
X-91918Y-42200D02*
X-87100D01*
X-96900D02*
X-91918D01*
X-81750Y-47950D02*
X-78000D01*
X-81800Y-48000D02*
X-81750Y-47950D01*
X-95918Y-64500D02*
X-91100D01*
X-101500D02*
X-95918D01*
X-103000Y-60950D02*
X-101500Y-62450D01*
Y-64500D02*
Y-62450D01*
X-96800Y-73600D02*
X-91618D01*
X-96900Y-73700D02*
X-96800Y-73600D01*
X-91618D02*
X-86800D01*
X-51950Y-103300D02*
X-42870D01*
X-57850Y-109200D02*
X-51950Y-103300D01*
X-229331Y-62900D02*
X-229237Y-62994D01*
X-225300Y-68900D02*
X-223600D01*
X-221363Y-74805D02*
Y-71137D01*
X-223600Y-68900D02*
X-221363Y-71137D01*
X-225300Y-77400D02*
Y-74805D01*
Y-77400D02*
X-224600Y-78100D01*
X-217500Y-74762D02*
Y-74750D01*
X-225300Y-68900D02*
X-223500Y-67100D01*
X-221400D01*
X-221363Y-67063D01*
Y-62994D01*
X-203182Y-41800D02*
X-201182Y-43800D01*
X-197700D01*
X-203182Y-41800D02*
X-201382Y-40000D01*
X-197800D02*
Y-39700D01*
X-201382Y-40000D02*
X-197800D01*
X-197485Y-44015D02*
X-192532D01*
X-197700Y-43800D02*
X-197485Y-44015D01*
X-213418Y-36218D02*
X-213400Y-36200D01*
Y-41782D02*
Y-36200D01*
X-213800Y-47500D02*
Y-42182D01*
X-213418Y-41800D01*
X-213400Y-41782D01*
X-240761Y-47061D02*
X-236361D01*
X-240800Y-47100D02*
X-240761Y-47061D01*
X-238641Y-41259D02*
X-235034D01*
X-239600Y-40300D02*
X-238641Y-41259D01*
X-226950Y-35957D02*
X-226766Y-36141D01*
X-229800Y-33500D02*
X-226950D01*
Y-35957D02*
Y-33500D01*
Y-29400D01*
X-237800D02*
X-233250D01*
X-239300Y-30900D02*
X-237800Y-29400D01*
X-232000Y-62900D02*
X-229331D01*
X-233900Y-64800D02*
X-232000Y-62900D01*
X-233900Y-68950D02*
Y-65300D01*
Y-64800D01*
X-238050Y-75250D02*
X-233900D01*
X-238100Y-75200D02*
X-238050Y-75250D01*
X-236623Y-55000D02*
X-236361Y-54739D01*
X-237900Y-55000D02*
X-236623D01*
X-237900Y-58400D02*
Y-55000D01*
X-208332Y-98400D02*
X-208272Y-98460D01*
X-212100Y-98400D02*
X-208332D01*
X-212160Y-85360D02*
X-208272D01*
X-212200Y-85400D02*
X-212160Y-85360D01*
X-199400Y-108900D02*
Y-103036D01*
X-203764D02*
X-199400D01*
X-203800Y-103000D02*
X-203764Y-103036D01*
X-195000Y-103000D02*
X-194964Y-103036D01*
X-190600D01*
Y-108900D02*
Y-103036D01*
X-186100Y-103300D02*
X-186064Y-103336D01*
X-181700D01*
Y-109200D02*
Y-103336D01*
X-177100Y-103200D02*
X-177064Y-103236D01*
X-172700D01*
Y-109100D02*
Y-103236D01*
X-168500Y-103100D02*
X-168464Y-103136D01*
X-164100D01*
Y-109000D02*
Y-103136D01*
X-159700Y-103200D02*
X-159664Y-103236D01*
X-155300D01*
Y-109100D02*
Y-103236D01*
X-150600Y-102900D02*
X-150564Y-102936D01*
X-146200D01*
Y-108800D02*
Y-102936D01*
X-194936Y-92664D02*
X-194900Y-92700D01*
X-199300Y-92664D02*
X-194936D01*
X-199300D02*
Y-86800D01*
X-186036Y-92764D02*
X-186000Y-92800D01*
X-190400Y-92764D02*
X-186036D01*
X-190400D02*
Y-86900D01*
X-177436Y-92664D02*
X-177400Y-92700D01*
X-181800Y-92664D02*
X-177436D01*
X-181800D02*
Y-86800D01*
X-168536Y-92664D02*
X-168500Y-92700D01*
X-172900Y-92664D02*
X-168536D01*
X-172900D02*
Y-86800D01*
X-159636Y-92764D02*
X-159600Y-92800D01*
X-164000Y-92764D02*
X-159636D01*
X-164000D02*
Y-86900D01*
X-150536Y-92664D02*
X-150500Y-92700D01*
X-154900Y-92664D02*
X-150536D01*
X-154900D02*
Y-86800D01*
X-141936Y-92764D02*
X-141900Y-92800D01*
X-146300Y-92764D02*
X-141936D01*
X-146300D02*
Y-86900D01*
X-149728Y-114200D02*
Y-110228D01*
X-138261Y-107139D02*
Y-105639D01*
Y-107139D02*
X-136700Y-108700D01*
X-135800Y-109600D01*
X-134650D02*
X-132800Y-111450D01*
X-135800Y-109600D02*
X-134650D01*
X-120950Y-92000D02*
X-120939Y-92012D01*
Y-97961D02*
Y-95600D01*
Y-92012D01*
X-125580Y-103079D02*
X-120939D01*
X-125600Y-103100D02*
X-125580Y-103079D01*
X-120939Y-105639D02*
X-118961D01*
X-126300Y-122500D02*
Y-118443D01*
Y-122500D02*
X-126200Y-122600D01*
X-104300Y-39218D02*
X-103800Y-38718D01*
X-137005Y-57794D02*
X-131902D01*
X-137100Y-57700D02*
X-137005Y-57794D01*
X-192532Y-71131D02*
Y-67637D01*
Y-38109D02*
X-188509D01*
X-187600Y-37200D02*
X-187100D01*
X-188509Y-38109D02*
X-187600Y-37200D01*
X-192532Y-40078D02*
X-186878D01*
X-123450Y-107700D02*
X-119900Y-111250D01*
X-125600Y-107700D02*
X-123450D01*
X-125600D02*
Y-103100D01*
X-112600Y30400D02*
Y30518D01*
X-66500Y-70900D02*
X-60600D01*
X-57350Y-74150D01*
Y-83200D02*
Y-74150D01*
X-140875Y18875D02*
X-140500Y18500D01*
X-152953Y13247D02*
X-143720D01*
X-152547Y38200D02*
X-148067Y33720D01*
X-159823Y38200D02*
X-152547D01*
X-111900Y17200D02*
X-111884Y17184D01*
X-108680D01*
X-192532Y-32204D02*
X-188204D01*
X-188000Y-32000D01*
Y-30735D01*
X-192532Y-30235D02*
X-187500D01*
X-185235D01*
X-188000Y-30735D02*
X-187500Y-30235D01*
X-192532Y-42046D02*
X-188953D01*
X-188000Y-43000D01*
X-192532Y-44015D02*
X-188000D01*
X-186015D01*
X-188000D02*
Y-43000D01*
X-192532Y-47952D02*
X-186652D01*
X-186000Y-47300D01*
X-111450Y31667D02*
Y33720D01*
X-75416Y91216D02*
X-71317D01*
X-77000Y92800D02*
X-75416Y91216D01*
X-93000Y35000D02*
X-92879Y35120D01*
X-95500Y35000D02*
Y39200D01*
X-95439Y39261D01*
X-95500Y35000D02*
X-93000D01*
X-92879Y35120D02*
Y39261D01*
X-5916Y119332D02*
X-2048Y123200D01*
X1400D01*
Y128200D02*
X3253Y130053D01*
X1400Y123200D02*
Y128200D01*
X18858Y50500D02*
X18614Y50987D01*
X17883Y51718D01*
X23000D01*
D50*
X-131121Y21121D02*
Y33720D01*
X-39350Y-78950D02*
X-39300Y-78900D01*
X-39350Y-83200D02*
Y-78950D01*
X-11200Y-86152D02*
Y-82200D01*
X-15029Y-89981D02*
X-11200Y-86152D01*
X-103800Y-23400D02*
X-103500Y-23700D01*
X-103800Y-24200D02*
Y-23400D01*
X-66900Y62600D02*
X-65350Y64150D01*
Y66550D01*
X-70150Y62600D02*
X-66900D01*
X-71317Y63767D02*
X-70150Y62600D01*
X-71317Y63767D02*
Y68184D01*
X-71234D01*
X-76450Y59000D02*
X-76400Y58950D01*
X-76450Y59000D02*
Y62600D01*
X-115400Y20200D02*
X-112153D01*
X-119400Y16200D02*
X-115400Y20200D01*
X-126200Y16200D02*
X-119400D01*
X-182250Y70150D02*
X-177971D01*
X-183100Y69300D02*
X-182250Y70150D01*
X-119310Y9310D02*
X-108680D01*
X-126200Y16200D02*
X-119310Y9310D01*
X-52350Y131300D02*
X-52100Y131050D01*
X-48350D01*
X-53050Y92200D02*
X-52066Y91216D01*
X-48483D01*
X-53050Y92200D02*
Y96700D01*
X-56700Y96800D02*
X-53150D01*
X-53050Y96700D01*
X-52500D01*
X-40700Y68850D02*
X-37150Y72400D01*
Y86600D01*
X-44993Y70743D02*
X-43850Y69600D01*
X-48483Y70743D02*
X-44993D01*
X-39207Y88657D02*
X-37150Y86600D01*
X-48483Y88657D02*
X-39207D01*
X-65950Y100350D02*
X-65000Y101300D01*
X-65950Y97000D02*
Y100350D01*
X-72250Y100250D02*
Y101652D01*
Y97000D02*
Y100250D01*
Y101652D02*
X-71217Y102684D01*
X-104550Y126270D02*
Y126350D01*
X-104551Y126268D02*
X-104550Y126270D01*
X-37600Y98950D02*
X-37500Y99050D01*
X-41300Y98950D02*
X-37600D01*
X-71250Y128850D02*
X-71217Y128817D01*
Y125716D02*
Y128817D01*
X-43853Y107802D02*
X-41300Y105250D01*
X-48383Y107802D02*
X-43853D01*
X-37600Y108950D02*
Y120900D01*
X-39857Y123157D02*
X-37600Y120900D01*
X-48383Y105243D02*
X-48376Y105250D01*
X-41300D01*
X-37600Y108950D01*
X-48383Y123157D02*
X-39857D01*
X-48383Y130067D02*
X-48350Y130100D01*
X-48383Y125716D02*
Y130067D01*
X-187800Y74700D02*
X-185650D01*
X-184200Y73250D01*
X-239050Y103250D02*
X-234500D01*
X-239150Y103350D02*
X-239050Y103250D01*
X-224700Y107150D02*
X-223350D01*
X-228600Y103250D02*
X-224700Y107150D01*
X-220150Y105700D02*
Y107600D01*
X-222600Y103250D02*
X-220150Y105700D01*
X-216700Y107650D02*
X-216650Y107700D01*
X-216700Y103250D02*
Y107650D01*
X-191800Y103600D02*
X-191750Y103650D01*
Y107500D01*
X-232100Y64900D02*
X-230500Y66500D01*
X-234500Y64900D02*
X-232100D01*
X-230500Y66500D02*
Y67770D01*
X-193000Y62200D02*
Y67970D01*
X-211830Y67770D02*
X-211700Y67900D01*
X-215500Y67770D02*
X-211830D01*
X4971Y80019D02*
X7471Y77519D01*
X2471Y82519D02*
X4971Y80019D01*
Y85019D02*
X7471Y82519D01*
X2471Y87519D02*
X4971Y85019D01*
Y90019D02*
X7471Y87519D01*
X-176000Y37000D02*
X-175953Y36953D01*
X-172330D01*
X-104534Y126251D02*
X-103351Y127434D01*
Y131371D01*
X-104551Y126268D02*
X-104534Y126251D01*
X-109950Y125750D02*
Y137800D01*
X-112800Y127000D02*
X-111500Y125700D01*
X-112800Y127000D02*
Y131371D01*
X-111500Y125700D02*
X-109900D01*
X-103111Y110111D02*
X-97839D01*
X-104500Y111500D02*
X-103111Y110111D01*
X-104500Y111500D02*
Y113500D01*
X-19Y30019D02*
X2500Y27500D01*
X-29Y30019D02*
X-19D01*
X-86000Y7000D02*
X-85750Y6750D01*
Y3500D02*
Y6750D01*
X-81500Y32000D02*
X-78500Y29000D01*
X-72330D01*
X-81500Y32000D02*
X-81200Y32300D01*
Y37082D01*
X-85609Y20609D02*
X-85500Y20500D01*
X-87800Y20609D02*
X-85609D01*
X-79000Y3950D02*
Y8000D01*
X-58000Y-4500D02*
X-57982Y-4482D01*
Y-821D01*
X-79450Y3500D02*
X-79000Y3950D01*
X-64200Y9800D02*
X-63200D01*
X-69318Y4682D02*
X-64200Y9800D01*
X-74321Y5282D02*
X-69218D01*
X-79000Y8000D02*
X-78841Y7841D01*
X-74321D01*
X-48600Y-14900D02*
X-48500Y-15000D01*
X-52000Y-14900D02*
X-48600D01*
X-52000D02*
X-50100D01*
X-53950D02*
X-52000D01*
X-12548Y37500D02*
X-12500D01*
X-15029Y35019D02*
X-12548Y37500D01*
X-17510Y22500D02*
X-17500D01*
X-20029Y25019D02*
X-17510Y22500D01*
X-12509Y17500D02*
X-12500D01*
X-15029Y20019D02*
X-12509Y17500D01*
X7452Y32500D02*
X7500D01*
X4971Y30019D02*
X7452Y32500D01*
X5019Y25019D02*
X7500Y27500D01*
X4971Y25019D02*
X5019D01*
X-2500Y17491D02*
Y17500D01*
Y17491D02*
X-29Y15019D01*
X7452Y12500D02*
X7500D01*
X4971Y10019D02*
X7452Y12500D01*
X2500Y2500D02*
X4971Y4971D01*
Y5019D01*
X-2500Y2490D02*
Y2500D01*
Y2490D02*
X-29Y19D01*
X-184500Y33900D02*
Y37250D01*
X-184000Y8700D02*
X-183900Y8800D01*
Y12350D01*
X-103800Y-28482D02*
Y-24200D01*
X-199400Y-11550D02*
Y-5900D01*
X-47929Y-123771D02*
X-47900Y-123800D01*
X-47929Y-123771D02*
Y-118500D01*
X-126300Y-118443D02*
X-125406Y-117550D01*
X-119900D01*
X-103800Y-28482D02*
X-102600Y-29682D01*
Y-33300D02*
Y-29682D01*
X-66700Y58700D02*
X-66666Y58734D01*
X-63759D01*
X-119310Y23090D02*
X-108680D01*
X-126200Y16200D02*
X-119310Y23090D01*
X-180750Y8550D02*
X-178400Y10900D01*
X-180750Y5400D02*
Y8550D01*
Y2250D02*
Y5400D01*
X-58641Y46441D02*
X-58600Y46400D01*
X-58641Y46441D02*
Y50466D01*
X-48150Y50500D02*
Y54550D01*
X-55900Y44100D02*
X-51170D01*
X-51070Y44000D01*
X-45700D01*
X-76900Y46400D02*
Y48050D01*
X-74250Y50700D01*
X-81200Y47318D02*
Y52700D01*
Y42500D02*
Y47318D01*
X-93950Y47000D02*
X-90359Y43409D01*
X-19881Y40019D02*
X-17400Y42500D01*
X-177100D02*
X-172350D01*
X-172250Y42400D01*
X-158553Y31047D02*
X-157000Y32600D01*
X-161070Y31047D02*
X-158553D01*
X-163100Y53800D02*
X-163010Y53710D01*
Y48891D02*
Y53710D01*
X-135250Y42850D02*
X-133200Y44900D01*
X-135250Y38800D02*
Y42850D01*
X-137100Y44700D02*
X-137000Y44800D01*
X-137350Y44950D02*
X-137100Y44700D01*
X-140500Y44950D02*
X-137350D01*
X-131121Y21121D02*
X-126200Y16200D01*
X-185700Y3700D02*
X-185500Y3500D01*
X-192293Y3700D02*
X-185700D01*
X-223000Y8700D02*
X-220100Y5800D01*
X-228907Y8700D02*
X-223000D01*
X-222300Y23700D02*
X-222200Y23800D01*
X-228907Y23700D02*
X-222300D01*
X-223100Y38700D02*
X-223000Y38800D01*
X-228907Y38700D02*
X-223100D01*
X-228907Y48700D02*
X-221400D01*
X-218900Y43700D02*
X-218700Y43500D01*
X-228907Y43700D02*
X-218900D01*
X-228907Y53700D02*
X-221500D01*
X-135900Y103800D02*
X-135800D01*
X-135888Y103812D02*
X-130910D01*
X-135900Y103800D02*
X-135888Y103812D01*
X-136552Y57297D02*
Y59798D01*
X-135809Y60540D01*
X-137700Y56150D02*
X-136552Y57297D01*
X-183000Y60700D02*
X-182998Y60702D01*
X-177971D01*
X-187800Y79600D02*
X-184250D01*
X-184200Y79550D01*
Y73250D02*
X-184150Y73300D01*
X-177971D01*
X-163010Y88039D02*
X-162950Y88100D01*
X-163010Y81961D02*
Y88039D01*
X-156711Y81961D02*
X-156650Y82022D01*
Y88100D01*
X-149500Y60700D02*
X-149498Y60702D01*
X-144900D01*
X-146961Y81961D02*
X-146900Y81900D01*
X-150412Y81961D02*
X-146961D01*
X-156800Y77200D02*
X-156711Y77289D01*
Y81961D01*
X-159861Y77061D02*
X-159800Y77000D01*
X-159861Y77061D02*
Y81961D01*
X-163100Y77300D02*
X-163010Y77390D01*
Y81961D01*
X-177200Y80200D02*
X-172500D01*
Y81920D01*
X-172459Y81961D01*
X-162900Y97701D02*
Y104600D01*
X-162910Y97690D02*
X-162900Y97701D01*
X-135789Y110111D02*
X-130910D01*
X-136400Y107800D02*
Y109500D01*
X-135789Y110111D01*
X-136800Y107400D02*
X-136400Y107800D01*
X-149098Y109502D02*
X-144800D01*
X-149600Y109000D02*
X-149098Y109502D01*
X-149600Y107300D02*
Y109000D01*
X-178100Y99800D02*
X-177871Y100029D01*
Y103202D01*
X-132750Y81750D02*
X-132600Y81600D01*
X-137600Y81750D02*
X-132750D01*
X-137600Y75450D02*
X-135288Y73139D01*
X-131009D01*
X-131370Y70350D02*
X-131009Y69989D01*
X-137700Y70350D02*
X-131370D01*
X-131009Y51410D02*
X-129500Y49900D01*
X-131009Y51410D02*
Y54241D01*
X-133350Y49850D02*
X-133300Y49900D01*
X-137700Y49850D02*
X-133350D01*
X-139062Y60138D02*
X-137700Y61500D01*
Y64050D01*
X-135809Y60540D02*
X-131009D01*
Y73139D02*
X-125361D01*
X-172402Y109502D02*
X-172400Y109500D01*
X-177871Y109502D02*
X-172402D01*
X-185450Y107500D02*
X-183449Y109502D01*
X-177871D01*
X-185650Y119700D02*
X-184901Y118950D01*
X-177871D01*
X-185650Y125800D02*
X-181950Y122100D01*
X-177871D01*
X-195800Y119700D02*
X-191950D01*
X-195500Y125800D02*
X-191950D01*
X-173050Y118950D02*
X-173000Y118900D01*
X-177871Y118950D02*
X-173050D01*
X-177871Y122100D02*
X-173000D01*
X-138900Y110100D02*
Y110200D01*
X-172400Y136500D02*
X-172359Y136459D01*
Y130761D02*
Y136459D01*
X-147039Y130761D02*
X-146900Y130900D01*
X-150312Y130761D02*
X-147039D01*
X-133250Y132050D02*
X-133200Y132000D01*
X-137400Y132050D02*
X-133250D01*
X-109950Y125750D02*
X-109900Y125700D01*
X-162910Y135200D02*
Y138761D01*
Y130761D02*
Y135200D01*
X-159800Y135300D02*
X-159761Y135261D01*
Y130761D02*
Y135261D01*
X-162950Y138800D02*
X-162910Y138761D01*
X-156650Y135250D02*
Y138800D01*
Y135250D02*
X-156611Y135211D01*
Y130761D02*
Y135211D01*
X-125500Y76600D02*
X-125498Y76602D01*
Y81800D01*
X-103450D02*
X-96200D01*
X-125111Y69989D02*
X-125100Y70000D01*
X-131009Y69989D02*
X-125111D01*
X-125500Y62200D02*
X-125300D01*
X-127100Y60600D02*
X-125500Y62200D01*
X-130950Y60600D02*
X-127100D01*
X-131009Y60540D02*
X-130950Y60600D01*
X-116049Y53751D02*
X-116000Y53800D01*
X-116049Y48729D02*
Y53751D01*
X-102760Y60540D02*
X-97939D01*
X-103000Y60300D02*
X-102760Y60540D01*
X-112899Y73701D02*
Y81800D01*
X-116049Y76851D02*
Y81800D01*
X-109750Y76750D02*
Y81800D01*
X-109800Y76700D02*
X-109750Y76750D01*
X-134359Y122709D02*
X-125809D01*
X-125800Y122700D01*
X-137400Y125750D02*
X-134359Y122709D01*
X-125840Y119560D02*
X-125800Y119600D01*
X-130910Y119560D02*
X-125840D01*
X-137400Y120750D02*
X-136210Y119560D01*
X-130910D01*
X-137400Y111700D02*
Y114450D01*
X-138900Y110200D02*
X-137400Y111700D01*
X-81100Y55800D02*
X-81000Y55900D01*
X-84450Y55800D02*
X-81100D01*
X-84450Y60800D02*
X-81000D01*
X-84450Y70200D02*
X-81200D01*
X-84300Y75350D02*
Y78700D01*
X-84450Y75200D02*
X-84300Y75350D01*
X-17609Y97600D02*
X-17600D01*
X-20029Y100019D02*
X-17609Y97600D01*
X-14981Y95019D02*
X-12700Y97300D01*
X-15029Y95019D02*
X-14981D01*
X-17600Y87300D02*
Y87600D01*
X-17748Y87300D02*
X-17600D01*
X-20029Y85019D02*
X-17748Y87300D01*
X-14881Y80019D02*
X-12600Y82300D01*
X-15029Y80019D02*
X-14881D01*
X-17529Y52519D02*
X-15029Y50019D01*
X-20029Y69729D02*
X-17600Y67300D01*
X-20029Y69729D02*
Y70019D01*
X-14881Y65019D02*
X-12600Y67300D01*
X-15029Y65019D02*
X-14881D01*
X-117750Y88300D02*
X-116049Y86599D01*
Y81800D02*
Y86599D01*
X-112899Y86851D02*
X-111450Y88300D01*
X-112899Y81800D02*
Y86851D01*
X-125398Y126002D02*
Y131371D01*
X-117000Y103400D02*
X-115950Y102350D01*
Y98300D02*
Y102350D01*
X-116250Y137800D02*
X-115950Y137500D01*
Y131371D02*
Y137500D01*
X-120300Y137800D02*
X-116250D01*
X-178100Y54273D02*
X-177971Y54402D01*
X-178100Y50800D02*
Y54273D01*
X-15029Y-74981D02*
X-12529Y-77481D01*
X-29Y95019D02*
X2471Y92519D01*
X4971Y90019D02*
X7411Y92460D01*
X-2529Y82519D02*
X-29Y85019D01*
X-20029Y-64981D02*
X-17529Y-67481D01*
X-2529Y107519D02*
X-29Y105019D01*
X4971D02*
X7471Y102519D01*
X2471Y97519D02*
X4971Y95019D01*
X7471Y97519D01*
X-29Y105019D02*
X2471Y102519D01*
X4971Y100019D01*
X-2529Y97519D02*
X-29Y95019D01*
X-2529Y87519D02*
X-29Y85019D01*
X-2529Y92519D02*
X-29Y90019D01*
X2471Y87519D01*
X-20029Y55019D02*
X-17529Y52519D01*
X4971Y70019D02*
X7471Y72519D01*
X-2529Y47519D02*
X-29Y45019D01*
X4971D02*
X7471Y42519D01*
X-20029Y-4981D02*
X-17529Y-7481D01*
X4971Y-14981D02*
X7471Y-17481D01*
X2471Y-12481D02*
X4971Y-9981D01*
X-29Y-14981D02*
X2471Y-12481D01*
X-20029Y-19981D02*
X-17529Y-22481D01*
X4971Y-34981D02*
X7471Y-37481D01*
X-2529Y-57481D02*
X-29Y-59981D01*
X-20029Y-49981D02*
X-17529Y-52481D01*
X-2529Y-77481D02*
X-29Y-79981D01*
X2471Y-67481D02*
X4971Y-69981D01*
X-29Y-84981D02*
X2471Y-87481D01*
X4971Y-89981D01*
Y-74981D02*
X7471Y-77481D01*
X4971Y-49981D02*
X7471Y-47481D01*
X4971Y50019D02*
X7471Y52519D01*
X-17529Y-52481D02*
X-15029Y-54981D01*
X-17109Y-7900D02*
X-15029Y-9981D01*
X-17500Y-7900D02*
X-17109D01*
X-29Y100019D02*
X2471Y97519D01*
X-2529Y102519D02*
X-29Y100019D01*
X-15029Y105019D02*
X-13000Y102991D01*
Y102500D02*
Y102991D01*
X-180750Y2250D02*
X-179100Y600D01*
X-75994Y-57245D02*
X-70417D01*
X-78000Y-59250D02*
X-75994Y-57245D01*
X-78000Y-59250D02*
Y-54250D01*
X-85682Y-55400D02*
X-84531Y-54250D01*
X-78000D01*
X-85682Y-55400D02*
Y-49231D01*
X-85450Y-49000D01*
X4971Y-54981D02*
X7471Y-57481D01*
X-76605Y-24245D02*
X-71117D01*
X-79700Y-21150D02*
X-76605Y-24245D01*
X-79700Y-16082D02*
X-78118Y-14500D01*
X-79700Y-21150D02*
Y-16082D01*
X-90900Y-21050D02*
X-90800Y-21150D01*
X-90900Y-21600D02*
Y-21050D01*
X-85400Y-27450D02*
Y-27100D01*
Y-26850D02*
X-79700Y-21150D01*
X-85400Y-27100D02*
Y-26850D01*
X-90900Y-21600D02*
X-85400Y-27100D01*
X-102250Y-55400D02*
X-95918D01*
X-103000Y-54650D02*
X-102250Y-55400D01*
X-29Y-64981D02*
Y-64771D01*
X-2200Y-62600D02*
X-29Y-64771D01*
X2471Y-32481D02*
X4971Y-29981D01*
X2471Y-32481D02*
Y-32481D01*
X-64130Y-93300D02*
X-59000D01*
X-58900Y-93400D01*
X-68200Y-93300D02*
X-64130D01*
X-69400Y-92100D02*
X-68200Y-93300D01*
X-47929Y-118500D02*
X-42100D01*
X-40500Y-116900D01*
X-53200Y-118500D02*
X-47929D01*
X-55700Y-116000D02*
X-53200Y-118500D01*
X-215500Y33700D02*
X-215100Y33300D01*
X-211100D01*
X-228907Y33700D02*
X-215500D01*
X-192750Y-850D02*
X-192600Y-700D01*
X-192750Y-6200D02*
Y-850D01*
X-60200Y-79750D02*
Y-75400D01*
X-63350Y-82900D02*
X-60200Y-79750D01*
X-20029Y-34981D02*
X-17529Y-37481D01*
X-15029Y-39981D01*
X-2529Y-42481D02*
X-29Y-44981D01*
X-15029Y-39981D02*
X-11181D01*
X-8600Y-37400D01*
X-17529Y-22481D02*
X-15029Y-24981D01*
X-2529Y-27481D02*
X-29Y-29981D01*
X-15029Y-24981D02*
X-13209Y-26800D01*
X-10900D01*
X-60541Y-3959D02*
Y-821D01*
Y-3959D02*
X-60000Y-4500D01*
X-58000D01*
X-62500D02*
X-60000D01*
X-63100Y-3900D02*
Y-821D01*
Y-3900D02*
X-62500Y-4500D01*
X-48483Y73302D02*
X-43902D01*
X-43850Y69600D02*
X-41450D01*
X-43902Y73302D02*
X-42400Y71800D01*
X-41450Y69600D02*
X-40700Y68850D01*
X-42400Y70550D02*
X-41450Y69600D01*
X-42400Y70550D02*
Y71800D01*
X-82882Y35400D02*
X-81200Y37082D01*
X-87430Y32000D02*
X-81500D01*
X-90320Y34890D02*
X-87430Y32000D01*
X-90320Y39261D02*
X-90130Y39071D01*
X-90320Y34890D02*
Y39261D01*
X-90359D02*
Y43409D01*
X-102712Y76288D02*
X-97939D01*
X-103500Y75500D02*
X-102712Y76288D01*
X4971Y65019D02*
X7471Y62519D01*
X-102639Y73139D02*
X-97939D01*
X-103500Y74000D02*
X-102639Y73139D01*
X-103500Y74000D02*
Y75500D01*
X-113000Y73600D02*
X-112899Y73701D01*
X-116100Y76800D02*
X-116049Y76851D01*
X-25119Y-79981D02*
X-20029D01*
X-25200Y-79900D02*
X-25119Y-79981D01*
D51*
X-104700Y4700D02*
Y4808D01*
X-105500Y7107D02*
X-104700Y7908D01*
X-105500Y5607D02*
X-104700Y4808D01*
X-106366Y7107D02*
X-105500D01*
X-106366Y5607D02*
X-105500D01*
X-117576Y-3634D02*
X-117342Y-3400D01*
Y-1320D01*
X-117576Y-4900D02*
Y-3634D01*
X-119076Y-4900D02*
Y-3634D01*
Y-5421D02*
Y-4900D01*
X-119876Y-5700D02*
X-119076Y-4900D01*
X-116776Y-5700D02*
X-116600D01*
X-117576Y-4900D02*
X-116776Y-5700D01*
X-119876D02*
X-119076D01*
X-125216Y-4834D02*
Y-1320D01*
X-126050Y-5669D02*
X-125216Y-4834D01*
X-123247Y-5453D02*
X-122850Y-5850D01*
X-126050D02*
Y-5669D01*
X-123247Y-5453D02*
Y-1320D01*
X-25500Y-73800D02*
Y-71300D01*
Y-73800D02*
X-22060Y-77241D01*
X-17510Y-82500D02*
X-15029Y-84981D01*
X-22060Y-77241D02*
X-17769D01*
X-15029Y-79981D01*
X-17548Y-72500D02*
X-17500D01*
X-20029Y-74981D02*
X-17548Y-72500D01*
X-102500Y14981D02*
X-101700Y15781D01*
X-106366Y14981D02*
X-102500D01*
X-106600Y15216D02*
X-106366Y14981D01*
X-108680Y15216D02*
X-106600D01*
X-104300Y21687D02*
Y21800D01*
X-101700Y12682D02*
Y13482D01*
X-105100Y19387D02*
X-104300Y18587D01*
X-106366Y19387D02*
X-105100D01*
X-106600Y19153D02*
X-106366Y19387D01*
X-108680Y19153D02*
X-106600D01*
X-104300Y18587D02*
Y19387D01*
X-80579Y64600D02*
X-77500Y67679D01*
X-79000Y68300D02*
Y74850D01*
X-81200Y66100D02*
X-79000Y68300D01*
X-191600Y72567D02*
X-182884Y63851D01*
X-183912Y67001D02*
X-177971D01*
X-190000Y73089D02*
X-183912Y67001D01*
X-182884Y63851D02*
X-177971D01*
X-119876Y41200D02*
X-119076D01*
Y36034D02*
Y40400D01*
X-119876Y41200D02*
X-119076Y40400D01*
X-119310Y35800D02*
X-119076Y36034D01*
X-119310Y33720D02*
Y35800D01*
X-117576Y40400D02*
X-116776Y41200D01*
X-117576Y36034D02*
Y40400D01*
Y36034D02*
X-117342Y35800D01*
Y33720D02*
Y35800D01*
X-125850Y30500D02*
X-125216Y31134D01*
Y33720D01*
X-122750Y30500D02*
X-122650D01*
X-123247Y30997D02*
X-122750Y30500D01*
X-123247Y30997D02*
Y33720D01*
X-55850Y107250D02*
X-52739Y110361D01*
X-85391Y89900D02*
X-78500Y83009D01*
X-86012Y88400D02*
X-79121Y81509D01*
X-91100Y90709D02*
Y90900D01*
X-105100Y20887D02*
X-104300Y21687D01*
X-106366Y20887D02*
X-105100D01*
X-106600Y21121D02*
X-106366Y20887D01*
X-108680Y21121D02*
X-106600D01*
X-102500Y13482D02*
X-101700Y12682D01*
X-106366Y13482D02*
X-102500D01*
X-106600Y13247D02*
X-106366Y13482D01*
X-108680Y13247D02*
X-106600D01*
X-119310Y-3400D02*
X-119076Y-3634D01*
X-119310Y-3400D02*
Y-1320D01*
X-43448Y86098D02*
X-41500Y84150D01*
X-48483Y86098D02*
X-43448D01*
X-75867Y75861D02*
X-71317D01*
X-77500Y74229D02*
X-75867Y75861D01*
X-77500Y67679D02*
Y74229D01*
X-75429Y78421D02*
X-71317D01*
X-79000Y74850D02*
X-75429Y78421D01*
X-90750Y66100D02*
X-81200D01*
X-90850Y64600D02*
X-80579D01*
X-90309Y88400D02*
X-86012D01*
X-79121Y81509D02*
X-75230D01*
X-89670Y89900D02*
X-85391D01*
X-91100Y87609D02*
X-90309Y88400D01*
X-90453Y89909D02*
X-89679D01*
X-89670Y89900D01*
X-78500Y83009D02*
X-75230D01*
X-74700Y83539D01*
X-71317D01*
X-75230Y81509D02*
X-74700Y80980D01*
X-71317D01*
X-90750Y70200D02*
X-90750Y70200D01*
X-90750Y66100D02*
Y70200D01*
X-93371Y66100D02*
X-90750D01*
X-94110Y66839D02*
X-93371Y66100D01*
X-92729Y64600D02*
X-90850D01*
X-93639Y63690D02*
X-92729Y64600D01*
X-97939Y63690D02*
X-93639D01*
X-90850Y64600D02*
X-90750Y64500D01*
Y60800D02*
Y64500D01*
X-55750Y72250D02*
X-52139Y75861D01*
X-48483D01*
X-55750Y75700D02*
X-53030Y78421D01*
X-48483D01*
X-52548Y86098D02*
X-48483D01*
X-55800Y89350D02*
X-52548Y86098D01*
X-55750Y80700D02*
X-55471Y80980D01*
X-48483D01*
X-53439Y83539D02*
X-48483D01*
X-55750Y85850D02*
X-53439Y83539D01*
X-55800Y89350D02*
Y91050D01*
X-82100Y117509D02*
X-75129D01*
X-82900Y118309D02*
X-82100Y117509D01*
X-75129D02*
X-74600Y118039D01*
X-71217D01*
X-82900Y115209D02*
Y116009D01*
Y115209D02*
X-82100Y116009D01*
X-75129D01*
X-74600Y115480D01*
X-71217D01*
X-75189Y110950D02*
X-74600Y110361D01*
X-97839Y113261D02*
X-97750Y113350D01*
X-74600Y110361D02*
X-71217D01*
X-43348Y120598D02*
X-41400Y118650D01*
X-48383Y120598D02*
X-43348D01*
X-55850Y105600D02*
Y107250D01*
X-52739Y110361D02*
X-48383D01*
X-55800Y110550D02*
X-53430Y112920D01*
X-48383D01*
X-55900Y115350D02*
X-55770Y115480D01*
X-48383D01*
X-52998Y120598D02*
X-48383D01*
X-55900Y123500D02*
X-52998Y120598D01*
X-55900Y123500D02*
Y125100D01*
Y120250D02*
X-53689Y118039D01*
X-48383D01*
X-190000Y73089D02*
Y75200D01*
X-191600Y72567D02*
Y74600D01*
X-193500Y76500D02*
X-191600Y74600D01*
X-204600Y76500D02*
X-193500D01*
X-206400Y78300D02*
X-204600Y76500D01*
X-206400Y78300D02*
Y83500D01*
X-208000Y85100D02*
X-206400Y83500D01*
X-215500Y84750D02*
Y89030D01*
X-230500Y93500D02*
Y95050D01*
Y89030D02*
Y93500D01*
X-225500Y93300D02*
Y94050D01*
Y89030D02*
Y93300D01*
X-198000Y89230D02*
Y91000D01*
X-204800Y83200D02*
X-203000Y85000D01*
X-208000D02*
Y85100D01*
X-204800Y79000D02*
Y83200D01*
Y79000D02*
X-203800Y78000D01*
X-192800D01*
X-190000Y75200D01*
X-203000Y85000D02*
Y89230D01*
X-208000Y85100D02*
Y89230D01*
X-203300Y88930D02*
X-203000Y89230D01*
X-222600Y96950D02*
X-216700D01*
X-225500Y94050D02*
X-222600Y96950D01*
X-234500D02*
X-228600D01*
X-230500Y95050D02*
X-228600Y96950D01*
X16500Y47500D02*
Y55500D01*
Y47500D02*
X24500D01*
Y55500D01*
X16500D02*
X24500D01*
X-91253Y90709D02*
X-91100D01*
X-91253D02*
X-90453Y89909D01*
X-149300Y115800D02*
Y115900D01*
Y115800D02*
X-149299Y115801D01*
X-144800D01*
X-130699Y64000D02*
X-126611D01*
X-131009Y63690D02*
X-130699Y64000D01*
X-91100Y87609D02*
X-90300Y88409D01*
X-149500Y63800D02*
X-149449Y63851D01*
X-144900D01*
X-149500Y67100D02*
X-149401Y67001D01*
X-144900D01*
X-125810Y116410D02*
X-125800Y116400D01*
X-130910Y116410D02*
X-125810D01*
X-125939Y113261D02*
X-125900Y113300D01*
X-130910Y113261D02*
X-125939D01*
X-184000Y115776D02*
Y115900D01*
Y115776D02*
X-183975Y115801D01*
Y112651D02*
X-177871D01*
X-184000Y112676D02*
X-183975Y112651D01*
Y115801D02*
X-177871D01*
X-149200Y112700D02*
X-144849D01*
X-144800Y112651D01*
X-125261Y66839D02*
X-125200Y66900D01*
X-131009Y66839D02*
X-125261D01*
X-126211Y64400D02*
X-122900D01*
X-126611Y64000D02*
X-126211Y64400D01*
X-90750Y75200D02*
X-90750Y75200D01*
X-90750Y70200D02*
Y75200D01*
X-97939Y66839D02*
X-94110D01*
X-90750Y55800D02*
Y60800D01*
X-200600Y-36200D02*
X-200541Y-36141D01*
X-192532D01*
X-196728Y-34172D02*
X-192532D01*
X-197242Y-53857D02*
X-192532D01*
X-197700Y-53400D02*
X-197242Y-53857D01*
X-200800Y-66900D02*
Y-64500D01*
X-200700Y-61200D02*
X-199263Y-59763D01*
X-200800Y-64500D02*
X-200747D01*
X-197979Y-61731D01*
X-192532D01*
X-168122Y-18278D02*
X-167300Y-19100D01*
X-168122Y-18278D02*
Y-13700D01*
X-219039Y-49621D02*
X-215600D01*
X-203500Y-51650D02*
X-203000D01*
X-200600Y-53400D02*
X-200100D01*
X-197700D01*
X-203500Y-51650D02*
X-201850D01*
X-200100Y-53400D01*
X-200600Y-49600D02*
Y-49100D01*
Y-47700D01*
Y-50050D02*
Y-49100D01*
Y-50050D02*
X-200500Y-50150D01*
X-219039Y-52179D02*
X-215591D01*
X-215061Y-51650D01*
X-203500D01*
X-215521Y-49700D02*
X-215071Y-50150D01*
X-215600Y-49621D02*
X-215521Y-49700D01*
X-215071Y-50150D02*
X-200500D01*
X-199263Y-59763D02*
X-192532D01*
X-200500Y-50150D02*
X-200050D01*
X-198311Y-51889D01*
X-192532D01*
X-200700Y-30200D02*
X-196728Y-34172D01*
X-108680Y5373D02*
X-106600D01*
X-106366Y5607D01*
X-108680Y7342D02*
X-106600D01*
X-106366Y7107D01*
X-97839Y116410D02*
X-97329Y115900D01*
X-75071Y112450D02*
X-74600Y112920D01*
X-71217D01*
X-97329Y115900D02*
X-88700D01*
X-87000Y112450D02*
X-75071D01*
X-88900Y110950D02*
X-75189D01*
X-88650Y114100D02*
X-87000Y112450D01*
X-88650Y114100D02*
Y115850D01*
X-88700Y115900D02*
X-88650Y115850D01*
X-97839Y113261D02*
X-91211D01*
X-88900Y110950D01*
X-220500Y84800D02*
Y89030D01*
X-220550Y84750D02*
X-220500Y84800D01*
X-198000Y84900D02*
Y89230D01*
X-193000Y84900D02*
Y89230D01*
X-55750Y70650D02*
Y72250D01*
X-28700Y-82500D02*
X-17510D01*
D52*
X-57100Y-66300D02*
X-54100D01*
X-70417D02*
X-57100D01*
X-77000Y-42200D02*
X-71272D01*
X-81682D02*
X-77000D01*
X-64400Y-33400D02*
X-58100D01*
X-85682Y-64500D02*
X-83882Y-66300D01*
X-70417D01*
X-48383Y-33400D02*
X-48283Y-33300D01*
X-81682Y-33400D02*
X-64400D01*
X-60800D01*
X-58100D02*
X-55600D01*
X-48383D01*
X-71050Y-49900D02*
Y-45700D01*
Y-42423D01*
X-65255Y-42355D02*
X-65200Y-42300D01*
X-71117Y-42355D02*
X-71050Y-42423D01*
X-71117Y-42355D02*
X-65255D01*
X-81382Y-73600D02*
X-79627Y-75355D01*
X-70417Y-82132D02*
X-69650Y-82900D01*
X-70417Y-75355D02*
X-64545D01*
X-64500Y-75400D01*
X-70417Y-82132D02*
Y-78800D01*
Y-75355D01*
X-64071Y-118500D02*
Y-109279D01*
X-64150Y-109200D02*
X-64071Y-109279D01*
X-54100Y-66300D02*
X-47583D01*
X-79627Y-75355D02*
X-76200D01*
X-70417D01*
D53*
X-67882Y-14500D02*
X-60650D01*
X-60250Y-14900D01*
X-228907Y58700D02*
X-221300D01*
X-217500Y-68450D02*
Y-65100D01*
D54*
X-184650Y43700D02*
X-184500Y43550D01*
X-192293Y43700D02*
X-184650D01*
X-183950Y18700D02*
X-183900Y18650D01*
X-192293Y18700D02*
X-183950D01*
X-71272Y-42200D02*
X-71117Y-42355D01*
Y-49832D02*
X-71050Y-49900D01*
X-64150Y-109200D02*
Y-103320D01*
X-64130Y-103300D01*
X-71496D02*
X-64130D01*
X-73096Y-101700D02*
X-71496Y-103300D01*
X-64130Y-98300D02*
X-53200D01*
X-183900Y18650D02*
Y22100D01*
X-184100Y22300D02*
X-183900Y22100D01*
X-184500Y43550D02*
Y47200D01*
X-184600Y47300D02*
X-184500Y47200D01*
D55*
X-14881Y90019D02*
X-12600Y92300D01*
X-15029Y85019D02*
X-14881D01*
X-15029D02*
X-15029D01*
X-14881D02*
X-12600Y87300D01*
X-29Y-39981D02*
X2571Y-37381D01*
X-29Y-9981D02*
Y-9729D01*
X4871Y19D02*
X5071D01*
X-15029Y45019D02*
X-12629Y47419D01*
X-20029Y95019D02*
X-17609Y92600D01*
X-20029Y-59981D02*
X-17529Y-62481D01*
X-20029Y-44981D02*
X-17529Y-47481D01*
X-20029Y75019D02*
X-17529Y77519D01*
Y72519D02*
X-15029Y70019D01*
Y55019D02*
X-12529Y52519D01*
X-15029Y-34981D02*
X-12529Y-37481D01*
X-15029Y-49981D02*
X-12529Y-52481D01*
X2471Y-47481D02*
X4971Y-44981D01*
X-29Y55019D02*
Y60019D01*
X-15029Y-44981D02*
X-12529Y-47481D01*
X-20029Y60019D02*
X-20029Y60019D01*
X-2900Y42891D02*
Y42900D01*
Y42891D02*
X-29Y40019D01*
X-20029Y-54981D02*
X-17529Y-57481D01*
X-12529Y-37481D02*
X-12348Y-37300D01*
X-12300D01*
X2500Y-17510D02*
X4971Y-19981D01*
X-3000Y-32500D02*
X-2510D01*
X-29Y-34981D01*
X-129D02*
X-29D01*
X-29D01*
D56*
X-17131Y133300D02*
X-15403Y131572D01*
D57*
X-20103Y105019D02*
X-20029D01*
D58*
X-93905Y140499D02*
X-97000D01*
Y135500D01*
X-93905D01*
X-97000Y138119D02*
X-95096D01*
X-93072Y140499D02*
Y135500D01*
Y140499D02*
X-91406D01*
X-90692Y140261D01*
X-90216Y139785D01*
X-89978Y139309D01*
X-89740Y138595D01*
Y137404D01*
X-89978Y136690D01*
X-90216Y136214D01*
X-90692Y135738D01*
X-91406Y135500D01*
X-93072D01*
X-84812D02*
X-86717Y140499D01*
X-88621Y135500D01*
X-87907Y137166D02*
X-85526D01*
X-83646Y137642D02*
X-79361D01*
X-77885Y138833D02*
X-75267Y135500D01*
Y138833D02*
X-77885Y135500D01*
X-74219Y138833D02*
X-71601Y135500D01*
Y138833D02*
X-74219Y135500D01*
X-70553Y138833D02*
X-67935Y135500D01*
Y138833D02*
X-70553Y135500D01*
X-66887Y138833D02*
X-64269Y135500D01*
Y138833D02*
X-66887Y135500D01*
X-63222Y138833D02*
X-60603Y135500D01*
Y138833D02*
X-63222Y135500D01*
X-59556Y138833D02*
X-56937Y135500D01*
Y138833D02*
X-59556Y135500D01*
X-55890Y137642D02*
X-51605D01*
X-50129Y140499D02*
X-48225Y135500D01*
X-46320Y140499D02*
X-48225Y135500D01*
X-45678Y139547D02*
X-45202Y139785D01*
X-44488Y140499D01*
Y135500D01*
X-39834Y139999D02*
Y135000D01*
X-41500Y139999D02*
X-38167D01*
X-36144D02*
X-36620Y139761D01*
X-37096Y139285D01*
X-37334Y138809D01*
X-37572Y138095D01*
Y136904D01*
X-37334Y136190D01*
X-37096Y135714D01*
X-36620Y135238D01*
X-36144Y135000D01*
X-35192D01*
X-34716Y135238D01*
X-34240Y135714D01*
X-34002Y136190D01*
X-33764Y136904D01*
Y138095D01*
X-34002Y138809D01*
X-34240Y139285D01*
X-34716Y139761D01*
X-35192Y139999D01*
X-36144D01*
X-32597Y137380D02*
X-30455D01*
X-29741Y137619D01*
X-29503Y137856D01*
X-29265Y138333D01*
Y139047D01*
X-29503Y139523D01*
X-29741Y139761D01*
X-30455Y139999D01*
X-32597D01*
Y135000D01*
D59*
X-238100Y-87200D02*
D03*
X-228100D02*
D03*
X-248100D02*
D03*
X-258100D02*
D03*
D60*
X-265100Y77300D02*
D03*
X-245100Y97300D02*
D03*
X-265100D02*
D03*
X-245100Y77300D02*
D03*
Y39800D02*
D03*
X-265100Y59800D02*
D03*
X-245100D02*
D03*
X-265100Y39800D02*
D03*
X-245100Y-35200D02*
D03*
X-265100Y-15200D02*
D03*
X-245100D02*
D03*
X-265100Y-35200D02*
D03*
X-245100Y-72700D02*
D03*
X-265100Y-52700D02*
D03*
X-245100D02*
D03*
X-265100Y-72700D02*
D03*
Y2300D02*
D03*
X-245100Y22300D02*
D03*
X-265100D02*
D03*
X-245100Y2300D02*
D03*
D61*
X-255100Y87300D02*
D03*
Y49800D02*
D03*
Y-25200D02*
D03*
Y-62700D02*
D03*
Y12300D02*
D03*
D62*
X-230364Y116021D02*
D03*
Y-106617D02*
D03*
D63*
X-15403Y131572D02*
D03*
X-15500Y-116500D02*
D03*
D64*
X-157600Y-300D02*
D03*
X-151300Y7000D02*
D03*
X-151400Y2800D02*
D03*
X-170100Y-23300D02*
D03*
X-155600Y-3600D02*
D03*
X-155450Y-6850D02*
D03*
X-160340Y-7040D02*
D03*
X-136000Y8000D02*
D03*
X-132000D02*
D03*
X-128000D02*
D03*
X-124000D02*
D03*
X-120000D02*
D03*
X-116000D02*
D03*
X-134000Y10000D02*
D03*
X-130000D02*
D03*
X-126000D02*
D03*
X-122000D02*
D03*
X-118000D02*
D03*
X-136000Y12000D02*
D03*
X-132000D02*
D03*
X-128000D02*
D03*
X-124000D02*
D03*
X-120000D02*
D03*
X-116000D02*
D03*
X-134000Y14000D02*
D03*
X-130000D02*
D03*
X-126000D02*
D03*
X-122000D02*
D03*
X-118000D02*
D03*
X-116000Y16000D02*
D03*
X-118000Y18000D02*
D03*
X-120000Y16000D02*
D03*
X-122000Y18000D02*
D03*
X-124000Y16000D02*
D03*
X-126000Y18000D02*
D03*
X-128000Y16000D02*
D03*
X-130000Y18000D02*
D03*
X-132000Y16000D02*
D03*
X-134000Y18000D02*
D03*
X-136000Y16000D02*
D03*
Y20000D02*
D03*
X-132000D02*
D03*
X-128000D02*
D03*
X-124000D02*
D03*
X-120000D02*
D03*
X-116000D02*
D03*
Y24000D02*
D03*
X-118000Y22000D02*
D03*
X-120000Y24000D02*
D03*
X-122000Y22000D02*
D03*
X-124000Y24000D02*
D03*
X-126000Y22000D02*
D03*
X-128000Y24000D02*
D03*
X-130000Y22000D02*
D03*
X-132000Y24000D02*
D03*
X-134000Y22000D02*
D03*
X-136000Y24000D02*
D03*
X-97100Y-5900D02*
D03*
X-134200Y30500D02*
D03*
X-140300Y30200D02*
D03*
X-144600Y36300D02*
D03*
X-140600Y25700D02*
D03*
X-104700Y4700D02*
D03*
Y7908D02*
D03*
X-112300Y2400D02*
D03*
X-110700Y-5700D02*
D03*
X-113400D02*
D03*
X-116600D02*
D03*
X-147200Y19700D02*
D03*
X-147900Y8400D02*
D03*
X-131300Y-6200D02*
D03*
X-135100Y-6400D02*
D03*
X-119876Y-5700D02*
D03*
X-122850Y-5850D02*
D03*
X-126050D02*
D03*
X-92900Y17100D02*
D03*
X-138300Y-5200D02*
D03*
X-109000Y-10100D02*
D03*
X-141400Y-6600D02*
D03*
X-37100Y32500D02*
D03*
X-25500Y-71300D02*
D03*
X-39300Y-78900D02*
D03*
X-39250Y-72000D02*
D03*
X-43700Y-78400D02*
D03*
X-17300Y-87600D02*
D03*
X-11200Y-82200D02*
D03*
X-34900Y-2600D02*
D03*
X-17500Y-72500D02*
D03*
X-110900Y-31400D02*
D03*
X-111300Y-27200D02*
D03*
X-113100Y-35200D02*
D03*
X-109050Y-33850D02*
D03*
X-108600Y-39300D02*
D03*
X-110900Y-43100D02*
D03*
X-113550Y-41350D02*
D03*
X-111250Y-37650D02*
D03*
X-121300Y1900D02*
D03*
X-103500Y-23700D02*
D03*
X-106600Y-23100D02*
D03*
X-101000Y-21500D02*
D03*
X-98800Y-23600D02*
D03*
X-95700D02*
D03*
X-17500Y7500D02*
D03*
X-84790Y-17500D02*
D03*
X-110000Y-23000D02*
D03*
X-144500Y-20000D02*
D03*
X-147800D02*
D03*
X-88890Y-17450D02*
D03*
X-101700Y15781D02*
D03*
X-104300Y21800D02*
D03*
Y18587D02*
D03*
X-126750Y-26500D02*
D03*
X-65350Y66550D02*
D03*
X-76400Y58950D02*
D03*
X-48150Y54550D02*
D03*
X-125800Y116400D02*
D03*
X-111900Y17200D02*
D03*
X-104750Y30600D02*
D03*
X-112600Y30400D02*
D03*
X-115400Y30500D02*
D03*
X-112153Y20200D02*
D03*
X-97450Y43900D02*
D03*
X-84500Y106250D02*
D03*
X-72250Y100250D02*
D03*
X-91100Y87609D02*
D03*
X-96200Y81800D02*
D03*
X-91900Y83400D02*
D03*
X-91100Y90900D02*
D03*
X-98700Y89500D02*
D03*
X-184850Y51600D02*
D03*
X-183100Y69300D02*
D03*
X-187800Y74700D02*
D03*
X-183000Y60700D02*
D03*
X-119876Y41200D02*
D03*
X-116776D02*
D03*
X-121350Y37900D02*
D03*
X-125850Y30500D02*
D03*
X-122650D02*
D03*
X-128900Y42600D02*
D03*
X-55850Y110450D02*
D03*
Y105600D02*
D03*
X-56650Y100900D02*
D03*
X-76250Y100350D02*
D03*
X-109000Y41900D02*
D03*
X-100700Y31850D02*
D03*
X-93400Y30950D02*
D03*
X-111900Y11800D02*
D03*
X-56000Y62600D02*
D03*
X-33850Y49200D02*
D03*
X-31700Y46300D02*
D03*
X-29400Y32550D02*
D03*
X-63000Y131200D02*
D03*
X-41200Y94050D02*
D03*
X-56700Y96800D02*
D03*
X-31950Y93850D02*
D03*
X-35900Y62650D02*
D03*
X-26950Y57550D02*
D03*
X-41550Y74450D02*
D03*
X-55850Y70650D02*
D03*
Y75700D02*
D03*
Y80700D02*
D03*
Y85850D02*
D03*
X-55900Y91050D02*
D03*
X-82900Y118309D02*
D03*
Y115209D02*
D03*
X-104500Y113700D02*
D03*
X-65000Y101300D02*
D03*
X-78350Y108750D02*
D03*
X-77250Y125850D02*
D03*
X-104550Y126350D02*
D03*
X-37500Y99050D02*
D03*
X-71250Y128850D02*
D03*
X-41450Y109200D02*
D03*
X-55900Y115350D02*
D03*
Y120250D02*
D03*
Y125100D02*
D03*
X-48350Y131050D02*
D03*
X-97550Y132000D02*
D03*
X-17800Y107950D02*
D03*
X-113600Y-25100D02*
D03*
X-108050Y-59800D02*
D03*
X-110250Y-51800D02*
D03*
X-103900Y-43900D02*
D03*
X-108050Y-53900D02*
D03*
X-110350Y-64100D02*
D03*
X-113950Y-85850D02*
D03*
X-239150Y103350D02*
D03*
X-223350Y107150D02*
D03*
X-220150Y107600D02*
D03*
X-216650Y107700D02*
D03*
X-212150Y103500D02*
D03*
X-207500Y100000D02*
D03*
X-203250Y99450D02*
D03*
X-198000Y99250D02*
D03*
X-188750Y95900D02*
D03*
X-220550Y84750D02*
D03*
X-215500D02*
D03*
X-217200Y72700D02*
D03*
X-230500Y93500D02*
D03*
X-225500Y93300D02*
D03*
X-191800Y103600D02*
D03*
X-195200Y72500D02*
D03*
X-200500Y72400D02*
D03*
X-198000Y84900D02*
D03*
X-193000D02*
D03*
X-205800Y72600D02*
D03*
X-203000Y84900D02*
D03*
X-208000D02*
D03*
X-235200Y64900D02*
D03*
X-193000Y62200D02*
D03*
X-207600Y57100D02*
D03*
X-206900Y62300D02*
D03*
X-211700Y67900D02*
D03*
X7471Y82519D02*
D03*
Y87519D02*
D03*
Y77519D02*
D03*
X-204500Y-88000D02*
D03*
X-176000Y37000D02*
D03*
X-28600Y2900D02*
D03*
X-22500Y-12600D02*
D03*
X-17500Y-12700D02*
D03*
X-177700Y25100D02*
D03*
X-174500Y23300D02*
D03*
X-169000Y108500D02*
D03*
X-111600Y117400D02*
D03*
X-109900Y125700D02*
D03*
X-8500Y38500D02*
D03*
X2500Y27500D02*
D03*
Y32500D02*
D03*
X-23500D02*
D03*
X-37500Y13000D02*
D03*
X-17500Y22500D02*
D03*
Y17500D02*
D03*
X-2500Y27500D02*
D03*
X-86600Y10500D02*
D03*
X-73400Y25600D02*
D03*
X-68200Y25500D02*
D03*
X-65600Y27200D02*
D03*
X-56100Y3400D02*
D03*
Y10400D02*
D03*
X-63100D02*
D03*
Y3400D02*
D03*
X-70100D02*
D03*
Y10400D02*
D03*
X-56100Y17400D02*
D03*
X-63100D02*
D03*
X-70100D02*
D03*
X-85800Y7100D02*
D03*
X-82500Y7500D02*
D03*
X-81500Y32000D02*
D03*
X-85500Y20500D02*
D03*
X-92250Y5150D02*
D03*
X-79000Y8000D02*
D03*
X-202500Y-85000D02*
D03*
X-208500Y-89000D02*
D03*
X-199300Y-86800D02*
D03*
X-58000Y-4500D02*
D03*
X-48000Y1000D02*
D03*
X-84000Y-11500D02*
D03*
X-24500Y15000D02*
D03*
X-29000Y9500D02*
D03*
X-10000Y6500D02*
D03*
X-17000Y2100D02*
D03*
X2500Y37500D02*
D03*
X-22500Y7500D02*
D03*
X-76700Y-42300D02*
D03*
X-48500Y-15000D02*
D03*
X-23700Y-29700D02*
D03*
X-21900Y-27300D02*
D03*
X-149700Y-110200D02*
D03*
X-146200Y-108800D02*
D03*
X-228800Y-70900D02*
D03*
X-208500Y-102500D02*
D03*
X-12500Y37500D02*
D03*
Y17500D02*
D03*
X-5500Y22500D02*
D03*
X-8500Y30000D02*
D03*
X12000Y7500D02*
D03*
X7500Y32500D02*
D03*
Y27500D02*
D03*
X2500Y17500D02*
D03*
X-2500D02*
D03*
Y7500D02*
D03*
X-24300Y2900D02*
D03*
X7500Y12500D02*
D03*
X-12500D02*
D03*
X2500Y2500D02*
D03*
X-2500D02*
D03*
X-195200Y-86900D02*
D03*
X-197100Y-71200D02*
D03*
X-192600D02*
D03*
X-202100Y-73300D02*
D03*
X-190700Y-77500D02*
D03*
X-158200Y43100D02*
D03*
X-162000Y42400D02*
D03*
X-184500Y33900D02*
D03*
X-184000Y8700D02*
D03*
X-149500Y60700D02*
D03*
X-145000Y39800D02*
D03*
X-209500Y-16200D02*
D03*
X-199400Y-5900D02*
D03*
X-203000Y-20600D02*
D03*
X-140500Y10300D02*
D03*
Y18500D02*
D03*
X-47900Y-123800D02*
D03*
X-99400Y-112200D02*
D03*
X-116200Y-108400D02*
D03*
X-114600Y-112300D02*
D03*
X-172200Y-19100D02*
D03*
X-182400Y-18800D02*
D03*
X-179400Y-18900D02*
D03*
X-179100Y600D02*
D03*
X-151000Y-42800D02*
D03*
X-151300Y-37100D02*
D03*
X-221000Y26700D02*
D03*
X-113700Y-29300D02*
D03*
X-157700Y-19100D02*
D03*
X-181300Y-6300D02*
D03*
X-156750Y-37600D02*
D03*
X-139900Y-50300D02*
D03*
X-157800Y-33300D02*
D03*
X-61400Y-33400D02*
D03*
X-58400D02*
D03*
X-55400D02*
D03*
X-102600Y-33300D02*
D03*
X-64400Y-33400D02*
D03*
X-150450Y18500D02*
D03*
X-153400Y-700D02*
D03*
X-174200Y-800D02*
D03*
X-174500Y11700D02*
D03*
X-163410Y-6960D02*
D03*
X-153500Y32500D02*
D03*
X-66700Y58700D02*
D03*
X-255800Y-52800D02*
D03*
X-256000Y-34800D02*
D03*
X-178400Y10900D02*
D03*
X-55900Y44100D02*
D03*
X-58600Y46400D02*
D03*
X-45700Y44000D02*
D03*
X-76900Y46400D02*
D03*
X-81200Y52700D02*
D03*
Y42500D02*
D03*
X-87650Y43700D02*
D03*
X-177100Y46500D02*
D03*
X-157100Y35900D02*
D03*
X-177900Y28500D02*
D03*
X-147100Y85500D02*
D03*
X-17400Y42500D02*
D03*
X-177100D02*
D03*
X-157000Y32600D02*
D03*
X-163100Y53800D02*
D03*
X-133000Y45100D02*
D03*
X-137000Y44800D02*
D03*
X-76318Y55518D02*
D03*
X-129500Y49900D02*
D03*
X-185500Y3500D02*
D03*
X-198300Y28700D02*
D03*
X-205900Y23900D02*
D03*
X-203200Y13600D02*
D03*
X-200500Y9000D02*
D03*
X-178100Y50800D02*
D03*
X-184900Y54600D02*
D03*
X-222600Y3600D02*
D03*
X-222800Y13700D02*
D03*
X-222900Y18600D02*
D03*
X-222300Y23700D02*
D03*
X-199320Y55821D02*
D03*
X-201880Y52380D02*
D03*
X-200600Y33700D02*
D03*
Y38700D02*
D03*
X-223700Y-4500D02*
D03*
X-203100Y-2200D02*
D03*
X-203600Y-9700D02*
D03*
X-224500Y-500D02*
D03*
X-220100Y5800D02*
D03*
X-223000Y38800D02*
D03*
X-221400Y48700D02*
D03*
X-218700Y43500D02*
D03*
X-221500Y53700D02*
D03*
X-221300Y58700D02*
D03*
X-255400Y60000D02*
D03*
X-255700Y-15400D02*
D03*
X-255500Y2900D02*
D03*
X-236100Y27700D02*
D03*
X-256000Y21900D02*
D03*
X-256100Y40800D02*
D03*
X-255700Y77400D02*
D03*
X-239400Y68400D02*
D03*
X-149300Y115900D02*
D03*
X-135800Y103800D02*
D03*
X-140000Y103200D02*
D03*
X-136800Y107400D02*
D03*
X-131600Y100400D02*
D03*
X-139062Y60138D02*
D03*
X-141500Y81500D02*
D03*
X-143600Y85200D02*
D03*
X-150300Y77000D02*
D03*
X-187800Y79600D02*
D03*
X-149600Y54400D02*
D03*
Y57600D02*
D03*
X-149500Y63800D02*
D03*
Y67100D02*
D03*
X-146900Y81900D02*
D03*
X-156800Y77200D02*
D03*
X-159800Y77000D02*
D03*
X-163100Y77300D02*
D03*
X-165800Y70800D02*
D03*
X-165600Y65200D02*
D03*
X-162900Y62600D02*
D03*
X-165700Y61100D02*
D03*
X-169400Y55100D02*
D03*
X-172948Y57552D02*
D03*
X-163400Y73200D02*
D03*
X-163500Y67900D02*
D03*
X-163000Y57100D02*
D03*
X-166200Y57900D02*
D03*
X-172400Y54500D02*
D03*
X-177200Y80200D02*
D03*
X-176500Y83800D02*
D03*
X-172359Y91700D02*
D03*
X-169209Y92809D02*
D03*
X-166060Y92300D02*
D03*
X-159761Y92139D02*
D03*
X-156611Y92800D02*
D03*
X-153461Y92239D02*
D03*
X-150300Y89000D02*
D03*
Y104400D02*
D03*
X-172300Y104700D02*
D03*
X-169200Y105100D02*
D03*
X-149700Y107600D02*
D03*
X-164000Y124200D02*
D03*
X-165700Y121400D02*
D03*
X-163900Y114300D02*
D03*
X-163800Y110100D02*
D03*
X-178100Y99800D02*
D03*
X-132600Y81600D02*
D03*
X-133300Y49900D02*
D03*
X-125900Y113300D02*
D03*
X-184000Y115900D02*
D03*
Y112676D02*
D03*
X-172400Y109500D02*
D03*
X-195800Y119700D02*
D03*
X-195500Y125800D02*
D03*
X-173000Y118900D02*
D03*
Y122100D02*
D03*
X-117900Y72900D02*
D03*
X-113700Y65200D02*
D03*
X-109400Y65300D02*
D03*
X-129500Y86600D02*
D03*
X-125300Y88900D02*
D03*
X-122300D02*
D03*
X-119100Y92500D02*
D03*
X-166100Y104600D02*
D03*
X-162900D02*
D03*
X-159800Y104500D02*
D03*
X-156600Y104400D02*
D03*
X-153500D02*
D03*
X-132500Y129200D02*
D03*
X-138900Y110100D02*
D03*
X-149200Y112700D02*
D03*
X-172400Y136500D02*
D03*
X-146900Y130900D02*
D03*
X-133200Y132000D02*
D03*
X-149650Y139050D02*
D03*
X-156650Y135250D02*
D03*
X-162910Y135200D02*
D03*
X-159800Y135300D02*
D03*
X-117000Y103400D02*
D03*
X-121400Y106800D02*
D03*
X-125600Y106900D02*
D03*
X-112900Y92300D02*
D03*
X-109700Y92200D02*
D03*
X-125500Y76600D02*
D03*
X-125200Y73300D02*
D03*
X-125100Y70000D02*
D03*
X-125200Y66900D02*
D03*
X-125300Y62200D02*
D03*
X-125600Y58700D02*
D03*
X-121300Y59900D02*
D03*
Y56500D02*
D03*
X-116000Y53800D02*
D03*
X-103400Y89500D02*
D03*
X-102760Y60540D02*
D03*
X-125800Y122700D02*
D03*
Y119600D02*
D03*
X-17300Y37900D02*
D03*
X-81000Y55900D02*
D03*
Y60800D02*
D03*
X-81200Y70200D02*
D03*
X-84300Y78700D02*
D03*
X-12600Y42600D02*
D03*
X-17600Y97600D02*
D03*
X-12700Y97300D02*
D03*
X-17600Y87600D02*
D03*
X-12600Y92300D02*
D03*
X-17600Y82300D02*
D03*
X-12600D02*
D03*
Y87300D02*
D03*
X-17529Y52519D02*
D03*
X-17600Y57300D02*
D03*
Y62300D02*
D03*
X-12600Y67300D02*
D03*
Y57300D02*
D03*
X-100800Y91700D02*
D03*
X-106500Y91500D02*
D03*
X-8500Y102400D02*
D03*
X-2700Y77600D02*
D03*
X-17609Y92600D02*
D03*
X-17600Y67300D02*
D03*
X-125500Y125900D02*
D03*
X-111700Y114300D02*
D03*
Y111300D02*
D03*
X-114100Y109100D02*
D03*
X-117000Y106500D02*
D03*
X-119100Y109200D02*
D03*
X-123500Y109300D02*
D03*
X-120300Y137800D02*
D03*
X-17529Y-62481D02*
D03*
X2471Y92519D02*
D03*
X7411Y92460D02*
D03*
X-2529Y82519D02*
D03*
X2471D02*
D03*
X7471Y72519D02*
D03*
Y-17481D02*
D03*
Y-42481D02*
D03*
X-2529Y-47481D02*
D03*
Y-52481D02*
D03*
X-17529Y72519D02*
D03*
Y77519D02*
D03*
X2571Y-37381D02*
D03*
X-2500Y-32500D02*
D03*
X7471Y102519D02*
D03*
X2471Y97519D02*
D03*
X7471D02*
D03*
X2471Y102519D02*
D03*
X-2529Y97519D02*
D03*
Y87519D02*
D03*
Y92519D02*
D03*
X2471Y87519D02*
D03*
X-2529Y47519D02*
D03*
X2471Y-12481D02*
D03*
Y-32481D02*
D03*
X7471Y-37481D02*
D03*
X-2529Y-57481D02*
D03*
X2471Y-67481D02*
D03*
Y-87481D02*
D03*
X7471Y-77481D02*
D03*
Y-47481D02*
D03*
X-12529Y52519D02*
D03*
X2471Y-47481D02*
D03*
X-12629Y47419D02*
D03*
X7471Y52519D02*
D03*
Y42519D02*
D03*
X-12600Y-12500D02*
D03*
X-2400Y-12000D02*
D03*
X-2200Y-7500D02*
D03*
X2900Y-7100D02*
D03*
X2600Y-2500D02*
D03*
X-17500Y-7900D02*
D03*
X-12600Y77200D02*
D03*
X-2900Y42900D02*
D03*
X-2529Y102519D02*
D03*
X-13000Y102500D02*
D03*
X-197900Y-24400D02*
D03*
X-188000Y-22300D02*
D03*
X-178200Y-6250D02*
D03*
X-184400Y-23100D02*
D03*
X-186100Y-26300D02*
D03*
X-183800Y-29100D02*
D03*
X-186000Y-44000D02*
D03*
X-200600Y-36200D02*
D03*
X-213600Y-30300D02*
D03*
X-213400Y-36200D02*
D03*
X-198000Y-57400D02*
D03*
X-197700Y-43800D02*
D03*
X-200600Y-53400D02*
D03*
X-200800Y-66900D02*
D03*
X-200700Y-61200D02*
D03*
X-167300Y-19100D02*
D03*
X-164185Y-18915D02*
D03*
X-161100Y-19000D02*
D03*
X-170200Y-28600D02*
D03*
X-170100Y-34300D02*
D03*
X-166200Y-33200D02*
D03*
X-168100Y-69700D02*
D03*
X-148400Y-29700D02*
D03*
X-136900Y-37300D02*
D03*
X-137900Y-46600D02*
D03*
X-137200Y-42300D02*
D03*
X-162100Y-79200D02*
D03*
X-162000Y-68200D02*
D03*
X-163100Y-65200D02*
D03*
X-166100Y-79300D02*
D03*
X-172000Y-69400D02*
D03*
X-170100Y-79300D02*
D03*
X-174000Y-79400D02*
D03*
X-153300Y-69500D02*
D03*
X-153900Y-79500D02*
D03*
X-176000Y-69500D02*
D03*
X-179800D02*
D03*
X-186000Y-47300D02*
D03*
X-184100Y-50000D02*
D03*
X-184300Y-55800D02*
D03*
X-183800Y-64000D02*
D03*
X-187100Y-63700D02*
D03*
X-174000Y-67200D02*
D03*
X-164400Y-59700D02*
D03*
X-187100Y-69300D02*
D03*
X7471Y-57481D02*
D03*
X-12529Y-77481D02*
D03*
X-17529Y-67481D02*
D03*
X-97000Y-33300D02*
D03*
X-87100Y-33400D02*
D03*
Y-42200D02*
D03*
X-96900D02*
D03*
X-65200Y-42300D02*
D03*
X-81800Y-48000D02*
D03*
X-91100Y-64500D02*
D03*
X-101500D02*
D03*
X-96900Y-73700D02*
D03*
X-86800Y-73600D02*
D03*
X-64500Y-75400D02*
D03*
X-95200Y-49000D02*
D03*
X-2200Y-62600D02*
D03*
X-69900Y-88300D02*
D03*
X-58900Y-93400D02*
D03*
X-69400Y-92100D02*
D03*
X-40500Y-116900D02*
D03*
X-55700Y-116000D02*
D03*
X-53200Y-98300D02*
D03*
X-56000D02*
D03*
X-58700D02*
D03*
X-99300Y-105200D02*
D03*
Y-98200D02*
D03*
Y-90500D02*
D03*
X-114800D02*
D03*
X-115500Y-98200D02*
D03*
X-228700Y-67000D02*
D03*
X-221700Y-70900D02*
D03*
X-200600Y-47700D02*
D03*
X-213800Y-47500D02*
D03*
X-197800Y-40000D02*
D03*
X-240800Y-47100D02*
D03*
X-239600Y-40300D02*
D03*
X-229800Y-33500D02*
D03*
X-239300Y-30900D02*
D03*
X-233900Y-65300D02*
D03*
X-238100Y-75200D02*
D03*
X-250900Y-57500D02*
D03*
X-237900Y-58400D02*
D03*
X-229700Y-55800D02*
D03*
X-217700Y-98600D02*
D03*
X-217500Y-92100D02*
D03*
X-212100Y-98400D02*
D03*
X-212200Y-85400D02*
D03*
X-199400Y-108900D02*
D03*
X-203800Y-103000D02*
D03*
X-195000D02*
D03*
X-190600Y-108900D02*
D03*
X-186100Y-103300D02*
D03*
X-181700Y-109200D02*
D03*
X-177100Y-103200D02*
D03*
X-172700Y-109100D02*
D03*
X-168500Y-103100D02*
D03*
X-164100Y-109000D02*
D03*
X-159700Y-103200D02*
D03*
X-155300Y-109100D02*
D03*
X-150600Y-102900D02*
D03*
X-194900Y-92700D02*
D03*
X-186000Y-92800D02*
D03*
X-190400Y-86900D02*
D03*
X-177400Y-92700D02*
D03*
X-181800Y-86800D02*
D03*
X-168500Y-92700D02*
D03*
X-172900Y-86800D02*
D03*
X-159600Y-92800D02*
D03*
X-164000Y-86900D02*
D03*
X-150500Y-92700D02*
D03*
X-154900Y-86800D02*
D03*
X-141900Y-92800D02*
D03*
X-146300Y-86900D02*
D03*
X-136700Y-108700D02*
D03*
X-137000Y-94200D02*
D03*
X-120939Y-95600D02*
D03*
X-125600Y-103100D02*
D03*
X-115500Y-104900D02*
D03*
X-126200Y-122600D02*
D03*
X-137100Y-57700D02*
D03*
X-187100Y-40200D02*
D03*
X-187000Y-33700D02*
D03*
X-187100Y-37200D02*
D03*
X-110250Y-57700D02*
D03*
X-112650Y-61600D02*
D03*
X-112550Y-49800D02*
D03*
Y-55700D02*
D03*
X-170100Y-40100D02*
D03*
X-169700Y-55000D02*
D03*
X-169900Y-51100D02*
D03*
X-170000Y-45500D02*
D03*
X-38100Y-101200D02*
D03*
X-36600Y-95200D02*
D03*
X-211100Y33300D02*
D03*
X-182100Y-80200D02*
D03*
X-145100Y-123200D02*
D03*
X-212100Y-75700D02*
D03*
X-210100Y-70200D02*
D03*
X-221800Y-67100D02*
D03*
X-217500Y-63700D02*
D03*
X-219100Y-82700D02*
D03*
X-6700Y-64000D02*
D03*
X-200700Y-30200D02*
D03*
X-210000Y-21300D02*
D03*
X-192750Y-850D02*
D03*
X-145100Y46800D02*
D03*
X-184100Y22300D02*
D03*
X-184600Y47300D02*
D03*
X-158100Y-81700D02*
D03*
X-2529Y-77481D02*
D03*
X-9150Y-92250D02*
D03*
X-152700Y-55900D02*
D03*
X-113400Y-77500D02*
D03*
X-111100Y-73600D02*
D03*
X-113400Y-71600D02*
D03*
X-111100Y-79500D02*
D03*
X-108900Y-75700D02*
D03*
Y-81600D02*
D03*
X-111200Y-83800D02*
D03*
X-66500Y-70900D02*
D03*
X-12529Y-52481D02*
D03*
X-17529D02*
D03*
Y-57481D02*
D03*
X-12529Y-47481D02*
D03*
X-17529D02*
D03*
X-60200Y-75400D02*
D03*
X-76200Y-75355D02*
D03*
X-156500Y29100D02*
D03*
X-150500Y32900D02*
D03*
X-2529Y-42481D02*
D03*
X-12300Y-37300D02*
D03*
X-8600Y-37400D02*
D03*
X-2529Y-27481D02*
D03*
X2500Y-17500D02*
D03*
X-2300Y-22800D02*
D03*
X2600Y-22400D02*
D03*
Y-27500D02*
D03*
X-12200Y-32800D02*
D03*
X-10900Y-26800D02*
D03*
X-12100Y-17100D02*
D03*
X-17529Y-42481D02*
D03*
X-54100Y-66300D02*
D03*
X-57100D02*
D03*
X-60000Y-50500D02*
D03*
X-28700Y-93650D02*
D03*
X-23400Y-90050D02*
D03*
X-26400Y-91100D02*
D03*
X-23550Y-65250D02*
D03*
X-26600Y-65300D02*
D03*
X-29850Y-65350D02*
D03*
X-39250Y-75200D02*
D03*
X-111700Y120500D02*
D03*
X-109429Y122471D02*
D03*
X-109600Y106500D02*
D03*
X-88900Y110950D02*
D03*
X-88700Y115900D02*
D03*
X-37400Y95400D02*
D03*
Y91000D02*
D03*
X-36300Y67500D02*
D03*
X-46400Y58700D02*
D03*
X-42800Y125900D02*
D03*
X-45600Y128600D02*
D03*
X-35000Y118500D02*
D03*
Y113000D02*
D03*
Y106000D02*
D03*
X-34500Y78000D02*
D03*
X-68000Y131000D02*
D03*
X-77000Y96000D02*
D03*
Y89400D02*
D03*
Y86000D02*
D03*
X-78000Y79000D02*
D03*
X-78500Y120000D02*
D03*
Y131000D02*
D03*
X-77000Y92800D02*
D03*
X-92860Y26710D02*
D03*
X-83590Y26160D02*
D03*
X-219500Y-78000D02*
D03*
X-213900Y-61200D02*
D03*
X-210200Y-57500D02*
D03*
X23000Y126100D02*
D03*
X23200Y122600D02*
D03*
X18800Y108600D02*
D03*
X3253Y130053D02*
D03*
X1400Y123200D02*
D03*
X7000Y118400D02*
D03*
Y114000D02*
D03*
X13500Y119500D02*
D03*
X7471Y62519D02*
D03*
X13500Y115500D02*
D03*
X18000Y134500D02*
D03*
X22200Y134100D02*
D03*
X23000Y130700D02*
D03*
X-12200Y116700D02*
D03*
X-2529Y107519D02*
D03*
X-109800Y76700D02*
D03*
X-104950Y69900D02*
D03*
X-122900Y64400D02*
D03*
X-113000Y73600D02*
D03*
X-116100Y76800D02*
D03*
X-107100Y67500D02*
D03*
X-115800Y67600D02*
D03*
X-111600Y67700D02*
D03*
X-101700Y12682D02*
D03*
X-28800Y-82600D02*
D03*
X-25200Y-79900D02*
D03*
M02*
