%FSLAX25Y25*%
%MOIN*%
G70*
G01*
G75*
G04 Layer_Color=16711935*
%ADD10R,0.03740X0.03937*%
%ADD11R,0.03937X0.03543*%
%ADD12R,0.03937X0.03740*%
%ADD13R,0.05906X0.01772*%
%ADD14R,0.03347X0.01772*%
%ADD15R,0.03347X0.01181*%
%ADD16R,0.02362X0.06102*%
%ADD17R,0.03543X0.03937*%
%ADD18R,0.03543X0.04331*%
%ADD19R,0.01575X0.03543*%
%ADD20R,0.07874X0.02362*%
%ADD21R,0.07087X0.04921*%
%ADD22R,0.03543X0.01575*%
%ADD23O,0.04331X0.01378*%
%ADD24O,0.01378X0.04331*%
%ADD25R,0.16535X0.16535*%
%ADD26R,0.04134X0.02559*%
%ADD27R,0.01181X0.05906*%
%ADD28R,0.05906X0.01181*%
%ADD29C,0.03937*%
%ADD30O,0.03347X0.01181*%
%ADD31O,0.01181X0.03347*%
%ADD32R,0.25000X0.25000*%
%ADD33R,0.08661X0.06102*%
%ADD34R,0.07008X0.14016*%
%ADD35R,0.05906X0.02165*%
%ADD36R,0.02165X0.05906*%
%ADD37C,0.02520*%
%ADD38R,0.09843X0.06890*%
%ADD39R,0.01181X0.03347*%
%ADD40R,0.08465X0.03740*%
%ADD41R,0.08465X0.12795*%
%ADD42R,0.04921X0.07087*%
%ADD43R,0.05512X0.04134*%
%ADD44R,0.06102X0.02362*%
%ADD45P,0.05568X4X360.0*%
%ADD46P,0.05568X4X270.0*%
%ADD47R,0.01772X0.05906*%
%ADD48C,0.00600*%
%ADD49C,0.01000*%
%ADD50C,0.01200*%
%ADD51C,0.00800*%
%ADD52C,0.03000*%
%ADD53C,0.01500*%
%ADD54C,0.02000*%
%ADD55C,0.00820*%
%ADD56C,0.04000*%
%ADD57C,0.02400*%
%ADD58C,0.00500*%
%ADD59C,0.06693*%
%ADD60C,0.09449*%
%ADD61C,0.07480*%
%ADD62C,0.17716*%
%ADD63C,0.22835*%
%ADD64C,0.02400*%
%ADD65R,0.08000X0.32000*%
%ADD66R,0.08000X0.08000*%
%ADD67C,0.05137*%
%ADD68C,0.07893*%
%ADD69C,0.05924*%
%ADD70C,0.11830*%
%ADD71C,0.06318*%
%ADD72R,0.08000X0.24000*%
%ADD73R,0.08000X0.16000*%
G04:AMPARAMS|DCode=74|XSize=99.37mil|YSize=99.37mil|CornerRadius=0mil|HoleSize=0mil|Usage=FLASHONLY|Rotation=0.000|XOffset=0mil|YOffset=0mil|HoleType=Round|Shape=Relief|Width=30mil|Gap=10mil|Entries=4|*
%AMTHD74*
7,0,0,0.09937,0.07937,0.03000,45*
%
%ADD74THD74*%
G04:AMPARAMS|DCode=75|XSize=126.929mil|YSize=126.929mil|CornerRadius=0mil|HoleSize=0mil|Usage=FLASHONLY|Rotation=0.000|XOffset=0mil|YOffset=0mil|HoleType=Round|Shape=Relief|Width=30mil|Gap=10mil|Entries=4|*
%AMTHD75*
7,0,0,0.12693,0.10693,0.03000,45*
%
%ADD75THD75*%
G04:AMPARAMS|DCode=76|XSize=166.299mil|YSize=166.299mil|CornerRadius=0mil|HoleSize=0mil|Usage=FLASHONLY|Rotation=0.000|XOffset=0mil|YOffset=0mil|HoleType=Round|Shape=Relief|Width=30mil|Gap=10mil|Entries=4|*
%AMTHD76*
7,0,0,0.16630,0.14630,0.03000,45*
%
%ADD76THD76*%
%ADD77R,0.06890X0.06102*%
%ADD78R,0.04134X0.05512*%
%ADD79R,0.04528X0.05709*%
%ADD80C,0.04724*%
%ADD81R,0.04528X0.07087*%
%ADD82R,0.05709X0.04528*%
%ADD83R,0.02559X0.04134*%
%ADD84R,0.13583X0.05118*%
%ADD85C,0.01969*%
%ADD86C,0.00984*%
%ADD87C,0.02362*%
%ADD88C,0.00394*%
%ADD89C,0.00787*%
%ADD90C,0.00700*%
%ADD91C,0.00799*%
%ADD92C,0.01181*%
%ADD93R,0.10472X0.10472*%
%ADD94C,0.00000*%
%ADD95P,0.00000X4X360.0*%
%ADD96P,0.00000X4X270.0*%
%ADD97R,0.04540X0.04737*%
%ADD98R,0.04737X0.04343*%
%ADD99R,0.04737X0.04540*%
%ADD100R,0.06706X0.02572*%
%ADD101R,0.04147X0.02572*%
%ADD102R,0.04147X0.01981*%
%ADD103R,0.03162X0.06902*%
%ADD104R,0.04343X0.04737*%
%ADD105R,0.04343X0.05131*%
%ADD106R,0.02375X0.04343*%
%ADD107R,0.08674X0.03162*%
%ADD108R,0.07887X0.05721*%
%ADD109R,0.04343X0.02375*%
%ADD110O,0.05131X0.02178*%
%ADD111O,0.02178X0.05131*%
%ADD112R,0.17335X0.17335*%
%ADD113R,0.04934X0.03359*%
%ADD114R,0.01981X0.06706*%
%ADD115R,0.06706X0.01981*%
%ADD116C,0.07874*%
%ADD117O,0.04147X0.01981*%
%ADD118O,0.01981X0.04147*%
%ADD119R,0.25800X0.25800*%
%ADD120R,0.09461X0.06902*%
%ADD121R,0.07808X0.14816*%
%ADD122R,0.06706X0.02965*%
%ADD123R,0.02965X0.06706*%
%ADD124C,0.03320*%
%ADD125R,0.10642X0.07690*%
%ADD126R,0.01981X0.04147*%
%ADD127R,0.09265X0.04540*%
%ADD128R,0.09265X0.13595*%
%ADD129R,0.05721X0.07887*%
%ADD130R,0.06312X0.04934*%
%ADD131R,0.06902X0.03162*%
%ADD132P,0.11136X4X360.0*%
%ADD133P,0.11136X4X270.0*%
%ADD134R,0.02572X0.06706*%
%ADD135C,0.07493*%
%ADD136C,0.10249*%
%ADD137C,0.08280*%
%ADD138C,0.18517*%
%ADD139C,0.23635*%
%ADD140C,0.06299*%
%ADD141R,0.24000X0.22000*%
%ADD142R,0.07690X0.06902*%
%ADD143R,0.04934X0.06312*%
%ADD144R,0.05328X0.06509*%
%ADD145C,0.05524*%
%ADD146R,0.05328X0.07887*%
%ADD147R,0.06509X0.05328*%
%ADD148R,0.03359X0.04934*%
%ADD149R,0.14383X0.05918*%
D97*
X-107350Y-5900D02*
D03*
X-101050D02*
D03*
X-78250Y104700D02*
D03*
X-71950D02*
D03*
X-165950Y42500D02*
D03*
X-172250D02*
D03*
X-144150Y27900D02*
D03*
X-150450D02*
D03*
X-196950Y62300D02*
D03*
X-203250D02*
D03*
X-174050Y-45400D02*
D03*
X-180350D02*
D03*
X-146950Y-37200D02*
D03*
X-140650D02*
D03*
X-198450Y-20600D02*
D03*
X-192150D02*
D03*
X-144050Y12800D02*
D03*
X-150350D02*
D03*
X13750Y134500D02*
D03*
X7450D02*
D03*
X-174050Y-40000D02*
D03*
X-180350D02*
D03*
X-174050Y-34100D02*
D03*
X-180350D02*
D03*
X-174050Y-28700D02*
D03*
X-180350D02*
D03*
Y-23300D02*
D03*
X-174050D02*
D03*
X-173950Y-51100D02*
D03*
X-180250D02*
D03*
X-146950Y-42800D02*
D03*
X-140650D02*
D03*
X-173950Y-56500D02*
D03*
X-180250D02*
D03*
Y-63600D02*
D03*
X-173950D02*
D03*
X-240650Y-61200D02*
D03*
X-246950D02*
D03*
X-29050Y-70700D02*
D03*
X-35350D02*
D03*
X-29050Y-76400D02*
D03*
X-35350D02*
D03*
D98*
X-32000Y83650D02*
D03*
Y89950D02*
D03*
X-220000Y75450D02*
D03*
Y81750D02*
D03*
X-214500Y75450D02*
D03*
Y81750D02*
D03*
X-220000Y89650D02*
D03*
Y95950D02*
D03*
X-214500Y89650D02*
D03*
Y95950D02*
D03*
X-192400Y75450D02*
D03*
Y81750D02*
D03*
X-192400Y89650D02*
D03*
Y95950D02*
D03*
X-197767Y75450D02*
D03*
Y81750D02*
D03*
X-197833Y89650D02*
D03*
Y95950D02*
D03*
X-208500Y75450D02*
D03*
Y81750D02*
D03*
X-203133Y75450D02*
D03*
Y81750D02*
D03*
X-208700Y89650D02*
D03*
Y95950D02*
D03*
X-203267Y89650D02*
D03*
Y95950D02*
D03*
X-229900Y31450D02*
D03*
Y37750D02*
D03*
X-157900Y-29450D02*
D03*
Y-23150D02*
D03*
X-236100Y31550D02*
D03*
Y37850D02*
D03*
X-229000Y74850D02*
D03*
Y68550D02*
D03*
X-234800Y68450D02*
D03*
Y74750D02*
D03*
X-218638Y14689D02*
D03*
Y20988D02*
D03*
X-219000Y-2750D02*
D03*
Y-9050D02*
D03*
X-166200Y-23050D02*
D03*
Y-29350D02*
D03*
X-213200Y-9050D02*
D03*
Y-2750D02*
D03*
X-216300Y-74550D02*
D03*
Y-68250D02*
D03*
D99*
X-76300Y39250D02*
D03*
Y32950D02*
D03*
X-124300Y35050D02*
D03*
Y41350D02*
D03*
X-113000Y41250D02*
D03*
Y34950D02*
D03*
X-211700Y63350D02*
D03*
Y57050D02*
D03*
X-178300Y69250D02*
D03*
Y75550D02*
D03*
X-188900Y60750D02*
D03*
Y54450D02*
D03*
X-137300Y113850D02*
D03*
Y120150D02*
D03*
X-134000Y35150D02*
D03*
Y41450D02*
D03*
X-108400Y14250D02*
D03*
Y20550D02*
D03*
X-6400Y112750D02*
D03*
Y119050D02*
D03*
X-144800Y-29650D02*
D03*
Y-23350D02*
D03*
X-153300Y-59850D02*
D03*
Y-66150D02*
D03*
X-168100Y-59901D02*
D03*
Y-66200D02*
D03*
D100*
X1439Y119339D02*
D03*
Y116779D02*
D03*
Y114220D02*
D03*
Y111661D02*
D03*
X18761D02*
D03*
Y114220D02*
D03*
Y116779D02*
D03*
Y119339D02*
D03*
D102*
X7294Y130053D02*
D03*
Y128084D02*
D03*
Y126116D02*
D03*
Y124147D02*
D03*
X19106D02*
D03*
Y126116D02*
D03*
Y128084D02*
D03*
Y130053D02*
D03*
D104*
X-99050Y39800D02*
D03*
X-92750D02*
D03*
X-65450Y62600D02*
D03*
X-59150D02*
D03*
X-52750Y62500D02*
D03*
X-46450D02*
D03*
X-67150Y97200D02*
D03*
X-60850D02*
D03*
X-52950Y98500D02*
D03*
X-46650D02*
D03*
X-52850Y91000D02*
D03*
X-46550D02*
D03*
X-65200D02*
D03*
X-58900D02*
D03*
X-65200Y70600D02*
D03*
X-58900D02*
D03*
X-65200Y75700D02*
D03*
X-58900D02*
D03*
X-52850D02*
D03*
X-46550D02*
D03*
X-52850Y70500D02*
D03*
X-46550D02*
D03*
X-65200Y80800D02*
D03*
X-58900D02*
D03*
X-65200Y85900D02*
D03*
X-58900D02*
D03*
X-52850D02*
D03*
X-46550D02*
D03*
X-52850Y80800D02*
D03*
X-46550D02*
D03*
X-65150Y105600D02*
D03*
X-58850D02*
D03*
X-65150Y110500D02*
D03*
X-58850D02*
D03*
X-52850D02*
D03*
X-46550D02*
D03*
X-52850Y105500D02*
D03*
X-46550D02*
D03*
X-65200Y115350D02*
D03*
X-58900D02*
D03*
X-65200Y120250D02*
D03*
X-58900D02*
D03*
X-65200Y125150D02*
D03*
X-58900D02*
D03*
X-52900Y120250D02*
D03*
X-46600D02*
D03*
X-52900Y115350D02*
D03*
X-46600D02*
D03*
X-106250Y104300D02*
D03*
X-99950D02*
D03*
X-100050Y110100D02*
D03*
X-106350D02*
D03*
X-100150Y117400D02*
D03*
X-106450D02*
D03*
Y122500D02*
D03*
X-100150D02*
D03*
X-107350Y47000D02*
D03*
X-113650D02*
D03*
X5750Y-98300D02*
D03*
X12050D02*
D03*
X-191250Y-53400D02*
D03*
X-197550D02*
D03*
X-203850D02*
D03*
X-210150D02*
D03*
X-203850Y-61200D02*
D03*
X-210150D02*
D03*
X-203850Y-30200D02*
D03*
X-210150D02*
D03*
X-203850Y-36200D02*
D03*
X-210150D02*
D03*
X-203850Y-66900D02*
D03*
X-210150D02*
D03*
X-191250Y-47700D02*
D03*
X-197550D02*
D03*
X-191301Y-30200D02*
D03*
X-197600D02*
D03*
X-191250Y-66900D02*
D03*
X-197550D02*
D03*
X-191301Y-36200D02*
D03*
X-197600D02*
D03*
X-203850Y-47700D02*
D03*
X-210150D02*
D03*
X-52900Y125150D02*
D03*
X-46600D02*
D03*
X-159750Y57100D02*
D03*
X-153450D02*
D03*
X-159750Y67900D02*
D03*
X-153450D02*
D03*
X-153350Y62500D02*
D03*
X-159650D02*
D03*
X-153450Y73300D02*
D03*
X-159750D02*
D03*
X-159450Y126800D02*
D03*
X-153150D02*
D03*
Y121500D02*
D03*
X-159450D02*
D03*
Y116000D02*
D03*
X-153150D02*
D03*
Y110700D02*
D03*
X-159450D02*
D03*
X-231850Y-93900D02*
D03*
X-238150D02*
D03*
X-229350Y-600D02*
D03*
X-235650D02*
D03*
X-197550Y-61200D02*
D03*
X-191250D02*
D03*
X-251750Y-93900D02*
D03*
X-258050D02*
D03*
D113*
X-248972Y-43600D02*
D03*
X-258028Y-39860D02*
D03*
Y-47340D02*
D03*
X-207528Y-6000D02*
D03*
X-198472Y-9740D02*
D03*
Y-2260D02*
D03*
X-248772Y-6500D02*
D03*
X-257828Y-2760D02*
D03*
Y-10240D02*
D03*
X-248572Y68700D02*
D03*
X-257628Y72440D02*
D03*
Y64960D02*
D03*
X-248972Y31200D02*
D03*
X-258028Y34940D02*
D03*
Y27460D02*
D03*
D131*
X-93430Y110900D02*
D03*
Y115900D02*
D03*
Y120900D02*
D03*
Y125900D02*
D03*
X-72170Y110900D02*
D03*
Y115900D02*
D03*
Y120900D02*
D03*
Y125900D02*
D03*
D132*
X-253100Y114800D02*
D03*
X-255600Y-105700D02*
D03*
X11900Y-112700D02*
D03*
D135*
X-238100Y-87200D02*
D03*
X-228100D02*
D03*
X-248100D02*
D03*
X-258100D02*
D03*
D136*
X-265100Y77300D02*
D03*
X-245100Y97300D02*
D03*
X-265100D02*
D03*
X-245100Y77300D02*
D03*
Y39800D02*
D03*
X-265100Y59800D02*
D03*
X-245100D02*
D03*
X-265100Y39800D02*
D03*
X-245100Y-35200D02*
D03*
X-265100Y-15200D02*
D03*
X-245100D02*
D03*
X-265100Y-35200D02*
D03*
X-245100Y-72700D02*
D03*
X-265100Y-52700D02*
D03*
X-245100D02*
D03*
X-265100Y-72700D02*
D03*
Y2300D02*
D03*
X-245100Y22300D02*
D03*
X-265100D02*
D03*
X-245100Y2300D02*
D03*
D137*
X-255100Y87300D02*
D03*
Y49800D02*
D03*
Y-25200D02*
D03*
Y-62700D02*
D03*
Y12300D02*
D03*
D138*
X-230364Y116021D02*
D03*
Y-106617D02*
D03*
D139*
X-15403Y131572D02*
D03*
X-15500Y-116500D02*
D03*
D140*
X-19529Y114569D02*
D03*
X-7529Y-99531D02*
D03*
D141*
X-126000Y15000D02*
D03*
D142*
X13200Y127100D02*
D03*
D143*
X-164957Y36000D02*
D03*
X-172043D02*
D03*
X-103057Y-90500D02*
D03*
X-110143D02*
D03*
X-103013Y-98200D02*
D03*
X-110100D02*
D03*
X-103013Y-112200D02*
D03*
X-110100D02*
D03*
X-103013Y-105200D02*
D03*
X-110100D02*
D03*
X-42657Y-98300D02*
D03*
X-49743D02*
D03*
D144*
X-172143Y28600D02*
D03*
X-165057D02*
D03*
X-202243Y-77600D02*
D03*
X-195157D02*
D03*
D145*
X-104500Y34800D02*
D03*
X-89600Y34400D02*
D03*
X-97000Y34600D02*
D03*
D146*
X-223091Y-51000D02*
D03*
X-234509D02*
D03*
X-223091Y-42200D02*
D03*
X-234509D02*
D03*
X-223191Y-33600D02*
D03*
X-234609D02*
D03*
D147*
X-151700Y44543D02*
D03*
Y37457D02*
D03*
D148*
X-220840Y-21172D02*
D03*
X-213360D02*
D03*
X-217100Y-30228D02*
D03*
D149*
X-230800Y83629D02*
D03*
Y99771D02*
D03*
X-231300Y44329D02*
D03*
Y60471D02*
D03*
X-231200Y6729D02*
D03*
Y22871D02*
D03*
X-231400Y-9029D02*
D03*
Y-25171D02*
D03*
X-229300Y-76771D02*
D03*
Y-60629D02*
D03*
M02*
