%FSLAX25Y25*%
%MOIN*%
G70*
G01*
G75*
G04 Layer_Color=32896*
%ADD10R,0.03740X0.03937*%
%ADD11R,0.03937X0.03543*%
%ADD12R,0.03937X0.03740*%
%ADD13R,0.05906X0.01772*%
%ADD14R,0.03347X0.01772*%
%ADD15R,0.03347X0.01181*%
%ADD16R,0.02362X0.06102*%
%ADD17R,0.03543X0.03937*%
%ADD18R,0.03543X0.04331*%
%ADD19R,0.01575X0.03543*%
%ADD20R,0.07874X0.02362*%
%ADD21R,0.07087X0.04921*%
%ADD22R,0.03543X0.01575*%
%ADD23O,0.04331X0.01378*%
%ADD24O,0.01378X0.04331*%
%ADD25R,0.16535X0.16535*%
%ADD26R,0.04134X0.02559*%
%ADD27R,0.01181X0.05906*%
%ADD28R,0.05906X0.01181*%
%ADD29C,0.03937*%
%ADD30O,0.03347X0.01181*%
%ADD31O,0.01181X0.03347*%
%ADD32R,0.25000X0.25000*%
%ADD33R,0.08661X0.06102*%
%ADD34R,0.07008X0.14016*%
%ADD35R,0.05906X0.02165*%
%ADD36R,0.02165X0.05906*%
%ADD37C,0.02520*%
%ADD38R,0.09843X0.06890*%
%ADD39R,0.01181X0.03347*%
%ADD40R,0.08465X0.03740*%
%ADD41R,0.08465X0.12795*%
%ADD42R,0.04921X0.07087*%
%ADD43R,0.05512X0.04134*%
%ADD44R,0.06102X0.02362*%
%ADD45P,0.05568X4X360.0*%
%ADD46P,0.05568X4X270.0*%
%ADD47R,0.01772X0.05906*%
%ADD48C,0.00600*%
%ADD49C,0.01000*%
%ADD50C,0.01200*%
%ADD51C,0.00800*%
%ADD52C,0.03000*%
%ADD53C,0.01500*%
%ADD54C,0.02000*%
%ADD55C,0.00820*%
%ADD56C,0.04000*%
%ADD57C,0.02400*%
%ADD58C,0.00500*%
%ADD59C,0.06693*%
%ADD60C,0.09449*%
%ADD61C,0.07480*%
%ADD62C,0.17716*%
%ADD63C,0.22835*%
%ADD64C,0.02400*%
%ADD65R,0.08000X0.32000*%
%ADD66R,0.08000X0.08000*%
%ADD67C,0.05137*%
%ADD68C,0.07893*%
%ADD69C,0.05924*%
%ADD70C,0.11830*%
%ADD71C,0.06318*%
%ADD72R,0.08000X0.24000*%
%ADD73R,0.08000X0.16000*%
G04:AMPARAMS|DCode=74|XSize=99.37mil|YSize=99.37mil|CornerRadius=0mil|HoleSize=0mil|Usage=FLASHONLY|Rotation=0.000|XOffset=0mil|YOffset=0mil|HoleType=Round|Shape=Relief|Width=30mil|Gap=10mil|Entries=4|*
%AMTHD74*
7,0,0,0.09937,0.07937,0.03000,45*
%
%ADD74THD74*%
G04:AMPARAMS|DCode=75|XSize=126.929mil|YSize=126.929mil|CornerRadius=0mil|HoleSize=0mil|Usage=FLASHONLY|Rotation=0.000|XOffset=0mil|YOffset=0mil|HoleType=Round|Shape=Relief|Width=30mil|Gap=10mil|Entries=4|*
%AMTHD75*
7,0,0,0.12693,0.10693,0.03000,45*
%
%ADD75THD75*%
G04:AMPARAMS|DCode=76|XSize=166.299mil|YSize=166.299mil|CornerRadius=0mil|HoleSize=0mil|Usage=FLASHONLY|Rotation=0.000|XOffset=0mil|YOffset=0mil|HoleType=Round|Shape=Relief|Width=30mil|Gap=10mil|Entries=4|*
%AMTHD76*
7,0,0,0.16630,0.14630,0.03000,45*
%
%ADD76THD76*%
%ADD77R,0.06890X0.06102*%
%ADD78R,0.04134X0.05512*%
%ADD79R,0.04528X0.05709*%
%ADD80C,0.04724*%
%ADD81R,0.04528X0.07087*%
%ADD82R,0.05709X0.04528*%
%ADD83R,0.02559X0.04134*%
%ADD84R,0.13583X0.05118*%
%ADD85C,0.01969*%
%ADD86C,0.00984*%
%ADD87C,0.02362*%
%ADD88C,0.00394*%
%ADD89C,0.00787*%
%ADD90C,0.00700*%
%ADD91C,0.00799*%
%ADD92C,0.01181*%
D51*
X-36192Y10783D02*
G03*
X-36192Y10783I-10926J0D01*
G01*
X8690Y59220D02*
Y93210D01*
X-9500Y110100D02*
X895Y99705D01*
X-32930Y119190D02*
X-17290D01*
X-36440Y122700D02*
X-32930Y119190D01*
X-67670Y103050D02*
Y122700D01*
X-70510Y100210D02*
X-67670Y103050D01*
X-70510Y61920D02*
Y100210D01*
Y61920D02*
X-65110Y56520D01*
X5840D01*
X8680Y59360D01*
X-222330Y-17410D02*
X-219240D01*
X-223190Y-16550D02*
X-222330Y-17410D01*
X-223190Y-16550D02*
Y-6790D01*
X-226770Y-3210D02*
X-223190Y-6790D01*
X-211250Y-104670D02*
X-190350D01*
X-186900Y-101220D01*
Y-46970D01*
X-189200Y-44670D02*
X-186900Y-46970D01*
X-9500Y110100D02*
Y111400D01*
X-17290Y119190D02*
X-9500Y111400D01*
X895Y99705D02*
X2195D01*
X8690Y93210D01*
X-43500Y122700D02*
X-36500D01*
X-39200Y-2400D02*
X-36300Y9500D01*
X-55200Y3300D02*
X-45300Y-7300D01*
X-65600Y18300D02*
X-63000Y6500D01*
X-59700Y-5500D02*
X-57800Y12300D01*
X-65000Y24000D02*
X-34000D01*
Y-10000D02*
Y24000D01*
X-66000Y-10000D02*
X-34000D01*
X-68000D02*
X-66000D01*
X-68000D02*
Y24000D01*
X-65000D01*
D58*
X-42371Y13109D02*
X-42133Y13585D01*
X-41657Y14061D01*
X-41180Y14299D01*
X-40228D01*
X-39752Y14061D01*
X-39276Y13585D01*
X-39038Y13109D01*
X-38800Y12395D01*
Y11204D01*
X-39038Y10490D01*
X-39276Y10014D01*
X-39752Y9538D01*
X-40228Y9300D01*
X-41180D01*
X-41657Y9538D01*
X-42133Y10014D01*
X-42371Y10490D01*
X-46870Y14299D02*
X-43775D01*
Y9300D01*
X-46870D01*
X-43775Y11919D02*
X-45680D01*
X-47703Y14299D02*
Y9300D01*
Y14299D02*
X-49845D01*
X-50559Y14061D01*
X-50797Y13823D01*
X-51035Y13347D01*
Y12871D01*
X-50797Y12395D01*
X-50559Y12156D01*
X-49845Y11919D01*
X-47703D01*
X-49369D02*
X-51035Y9300D01*
X-52154Y14299D02*
Y9300D01*
Y14299D02*
X-55487Y9300D01*
Y14299D02*
Y9300D01*
D86*
X23141Y130053D02*
G03*
X23141Y130053I-492J0D01*
G01*
X21222Y122193D02*
G03*
X21222Y122193I-492J0D01*
G01*
X-91757Y107554D02*
G03*
X-91757Y107554I-492J0D01*
G01*
X-258520Y-50687D02*
G03*
X-258520Y-50687I-492J0D01*
G01*
X-196996Y1087D02*
G03*
X-196996Y1087I-492J0D01*
G01*
X-258320Y-13587D02*
G03*
X-258320Y-13587I-492J0D01*
G01*
X-258120Y61613D02*
G03*
X-258120Y61613I-492J0D01*
G01*
X-258520Y24113D02*
G03*
X-258520Y24113I-492J0D01*
G01*
X-223694Y-20188D02*
G03*
X-223694Y-20188I-492J0D01*
G01*
D87*
X-83784Y112495D02*
G03*
X-83784Y112495I-1181J0D01*
G01*
D89*
X10592Y121405D02*
X14529Y117469D01*
X11379Y121405D02*
X14529Y118256D01*
X12167Y121405D02*
X14529Y119043D01*
X12954Y121405D02*
X14529Y119831D01*
X13742Y121405D02*
X14529Y120618D01*
Y109595D02*
Y121405D01*
X5671D02*
X14529D01*
X5671Y109595D02*
Y121405D01*
Y109595D02*
X14529D01*
X-104200Y-7869D02*
Y-3932D01*
X-95900Y37832D02*
Y41769D01*
X-62300Y60632D02*
Y64569D01*
X-33968Y86800D02*
X-30031D01*
X-49600Y60532D02*
Y64468D01*
X-64000Y95231D02*
Y99168D01*
X-49800Y96531D02*
Y100469D01*
X-49700Y89031D02*
Y92968D01*
X-62050Y89031D02*
Y92968D01*
Y68632D02*
Y72569D01*
Y73731D02*
Y77668D01*
X-49700Y73731D02*
Y77668D01*
Y68532D02*
Y72469D01*
X-62050Y78831D02*
Y82768D01*
Y83931D02*
Y87868D01*
X-49700Y83931D02*
Y87868D01*
Y78831D02*
Y82768D01*
X-75100Y102732D02*
Y106668D01*
X-62000Y103631D02*
Y107569D01*
Y108531D02*
Y112469D01*
X-49700Y108531D02*
Y112469D01*
Y103532D02*
Y107468D01*
X-62050Y113382D02*
Y117318D01*
Y118281D02*
Y122219D01*
X-62050Y123181D02*
Y127119D01*
X-49750Y118281D02*
Y122219D01*
X-49750Y113382D02*
Y117318D01*
X-88902Y108557D02*
Y128243D01*
X-76698Y108557D02*
Y128243D01*
X-88902Y108557D02*
X-76698D01*
X-88902Y128243D02*
X-76698D01*
X-221969Y78600D02*
X-218032D01*
X-216469D02*
X-212531D01*
X-221969Y92800D02*
X-218032D01*
X-216469D02*
X-212531D01*
X-194369Y78600D02*
X-190431D01*
X-194369Y92800D02*
X-190431D01*
X-199735Y78600D02*
X-195798D01*
X-199802Y92800D02*
X-195865D01*
X-210469Y78600D02*
X-206532D01*
X-205102D02*
X-201165D01*
X-210668Y92800D02*
X-206732D01*
X-205235D02*
X-201298D01*
X-103100Y102331D02*
Y106269D01*
X-103200Y108132D02*
Y112068D01*
X-103300Y115431D02*
Y119369D01*
Y120531D02*
Y124469D01*
X-78268Y36100D02*
X-74331D01*
X-110500Y45031D02*
Y48968D01*
X-169100Y40532D02*
Y44469D01*
X-147300Y25932D02*
Y29869D01*
X-168500Y33244D02*
Y38756D01*
X-168600Y25450D02*
Y31750D01*
X-126268Y38200D02*
X-122332D01*
X-114969Y38100D02*
X-111031D01*
X-200100Y60331D02*
Y64268D01*
X-213668Y60200D02*
X-209732D01*
X-231869Y34600D02*
X-227931D01*
X-180269Y72400D02*
X-176331D01*
X-190868Y57600D02*
X-186932D01*
X-139269Y117000D02*
X-135331D01*
X-177200Y-47368D02*
Y-43431D01*
X-230768Y-47457D02*
X-226832D01*
X-230768Y-54543D02*
X-226832D01*
X-106600Y-93256D02*
Y-87744D01*
X-106557Y-100956D02*
Y-95444D01*
Y-114956D02*
Y-109444D01*
Y-107956D02*
Y-102444D01*
X8900Y-100268D02*
Y-96332D01*
X-159869Y-26300D02*
X-155931D01*
X-194400Y-55369D02*
Y-51432D01*
X-207000Y-55369D02*
Y-51432D01*
Y-63169D02*
Y-59232D01*
Y-32168D02*
Y-28231D01*
Y-38168D02*
Y-34231D01*
Y-68868D02*
Y-64931D01*
X-143800Y-39169D02*
Y-35232D01*
X-194400Y-49668D02*
Y-45731D01*
X-194450Y-32168D02*
Y-28231D01*
X-194400Y-68868D02*
Y-64931D01*
X-194450Y-38168D02*
Y-34231D01*
X-207000Y-49668D02*
Y-45731D01*
X-195300Y-22569D02*
Y-18632D01*
X-154850Y41000D02*
X-148550D01*
X-147200Y10831D02*
Y14769D01*
X-135968Y38300D02*
X-132032D01*
X-110369Y17400D02*
X-106431D01*
X-8369Y115900D02*
X-4431D01*
X10600Y132531D02*
Y136469D01*
X-254681Y-49309D02*
Y-37891D01*
Y-49309D02*
X-252319D01*
Y-37891D01*
X-254681D02*
X-252319D01*
X-49750Y123181D02*
Y127119D01*
X-156600Y55132D02*
Y59069D01*
Y65931D02*
Y69868D01*
X-156500Y60532D02*
Y64468D01*
X-156600Y71332D02*
Y75269D01*
X-156300Y124831D02*
Y128769D01*
Y119532D02*
Y123468D01*
Y114032D02*
Y117968D01*
Y108731D02*
Y112669D01*
X-201819Y-11709D02*
Y-291D01*
X-204181D02*
X-201819D01*
X-204181Y-11709D02*
Y-291D01*
Y-11709D02*
X-201819D01*
X-254481Y-12209D02*
Y-791D01*
Y-12209D02*
X-252119D01*
Y-791D01*
X-254481D02*
X-252119D01*
X-254281Y62991D02*
Y74409D01*
Y62991D02*
X-251919D01*
Y74409D01*
X-254281D02*
X-251919D01*
X-254681Y25491D02*
Y36909D01*
Y25491D02*
X-252319D01*
Y36909D01*
X-254681D02*
X-252319D01*
X-46200Y-101056D02*
Y-95544D01*
X-211391Y-26881D02*
Y-24519D01*
X-222809Y-26881D02*
X-211391D01*
X-222809D02*
Y-24519D01*
X-211391D01*
X-235000Y-95869D02*
Y-91932D01*
X-238069Y34700D02*
X-234132D01*
X-230968Y71700D02*
X-227031D01*
X-236769Y71600D02*
X-232832D01*
X-220607Y17838D02*
X-216670D01*
X-232500Y-2568D02*
Y1369D01*
X-230768Y-38657D02*
X-226832D01*
X-230768Y-45743D02*
X-226832D01*
X-230869Y-30057D02*
X-226932D01*
X-230869Y-37143D02*
X-226932D01*
X-220969Y-5900D02*
X-217032D01*
X-168168Y-26200D02*
X-164232D01*
X-177200Y-41969D02*
Y-38032D01*
X-198700Y-80750D02*
Y-74450D01*
X-146768Y-26500D02*
X-142832D01*
X-155269Y-63000D02*
X-151331D01*
X-177200Y-36068D02*
Y-32131D01*
Y-30669D02*
Y-26732D01*
Y-25269D02*
Y-21331D01*
X-177100Y-53069D02*
Y-49132D01*
X-170069Y-63050D02*
X-166131D01*
X-143800Y-44769D02*
Y-40832D01*
X-177100Y-58469D02*
Y-54532D01*
X-224107Y87763D02*
Y95637D01*
X-237493Y87763D02*
Y95637D01*
X-224607Y48463D02*
Y56337D01*
X-237993Y48463D02*
Y56337D01*
X-224507Y10863D02*
Y18737D01*
X-237893Y10863D02*
Y18737D01*
X-238093Y-21037D02*
Y-13163D01*
X-224707Y-21037D02*
Y-13163D01*
X-215168Y-5900D02*
X-211231D01*
X-222607Y-72637D02*
Y-64763D01*
X-235993Y-72637D02*
Y-64763D01*
X-194400Y-63169D02*
Y-59232D01*
X-254900Y-95868D02*
Y-91931D01*
X-177100Y-65569D02*
Y-61632D01*
X-218268Y-71400D02*
X-214332D01*
X-243800Y-63169D02*
Y-59232D01*
X-32200Y-72668D02*
Y-68731D01*
Y-78369D02*
Y-74432D01*
X-19917Y-29511D02*
X-19636Y-28949D01*
X-19074Y-28387D01*
X-18511Y-28106D01*
X-17387D01*
X-16825Y-28387D01*
X-16262Y-28949D01*
X-15981Y-29511D01*
X-15700Y-30355D01*
Y-31761D01*
X-15981Y-32604D01*
X-16262Y-33167D01*
X-16825Y-33729D01*
X-17387Y-34010D01*
X-18511D01*
X-19074Y-33729D01*
X-19636Y-33167D01*
X-19917Y-32604D01*
X-25231Y-28106D02*
X-21576D01*
Y-34010D01*
X-25231D01*
X-21576Y-30917D02*
X-23825D01*
X-26215Y-28106D02*
Y-34010D01*
Y-28106D02*
X-28746D01*
X-29589Y-28387D01*
X-29870Y-28668D01*
X-30151Y-29230D01*
Y-29793D01*
X-29870Y-30355D01*
X-29589Y-30636D01*
X-28746Y-30917D01*
X-26215D01*
X-28183D02*
X-30151Y-34010D01*
X-31473Y-28106D02*
Y-34010D01*
Y-28106D02*
X-35409Y-34010D01*
Y-28106D02*
Y-34010D01*
X-41679Y-28106D02*
Y-34010D01*
Y-28106D02*
X-44209D01*
X-45052Y-28387D01*
X-45334Y-28668D01*
X-45615Y-29230D01*
Y-29793D01*
X-45334Y-30355D01*
X-45052Y-30636D01*
X-44209Y-30917D01*
X-41679D02*
X-44209D01*
X-45052Y-31198D01*
X-45334Y-31480D01*
X-45615Y-32042D01*
Y-32885D01*
X-45334Y-33448D01*
X-45052Y-33729D01*
X-44209Y-34010D01*
X-41679D01*
X-50591Y-28106D02*
X-46936D01*
Y-34010D01*
X-50591D01*
X-46936Y-30917D02*
X-49185D01*
X-51575Y-31480D02*
X-56636D01*
X-62597Y-29511D02*
X-62315Y-28949D01*
X-61753Y-28387D01*
X-61191Y-28106D01*
X-60066D01*
X-59504Y-28387D01*
X-58942Y-28949D01*
X-58660Y-29511D01*
X-58379Y-30355D01*
Y-31761D01*
X-58660Y-32604D01*
X-58942Y-33167D01*
X-59504Y-33729D01*
X-60066Y-34010D01*
X-61191D01*
X-61753Y-33729D01*
X-62315Y-33167D01*
X-62597Y-32604D01*
X-65942Y-28106D02*
X-65380Y-28387D01*
X-64818Y-28949D01*
X-64536Y-29511D01*
X-64255Y-30355D01*
Y-31761D01*
X-64536Y-32604D01*
X-64818Y-33167D01*
X-65380Y-33729D01*
X-65942Y-34010D01*
X-67067D01*
X-67629Y-33729D01*
X-68191Y-33167D01*
X-68473Y-32604D01*
X-68754Y-31761D01*
Y-30355D01*
X-68473Y-29511D01*
X-68191Y-28949D01*
X-67629Y-28387D01*
X-67067Y-28106D01*
X-65942D01*
X-70131Y-31480D02*
X-75192D01*
X-76935Y-28106D02*
Y-34010D01*
X-80872Y-28106D02*
Y-34010D01*
X-76935Y-30917D02*
X-80872D01*
X-84470Y-28106D02*
Y-34010D01*
X-82502Y-28106D02*
X-86439D01*
X-23030Y-48326D02*
Y-54230D01*
Y-51418D02*
X-23874Y-50575D01*
X-24436Y-50294D01*
X-25279D01*
X-25842Y-50575D01*
X-26123Y-51418D01*
Y-54230D01*
X-28512Y-48326D02*
Y-53105D01*
X-28794Y-53949D01*
X-29356Y-54230D01*
X-29918D01*
X-27669Y-50294D02*
X-29637D01*
X-31605Y-48326D02*
Y-53105D01*
X-31886Y-53949D01*
X-32449Y-54230D01*
X-33011D01*
X-30762Y-50294D02*
X-32730D01*
X-33854D02*
Y-56198D01*
Y-51137D02*
X-34417Y-50575D01*
X-34979Y-50294D01*
X-35822D01*
X-36385Y-50575D01*
X-36947Y-51137D01*
X-37228Y-51981D01*
Y-52543D01*
X-36947Y-53386D01*
X-36385Y-53949D01*
X-35822Y-54230D01*
X-34979D01*
X-34417Y-53949D01*
X-33854Y-53386D01*
X-38775Y-50294D02*
X-38493Y-50575D01*
X-38775Y-50856D01*
X-39056Y-50575D01*
X-38775Y-50294D01*
Y-53668D02*
X-38493Y-53949D01*
X-38775Y-54230D01*
X-39056Y-53949D01*
X-38775Y-53668D01*
X-40349Y-55073D02*
X-44285Y-48326D01*
X-44679Y-55073D02*
X-48615Y-48326D01*
X-50414Y-50294D02*
X-49852Y-50575D01*
X-49290Y-51137D01*
X-49009Y-51981D01*
Y-52543D01*
X-49290Y-53386D01*
X-49852Y-53949D01*
X-50414Y-54230D01*
X-51258D01*
X-51820Y-53949D01*
X-52382Y-53386D01*
X-52664Y-52543D01*
Y-51981D01*
X-52382Y-51137D01*
X-51820Y-50575D01*
X-51258Y-50294D01*
X-50414D01*
X-53957Y-48326D02*
Y-54230D01*
Y-51418D02*
X-54800Y-50575D01*
X-55363Y-50294D01*
X-56206D01*
X-56769Y-50575D01*
X-57050Y-51418D01*
Y-54230D01*
X-58596Y-50294D02*
X-59721Y-54230D01*
X-60845Y-50294D02*
X-59721Y-54230D01*
X-60845Y-50294D02*
X-61970Y-54230D01*
X-63095Y-50294D02*
X-61970Y-54230D01*
X-64472Y-50294D02*
Y-54230D01*
Y-51981D02*
X-64753Y-51137D01*
X-65316Y-50575D01*
X-65878Y-50294D01*
X-66721D01*
X-67537Y-53668D02*
X-67256Y-53949D01*
X-67537Y-54230D01*
X-67818Y-53949D01*
X-67537Y-53668D01*
X-70517Y-50294D02*
X-69955Y-50575D01*
X-69392Y-51137D01*
X-69111Y-51981D01*
Y-52543D01*
X-69392Y-53386D01*
X-69955Y-53949D01*
X-70517Y-54230D01*
X-71360D01*
X-71923Y-53949D01*
X-72485Y-53386D01*
X-72766Y-52543D01*
Y-51981D01*
X-72485Y-51137D01*
X-71923Y-50575D01*
X-71360Y-50294D01*
X-70517D01*
X-74060D02*
Y-54230D01*
Y-51981D02*
X-74341Y-51137D01*
X-74903Y-50575D01*
X-75465Y-50294D01*
X-76309D01*
X-80217D02*
Y-54792D01*
X-79936Y-55636D01*
X-79655Y-55917D01*
X-79092Y-56198D01*
X-78249D01*
X-77686Y-55917D01*
X-80217Y-51137D02*
X-79655Y-50575D01*
X-79092Y-50294D01*
X-78249D01*
X-77686Y-50575D01*
X-77124Y-51137D01*
X-76843Y-51981D01*
Y-52543D01*
X-77124Y-53386D01*
X-77686Y-53949D01*
X-78249Y-54230D01*
X-79092D01*
X-79655Y-53949D01*
X-80217Y-53386D01*
X-5167Y-37656D02*
X-4605Y-37937D01*
X-4042Y-38499D01*
X-3761Y-39061D01*
X-3480Y-39905D01*
Y-41311D01*
X-3761Y-42154D01*
X-4042Y-42717D01*
X-4605Y-43279D01*
X-5167Y-43560D01*
X-6292D01*
X-6854Y-43279D01*
X-7416Y-42717D01*
X-7697Y-42154D01*
X-7978Y-41311D01*
Y-39905D01*
X-7697Y-39061D01*
X-7416Y-38499D01*
X-6854Y-37937D01*
X-6292Y-37656D01*
X-5167D01*
X-9356Y-39624D02*
Y-45528D01*
Y-40467D02*
X-9918Y-39905D01*
X-10481Y-39624D01*
X-11324D01*
X-11886Y-39905D01*
X-12449Y-40467D01*
X-12730Y-41311D01*
Y-41873D01*
X-12449Y-42717D01*
X-11886Y-43279D01*
X-11324Y-43560D01*
X-10481D01*
X-9918Y-43279D01*
X-9356Y-42717D01*
X-13995Y-41311D02*
X-17369D01*
Y-40749D01*
X-17088Y-40186D01*
X-16807Y-39905D01*
X-16244Y-39624D01*
X-15401D01*
X-14839Y-39905D01*
X-14276Y-40467D01*
X-13995Y-41311D01*
Y-41873D01*
X-14276Y-42717D01*
X-14839Y-43279D01*
X-15401Y-43560D01*
X-16244D01*
X-16807Y-43279D01*
X-17369Y-42717D01*
X-18634Y-39624D02*
Y-43560D01*
Y-40749D02*
X-19478Y-39905D01*
X-20040Y-39624D01*
X-20884D01*
X-21446Y-39905D01*
X-21727Y-40749D01*
Y-43560D01*
X-27912Y-37656D02*
Y-43560D01*
X-31848Y-37656D02*
Y-43560D01*
X-27912Y-40467D02*
X-31848D01*
X-36853Y-39624D02*
Y-43560D01*
Y-40467D02*
X-36291Y-39905D01*
X-35728Y-39624D01*
X-34885D01*
X-34323Y-39905D01*
X-33760Y-40467D01*
X-33479Y-41311D01*
Y-41873D01*
X-33760Y-42717D01*
X-34323Y-43279D01*
X-34885Y-43560D01*
X-35728D01*
X-36291Y-43279D01*
X-36853Y-42717D01*
X-38427Y-39624D02*
Y-43560D01*
Y-41311D02*
X-38709Y-40467D01*
X-39271Y-39905D01*
X-39833Y-39624D01*
X-40677D01*
X-44585Y-37656D02*
Y-43560D01*
Y-40467D02*
X-44023Y-39905D01*
X-43460Y-39624D01*
X-42617D01*
X-42054Y-39905D01*
X-41492Y-40467D01*
X-41211Y-41311D01*
Y-41873D01*
X-41492Y-42717D01*
X-42054Y-43279D01*
X-42617Y-43560D01*
X-43460D01*
X-44023Y-43279D01*
X-44585Y-42717D01*
X-46159Y-39624D02*
X-47284Y-43560D01*
X-48408Y-39624D02*
X-47284Y-43560D01*
X-48408Y-39624D02*
X-49533Y-43560D01*
X-50658Y-39624D02*
X-49533Y-43560D01*
X-55409Y-39624D02*
Y-43560D01*
Y-40467D02*
X-54847Y-39905D01*
X-54285Y-39624D01*
X-53441D01*
X-52879Y-39905D01*
X-52316Y-40467D01*
X-52035Y-41311D01*
Y-41873D01*
X-52316Y-42717D01*
X-52879Y-43279D01*
X-53441Y-43560D01*
X-54285D01*
X-54847Y-43279D01*
X-55409Y-42717D01*
X-56984Y-39624D02*
Y-43560D01*
Y-41311D02*
X-57265Y-40467D01*
X-57827Y-39905D01*
X-58390Y-39624D01*
X-59233D01*
X-59767Y-41311D02*
X-63141D01*
Y-40749D01*
X-62860Y-40186D01*
X-62579Y-39905D01*
X-62016Y-39624D01*
X-61173D01*
X-60611Y-39905D01*
X-60048Y-40467D01*
X-59767Y-41311D01*
Y-41873D01*
X-60048Y-42717D01*
X-60611Y-43279D01*
X-61173Y-43560D01*
X-62016D01*
X-62579Y-43279D01*
X-63141Y-42717D01*
X-69045Y-37656D02*
Y-43560D01*
Y-37656D02*
X-71576D01*
X-72419Y-37937D01*
X-72700Y-38218D01*
X-72981Y-38780D01*
Y-39343D01*
X-72700Y-39905D01*
X-72419Y-40186D01*
X-71576Y-40467D01*
X-69045D01*
X-71013D02*
X-72981Y-43560D01*
X-74303Y-41311D02*
X-77677D01*
Y-40749D01*
X-77395Y-40186D01*
X-77114Y-39905D01*
X-76552Y-39624D01*
X-75709D01*
X-75146Y-39905D01*
X-74584Y-40467D01*
X-74303Y-41311D01*
Y-41873D01*
X-74584Y-42717D01*
X-75146Y-43279D01*
X-75709Y-43560D01*
X-76552D01*
X-77114Y-43279D01*
X-77677Y-42717D01*
X-78942Y-39624D02*
Y-45528D01*
Y-40467D02*
X-79504Y-39905D01*
X-80067Y-39624D01*
X-80910D01*
X-81472Y-39905D01*
X-82035Y-40467D01*
X-82316Y-41311D01*
Y-41873D01*
X-82035Y-42717D01*
X-81472Y-43279D01*
X-80910Y-43560D01*
X-80067D01*
X-79504Y-43279D01*
X-78942Y-42717D01*
X-84987Y-39624D02*
X-84424Y-39905D01*
X-83862Y-40467D01*
X-83581Y-41311D01*
Y-41873D01*
X-83862Y-42717D01*
X-84424Y-43279D01*
X-84987Y-43560D01*
X-85830D01*
X-86392Y-43279D01*
X-86955Y-42717D01*
X-87236Y-41873D01*
Y-41311D01*
X-86955Y-40467D01*
X-86392Y-39905D01*
X-85830Y-39624D01*
X-84987D01*
X-91622Y-40467D02*
X-91341Y-39905D01*
X-90497Y-39624D01*
X-89654D01*
X-88810Y-39905D01*
X-88529Y-40467D01*
X-88810Y-41030D01*
X-89373Y-41311D01*
X-90778Y-41592D01*
X-91341Y-41873D01*
X-91622Y-42435D01*
Y-42717D01*
X-91341Y-43279D01*
X-90497Y-43560D01*
X-89654D01*
X-88810Y-43279D01*
X-88529Y-42717D01*
X-93421Y-37656D02*
X-93703Y-37937D01*
X-93984Y-37656D01*
X-93703Y-37375D01*
X-93421Y-37656D01*
X-93703Y-39624D02*
Y-43560D01*
X-95867Y-37656D02*
Y-42435D01*
X-96149Y-43279D01*
X-96711Y-43560D01*
X-97273D01*
X-95024Y-39624D02*
X-96992D01*
X-99522D02*
X-98960Y-39905D01*
X-98398Y-40467D01*
X-98117Y-41311D01*
Y-41873D01*
X-98398Y-42717D01*
X-98960Y-43279D01*
X-99522Y-43560D01*
X-100366D01*
X-100928Y-43279D01*
X-101490Y-42717D01*
X-101772Y-41873D01*
Y-41311D01*
X-101490Y-40467D01*
X-100928Y-39905D01*
X-100366Y-39624D01*
X-99522D01*
X-103065D02*
Y-43560D01*
Y-41311D02*
X-103346Y-40467D01*
X-103908Y-39905D01*
X-104471Y-39624D01*
X-105314D01*
X-106130D02*
X-107817Y-43560D01*
X-109503Y-39624D02*
X-107817Y-43560D01*
X-107254Y-44685D01*
X-106692Y-45247D01*
X-106130Y-45528D01*
X-105848D01*
D90*
X-101999Y666D02*
X-101833Y999D01*
X-101500Y1333D01*
X-101166Y1499D01*
X-100500D01*
X-100166Y1333D01*
X-99833Y999D01*
X-99667Y666D01*
X-99500Y166D01*
Y-667D01*
X-99667Y-1167D01*
X-99833Y-1500D01*
X-100166Y-1833D01*
X-100500Y-2000D01*
X-101166D01*
X-101500Y-1833D01*
X-101833Y-1500D01*
X-101999Y-1167D01*
X-105315Y1499D02*
X-103649Y-2000D01*
X-102983Y1499D02*
X-105315D01*
X-106265Y666D02*
Y833D01*
X-106432Y1166D01*
X-106598Y1333D01*
X-106932Y1499D01*
X-107598D01*
X-107931Y1333D01*
X-108098Y1166D01*
X-108265Y833D01*
Y500D01*
X-108098Y166D01*
X-107765Y-334D01*
X-106099Y-2000D01*
X-108431D01*
X-12650Y62289D02*
Y58790D01*
Y62289D02*
X-14150D01*
X-14650Y62123D01*
X-14816Y61956D01*
X-14983Y61623D01*
Y61290D01*
X-14816Y60956D01*
X-14650Y60790D01*
X-14150Y60623D01*
X-12650D01*
X-13816D02*
X-14983Y58790D01*
X-16099Y62289D02*
X-17932D01*
X-16932Y60956D01*
X-17432D01*
X-17766Y60790D01*
X-17932Y60623D01*
X-18099Y60123D01*
Y59790D01*
X-17932Y59290D01*
X-17599Y58957D01*
X-17099Y58790D01*
X-16599D01*
X-16099Y58957D01*
X-15933Y59123D01*
X-15766Y59456D01*
X-18882Y62289D02*
Y58790D01*
Y62289D02*
X-20382D01*
X-20882Y62123D01*
X-21048Y61956D01*
X-21215Y61623D01*
Y61290D01*
X-21048Y60956D01*
X-20882Y60790D01*
X-20382Y60623D01*
X-18882D02*
X-20382D01*
X-20882Y60456D01*
X-21048Y60290D01*
X-21215Y59956D01*
Y59456D01*
X-21048Y59123D01*
X-20882Y58957D01*
X-20382Y58790D01*
X-18882D01*
X-56500Y133399D02*
Y129900D01*
Y133399D02*
X-58000D01*
X-58500Y133233D01*
X-58666Y133066D01*
X-58833Y132733D01*
Y132399D01*
X-58666Y132066D01*
X-58500Y131900D01*
X-58000Y131733D01*
X-56500D01*
X-57666D02*
X-58833Y129900D01*
X-61616Y133399D02*
X-59949D01*
X-59783Y131900D01*
X-59949Y132066D01*
X-60449Y132233D01*
X-60949D01*
X-61449Y132066D01*
X-61782Y131733D01*
X-61949Y131233D01*
Y130900D01*
X-61782Y130400D01*
X-61449Y130067D01*
X-60949Y129900D01*
X-60449D01*
X-59949Y130067D01*
X-59783Y130233D01*
X-59616Y130567D01*
X-64732Y132899D02*
X-64565Y133233D01*
X-64065Y133399D01*
X-63732D01*
X-63232Y133233D01*
X-62899Y132733D01*
X-62732Y131900D01*
Y131066D01*
X-62899Y130400D01*
X-63232Y130067D01*
X-63732Y129900D01*
X-63898D01*
X-64398Y130067D01*
X-64732Y130400D01*
X-64898Y130900D01*
Y131066D01*
X-64732Y131566D01*
X-64398Y131900D01*
X-63898Y132066D01*
X-63732D01*
X-63232Y131900D01*
X-62899Y131566D01*
X-62732Y131066D01*
X-68331Y129900D02*
X-66998Y133399D01*
X-65665Y129900D01*
X-66165Y131066D02*
X-67831D01*
X-870Y92089D02*
Y88590D01*
Y92089D02*
X-2370D01*
X-2870Y91923D01*
X-3036Y91756D01*
X-3203Y91423D01*
Y91089D01*
X-3036Y90756D01*
X-2870Y90590D01*
X-2370Y90423D01*
X-870D01*
X-2036D02*
X-3203Y88590D01*
X-5986Y91589D02*
X-5819Y91923D01*
X-5319Y92089D01*
X-4986D01*
X-4486Y91923D01*
X-4153Y91423D01*
X-3986Y90590D01*
Y89756D01*
X-4153Y89090D01*
X-4486Y88757D01*
X-4986Y88590D01*
X-5152D01*
X-5652Y88757D01*
X-5986Y89090D01*
X-6152Y89590D01*
Y89756D01*
X-5986Y90256D01*
X-5652Y90590D01*
X-5152Y90756D01*
X-4986D01*
X-4486Y90590D01*
X-4153Y90256D01*
X-3986Y89756D01*
X-9585Y88590D02*
X-8252Y92089D01*
X-6919Y88590D01*
X-7419Y89756D02*
X-9085D01*
X-11660Y92009D02*
Y88510D01*
Y92009D02*
X-13160D01*
X-13660Y91843D01*
X-13826Y91676D01*
X-13993Y91343D01*
Y91009D01*
X-13826Y90676D01*
X-13660Y90510D01*
X-13160Y90343D01*
X-11660D01*
X-12826D02*
X-13993Y88510D01*
X-15109Y92009D02*
X-16942D01*
X-15942Y90676D01*
X-16442D01*
X-16776Y90510D01*
X-16942Y90343D01*
X-17109Y89843D01*
Y89510D01*
X-16942Y89010D01*
X-16609Y88677D01*
X-16109Y88510D01*
X-15609D01*
X-15109Y88677D01*
X-14943Y88843D01*
X-14776Y89176D01*
X-20558Y88510D02*
X-19225Y92009D01*
X-17892Y88510D01*
X-18392Y89676D02*
X-20058D01*
X-38699Y91060D02*
X-35200D01*
X-38699D02*
Y89560D01*
X-38533Y89060D01*
X-38366Y88894D01*
X-38033Y88727D01*
X-37699D01*
X-37366Y88894D01*
X-37200Y89060D01*
X-37033Y89560D01*
Y91060D01*
Y89894D02*
X-35200Y88727D01*
X-37866Y87777D02*
X-38033D01*
X-38366Y87611D01*
X-38533Y87444D01*
X-38699Y87111D01*
Y86444D01*
X-38533Y86111D01*
X-38366Y85944D01*
X-38033Y85778D01*
X-37699D01*
X-37366Y85944D01*
X-36866Y86278D01*
X-35200Y87944D01*
Y85611D01*
Y82162D02*
X-38699Y83495D01*
X-35200Y84828D01*
X-36366Y84328D02*
Y82662D01*
X2090Y77099D02*
Y73600D01*
Y77099D02*
X590D01*
X90Y76933D01*
X-76Y76766D01*
X-243Y76433D01*
Y76099D01*
X-76Y75766D01*
X90Y75600D01*
X590Y75433D01*
X2090D01*
X924D02*
X-243Y73600D01*
X-3026Y77099D02*
X-1359D01*
X-1193Y75600D01*
X-1359Y75766D01*
X-1859Y75933D01*
X-2359D01*
X-2859Y75766D01*
X-3192Y75433D01*
X-3359Y74933D01*
Y74600D01*
X-3192Y74100D01*
X-2859Y73767D01*
X-2359Y73600D01*
X-1859D01*
X-1359Y73767D01*
X-1193Y73933D01*
X-1026Y74266D01*
X-6142Y77099D02*
X-4475D01*
X-4309Y75600D01*
X-4475Y75766D01*
X-4975Y75933D01*
X-5475D01*
X-5975Y75766D01*
X-6308Y75433D01*
X-6475Y74933D01*
Y74600D01*
X-6308Y74100D01*
X-5975Y73767D01*
X-5475Y73600D01*
X-4975D01*
X-4475Y73767D01*
X-4309Y73933D01*
X-4142Y74266D01*
X-7258Y77099D02*
Y73600D01*
Y77099D02*
X-8758D01*
X-9258Y76933D01*
X-9424Y76766D01*
X-9591Y76433D01*
Y76099D01*
X-9424Y75766D01*
X-9258Y75600D01*
X-8758Y75433D01*
X-7258D02*
X-8758D01*
X-9258Y75266D01*
X-9424Y75100D01*
X-9591Y74766D01*
Y74266D01*
X-9424Y73933D01*
X-9258Y73767D01*
X-8758Y73600D01*
X-7258D01*
X-9700Y106299D02*
Y102800D01*
Y106299D02*
X-11200D01*
X-11700Y106133D01*
X-11866Y105966D01*
X-12033Y105633D01*
Y105299D01*
X-11866Y104966D01*
X-11700Y104800D01*
X-11200Y104633D01*
X-9700D01*
X-10866D02*
X-12033Y102800D01*
X-14816Y106299D02*
X-13149D01*
X-12983Y104800D01*
X-13149Y104966D01*
X-13649Y105133D01*
X-14149D01*
X-14649Y104966D01*
X-14982Y104633D01*
X-15149Y104133D01*
Y103800D01*
X-14982Y103300D01*
X-14649Y102967D01*
X-14149Y102800D01*
X-13649D01*
X-13149Y102967D01*
X-12983Y103133D01*
X-12816Y103466D01*
X-17932Y106299D02*
X-16265D01*
X-16099Y104800D01*
X-16265Y104966D01*
X-16765Y105133D01*
X-17265D01*
X-17765Y104966D01*
X-18098Y104633D01*
X-18265Y104133D01*
Y103800D01*
X-18098Y103300D01*
X-17765Y102967D01*
X-17265Y102800D01*
X-16765D01*
X-16265Y102967D01*
X-16099Y103133D01*
X-15932Y103466D01*
X-21714Y102800D02*
X-20381Y106299D01*
X-19048Y102800D01*
X-19548Y103966D02*
X-21214D01*
X1850Y82559D02*
Y79060D01*
Y82559D02*
X350D01*
X-150Y82393D01*
X-316Y82226D01*
X-483Y81893D01*
Y81559D01*
X-316Y81226D01*
X-150Y81060D01*
X350Y80893D01*
X1850D01*
X684D02*
X-483Y79060D01*
X-3266Y82559D02*
X-1599D01*
X-1433Y81060D01*
X-1599Y81226D01*
X-2099Y81393D01*
X-2599D01*
X-3099Y81226D01*
X-3432Y80893D01*
X-3599Y80393D01*
Y80060D01*
X-3432Y79560D01*
X-3099Y79227D01*
X-2599Y79060D01*
X-2099D01*
X-1599Y79227D01*
X-1433Y79393D01*
X-1266Y79726D01*
X-6048Y82559D02*
X-4382Y80226D01*
X-6882D01*
X-6048Y82559D02*
Y79060D01*
X-7498Y82559D02*
Y79060D01*
Y82559D02*
X-8998D01*
X-9498Y82393D01*
X-9664Y82226D01*
X-9831Y81893D01*
Y81559D01*
X-9664Y81226D01*
X-9498Y81060D01*
X-8998Y80893D01*
X-7498D02*
X-8998D01*
X-9498Y80726D01*
X-9664Y80560D01*
X-9831Y80226D01*
Y79726D01*
X-9664Y79393D01*
X-9498Y79227D01*
X-8998Y79060D01*
X-7498D01*
X-11000Y110799D02*
Y107300D01*
Y110799D02*
X-12500D01*
X-13000Y110633D01*
X-13166Y110466D01*
X-13333Y110133D01*
Y109800D01*
X-13166Y109466D01*
X-13000Y109300D01*
X-12500Y109133D01*
X-11000D01*
X-12166D02*
X-13333Y107300D01*
X-16116Y110799D02*
X-14449D01*
X-14283Y109300D01*
X-14449Y109466D01*
X-14949Y109633D01*
X-15449D01*
X-15949Y109466D01*
X-16282Y109133D01*
X-16449Y108633D01*
Y108300D01*
X-16282Y107800D01*
X-15949Y107467D01*
X-15449Y107300D01*
X-14949D01*
X-14449Y107467D01*
X-14283Y107633D01*
X-14116Y107966D01*
X-18898Y110799D02*
X-17232Y108466D01*
X-19732D01*
X-18898Y110799D02*
Y107300D01*
X-23014D02*
X-21681Y110799D01*
X-20348Y107300D01*
X-20848Y108466D02*
X-22514D01*
X-12140Y82499D02*
Y79000D01*
Y82499D02*
X-13640D01*
X-14140Y82333D01*
X-14306Y82166D01*
X-14473Y81833D01*
Y81499D01*
X-14306Y81166D01*
X-14140Y81000D01*
X-13640Y80833D01*
X-12140D01*
X-13306D02*
X-14473Y79000D01*
X-17256Y82499D02*
X-15589D01*
X-15423Y81000D01*
X-15589Y81166D01*
X-16089Y81333D01*
X-16589D01*
X-17089Y81166D01*
X-17422Y80833D01*
X-17589Y80333D01*
Y80000D01*
X-17422Y79500D01*
X-17089Y79167D01*
X-16589Y79000D01*
X-16089D01*
X-15589Y79167D01*
X-15423Y79333D01*
X-15256Y79667D01*
X-18705Y82499D02*
X-20538D01*
X-19538Y81166D01*
X-20038D01*
X-20372Y81000D01*
X-20538Y80833D01*
X-20705Y80333D01*
Y80000D01*
X-20538Y79500D01*
X-20205Y79167D01*
X-19705Y79000D01*
X-19205D01*
X-18705Y79167D01*
X-18539Y79333D01*
X-18372Y79667D01*
X-21488Y82499D02*
Y79000D01*
Y82499D02*
X-22988D01*
X-23488Y82333D01*
X-23654Y82166D01*
X-23821Y81833D01*
Y81499D01*
X-23654Y81166D01*
X-23488Y81000D01*
X-22988Y80833D01*
X-21488D02*
X-22988D01*
X-23488Y80666D01*
X-23654Y80500D01*
X-23821Y80166D01*
Y79667D01*
X-23654Y79333D01*
X-23488Y79167D01*
X-22988Y79000D01*
X-21488D01*
X-24400Y111199D02*
Y107700D01*
Y111199D02*
X-25900D01*
X-26400Y111033D01*
X-26566Y110866D01*
X-26733Y110533D01*
Y110199D01*
X-26566Y109866D01*
X-26400Y109700D01*
X-25900Y109533D01*
X-24400D01*
X-25566D02*
X-26733Y107700D01*
X-29516Y111199D02*
X-27849D01*
X-27683Y109700D01*
X-27849Y109866D01*
X-28349Y110033D01*
X-28849D01*
X-29349Y109866D01*
X-29682Y109533D01*
X-29849Y109033D01*
Y108700D01*
X-29682Y108200D01*
X-29349Y107867D01*
X-28849Y107700D01*
X-28349D01*
X-27849Y107867D01*
X-27683Y108033D01*
X-27516Y108367D01*
X-30965Y111199D02*
X-32798D01*
X-31798Y109866D01*
X-32298D01*
X-32632Y109700D01*
X-32798Y109533D01*
X-32965Y109033D01*
Y108700D01*
X-32798Y108200D01*
X-32465Y107867D01*
X-31965Y107700D01*
X-31465D01*
X-30965Y107867D01*
X-30799Y108033D01*
X-30632Y108367D01*
X-36414Y107700D02*
X-35081Y111199D01*
X-33748Y107700D01*
X-34248Y108866D02*
X-35914D01*
X-12300Y77509D02*
Y74010D01*
Y77509D02*
X-13800D01*
X-14300Y77343D01*
X-14466Y77176D01*
X-14633Y76843D01*
Y76509D01*
X-14466Y76176D01*
X-14300Y76010D01*
X-13800Y75843D01*
X-12300D01*
X-13466D02*
X-14633Y74010D01*
X-17416Y77509D02*
X-15749D01*
X-15583Y76010D01*
X-15749Y76176D01*
X-16249Y76343D01*
X-16749D01*
X-17249Y76176D01*
X-17582Y75843D01*
X-17749Y75343D01*
Y75010D01*
X-17582Y74510D01*
X-17249Y74177D01*
X-16749Y74010D01*
X-16249D01*
X-15749Y74177D01*
X-15583Y74343D01*
X-15416Y74677D01*
X-18699Y76676D02*
Y76843D01*
X-18865Y77176D01*
X-19032Y77343D01*
X-19365Y77509D01*
X-20032D01*
X-20365Y77343D01*
X-20532Y77176D01*
X-20698Y76843D01*
Y76509D01*
X-20532Y76176D01*
X-20198Y75676D01*
X-18532Y74010D01*
X-20865D01*
X-21648Y77509D02*
Y74010D01*
Y77509D02*
X-23148D01*
X-23648Y77343D01*
X-23814Y77176D01*
X-23981Y76843D01*
Y76509D01*
X-23814Y76176D01*
X-23648Y76010D01*
X-23148Y75843D01*
X-21648D02*
X-23148D01*
X-23648Y75676D01*
X-23814Y75510D01*
X-23981Y75176D01*
Y74677D01*
X-23814Y74343D01*
X-23648Y74177D01*
X-23148Y74010D01*
X-21648D01*
X-25100Y106599D02*
Y103100D01*
Y106599D02*
X-26600D01*
X-27100Y106433D01*
X-27266Y106266D01*
X-27433Y105933D01*
Y105599D01*
X-27266Y105266D01*
X-27100Y105100D01*
X-26600Y104933D01*
X-25100D01*
X-26266D02*
X-27433Y103100D01*
X-30216Y106599D02*
X-28549D01*
X-28383Y105100D01*
X-28549Y105266D01*
X-29049Y105433D01*
X-29549D01*
X-30049Y105266D01*
X-30382Y104933D01*
X-30549Y104433D01*
Y104100D01*
X-30382Y103600D01*
X-30049Y103267D01*
X-29549Y103100D01*
X-29049D01*
X-28549Y103267D01*
X-28383Y103433D01*
X-28216Y103767D01*
X-31499Y105766D02*
Y105933D01*
X-31665Y106266D01*
X-31832Y106433D01*
X-32165Y106599D01*
X-32832D01*
X-33165Y106433D01*
X-33332Y106266D01*
X-33498Y105933D01*
Y105599D01*
X-33332Y105266D01*
X-32998Y104766D01*
X-31332Y103100D01*
X-33665D01*
X-37114D02*
X-35781Y106599D01*
X-34448Y103100D01*
X-34948Y104266D02*
X-36614D01*
X1850Y66669D02*
Y63170D01*
Y66669D02*
X350D01*
X-150Y66503D01*
X-316Y66336D01*
X-483Y66003D01*
Y65670D01*
X-316Y65336D01*
X-150Y65170D01*
X350Y65003D01*
X1850D01*
X684D02*
X-483Y63170D01*
X-3266Y66669D02*
X-1599D01*
X-1433Y65170D01*
X-1599Y65336D01*
X-2099Y65503D01*
X-2599D01*
X-3099Y65336D01*
X-3432Y65003D01*
X-3599Y64503D01*
Y64170D01*
X-3432Y63670D01*
X-3099Y63337D01*
X-2599Y63170D01*
X-2099D01*
X-1599Y63337D01*
X-1433Y63503D01*
X-1266Y63836D01*
X-4382Y66003D02*
X-4715Y66169D01*
X-5215Y66669D01*
Y63170D01*
X-6948Y66669D02*
Y63170D01*
Y66669D02*
X-8448D01*
X-8948Y66503D01*
X-9114Y66336D01*
X-9281Y66003D01*
Y65670D01*
X-9114Y65336D01*
X-8948Y65170D01*
X-8448Y65003D01*
X-6948D02*
X-8448D01*
X-8948Y64836D01*
X-9114Y64670D01*
X-9281Y64336D01*
Y63836D01*
X-9114Y63503D01*
X-8948Y63337D01*
X-8448Y63170D01*
X-6948D01*
X2120Y96929D02*
Y93430D01*
Y96929D02*
X620D01*
X120Y96763D01*
X-46Y96596D01*
X-213Y96263D01*
Y95929D01*
X-46Y95596D01*
X120Y95430D01*
X620Y95263D01*
X2120D01*
X954D02*
X-213Y93430D01*
X-2996Y96929D02*
X-1329D01*
X-1163Y95430D01*
X-1329Y95596D01*
X-1829Y95763D01*
X-2329D01*
X-2829Y95596D01*
X-3162Y95263D01*
X-3329Y94763D01*
Y94430D01*
X-3162Y93930D01*
X-2829Y93597D01*
X-2329Y93430D01*
X-1829D01*
X-1329Y93597D01*
X-1163Y93763D01*
X-996Y94096D01*
X-4112Y96263D02*
X-4445Y96429D01*
X-4945Y96929D01*
Y93430D01*
X-9344D02*
X-8011Y96929D01*
X-6678Y93430D01*
X-7178Y94596D02*
X-8844D01*
X1850Y71999D02*
Y68500D01*
Y71999D02*
X350D01*
X-150Y71833D01*
X-316Y71666D01*
X-483Y71333D01*
Y70999D01*
X-316Y70666D01*
X-150Y70500D01*
X350Y70333D01*
X1850D01*
X684D02*
X-483Y68500D01*
X-1599Y71999D02*
X-3432D01*
X-2432Y70666D01*
X-2932D01*
X-3266Y70500D01*
X-3432Y70333D01*
X-3599Y69833D01*
Y69500D01*
X-3432Y69000D01*
X-3099Y68667D01*
X-2599Y68500D01*
X-2099D01*
X-1599Y68667D01*
X-1433Y68833D01*
X-1266Y69166D01*
X-4549Y71166D02*
Y71333D01*
X-4715Y71666D01*
X-4882Y71833D01*
X-5215Y71999D01*
X-5882D01*
X-6215Y71833D01*
X-6382Y71666D01*
X-6548Y71333D01*
Y70999D01*
X-6382Y70666D01*
X-6048Y70166D01*
X-4382Y68500D01*
X-6715D01*
X-7498Y71999D02*
Y68500D01*
Y71999D02*
X-8998D01*
X-9498Y71833D01*
X-9664Y71666D01*
X-9831Y71333D01*
Y70999D01*
X-9664Y70666D01*
X-9498Y70500D01*
X-8998Y70333D01*
X-7498D02*
X-8998D01*
X-9498Y70166D01*
X-9664Y70000D01*
X-9831Y69666D01*
Y69166D01*
X-9664Y68833D01*
X-9498Y68667D01*
X-8998Y68500D01*
X-7498D01*
X-9700Y101799D02*
Y98300D01*
Y101799D02*
X-11200D01*
X-11700Y101633D01*
X-11866Y101466D01*
X-12033Y101133D01*
Y100800D01*
X-11866Y100466D01*
X-11700Y100300D01*
X-11200Y100133D01*
X-9700D01*
X-10866D02*
X-12033Y98300D01*
X-13149Y101799D02*
X-14982D01*
X-13982Y100466D01*
X-14482D01*
X-14816Y100300D01*
X-14982Y100133D01*
X-15149Y99633D01*
Y99300D01*
X-14982Y98800D01*
X-14649Y98467D01*
X-14149Y98300D01*
X-13649D01*
X-13149Y98467D01*
X-12983Y98633D01*
X-12816Y98966D01*
X-16099Y100966D02*
Y101133D01*
X-16265Y101466D01*
X-16432Y101633D01*
X-16765Y101799D01*
X-17432D01*
X-17765Y101633D01*
X-17932Y101466D01*
X-18098Y101133D01*
Y100800D01*
X-17932Y100466D01*
X-17598Y99966D01*
X-15932Y98300D01*
X-18265D01*
X-21714D02*
X-20381Y101799D01*
X-19048Y98300D01*
X-19548Y99466D02*
X-21214D01*
X-12430Y72159D02*
Y68660D01*
Y72159D02*
X-13930D01*
X-14430Y71993D01*
X-14596Y71826D01*
X-14763Y71493D01*
Y71159D01*
X-14596Y70826D01*
X-14430Y70660D01*
X-13930Y70493D01*
X-12430D01*
X-13596D02*
X-14763Y68660D01*
X-17879Y72159D02*
X-16213Y68660D01*
X-15546Y72159D02*
X-17879D01*
X-18662D02*
Y68660D01*
Y72159D02*
X-20162D01*
X-20662Y71993D01*
X-20828Y71826D01*
X-20995Y71493D01*
Y71159D01*
X-20828Y70826D01*
X-20662Y70660D01*
X-20162Y70493D01*
X-18662D02*
X-20162D01*
X-20662Y70326D01*
X-20828Y70160D01*
X-20995Y69826D01*
Y69327D01*
X-20828Y68993D01*
X-20662Y68827D01*
X-20162Y68660D01*
X-18662D01*
X-25700Y101899D02*
Y98400D01*
Y101899D02*
X-27200D01*
X-27700Y101733D01*
X-27866Y101566D01*
X-28033Y101233D01*
Y100900D01*
X-27866Y100566D01*
X-27700Y100400D01*
X-27200Y100233D01*
X-25700D01*
X-26866D02*
X-28033Y98400D01*
X-31149Y101899D02*
X-29482Y98400D01*
X-28816Y101899D02*
X-31149D01*
X-34598Y98400D02*
X-33265Y101899D01*
X-31932Y98400D01*
X-32432Y99566D02*
X-34098D01*
X-12540Y67139D02*
Y63640D01*
Y67139D02*
X-14040D01*
X-14540Y66973D01*
X-14706Y66806D01*
X-14873Y66473D01*
Y66140D01*
X-14706Y65806D01*
X-14540Y65640D01*
X-14040Y65473D01*
X-12540D01*
X-13706D02*
X-14873Y63640D01*
X-15656Y66473D02*
X-15989Y66639D01*
X-16489Y67139D01*
Y63640D01*
X-18222Y67139D02*
Y63640D01*
Y67139D02*
X-19722D01*
X-20222Y66973D01*
X-20388Y66806D01*
X-20555Y66473D01*
Y66140D01*
X-20388Y65806D01*
X-20222Y65640D01*
X-19722Y65473D01*
X-18222D02*
X-19722D01*
X-20222Y65306D01*
X-20388Y65140D01*
X-20555Y64806D01*
Y64306D01*
X-20388Y63973D01*
X-20222Y63807D01*
X-19722Y63640D01*
X-18222D01*
X-11920Y96889D02*
Y93390D01*
Y96889D02*
X-13420D01*
X-13920Y96723D01*
X-14086Y96556D01*
X-14253Y96223D01*
Y95890D01*
X-14086Y95556D01*
X-13920Y95390D01*
X-13420Y95223D01*
X-11920D01*
X-13086D02*
X-14253Y93390D01*
X-15036Y96223D02*
X-15369Y96389D01*
X-15869Y96889D01*
Y93390D01*
X-20268D02*
X-18935Y96889D01*
X-17602Y93390D01*
X-18102Y94556D02*
X-19768D01*
X-211551Y114570D02*
X-215050D01*
X-211551D02*
Y116070D01*
X-211717Y116570D01*
X-211884Y116736D01*
X-212217Y116903D01*
X-212550D01*
X-212884Y116736D01*
X-213050Y116570D01*
X-213217Y116070D01*
Y114570D01*
Y115736D02*
X-215050Y116903D01*
X-212384Y117853D02*
X-212217D01*
X-211884Y118019D01*
X-211717Y118186D01*
X-211551Y118519D01*
Y119186D01*
X-211717Y119519D01*
X-211884Y119686D01*
X-212217Y119852D01*
X-212550D01*
X-212884Y119686D01*
X-213384Y119352D01*
X-215050Y117686D01*
Y120019D01*
X-211551Y123135D02*
X-215050Y121468D01*
X-211551Y120802D02*
Y123135D01*
X-215050Y126584D02*
X-211551Y125251D01*
X-215050Y123918D01*
X-213884Y124418D02*
Y126084D01*
X-216661Y114600D02*
X-220160D01*
X-216661D02*
Y116100D01*
X-216827Y116600D01*
X-216994Y116766D01*
X-217327Y116933D01*
X-217660D01*
X-217994Y116766D01*
X-218160Y116600D01*
X-218327Y116100D01*
Y114600D01*
Y115766D02*
X-220160Y116933D01*
X-217494Y117883D02*
X-217327D01*
X-216994Y118049D01*
X-216827Y118216D01*
X-216661Y118549D01*
Y119216D01*
X-216827Y119549D01*
X-216994Y119716D01*
X-217327Y119882D01*
X-217660D01*
X-217994Y119716D01*
X-218494Y119382D01*
X-220160Y117716D01*
Y120049D01*
X-217161Y122832D02*
X-216827Y122665D01*
X-216661Y122165D01*
Y121832D01*
X-216827Y121332D01*
X-217327Y120999D01*
X-218160Y120832D01*
X-218994D01*
X-219660Y120999D01*
X-219993Y121332D01*
X-220160Y121832D01*
Y121998D01*
X-219993Y122498D01*
X-219660Y122832D01*
X-219160Y122998D01*
X-218994D01*
X-218494Y122832D01*
X-218160Y122498D01*
X-217994Y121998D01*
Y121832D01*
X-218160Y121332D01*
X-218494Y120999D01*
X-218994Y120832D01*
X-220160Y126431D02*
X-216661Y125098D01*
X-220160Y123765D01*
X-218994Y124265D02*
Y125931D01*
X-217731Y99140D02*
X-221230D01*
X-217731D02*
Y100640D01*
X-217897Y101140D01*
X-218064Y101306D01*
X-218397Y101473D01*
X-218730D01*
X-219064Y101306D01*
X-219230Y101140D01*
X-219397Y100640D01*
Y99140D01*
Y100306D02*
X-221230Y101473D01*
X-218564Y102423D02*
X-218397D01*
X-218064Y102589D01*
X-217897Y102756D01*
X-217731Y103089D01*
Y103756D01*
X-217897Y104089D01*
X-218064Y104256D01*
X-218397Y104422D01*
X-218730D01*
X-219064Y104256D01*
X-219564Y103922D01*
X-221230Y102256D01*
Y104589D01*
X-217731Y107372D02*
Y105705D01*
X-219230Y105539D01*
X-219064Y105705D01*
X-218897Y106205D01*
Y106705D01*
X-219064Y107205D01*
X-219397Y107538D01*
X-219897Y107705D01*
X-220230D01*
X-220730Y107538D01*
X-221063Y107205D01*
X-221230Y106705D01*
Y106205D01*
X-221063Y105705D01*
X-220897Y105539D01*
X-220564Y105372D01*
X-221230Y111154D02*
X-217731Y109821D01*
X-221230Y108488D01*
X-220064Y108988D02*
Y110654D01*
X-212511Y99400D02*
X-216010D01*
X-212511D02*
Y100900D01*
X-212677Y101400D01*
X-212844Y101566D01*
X-213177Y101733D01*
X-213510D01*
X-213844Y101566D01*
X-214010Y101400D01*
X-214177Y100900D01*
Y99400D01*
Y100566D02*
X-216010Y101733D01*
X-212511Y103349D02*
X-212677Y102849D01*
X-213011Y102683D01*
X-213344D01*
X-213677Y102849D01*
X-213844Y103182D01*
X-214010Y103849D01*
X-214177Y104349D01*
X-214510Y104682D01*
X-214844Y104849D01*
X-215343D01*
X-215677Y104682D01*
X-215843Y104516D01*
X-216010Y104016D01*
Y103349D01*
X-215843Y102849D01*
X-215677Y102683D01*
X-215343Y102516D01*
X-214844D01*
X-214510Y102683D01*
X-214177Y103016D01*
X-214010Y103516D01*
X-213844Y104182D01*
X-213677Y104516D01*
X-213344Y104682D01*
X-213011D01*
X-212677Y104516D01*
X-212511Y104016D01*
Y103349D01*
X-216010Y108298D02*
X-212511Y106965D01*
X-216010Y105632D01*
X-214844Y106132D02*
Y107798D01*
X-206581Y99750D02*
X-210080D01*
X-206581D02*
Y101250D01*
X-206747Y101750D01*
X-206914Y101916D01*
X-207247Y102083D01*
X-207580D01*
X-207914Y101916D01*
X-208080Y101750D01*
X-208247Y101250D01*
Y99750D01*
Y100916D02*
X-210080Y102083D01*
X-206581Y103199D02*
Y105032D01*
X-207914Y104032D01*
Y104532D01*
X-208080Y104866D01*
X-208247Y105032D01*
X-208747Y105199D01*
X-209080D01*
X-209580Y105032D01*
X-209913Y104699D01*
X-210080Y104199D01*
Y103699D01*
X-209913Y103199D01*
X-209747Y103033D01*
X-209414Y102866D01*
X-207247Y105982D02*
X-207081Y106315D01*
X-206581Y106815D01*
X-210080D01*
X-206581Y108548D02*
X-210080D01*
X-206581D02*
Y110048D01*
X-206747Y110548D01*
X-206914Y110714D01*
X-207247Y110881D01*
X-207580D01*
X-207914Y110714D01*
X-208080Y110548D01*
X-208247Y110048D01*
Y108548D02*
Y110048D01*
X-208414Y110548D01*
X-208580Y110714D01*
X-208914Y110881D01*
X-209414D01*
X-209747Y110714D01*
X-209913Y110548D01*
X-210080Y110048D01*
Y108548D01*
X-201001Y99490D02*
X-204500D01*
X-201001D02*
Y100990D01*
X-201167Y101490D01*
X-201334Y101656D01*
X-201667Y101823D01*
X-202000D01*
X-202334Y101656D01*
X-202500Y101490D01*
X-202667Y100990D01*
Y99490D01*
Y100656D02*
X-204500Y101823D01*
X-201001Y102939D02*
Y104772D01*
X-202334Y103772D01*
Y104272D01*
X-202500Y104606D01*
X-202667Y104772D01*
X-203167Y104939D01*
X-203500D01*
X-204000Y104772D01*
X-204333Y104439D01*
X-204500Y103939D01*
Y103439D01*
X-204333Y102939D01*
X-204167Y102773D01*
X-203834Y102606D01*
X-201001Y106722D02*
X-201167Y106222D01*
X-201667Y105889D01*
X-202500Y105722D01*
X-203000D01*
X-203834Y105889D01*
X-204333Y106222D01*
X-204500Y106722D01*
Y107055D01*
X-204333Y107555D01*
X-203834Y107888D01*
X-203000Y108055D01*
X-202500D01*
X-201667Y107888D01*
X-201167Y107555D01*
X-201001Y107055D01*
Y106722D01*
Y108838D02*
X-204500D01*
X-201001D02*
Y110338D01*
X-201167Y110838D01*
X-201334Y111004D01*
X-201667Y111171D01*
X-202000D01*
X-202334Y111004D01*
X-202500Y110838D01*
X-202667Y110338D01*
Y108838D02*
Y110338D01*
X-202834Y110838D01*
X-203000Y111004D01*
X-203334Y111171D01*
X-203834D01*
X-204167Y111004D01*
X-204333Y110838D01*
X-204500Y110338D01*
Y108838D01*
X-201001Y114390D02*
X-204500D01*
X-201001D02*
Y115890D01*
X-201167Y116390D01*
X-201334Y116556D01*
X-201667Y116723D01*
X-202000D01*
X-202334Y116556D01*
X-202500Y116390D01*
X-202667Y115890D01*
Y114390D01*
Y115556D02*
X-204500Y116723D01*
X-201834Y117673D02*
X-201667D01*
X-201334Y117839D01*
X-201167Y118006D01*
X-201001Y118339D01*
Y119006D01*
X-201167Y119339D01*
X-201334Y119506D01*
X-201667Y119672D01*
X-202000D01*
X-202334Y119506D01*
X-202834Y119172D01*
X-204500Y117506D01*
Y119839D01*
X-202167Y122788D02*
X-202667Y122622D01*
X-203000Y122288D01*
X-203167Y121788D01*
Y121622D01*
X-203000Y121122D01*
X-202667Y120789D01*
X-202167Y120622D01*
X-202000D01*
X-201501Y120789D01*
X-201167Y121122D01*
X-201001Y121622D01*
Y121788D01*
X-201167Y122288D01*
X-201501Y122622D01*
X-202167Y122788D01*
X-203000D01*
X-203834Y122622D01*
X-204333Y122288D01*
X-204500Y121788D01*
Y121455D01*
X-204333Y120955D01*
X-204000Y120789D01*
X-201001Y123738D02*
X-204500D01*
X-201001D02*
Y125238D01*
X-201167Y125738D01*
X-201334Y125904D01*
X-201667Y126071D01*
X-202000D01*
X-202334Y125904D01*
X-202500Y125738D01*
X-202667Y125238D01*
Y123738D02*
Y125238D01*
X-202834Y125738D01*
X-203000Y125904D01*
X-203334Y126071D01*
X-203834D01*
X-204167Y125904D01*
X-204333Y125738D01*
X-204500Y125238D01*
Y123738D01*
X-206411Y114570D02*
X-209910D01*
X-206411D02*
Y116070D01*
X-206577Y116570D01*
X-206744Y116736D01*
X-207077Y116903D01*
X-207411D01*
X-207744Y116736D01*
X-207910Y116570D01*
X-208077Y116070D01*
Y114570D01*
Y115736D02*
X-209910Y116903D01*
X-207244Y117853D02*
X-207077D01*
X-206744Y118019D01*
X-206577Y118186D01*
X-206411Y118519D01*
Y119186D01*
X-206577Y119519D01*
X-206744Y119686D01*
X-207077Y119852D01*
X-207411D01*
X-207744Y119686D01*
X-208244Y119352D01*
X-209910Y117686D01*
Y120019D01*
X-206411Y121635D02*
X-206577Y121135D01*
X-206911Y120969D01*
X-207244D01*
X-207577Y121135D01*
X-207744Y121468D01*
X-207910Y122135D01*
X-208077Y122635D01*
X-208410Y122968D01*
X-208744Y123135D01*
X-209243D01*
X-209577Y122968D01*
X-209743Y122802D01*
X-209910Y122302D01*
Y121635D01*
X-209743Y121135D01*
X-209577Y120969D01*
X-209243Y120802D01*
X-208744D01*
X-208410Y120969D01*
X-208077Y121302D01*
X-207910Y121802D01*
X-207744Y122468D01*
X-207577Y122802D01*
X-207244Y122968D01*
X-206911D01*
X-206577Y122802D01*
X-206411Y122302D01*
Y121635D01*
Y123918D02*
X-209910D01*
X-206411D02*
Y125418D01*
X-206577Y125918D01*
X-206744Y126084D01*
X-207077Y126251D01*
X-207411D01*
X-207744Y126084D01*
X-207910Y125918D01*
X-208077Y125418D01*
Y123918D02*
Y125418D01*
X-208244Y125918D01*
X-208410Y126084D01*
X-208744Y126251D01*
X-209243D01*
X-209577Y126084D01*
X-209743Y125918D01*
X-209910Y125418D01*
Y123918D01*
X-189501Y99320D02*
X-193000D01*
X-189501D02*
Y100820D01*
X-189667Y101320D01*
X-189834Y101486D01*
X-190167Y101653D01*
X-190500D01*
X-190834Y101486D01*
X-191000Y101320D01*
X-191167Y100820D01*
Y99320D01*
Y100486D02*
X-193000Y101653D01*
X-190334Y102603D02*
X-190167D01*
X-189834Y102769D01*
X-189667Y102936D01*
X-189501Y103269D01*
Y103936D01*
X-189667Y104269D01*
X-189834Y104436D01*
X-190167Y104602D01*
X-190500D01*
X-190834Y104436D01*
X-191334Y104102D01*
X-193000Y102436D01*
Y104769D01*
X-189501Y107885D02*
X-193000Y106219D01*
X-189501Y105552D02*
Y107885D01*
Y108668D02*
X-193000D01*
X-189501D02*
Y110168D01*
X-189667Y110668D01*
X-189834Y110834D01*
X-190167Y111001D01*
X-190500D01*
X-190834Y110834D01*
X-191000Y110668D01*
X-191167Y110168D01*
Y108668D02*
Y110168D01*
X-191334Y110668D01*
X-191500Y110834D01*
X-191834Y111001D01*
X-192333D01*
X-192667Y110834D01*
X-192833Y110668D01*
X-193000Y110168D01*
Y108668D01*
X-195601Y99490D02*
X-199100D01*
X-195601D02*
Y100990D01*
X-195767Y101490D01*
X-195934Y101656D01*
X-196267Y101823D01*
X-196600D01*
X-196934Y101656D01*
X-197100Y101490D01*
X-197267Y100990D01*
Y99490D01*
Y100656D02*
X-199100Y101823D01*
X-196434Y102773D02*
X-196267D01*
X-195934Y102939D01*
X-195767Y103106D01*
X-195601Y103439D01*
Y104106D01*
X-195767Y104439D01*
X-195934Y104606D01*
X-196267Y104772D01*
X-196600D01*
X-196934Y104606D01*
X-197434Y104272D01*
X-199100Y102606D01*
Y104939D01*
X-196101Y107722D02*
X-195767Y107555D01*
X-195601Y107055D01*
Y106722D01*
X-195767Y106222D01*
X-196267Y105889D01*
X-197100Y105722D01*
X-197934D01*
X-198600Y105889D01*
X-198933Y106222D01*
X-199100Y106722D01*
Y106888D01*
X-198933Y107388D01*
X-198600Y107722D01*
X-198100Y107888D01*
X-197934D01*
X-197434Y107722D01*
X-197100Y107388D01*
X-196934Y106888D01*
Y106722D01*
X-197100Y106222D01*
X-197434Y105889D01*
X-197934Y105722D01*
X-195601Y108655D02*
X-199100D01*
X-195601D02*
Y110154D01*
X-195767Y110654D01*
X-195934Y110821D01*
X-196267Y110987D01*
X-196600D01*
X-196934Y110821D01*
X-197100Y110654D01*
X-197267Y110154D01*
Y108655D02*
Y110154D01*
X-197434Y110654D01*
X-197600Y110821D01*
X-197934Y110987D01*
X-198433D01*
X-198767Y110821D01*
X-198933Y110654D01*
X-199100Y110154D01*
Y108655D01*
X-195431Y114480D02*
X-198930D01*
X-195431D02*
Y115980D01*
X-195597Y116480D01*
X-195764Y116646D01*
X-196097Y116813D01*
X-196431D01*
X-196764Y116646D01*
X-196930Y116480D01*
X-197097Y115980D01*
Y114480D01*
Y115646D02*
X-198930Y116813D01*
X-196264Y117763D02*
X-196097D01*
X-195764Y117929D01*
X-195597Y118096D01*
X-195431Y118429D01*
Y119096D01*
X-195597Y119429D01*
X-195764Y119596D01*
X-196097Y119762D01*
X-196431D01*
X-196764Y119596D01*
X-197264Y119262D01*
X-198930Y117596D01*
Y119929D01*
X-195431Y122712D02*
Y121045D01*
X-196930Y120879D01*
X-196764Y121045D01*
X-196597Y121545D01*
Y122045D01*
X-196764Y122545D01*
X-197097Y122878D01*
X-197597Y123045D01*
X-197930D01*
X-198430Y122878D01*
X-198763Y122545D01*
X-198930Y122045D01*
Y121545D01*
X-198763Y121045D01*
X-198597Y120879D01*
X-198264Y120712D01*
X-195431Y123828D02*
X-198930D01*
X-195431D02*
Y125328D01*
X-195597Y125828D01*
X-195764Y125994D01*
X-196097Y126161D01*
X-196431D01*
X-196764Y125994D01*
X-196930Y125828D01*
X-197097Y125328D01*
Y123828D02*
Y125328D01*
X-197264Y125828D01*
X-197430Y125994D01*
X-197764Y126161D01*
X-198264D01*
X-198597Y125994D01*
X-198763Y125828D01*
X-198930Y125328D01*
Y123828D01*
X-189501Y114650D02*
X-193000D01*
X-189501D02*
Y116150D01*
X-189667Y116650D01*
X-189834Y116816D01*
X-190167Y116983D01*
X-190500D01*
X-190834Y116816D01*
X-191000Y116650D01*
X-191167Y116150D01*
Y114650D01*
Y115816D02*
X-193000Y116983D01*
X-189501Y118599D02*
X-189667Y118099D01*
X-190001Y117933D01*
X-190334D01*
X-190667Y118099D01*
X-190834Y118432D01*
X-191000Y119099D01*
X-191167Y119599D01*
X-191500Y119932D01*
X-191834Y120099D01*
X-192333D01*
X-192667Y119932D01*
X-192833Y119766D01*
X-193000Y119266D01*
Y118599D01*
X-192833Y118099D01*
X-192667Y117933D01*
X-192333Y117766D01*
X-191834D01*
X-191500Y117933D01*
X-191167Y118266D01*
X-191000Y118766D01*
X-190834Y119432D01*
X-190667Y119766D01*
X-190334Y119932D01*
X-190001D01*
X-189667Y119766D01*
X-189501Y119266D01*
Y118599D01*
Y120882D02*
X-193000D01*
X-189501D02*
Y122382D01*
X-189667Y122882D01*
X-189834Y123048D01*
X-190167Y123215D01*
X-190500D01*
X-190834Y123048D01*
X-191000Y122882D01*
X-191167Y122382D01*
Y120882D02*
Y122382D01*
X-191334Y122882D01*
X-191500Y123048D01*
X-191834Y123215D01*
X-192333D01*
X-192667Y123048D01*
X-192833Y122882D01*
X-193000Y122382D01*
Y120882D01*
X-191260Y-94471D02*
Y-97970D01*
Y-94471D02*
X-192760D01*
X-193260Y-94637D01*
X-193426Y-94804D01*
X-193593Y-95137D01*
Y-95470D01*
X-193426Y-95804D01*
X-193260Y-95970D01*
X-192760Y-96137D01*
X-191260D01*
X-192426D02*
X-193593Y-97970D01*
X-196042Y-94471D02*
X-194376Y-96804D01*
X-196876D01*
X-196042Y-94471D02*
Y-97970D01*
X-199492Y-94971D02*
X-199325Y-94637D01*
X-198825Y-94471D01*
X-198492D01*
X-197992Y-94637D01*
X-197659Y-95137D01*
X-197492Y-95970D01*
Y-96804D01*
X-197659Y-97470D01*
X-197992Y-97803D01*
X-198492Y-97970D01*
X-198658D01*
X-199158Y-97803D01*
X-199492Y-97470D01*
X-199658Y-96970D01*
Y-96804D01*
X-199492Y-96304D01*
X-199158Y-95970D01*
X-198658Y-95804D01*
X-198492D01*
X-197992Y-95970D01*
X-197659Y-96304D01*
X-197492Y-96804D01*
X-214501Y-88600D02*
X-218000D01*
X-214501D02*
Y-87100D01*
X-214667Y-86600D01*
X-214834Y-86434D01*
X-215167Y-86267D01*
X-215500D01*
X-215834Y-86434D01*
X-216000Y-86600D01*
X-216167Y-87100D01*
Y-88600D01*
Y-87434D02*
X-218000Y-86267D01*
X-215167Y-85484D02*
X-215001Y-85151D01*
X-214501Y-84651D01*
X-218000D01*
X-214501Y-81918D02*
X-214667Y-82418D01*
X-215167Y-82751D01*
X-216000Y-82918D01*
X-216500D01*
X-217334Y-82751D01*
X-217833Y-82418D01*
X-218000Y-81918D01*
Y-81585D01*
X-217833Y-81085D01*
X-217334Y-80752D01*
X-216500Y-80585D01*
X-216000D01*
X-215167Y-80752D01*
X-214667Y-81085D01*
X-214501Y-81585D01*
Y-81918D01*
Y-78969D02*
X-214667Y-79469D01*
X-215001Y-79635D01*
X-215334D01*
X-215667Y-79469D01*
X-215834Y-79135D01*
X-216000Y-78469D01*
X-216167Y-77969D01*
X-216500Y-77636D01*
X-216834Y-77469D01*
X-217334D01*
X-217667Y-77636D01*
X-217833Y-77802D01*
X-218000Y-78302D01*
Y-78969D01*
X-217833Y-79469D01*
X-217667Y-79635D01*
X-217334Y-79802D01*
X-216834D01*
X-216500Y-79635D01*
X-216167Y-79302D01*
X-216000Y-78802D01*
X-215834Y-78136D01*
X-215667Y-77802D01*
X-215334Y-77636D01*
X-215001D01*
X-214667Y-77802D01*
X-214501Y-78302D01*
Y-78969D01*
X-175090Y-68244D02*
X-174923Y-67911D01*
X-174590Y-67577D01*
X-174256Y-67411D01*
X-173590D01*
X-173257Y-67577D01*
X-172923Y-67911D01*
X-172757Y-68244D01*
X-172590Y-68744D01*
Y-69577D01*
X-172757Y-70077D01*
X-172923Y-70410D01*
X-173257Y-70743D01*
X-173590Y-70910D01*
X-174256D01*
X-174590Y-70743D01*
X-174923Y-70410D01*
X-175090Y-70077D01*
X-176239Y-68244D02*
Y-68077D01*
X-176406Y-67744D01*
X-176573Y-67577D01*
X-176906Y-67411D01*
X-177572D01*
X-177905Y-67577D01*
X-178072Y-67744D01*
X-178239Y-68077D01*
Y-68410D01*
X-178072Y-68744D01*
X-177739Y-69244D01*
X-176073Y-70910D01*
X-178405D01*
X-180022Y-67411D02*
X-179522Y-67577D01*
X-179355Y-67911D01*
Y-68244D01*
X-179522Y-68577D01*
X-179855Y-68744D01*
X-180522Y-68910D01*
X-181021Y-69077D01*
X-181355Y-69410D01*
X-181521Y-69744D01*
Y-70244D01*
X-181355Y-70577D01*
X-181188Y-70743D01*
X-180688Y-70910D01*
X-180022D01*
X-179522Y-70743D01*
X-179355Y-70577D01*
X-179189Y-70244D01*
Y-69744D01*
X-179355Y-69410D01*
X-179689Y-69077D01*
X-180188Y-68910D01*
X-180855Y-68744D01*
X-181188Y-68577D01*
X-181355Y-68244D01*
Y-67911D01*
X-181188Y-67577D01*
X-180688Y-67411D01*
X-180022D01*
X-122199Y30726D02*
X-122033Y31059D01*
X-121700Y31393D01*
X-121366Y31559D01*
X-120700D01*
X-120367Y31393D01*
X-120033Y31059D01*
X-119867Y30726D01*
X-119700Y30226D01*
Y29393D01*
X-119867Y28893D01*
X-120033Y28560D01*
X-120367Y28227D01*
X-120700Y28060D01*
X-121366D01*
X-121700Y28227D01*
X-122033Y28560D01*
X-122199Y28893D01*
X-125182Y31559D02*
X-123516D01*
X-123349Y30060D01*
X-123516Y30226D01*
X-124016Y30393D01*
X-124516D01*
X-125015Y30226D01*
X-125349Y29893D01*
X-125515Y29393D01*
Y29060D01*
X-125349Y28560D01*
X-125015Y28227D01*
X-124516Y28060D01*
X-124016D01*
X-123516Y28227D01*
X-123349Y28393D01*
X-123183Y28727D01*
X-126632Y31559D02*
X-128465D01*
X-127465Y30226D01*
X-127965D01*
X-128298Y30060D01*
X-128465Y29893D01*
X-128631Y29393D01*
Y29060D01*
X-128465Y28560D01*
X-128131Y28227D01*
X-127632Y28060D01*
X-127132D01*
X-126632Y28227D01*
X-126465Y28393D01*
X-126299Y28727D01*
X-145239Y23786D02*
X-145073Y24119D01*
X-144740Y24453D01*
X-144406Y24619D01*
X-143740D01*
X-143406Y24453D01*
X-143073Y24119D01*
X-142907Y23786D01*
X-142740Y23286D01*
Y22453D01*
X-142907Y21953D01*
X-143073Y21620D01*
X-143406Y21287D01*
X-143740Y21120D01*
X-144406D01*
X-144740Y21287D01*
X-145073Y21620D01*
X-145239Y21953D01*
X-148555Y24619D02*
X-146889Y21120D01*
X-146223Y24619D02*
X-148555D01*
X-149672D02*
X-151505D01*
X-150505Y23286D01*
X-151005D01*
X-151338Y23120D01*
X-151505Y22953D01*
X-151671Y22453D01*
Y22120D01*
X-151505Y21620D01*
X-151172Y21287D01*
X-150672Y21120D01*
X-150172D01*
X-149672Y21287D01*
X-149505Y21453D01*
X-149339Y21787D01*
X-105979Y30034D02*
X-102480D01*
X-105979Y31200D02*
Y28867D01*
X-104146Y28451D02*
Y26951D01*
X-104313Y26451D01*
X-104480Y26284D01*
X-104813Y26118D01*
X-105313D01*
X-105646Y26284D01*
X-105813Y26451D01*
X-105979Y26951D01*
Y28451D01*
X-102480D01*
X-105979Y25001D02*
Y23168D01*
X-104646Y24168D01*
Y23668D01*
X-104480Y23335D01*
X-104313Y23168D01*
X-103813Y23002D01*
X-103480D01*
X-102980Y23168D01*
X-102647Y23502D01*
X-102480Y24002D01*
Y24501D01*
X-102647Y25001D01*
X-102813Y25168D01*
X-103147Y25335D01*
X-91119Y30104D02*
X-87620D01*
X-91119Y31270D02*
Y28937D01*
X-89286Y28521D02*
Y27021D01*
X-89453Y26521D01*
X-89620Y26354D01*
X-89953Y26188D01*
X-90453D01*
X-90786Y26354D01*
X-90953Y26521D01*
X-91119Y27021D01*
Y28521D01*
X-87620D01*
X-90286Y25238D02*
X-90453D01*
X-90786Y25071D01*
X-90953Y24905D01*
X-91119Y24571D01*
Y23905D01*
X-90953Y23572D01*
X-90786Y23405D01*
X-90453Y23238D01*
X-90119D01*
X-89786Y23405D01*
X-89286Y23738D01*
X-87620Y25405D01*
Y23072D01*
X-98249Y30104D02*
X-94750D01*
X-98249Y31270D02*
Y28937D01*
X-96416Y28521D02*
Y27021D01*
X-96583Y26521D01*
X-96750Y26354D01*
X-97083Y26188D01*
X-97583D01*
X-97916Y26354D01*
X-98083Y26521D01*
X-98249Y27021D01*
Y28521D01*
X-94750D01*
X-97583Y25405D02*
X-97749Y25071D01*
X-98249Y24571D01*
X-94750D01*
X-240520Y-21561D02*
Y-25060D01*
Y-21561D02*
X-242020D01*
X-242520Y-21727D01*
X-242686Y-21894D01*
X-242853Y-22227D01*
Y-22560D01*
X-242686Y-22894D01*
X-242520Y-23060D01*
X-242020Y-23227D01*
X-240520D01*
X-241686D02*
X-242853Y-25060D01*
X-243636Y-22227D02*
X-243969Y-22061D01*
X-244469Y-21561D01*
Y-25060D01*
X-246202Y-22227D02*
X-246535Y-22061D01*
X-247035Y-21561D01*
Y-25060D01*
X-251101Y-21561D02*
X-249435Y-25060D01*
X-248768Y-21561D02*
X-251101D01*
X-240160Y-26211D02*
Y-29710D01*
Y-26211D02*
X-241660D01*
X-242160Y-26377D01*
X-242326Y-26544D01*
X-242493Y-26877D01*
Y-27211D01*
X-242326Y-27544D01*
X-242160Y-27710D01*
X-241660Y-27877D01*
X-240160D01*
X-241326D02*
X-242493Y-29710D01*
X-243276Y-26877D02*
X-243609Y-26711D01*
X-244109Y-26211D01*
Y-29710D01*
X-245842Y-26877D02*
X-246175Y-26711D01*
X-246675Y-26211D01*
Y-29710D01*
X-250408Y-26711D02*
X-250241Y-26377D01*
X-249741Y-26211D01*
X-249408D01*
X-248908Y-26377D01*
X-248575Y-26877D01*
X-248408Y-27710D01*
Y-28544D01*
X-248575Y-29210D01*
X-248908Y-29543D01*
X-249408Y-29710D01*
X-249575D01*
X-250075Y-29543D01*
X-250408Y-29210D01*
X-250574Y-28710D01*
Y-28544D01*
X-250408Y-28044D01*
X-250075Y-27710D01*
X-249575Y-27544D01*
X-249408D01*
X-248908Y-27710D01*
X-248575Y-28044D01*
X-248408Y-28544D01*
X-83890Y132969D02*
Y129470D01*
X-87123Y132136D02*
X-86956Y132469D01*
X-86623Y132803D01*
X-86290Y132969D01*
X-85623D01*
X-85290Y132803D01*
X-84956Y132469D01*
X-84790Y132136D01*
X-84623Y131636D01*
Y130803D01*
X-84790Y130303D01*
X-84956Y129970D01*
X-85290Y129637D01*
X-85623Y129470D01*
X-86290D01*
X-86623Y129637D01*
X-86956Y129970D01*
X-87123Y130303D01*
X-88106Y132303D02*
X-88439Y132469D01*
X-88939Y132969D01*
Y129470D01*
X-91505Y132969D02*
X-91005Y132803D01*
X-90838Y132469D01*
Y132136D01*
X-91005Y131803D01*
X-91338Y131636D01*
X-92005Y131470D01*
X-92505Y131303D01*
X-92838Y130970D01*
X-93005Y130636D01*
Y130137D01*
X-92838Y129803D01*
X-92672Y129637D01*
X-92172Y129470D01*
X-91505D01*
X-91005Y129637D01*
X-90838Y129803D01*
X-90672Y130137D01*
Y130636D01*
X-90838Y130970D01*
X-91172Y131303D01*
X-91672Y131470D01*
X-92338Y131636D01*
X-92672Y131803D01*
X-92838Y132136D01*
Y132469D01*
X-92672Y132803D01*
X-92172Y132969D01*
X-91505D01*
X-83920Y105566D02*
X-83753Y105899D01*
X-83420Y106233D01*
X-83086Y106399D01*
X-82420D01*
X-82086Y106233D01*
X-81753Y105899D01*
X-81587Y105566D01*
X-81420Y105066D01*
Y104233D01*
X-81587Y103733D01*
X-81753Y103400D01*
X-82086Y103067D01*
X-82420Y102900D01*
X-83086D01*
X-83420Y103067D01*
X-83753Y103400D01*
X-83920Y103733D01*
X-87235Y106399D02*
X-85569Y102900D01*
X-84903Y106399D02*
X-87235D01*
X-89018D02*
X-88519Y106233D01*
X-88185Y105733D01*
X-88019Y104900D01*
Y104400D01*
X-88185Y103567D01*
X-88519Y103067D01*
X-89018Y102900D01*
X-89352D01*
X-89851Y103067D01*
X-90185Y103567D01*
X-90351Y104400D01*
Y104900D01*
X-90185Y105733D01*
X-89851Y106233D01*
X-89352Y106399D01*
X-89018D01*
X-162569Y-49594D02*
X-162403Y-49261D01*
X-162070Y-48927D01*
X-161736Y-48761D01*
X-161070D01*
X-160737Y-48927D01*
X-160403Y-49261D01*
X-160237Y-49594D01*
X-160070Y-50094D01*
Y-50927D01*
X-160237Y-51427D01*
X-160403Y-51760D01*
X-160737Y-52093D01*
X-161070Y-52260D01*
X-161736D01*
X-162070Y-52093D01*
X-162403Y-51760D01*
X-162569Y-51427D01*
X-165552Y-49261D02*
X-165385Y-48927D01*
X-164886Y-48761D01*
X-164552D01*
X-164052Y-48927D01*
X-163719Y-49427D01*
X-163553Y-50260D01*
Y-51094D01*
X-163719Y-51760D01*
X-164052Y-52093D01*
X-164552Y-52260D01*
X-164719D01*
X-165219Y-52093D01*
X-165552Y-51760D01*
X-165719Y-51260D01*
Y-51094D01*
X-165552Y-50594D01*
X-165219Y-50260D01*
X-164719Y-50094D01*
X-164552D01*
X-164052Y-50260D01*
X-163719Y-50594D01*
X-163553Y-51094D01*
X-168651Y-49927D02*
X-168485Y-50427D01*
X-168152Y-50760D01*
X-167652Y-50927D01*
X-167485D01*
X-166985Y-50760D01*
X-166652Y-50427D01*
X-166485Y-49927D01*
Y-49760D01*
X-166652Y-49261D01*
X-166985Y-48927D01*
X-167485Y-48761D01*
X-167652D01*
X-168152Y-48927D01*
X-168485Y-49261D01*
X-168651Y-49927D01*
Y-50760D01*
X-168485Y-51594D01*
X-168152Y-52093D01*
X-167652Y-52260D01*
X-167318D01*
X-166819Y-52093D01*
X-166652Y-51760D01*
X-176400Y-12434D02*
X-176233Y-12101D01*
X-175900Y-11767D01*
X-175566Y-11601D01*
X-174900D01*
X-174566Y-11767D01*
X-174233Y-12101D01*
X-174067Y-12434D01*
X-173900Y-12934D01*
Y-13767D01*
X-174067Y-14267D01*
X-174233Y-14600D01*
X-174566Y-14933D01*
X-174900Y-15100D01*
X-175566D01*
X-175900Y-14933D01*
X-176233Y-14600D01*
X-176400Y-14267D01*
X-179382Y-12101D02*
X-179216Y-11767D01*
X-178716Y-11601D01*
X-178382D01*
X-177883Y-11767D01*
X-177549Y-12267D01*
X-177383Y-13100D01*
Y-13934D01*
X-177549Y-14600D01*
X-177883Y-14933D01*
X-178382Y-15100D01*
X-178549D01*
X-179049Y-14933D01*
X-179382Y-14600D01*
X-179549Y-14100D01*
Y-13934D01*
X-179382Y-13434D01*
X-179049Y-13100D01*
X-178549Y-12934D01*
X-178382D01*
X-177883Y-13100D01*
X-177549Y-13434D01*
X-177383Y-13934D01*
X-181148Y-11601D02*
X-180649Y-11767D01*
X-180482Y-12101D01*
Y-12434D01*
X-180649Y-12767D01*
X-180982Y-12934D01*
X-181648Y-13100D01*
X-182148Y-13267D01*
X-182482Y-13600D01*
X-182648Y-13934D01*
Y-14434D01*
X-182482Y-14767D01*
X-182315Y-14933D01*
X-181815Y-15100D01*
X-181148D01*
X-180649Y-14933D01*
X-180482Y-14767D01*
X-180315Y-14434D01*
Y-13934D01*
X-180482Y-13600D01*
X-180815Y-13267D01*
X-181315Y-13100D01*
X-181982Y-12934D01*
X-182315Y-12767D01*
X-182482Y-12434D01*
Y-12101D01*
X-182315Y-11767D01*
X-181815Y-11601D01*
X-181148D01*
X-162154Y-64470D02*
X-161821Y-64637D01*
X-161487Y-64970D01*
X-161321Y-65304D01*
Y-65970D01*
X-161487Y-66303D01*
X-161821Y-66637D01*
X-162154Y-66803D01*
X-162654Y-66970D01*
X-163487D01*
X-163987Y-66803D01*
X-164320Y-66637D01*
X-164653Y-66303D01*
X-164820Y-65970D01*
Y-65304D01*
X-164653Y-64970D01*
X-164320Y-64637D01*
X-163987Y-64470D01*
X-161821Y-61488D02*
X-161487Y-61655D01*
X-161321Y-62154D01*
Y-62488D01*
X-161487Y-62988D01*
X-161987Y-63321D01*
X-162820Y-63487D01*
X-163654D01*
X-164320Y-63321D01*
X-164653Y-62988D01*
X-164820Y-62488D01*
Y-62321D01*
X-164653Y-61821D01*
X-164320Y-61488D01*
X-163820Y-61321D01*
X-163654D01*
X-163154Y-61488D01*
X-162820Y-61821D01*
X-162654Y-62321D01*
Y-62488D01*
X-162820Y-62988D01*
X-163154Y-63321D01*
X-163654Y-63487D01*
X-161321Y-58222D02*
X-164820Y-59888D01*
X-161321Y-60555D02*
Y-58222D01*
X-131360Y-42264D02*
X-131193Y-41931D01*
X-130860Y-41597D01*
X-130526Y-41431D01*
X-129860D01*
X-129526Y-41597D01*
X-129193Y-41931D01*
X-129027Y-42264D01*
X-128860Y-42764D01*
Y-43597D01*
X-129027Y-44097D01*
X-129193Y-44430D01*
X-129526Y-44763D01*
X-129860Y-44930D01*
X-130526D01*
X-130860Y-44763D01*
X-131193Y-44430D01*
X-131360Y-44097D01*
X-134342Y-41931D02*
X-134176Y-41597D01*
X-133676Y-41431D01*
X-133342D01*
X-132843Y-41597D01*
X-132509Y-42097D01*
X-132343Y-42930D01*
Y-43764D01*
X-132509Y-44430D01*
X-132843Y-44763D01*
X-133342Y-44930D01*
X-133509D01*
X-134009Y-44763D01*
X-134342Y-44430D01*
X-134509Y-43930D01*
Y-43764D01*
X-134342Y-43264D01*
X-134009Y-42930D01*
X-133509Y-42764D01*
X-133342D01*
X-132843Y-42930D01*
X-132509Y-43264D01*
X-132343Y-43764D01*
X-137275Y-41931D02*
X-137108Y-41597D01*
X-136608Y-41431D01*
X-136275D01*
X-135775Y-41597D01*
X-135442Y-42097D01*
X-135275Y-42930D01*
Y-43764D01*
X-135442Y-44430D01*
X-135775Y-44763D01*
X-136275Y-44930D01*
X-136442D01*
X-136942Y-44763D01*
X-137275Y-44430D01*
X-137442Y-43930D01*
Y-43764D01*
X-137275Y-43264D01*
X-136942Y-42930D01*
X-136442Y-42764D01*
X-136275D01*
X-135775Y-42930D01*
X-135442Y-43264D01*
X-135275Y-43764D01*
X-175890Y-17264D02*
X-175723Y-16931D01*
X-175390Y-16597D01*
X-175056Y-16431D01*
X-174390D01*
X-174056Y-16597D01*
X-173723Y-16931D01*
X-173557Y-17264D01*
X-173390Y-17764D01*
Y-18597D01*
X-173557Y-19097D01*
X-173723Y-19430D01*
X-174056Y-19763D01*
X-174390Y-19930D01*
X-175056D01*
X-175390Y-19763D01*
X-175723Y-19430D01*
X-175890Y-19097D01*
X-178872Y-16931D02*
X-178706Y-16597D01*
X-178206Y-16431D01*
X-177872D01*
X-177373Y-16597D01*
X-177039Y-17097D01*
X-176873Y-17930D01*
Y-18764D01*
X-177039Y-19430D01*
X-177373Y-19763D01*
X-177872Y-19930D01*
X-178039D01*
X-178539Y-19763D01*
X-178872Y-19430D01*
X-179039Y-18930D01*
Y-18764D01*
X-178872Y-18264D01*
X-178539Y-17930D01*
X-178039Y-17764D01*
X-177872D01*
X-177373Y-17930D01*
X-177039Y-18264D01*
X-176873Y-18764D01*
X-181805Y-16431D02*
X-180139D01*
X-179972Y-17930D01*
X-180139Y-17764D01*
X-180638Y-17597D01*
X-181138D01*
X-181638Y-17764D01*
X-181972Y-18097D01*
X-182138Y-18597D01*
Y-18930D01*
X-181972Y-19430D01*
X-181638Y-19763D01*
X-181138Y-19930D01*
X-180638D01*
X-180139Y-19763D01*
X-179972Y-19597D01*
X-179805Y-19263D01*
X-162789Y-44774D02*
X-162623Y-44441D01*
X-162290Y-44107D01*
X-161956Y-43941D01*
X-161290D01*
X-160957Y-44107D01*
X-160623Y-44441D01*
X-160457Y-44774D01*
X-160290Y-45274D01*
Y-46107D01*
X-160457Y-46607D01*
X-160623Y-46940D01*
X-160957Y-47273D01*
X-161290Y-47440D01*
X-161956D01*
X-162290Y-47273D01*
X-162623Y-46940D01*
X-162789Y-46607D01*
X-165772Y-44441D02*
X-165605Y-44107D01*
X-165106Y-43941D01*
X-164772D01*
X-164272Y-44107D01*
X-163939Y-44607D01*
X-163773Y-45440D01*
Y-46274D01*
X-163939Y-46940D01*
X-164272Y-47273D01*
X-164772Y-47440D01*
X-164939D01*
X-165439Y-47273D01*
X-165772Y-46940D01*
X-165939Y-46440D01*
Y-46274D01*
X-165772Y-45774D01*
X-165439Y-45440D01*
X-164939Y-45274D01*
X-164772D01*
X-164272Y-45440D01*
X-163939Y-45774D01*
X-163773Y-46274D01*
X-167705Y-43941D02*
X-167205Y-44107D01*
X-166872Y-44607D01*
X-166705Y-45440D01*
Y-45940D01*
X-166872Y-46773D01*
X-167205Y-47273D01*
X-167705Y-47440D01*
X-168038D01*
X-168538Y-47273D01*
X-168871Y-46773D01*
X-169038Y-45940D01*
Y-45440D01*
X-168871Y-44607D01*
X-168538Y-44107D01*
X-168038Y-43941D01*
X-167705D01*
X-93379Y-97294D02*
X-93213Y-96961D01*
X-92880Y-96627D01*
X-92546Y-96461D01*
X-91880D01*
X-91546Y-96627D01*
X-91213Y-96961D01*
X-91047Y-97294D01*
X-90880Y-97794D01*
Y-98627D01*
X-91047Y-99127D01*
X-91213Y-99460D01*
X-91546Y-99793D01*
X-91880Y-99960D01*
X-92546D01*
X-92880Y-99793D01*
X-93213Y-99460D01*
X-93379Y-99127D01*
X-94529Y-97294D02*
Y-97127D01*
X-94696Y-96794D01*
X-94863Y-96627D01*
X-95196Y-96461D01*
X-95862D01*
X-96196Y-96627D01*
X-96362Y-96794D01*
X-96529Y-97127D01*
Y-97461D01*
X-96362Y-97794D01*
X-96029Y-98294D01*
X-94363Y-99960D01*
X-96695D01*
X-99811Y-96461D02*
X-98145Y-99960D01*
X-97479Y-96461D02*
X-99811D01*
X-93340Y-89734D02*
X-93173Y-89401D01*
X-92840Y-89067D01*
X-92506Y-88901D01*
X-91840D01*
X-91506Y-89067D01*
X-91173Y-89401D01*
X-91007Y-89734D01*
X-90840Y-90234D01*
Y-91067D01*
X-91007Y-91567D01*
X-91173Y-91900D01*
X-91506Y-92233D01*
X-91840Y-92400D01*
X-92506D01*
X-92840Y-92233D01*
X-93173Y-91900D01*
X-93340Y-91567D01*
X-94489Y-89734D02*
Y-89567D01*
X-94656Y-89234D01*
X-94823Y-89067D01*
X-95156Y-88901D01*
X-95822D01*
X-96156Y-89067D01*
X-96322Y-89234D01*
X-96489Y-89567D01*
Y-89900D01*
X-96322Y-90234D01*
X-95989Y-90734D01*
X-94323Y-92400D01*
X-96655D01*
X-99438Y-89401D02*
X-99272Y-89067D01*
X-98772Y-88901D01*
X-98438D01*
X-97939Y-89067D01*
X-97605Y-89567D01*
X-97439Y-90400D01*
Y-91234D01*
X-97605Y-91900D01*
X-97939Y-92233D01*
X-98438Y-92400D01*
X-98605D01*
X-99105Y-92233D01*
X-99438Y-91900D01*
X-99605Y-91400D01*
Y-91234D01*
X-99438Y-90734D01*
X-99105Y-90400D01*
X-98605Y-90234D01*
X-98438D01*
X-97939Y-90400D01*
X-97605Y-90734D01*
X-97439Y-91234D01*
X-93459Y-111474D02*
X-93293Y-111141D01*
X-92960Y-110807D01*
X-92626Y-110641D01*
X-91960D01*
X-91627Y-110807D01*
X-91293Y-111141D01*
X-91127Y-111474D01*
X-90960Y-111974D01*
Y-112807D01*
X-91127Y-113307D01*
X-91293Y-113640D01*
X-91627Y-113973D01*
X-91960Y-114140D01*
X-92626D01*
X-92960Y-113973D01*
X-93293Y-113640D01*
X-93459Y-113307D01*
X-96109Y-110641D02*
X-94443Y-112974D01*
X-96942D01*
X-96109Y-110641D02*
Y-114140D01*
X-97892Y-110641D02*
X-99725D01*
X-98725Y-111974D01*
X-99225D01*
X-99558Y-112140D01*
X-99725Y-112307D01*
X-99891Y-112807D01*
Y-113140D01*
X-99725Y-113640D01*
X-99392Y-113973D01*
X-98892Y-114140D01*
X-98392D01*
X-97892Y-113973D01*
X-97725Y-113807D01*
X-97559Y-113473D01*
X-216001Y-56400D02*
X-219500D01*
X-216001D02*
Y-54900D01*
X-216167Y-54400D01*
X-216334Y-54234D01*
X-216667Y-54067D01*
X-217001D01*
X-217334Y-54234D01*
X-217500Y-54400D01*
X-217667Y-54900D01*
Y-56400D01*
Y-55234D02*
X-219500Y-54067D01*
X-216667Y-53284D02*
X-216501Y-52951D01*
X-216001Y-52451D01*
X-219500D01*
X-216667Y-50718D02*
X-216501Y-50385D01*
X-216001Y-49885D01*
X-219500D01*
X-216001Y-47152D02*
X-216167Y-47652D01*
X-216667Y-47985D01*
X-217500Y-48152D01*
X-218000D01*
X-218833Y-47985D01*
X-219333Y-47652D01*
X-219500Y-47152D01*
Y-46819D01*
X-219333Y-46319D01*
X-218833Y-45986D01*
X-218000Y-45819D01*
X-217500D01*
X-216667Y-45986D01*
X-216167Y-46319D01*
X-216001Y-46819D01*
Y-47152D01*
X-217261Y350D02*
X-220760D01*
X-217261D02*
Y1850D01*
X-217427Y2350D01*
X-217594Y2516D01*
X-217927Y2683D01*
X-218261D01*
X-218594Y2516D01*
X-218760Y2350D01*
X-218927Y1850D01*
Y350D01*
Y1516D02*
X-220760Y2683D01*
X-217927Y3466D02*
X-217761Y3799D01*
X-217261Y4299D01*
X-220760D01*
X-217261Y7032D02*
X-217427Y6532D01*
X-217927Y6199D01*
X-218760Y6032D01*
X-219260D01*
X-220093Y6199D01*
X-220593Y6532D01*
X-220760Y7032D01*
Y7365D01*
X-220593Y7865D01*
X-220093Y8198D01*
X-219260Y8365D01*
X-218760D01*
X-217927Y8198D01*
X-217427Y7865D01*
X-217261Y7365D01*
Y7032D01*
Y11148D02*
Y9481D01*
X-218760Y9315D01*
X-218594Y9481D01*
X-218427Y9981D01*
Y10481D01*
X-218594Y10981D01*
X-218927Y11314D01*
X-219427Y11481D01*
X-219760D01*
X-220260Y11314D01*
X-220593Y10981D01*
X-220760Y10481D01*
Y9981D01*
X-220593Y9481D01*
X-220427Y9315D01*
X-220093Y9148D01*
X-210460Y-12931D02*
Y-16430D01*
Y-12931D02*
X-211960D01*
X-212460Y-13097D01*
X-212626Y-13264D01*
X-212793Y-13597D01*
Y-13930D01*
X-212626Y-14264D01*
X-212460Y-14430D01*
X-211960Y-14597D01*
X-210460D01*
X-211626D02*
X-212793Y-16430D01*
X-213576Y-13597D02*
X-213909Y-13431D01*
X-214409Y-12931D01*
Y-16430D01*
X-217142Y-12931D02*
X-216642Y-13097D01*
X-216309Y-13597D01*
X-216142Y-14430D01*
Y-14930D01*
X-216309Y-15764D01*
X-216642Y-16263D01*
X-217142Y-16430D01*
X-217475D01*
X-217975Y-16263D01*
X-218308Y-15764D01*
X-218475Y-14930D01*
Y-14430D01*
X-218308Y-13597D01*
X-217975Y-13097D01*
X-217475Y-12931D01*
X-217142D01*
X-220924D02*
X-219258Y-15264D01*
X-221758D01*
X-220924Y-12931D02*
Y-16430D01*
X-223391Y28240D02*
X-226890D01*
X-223391D02*
Y29740D01*
X-223557Y30240D01*
X-223724Y30406D01*
X-224057Y30573D01*
X-224391D01*
X-224724Y30406D01*
X-224890Y30240D01*
X-225057Y29740D01*
Y28240D01*
Y29406D02*
X-226890Y30573D01*
X-224057Y31356D02*
X-223891Y31689D01*
X-223391Y32189D01*
X-226890D01*
X-223391Y34922D02*
X-223557Y34422D01*
X-224057Y34089D01*
X-224890Y33922D01*
X-225390D01*
X-226223Y34089D01*
X-226723Y34422D01*
X-226890Y34922D01*
Y35255D01*
X-226723Y35755D01*
X-226223Y36088D01*
X-225390Y36255D01*
X-224890D01*
X-224057Y36088D01*
X-223557Y35755D01*
X-223391Y35255D01*
Y34922D01*
Y37371D02*
Y39204D01*
X-224724Y38205D01*
Y38704D01*
X-224890Y39038D01*
X-225057Y39204D01*
X-225557Y39371D01*
X-225890D01*
X-226390Y39204D01*
X-226723Y38871D01*
X-226890Y38371D01*
Y37871D01*
X-226723Y37371D01*
X-226557Y37205D01*
X-226223Y37038D01*
X-219921Y60680D02*
X-223420D01*
X-219921D02*
Y62180D01*
X-220087Y62680D01*
X-220254Y62846D01*
X-220587Y63013D01*
X-220920D01*
X-221254Y62846D01*
X-221420Y62680D01*
X-221587Y62180D01*
Y60680D01*
Y61846D02*
X-223420Y63013D01*
X-220587Y63796D02*
X-220421Y64129D01*
X-219921Y64629D01*
X-223420D01*
X-219921Y67362D02*
X-220087Y66862D01*
X-220587Y66529D01*
X-221420Y66362D01*
X-221920D01*
X-222754Y66529D01*
X-223253Y66862D01*
X-223420Y67362D01*
Y67695D01*
X-223253Y68195D01*
X-222754Y68528D01*
X-221920Y68695D01*
X-221420D01*
X-220587Y68528D01*
X-220087Y68195D01*
X-219921Y67695D01*
Y67362D01*
X-220754Y69645D02*
X-220587D01*
X-220254Y69811D01*
X-220087Y69978D01*
X-219921Y70311D01*
Y70978D01*
X-220087Y71311D01*
X-220254Y71478D01*
X-220587Y71644D01*
X-220920D01*
X-221254Y71478D01*
X-221754Y71144D01*
X-223420Y69478D01*
Y71811D01*
X-204680Y-88811D02*
Y-92310D01*
Y-88811D02*
X-206180D01*
X-206680Y-88977D01*
X-206846Y-89144D01*
X-207013Y-89477D01*
Y-89811D01*
X-206846Y-90144D01*
X-206680Y-90310D01*
X-206180Y-90477D01*
X-204680D01*
X-205846D02*
X-207013Y-92310D01*
X-209796Y-89311D02*
X-209629Y-88977D01*
X-209129Y-88811D01*
X-208796D01*
X-208296Y-88977D01*
X-207963Y-89477D01*
X-207796Y-90310D01*
Y-91144D01*
X-207963Y-91810D01*
X-208296Y-92143D01*
X-208796Y-92310D01*
X-208962D01*
X-209462Y-92143D01*
X-209796Y-91810D01*
X-209962Y-91310D01*
Y-91144D01*
X-209796Y-90644D01*
X-209462Y-90310D01*
X-208962Y-90144D01*
X-208796D01*
X-208296Y-90310D01*
X-207963Y-90644D01*
X-207796Y-91144D01*
X-212728Y-89311D02*
X-212562Y-88977D01*
X-212062Y-88811D01*
X-211729D01*
X-211229Y-88977D01*
X-210895Y-89477D01*
X-210729Y-90310D01*
Y-91144D01*
X-210895Y-91810D01*
X-211229Y-92143D01*
X-211729Y-92310D01*
X-211895D01*
X-212395Y-92143D01*
X-212728Y-91810D01*
X-212895Y-91310D01*
Y-91144D01*
X-212728Y-90644D01*
X-212395Y-90310D01*
X-211895Y-90144D01*
X-211729D01*
X-211229Y-90310D01*
X-210895Y-90644D01*
X-210729Y-91144D01*
X-204590Y-83841D02*
Y-87340D01*
Y-83841D02*
X-206090D01*
X-206590Y-84007D01*
X-206756Y-84174D01*
X-206923Y-84507D01*
Y-84841D01*
X-206756Y-85174D01*
X-206590Y-85340D01*
X-206090Y-85507D01*
X-204590D01*
X-205756D02*
X-206923Y-87340D01*
X-209706Y-84341D02*
X-209539Y-84007D01*
X-209039Y-83841D01*
X-208706D01*
X-208206Y-84007D01*
X-207873Y-84507D01*
X-207706Y-85340D01*
Y-86174D01*
X-207873Y-86840D01*
X-208206Y-87173D01*
X-208706Y-87340D01*
X-208872D01*
X-209372Y-87173D01*
X-209706Y-86840D01*
X-209872Y-86340D01*
Y-86174D01*
X-209706Y-85674D01*
X-209372Y-85340D01*
X-208872Y-85174D01*
X-208706D01*
X-208206Y-85340D01*
X-207873Y-85674D01*
X-207706Y-86174D01*
X-212638Y-83841D02*
X-210972D01*
X-210805Y-85340D01*
X-210972Y-85174D01*
X-211472Y-85007D01*
X-211972D01*
X-212472Y-85174D01*
X-212805Y-85507D01*
X-212971Y-86007D01*
Y-86340D01*
X-212805Y-86840D01*
X-212472Y-87173D01*
X-211972Y-87340D01*
X-211472D01*
X-210972Y-87173D01*
X-210805Y-87007D01*
X-210639Y-86673D01*
X-191610Y-84711D02*
Y-88210D01*
Y-84711D02*
X-193110D01*
X-193610Y-84877D01*
X-193776Y-85044D01*
X-193943Y-85377D01*
Y-85711D01*
X-193776Y-86044D01*
X-193610Y-86210D01*
X-193110Y-86377D01*
X-191610D01*
X-192776D02*
X-193943Y-88210D01*
X-196726Y-85211D02*
X-196559Y-84877D01*
X-196059Y-84711D01*
X-195726D01*
X-195226Y-84877D01*
X-194893Y-85377D01*
X-194726Y-86210D01*
Y-87044D01*
X-194893Y-87710D01*
X-195226Y-88043D01*
X-195726Y-88210D01*
X-195892D01*
X-196392Y-88043D01*
X-196726Y-87710D01*
X-196892Y-87210D01*
Y-87044D01*
X-196726Y-86544D01*
X-196392Y-86210D01*
X-195892Y-86044D01*
X-195726D01*
X-195226Y-86210D01*
X-194893Y-86544D01*
X-194726Y-87044D01*
X-199325Y-84711D02*
X-197659Y-87044D01*
X-200158D01*
X-199325Y-84711D02*
Y-88210D01*
X-191520Y-89591D02*
Y-93090D01*
Y-89591D02*
X-193020D01*
X-193520Y-89757D01*
X-193686Y-89924D01*
X-193853Y-90257D01*
Y-90591D01*
X-193686Y-90924D01*
X-193520Y-91090D01*
X-193020Y-91257D01*
X-191520D01*
X-192686D02*
X-193853Y-93090D01*
X-196636Y-90091D02*
X-196469Y-89757D01*
X-195969Y-89591D01*
X-195636D01*
X-195136Y-89757D01*
X-194803Y-90257D01*
X-194636Y-91090D01*
Y-91924D01*
X-194803Y-92590D01*
X-195136Y-92923D01*
X-195636Y-93090D01*
X-195802D01*
X-196302Y-92923D01*
X-196636Y-92590D01*
X-196802Y-92090D01*
Y-91924D01*
X-196636Y-91424D01*
X-196302Y-91090D01*
X-195802Y-90924D01*
X-195636D01*
X-195136Y-91090D01*
X-194803Y-91424D01*
X-194636Y-91924D01*
X-197902Y-89591D02*
X-199735D01*
X-198735Y-90924D01*
X-199235D01*
X-199568Y-91090D01*
X-199735Y-91257D01*
X-199901Y-91757D01*
Y-92090D01*
X-199735Y-92590D01*
X-199402Y-92923D01*
X-198902Y-93090D01*
X-198402D01*
X-197902Y-92923D01*
X-197735Y-92757D01*
X-197569Y-92423D01*
X-201540Y-23201D02*
Y-26700D01*
Y-23201D02*
X-203040D01*
X-203540Y-23367D01*
X-203706Y-23534D01*
X-203873Y-23867D01*
Y-24201D01*
X-203706Y-24534D01*
X-203540Y-24700D01*
X-203040Y-24867D01*
X-201540D01*
X-202706D02*
X-203873Y-26700D01*
X-206656Y-23701D02*
X-206489Y-23367D01*
X-205989Y-23201D01*
X-205656D01*
X-205156Y-23367D01*
X-204823Y-23867D01*
X-204656Y-24700D01*
Y-25534D01*
X-204823Y-26200D01*
X-205156Y-26533D01*
X-205656Y-26700D01*
X-205822D01*
X-206322Y-26533D01*
X-206656Y-26200D01*
X-206822Y-25700D01*
Y-25534D01*
X-206656Y-25034D01*
X-206322Y-24700D01*
X-205822Y-24534D01*
X-205656D01*
X-205156Y-24700D01*
X-204823Y-25034D01*
X-204656Y-25534D01*
X-207755Y-24034D02*
Y-23867D01*
X-207922Y-23534D01*
X-208089Y-23367D01*
X-208422Y-23201D01*
X-209088D01*
X-209422Y-23367D01*
X-209588Y-23534D01*
X-209755Y-23867D01*
Y-24201D01*
X-209588Y-24534D01*
X-209255Y-25034D01*
X-207589Y-26700D01*
X-209922D01*
X-204680Y-39751D02*
Y-43250D01*
Y-39751D02*
X-206180D01*
X-206680Y-39917D01*
X-206846Y-40084D01*
X-207013Y-40417D01*
Y-40751D01*
X-206846Y-41084D01*
X-206680Y-41250D01*
X-206180Y-41417D01*
X-204680D01*
X-205846D02*
X-207013Y-43250D01*
X-209796Y-40251D02*
X-209629Y-39917D01*
X-209129Y-39751D01*
X-208796D01*
X-208296Y-39917D01*
X-207963Y-40417D01*
X-207796Y-41250D01*
Y-42084D01*
X-207963Y-42750D01*
X-208296Y-43083D01*
X-208796Y-43250D01*
X-208962D01*
X-209462Y-43083D01*
X-209796Y-42750D01*
X-209962Y-42250D01*
Y-42084D01*
X-209796Y-41584D01*
X-209462Y-41250D01*
X-208962Y-41084D01*
X-208796D01*
X-208296Y-41250D01*
X-207963Y-41584D01*
X-207796Y-42084D01*
X-210729Y-40417D02*
X-211062Y-40251D01*
X-211562Y-39751D01*
Y-43250D01*
X-190740Y-39921D02*
Y-43420D01*
Y-39921D02*
X-192240D01*
X-192740Y-40087D01*
X-192906Y-40254D01*
X-193073Y-40587D01*
Y-40920D01*
X-192906Y-41254D01*
X-192740Y-41420D01*
X-192240Y-41587D01*
X-190740D01*
X-191906D02*
X-193073Y-43420D01*
X-195856Y-40421D02*
X-195689Y-40087D01*
X-195189Y-39921D01*
X-194856D01*
X-194356Y-40087D01*
X-194023Y-40587D01*
X-193856Y-41420D01*
Y-42254D01*
X-194023Y-42920D01*
X-194356Y-43253D01*
X-194856Y-43420D01*
X-195022D01*
X-195522Y-43253D01*
X-195856Y-42920D01*
X-196022Y-42420D01*
Y-42254D01*
X-195856Y-41754D01*
X-195522Y-41420D01*
X-195022Y-41254D01*
X-194856D01*
X-194356Y-41420D01*
X-194023Y-41754D01*
X-193856Y-42254D01*
X-197789Y-39921D02*
X-197289Y-40087D01*
X-196955Y-40587D01*
X-196789Y-41420D01*
Y-41920D01*
X-196955Y-42753D01*
X-197289Y-43253D01*
X-197789Y-43420D01*
X-198122D01*
X-198622Y-43253D01*
X-198955Y-42753D01*
X-199121Y-41920D01*
Y-41420D01*
X-198955Y-40587D01*
X-198622Y-40087D01*
X-198122Y-39921D01*
X-197789D01*
X-190790Y-23671D02*
Y-27170D01*
Y-23671D02*
X-192290D01*
X-192790Y-23837D01*
X-192956Y-24004D01*
X-193123Y-24337D01*
Y-24670D01*
X-192956Y-25004D01*
X-192790Y-25170D01*
X-192290Y-25337D01*
X-190790D01*
X-191956D02*
X-193123Y-27170D01*
X-195906Y-23671D02*
X-194239D01*
X-194073Y-25170D01*
X-194239Y-25004D01*
X-194739Y-24837D01*
X-195239D01*
X-195739Y-25004D01*
X-196072Y-25337D01*
X-196239Y-25837D01*
Y-26170D01*
X-196072Y-26670D01*
X-195739Y-27003D01*
X-195239Y-27170D01*
X-194739D01*
X-194239Y-27003D01*
X-194073Y-26837D01*
X-193906Y-26504D01*
X-199188Y-24837D02*
X-199022Y-25337D01*
X-198688Y-25670D01*
X-198188Y-25837D01*
X-198022D01*
X-197522Y-25670D01*
X-197189Y-25337D01*
X-197022Y-24837D01*
Y-24670D01*
X-197189Y-24171D01*
X-197522Y-23837D01*
X-198022Y-23671D01*
X-198188D01*
X-198688Y-23837D01*
X-199022Y-24171D01*
X-199188Y-24837D01*
Y-25670D01*
X-199022Y-26504D01*
X-198688Y-27003D01*
X-198188Y-27170D01*
X-197855D01*
X-197355Y-27003D01*
X-197189Y-26670D01*
X-42600Y133399D02*
Y129900D01*
Y133399D02*
X-44100D01*
X-44600Y133233D01*
X-44766Y133066D01*
X-44933Y132733D01*
Y132399D01*
X-44766Y132066D01*
X-44600Y131900D01*
X-44100Y131733D01*
X-42600D01*
X-43766D02*
X-44933Y129900D01*
X-47716Y133399D02*
X-46049D01*
X-45883Y131900D01*
X-46049Y132066D01*
X-46549Y132233D01*
X-47049D01*
X-47549Y132066D01*
X-47882Y131733D01*
X-48049Y131233D01*
Y130900D01*
X-47882Y130400D01*
X-47549Y130067D01*
X-47049Y129900D01*
X-46549D01*
X-46049Y130067D01*
X-45883Y130233D01*
X-45716Y130567D01*
X-49665Y133399D02*
X-49165Y133233D01*
X-48999Y132899D01*
Y132566D01*
X-49165Y132233D01*
X-49499Y132066D01*
X-50165Y131900D01*
X-50665Y131733D01*
X-50998Y131400D01*
X-51165Y131066D01*
Y130567D01*
X-50998Y130233D01*
X-50832Y130067D01*
X-50332Y129900D01*
X-49665D01*
X-49165Y130067D01*
X-48999Y130233D01*
X-48832Y130567D01*
Y131066D01*
X-48999Y131400D01*
X-49332Y131733D01*
X-49832Y131900D01*
X-50498Y132066D01*
X-50832Y132233D01*
X-50998Y132566D01*
Y132899D01*
X-50832Y133233D01*
X-50332Y133399D01*
X-49665D01*
X-54614Y129900D02*
X-53281Y133399D01*
X-51948Y129900D01*
X-52448Y131066D02*
X-54114D01*
X-145309Y18746D02*
X-145143Y19079D01*
X-144810Y19413D01*
X-144476Y19579D01*
X-143810D01*
X-143476Y19413D01*
X-143143Y19079D01*
X-142977Y18746D01*
X-142810Y18246D01*
Y17413D01*
X-142977Y16913D01*
X-143143Y16580D01*
X-143476Y16247D01*
X-143810Y16080D01*
X-144476D01*
X-144810Y16247D01*
X-145143Y16580D01*
X-145309Y16913D01*
X-146626Y19579D02*
X-148459D01*
X-147459Y18246D01*
X-147959D01*
X-148292Y18080D01*
X-148459Y17913D01*
X-148625Y17413D01*
Y17080D01*
X-148459Y16580D01*
X-148126Y16247D01*
X-147626Y16080D01*
X-147126D01*
X-146626Y16247D01*
X-146459Y16413D01*
X-146293Y16747D01*
X-151575Y18413D02*
X-151408Y17913D01*
X-151075Y17580D01*
X-150575Y17413D01*
X-150408D01*
X-149908Y17580D01*
X-149575Y17913D01*
X-149409Y18413D01*
Y18579D01*
X-149575Y19079D01*
X-149908Y19413D01*
X-150408Y19579D01*
X-150575D01*
X-151075Y19413D01*
X-151408Y19079D01*
X-151575Y18413D01*
Y17580D01*
X-151408Y16747D01*
X-151075Y16247D01*
X-150575Y16080D01*
X-150242D01*
X-149742Y16247D01*
X-149575Y16580D01*
X2001Y135366D02*
X2167Y135699D01*
X2500Y136033D01*
X2834Y136199D01*
X3500D01*
X3833Y136033D01*
X4167Y135699D01*
X4333Y135366D01*
X4500Y134866D01*
Y134033D01*
X4333Y133533D01*
X4167Y133200D01*
X3833Y132867D01*
X3500Y132700D01*
X2834D01*
X2500Y132867D01*
X2167Y133200D01*
X2001Y133533D01*
X-1149Y135033D02*
X-982Y134533D01*
X-649Y134200D01*
X-149Y134033D01*
X18D01*
X518Y134200D01*
X851Y134533D01*
X1017Y135033D01*
Y135199D01*
X851Y135699D01*
X518Y136033D01*
X18Y136199D01*
X-149D01*
X-649Y136033D01*
X-982Y135699D01*
X-1149Y135033D01*
Y134200D01*
X-982Y133367D01*
X-649Y132867D01*
X-149Y132700D01*
X184D01*
X684Y132867D01*
X851Y133200D01*
X13210Y-91311D02*
Y-94810D01*
Y-91311D02*
X11710D01*
X11210Y-91477D01*
X11044Y-91644D01*
X10877Y-91977D01*
Y-92311D01*
X11044Y-92644D01*
X11210Y-92810D01*
X11710Y-92977D01*
X13210D01*
X12044D02*
X10877Y-94810D01*
X8428Y-91311D02*
X10094Y-93644D01*
X7594D01*
X8428Y-91311D02*
Y-94810D01*
X5312Y-91311D02*
X6978Y-93644D01*
X4479D01*
X5312Y-91311D02*
Y-94810D01*
X-262470Y70499D02*
Y67000D01*
Y70499D02*
X-263636D01*
X-264136Y70333D01*
X-264470Y69999D01*
X-264636Y69666D01*
X-264803Y69166D01*
Y68333D01*
X-264636Y67833D01*
X-264470Y67500D01*
X-264136Y67167D01*
X-263636Y67000D01*
X-262470D01*
X-267919Y70499D02*
X-266252Y67000D01*
X-265586Y70499D02*
X-267919D01*
X-194340Y-14914D02*
X-194173Y-14581D01*
X-193840Y-14247D01*
X-193506Y-14081D01*
X-192840D01*
X-192507Y-14247D01*
X-192173Y-14581D01*
X-192007Y-14914D01*
X-191840Y-15414D01*
Y-16247D01*
X-192007Y-16747D01*
X-192173Y-17080D01*
X-192507Y-17413D01*
X-192840Y-17580D01*
X-193506D01*
X-193840Y-17413D01*
X-194173Y-17080D01*
X-194340Y-16747D01*
X-197322Y-14581D02*
X-197155Y-14247D01*
X-196656Y-14081D01*
X-196322D01*
X-195823Y-14247D01*
X-195489Y-14747D01*
X-195323Y-15580D01*
Y-16414D01*
X-195489Y-17080D01*
X-195823Y-17413D01*
X-196322Y-17580D01*
X-196489D01*
X-196989Y-17413D01*
X-197322Y-17080D01*
X-197489Y-16580D01*
Y-16414D01*
X-197322Y-15914D01*
X-196989Y-15580D01*
X-196489Y-15414D01*
X-196322D01*
X-195823Y-15580D01*
X-195489Y-15914D01*
X-195323Y-16414D01*
X-199922Y-14081D02*
X-198255Y-16414D01*
X-200755D01*
X-199922Y-14081D02*
Y-17580D01*
X-144154Y-17640D02*
X-143821Y-17807D01*
X-143487Y-18140D01*
X-143321Y-18474D01*
Y-19140D01*
X-143487Y-19474D01*
X-143821Y-19807D01*
X-144154Y-19973D01*
X-144654Y-20140D01*
X-145487D01*
X-145987Y-19973D01*
X-146320Y-19807D01*
X-146653Y-19474D01*
X-146820Y-19140D01*
Y-18474D01*
X-146653Y-18140D01*
X-146320Y-17807D01*
X-145987Y-17640D01*
X-143821Y-14658D02*
X-143487Y-14825D01*
X-143321Y-15324D01*
Y-15658D01*
X-143487Y-16158D01*
X-143987Y-16491D01*
X-144820Y-16657D01*
X-145654D01*
X-146320Y-16491D01*
X-146653Y-16158D01*
X-146820Y-15658D01*
Y-15491D01*
X-146653Y-14991D01*
X-146320Y-14658D01*
X-145820Y-14491D01*
X-145654D01*
X-145154Y-14658D01*
X-144820Y-14991D01*
X-144654Y-15491D01*
Y-15658D01*
X-144820Y-16158D01*
X-145154Y-16491D01*
X-145654Y-16657D01*
X-143321Y-13392D02*
Y-11558D01*
X-144654Y-12558D01*
Y-12058D01*
X-144820Y-11725D01*
X-144987Y-11558D01*
X-145487Y-11392D01*
X-145820D01*
X-146320Y-11558D01*
X-146653Y-11892D01*
X-146820Y-12392D01*
Y-12892D01*
X-146653Y-13392D01*
X-146487Y-13558D01*
X-146153Y-13725D01*
X-204330Y-93771D02*
Y-97270D01*
Y-93771D02*
X-205830D01*
X-206330Y-93937D01*
X-206496Y-94104D01*
X-206663Y-94437D01*
Y-94770D01*
X-206496Y-95104D01*
X-206330Y-95270D01*
X-205830Y-95437D01*
X-204330D01*
X-205496D02*
X-206663Y-97270D01*
X-209112Y-93771D02*
X-207446Y-96104D01*
X-209946D01*
X-209112Y-93771D02*
Y-97270D01*
X-212728Y-94937D02*
X-212562Y-95437D01*
X-212228Y-95770D01*
X-211728Y-95937D01*
X-211562D01*
X-211062Y-95770D01*
X-210729Y-95437D01*
X-210562Y-94937D01*
Y-94770D01*
X-210729Y-94271D01*
X-211062Y-93937D01*
X-211562Y-93771D01*
X-211728D01*
X-212228Y-93937D01*
X-212562Y-94271D01*
X-212728Y-94937D01*
Y-95770D01*
X-212562Y-96604D01*
X-212228Y-97103D01*
X-211728Y-97270D01*
X-211395D01*
X-210895Y-97103D01*
X-210729Y-96770D01*
X-204510Y-99001D02*
Y-102500D01*
Y-99001D02*
X-206010D01*
X-206510Y-99167D01*
X-206676Y-99334D01*
X-206843Y-99667D01*
Y-100001D01*
X-206676Y-100334D01*
X-206510Y-100500D01*
X-206010Y-100667D01*
X-204510D01*
X-205676D02*
X-206843Y-102500D01*
X-209292Y-99001D02*
X-207626Y-101334D01*
X-210125D01*
X-209292Y-99001D02*
Y-102500D01*
X-211575Y-99001D02*
X-211075Y-99167D01*
X-210909Y-99501D01*
Y-99834D01*
X-211075Y-100167D01*
X-211408Y-100334D01*
X-212075Y-100500D01*
X-212575Y-100667D01*
X-212908Y-101000D01*
X-213075Y-101334D01*
Y-101833D01*
X-212908Y-102167D01*
X-212742Y-102333D01*
X-212242Y-102500D01*
X-211575D01*
X-211075Y-102333D01*
X-210909Y-102167D01*
X-210742Y-101833D01*
Y-101334D01*
X-210909Y-101000D01*
X-211242Y-100667D01*
X-211742Y-100500D01*
X-212408Y-100334D01*
X-212742Y-100167D01*
X-212908Y-99834D01*
Y-99501D01*
X-212742Y-99167D01*
X-212242Y-99001D01*
X-211575D01*
X-190910Y-99351D02*
Y-102850D01*
Y-99351D02*
X-192410D01*
X-192910Y-99517D01*
X-193076Y-99684D01*
X-193243Y-100017D01*
Y-100350D01*
X-193076Y-100684D01*
X-192910Y-100850D01*
X-192410Y-101017D01*
X-190910D01*
X-192076D02*
X-193243Y-102850D01*
X-195692Y-99351D02*
X-194026Y-101684D01*
X-196526D01*
X-195692Y-99351D02*
Y-102850D01*
X-199475Y-99351D02*
X-197809Y-102850D01*
X-197142Y-99351D02*
X-199475D01*
X-163289Y-35044D02*
X-163123Y-34711D01*
X-162790Y-34377D01*
X-162456Y-34211D01*
X-161790D01*
X-161457Y-34377D01*
X-161123Y-34711D01*
X-160957Y-35044D01*
X-160790Y-35544D01*
Y-36377D01*
X-160957Y-36877D01*
X-161123Y-37210D01*
X-161457Y-37543D01*
X-161790Y-37710D01*
X-162456D01*
X-162790Y-37543D01*
X-163123Y-37210D01*
X-163289Y-36877D01*
X-166272Y-34711D02*
X-166105Y-34377D01*
X-165606Y-34211D01*
X-165272D01*
X-164772Y-34377D01*
X-164439Y-34877D01*
X-164273Y-35710D01*
Y-36544D01*
X-164439Y-37210D01*
X-164772Y-37543D01*
X-165272Y-37710D01*
X-165439D01*
X-165939Y-37543D01*
X-166272Y-37210D01*
X-166439Y-36710D01*
Y-36544D01*
X-166272Y-36044D01*
X-165939Y-35710D01*
X-165439Y-35544D01*
X-165272D01*
X-164772Y-35710D01*
X-164439Y-36044D01*
X-164273Y-36544D01*
X-167372Y-35044D02*
Y-34877D01*
X-167539Y-34544D01*
X-167705Y-34377D01*
X-168038Y-34211D01*
X-168705D01*
X-169038Y-34377D01*
X-169205Y-34544D01*
X-169371Y-34877D01*
Y-35210D01*
X-169205Y-35544D01*
X-168872Y-36044D01*
X-167205Y-37710D01*
X-169538D01*
X-146614Y-63780D02*
X-146281Y-63947D01*
X-145947Y-64280D01*
X-145781Y-64614D01*
Y-65280D01*
X-145947Y-65614D01*
X-146281Y-65947D01*
X-146614Y-66113D01*
X-147114Y-66280D01*
X-147947D01*
X-148447Y-66113D01*
X-148780Y-65947D01*
X-149113Y-65614D01*
X-149280Y-65280D01*
Y-64614D01*
X-149113Y-64280D01*
X-148780Y-63947D01*
X-148447Y-63780D01*
X-146281Y-60798D02*
X-145947Y-60965D01*
X-145781Y-61464D01*
Y-61798D01*
X-145947Y-62297D01*
X-146447Y-62631D01*
X-147280Y-62797D01*
X-148114D01*
X-148780Y-62631D01*
X-149113Y-62297D01*
X-149280Y-61798D01*
Y-61631D01*
X-149113Y-61131D01*
X-148780Y-60798D01*
X-148280Y-60631D01*
X-148114D01*
X-147614Y-60798D01*
X-147280Y-61131D01*
X-147114Y-61631D01*
Y-61798D01*
X-147280Y-62297D01*
X-147614Y-62631D01*
X-148114Y-62797D01*
X-146447Y-59865D02*
X-146281Y-59531D01*
X-145781Y-59032D01*
X-149280D01*
X-106000Y9666D02*
X-105833Y9999D01*
X-105500Y10333D01*
X-105166Y10499D01*
X-104500D01*
X-104166Y10333D01*
X-103833Y9999D01*
X-103667Y9666D01*
X-103500Y9166D01*
Y8333D01*
X-103667Y7833D01*
X-103833Y7500D01*
X-104166Y7167D01*
X-104500Y7000D01*
X-105166D01*
X-105500Y7167D01*
X-105833Y7500D01*
X-106000Y7833D01*
X-108982Y10499D02*
X-107316D01*
X-107149Y9000D01*
X-107316Y9166D01*
X-107816Y9333D01*
X-108316D01*
X-108816Y9166D01*
X-109149Y8833D01*
X-109315Y8333D01*
Y8000D01*
X-109149Y7500D01*
X-108816Y7167D01*
X-108316Y7000D01*
X-107816D01*
X-107316Y7167D01*
X-107149Y7333D01*
X-106983Y7666D01*
X-112098Y9999D02*
X-111932Y10333D01*
X-111432Y10499D01*
X-111098D01*
X-110599Y10333D01*
X-110265Y9833D01*
X-110099Y9000D01*
Y8166D01*
X-110265Y7500D01*
X-110599Y7167D01*
X-111098Y7000D01*
X-111265D01*
X-111765Y7167D01*
X-112098Y7500D01*
X-112265Y8000D01*
Y8166D01*
X-112098Y8666D01*
X-111765Y9000D01*
X-111265Y9166D01*
X-111098D01*
X-110599Y9000D01*
X-110265Y8666D01*
X-110099Y8166D01*
X-132480Y31186D02*
X-132313Y31519D01*
X-131980Y31853D01*
X-131646Y32019D01*
X-130980D01*
X-130647Y31853D01*
X-130313Y31519D01*
X-130147Y31186D01*
X-129980Y30686D01*
Y29853D01*
X-130147Y29353D01*
X-130313Y29020D01*
X-130647Y28687D01*
X-130980Y28520D01*
X-131646D01*
X-131980Y28687D01*
X-132313Y29020D01*
X-132480Y29353D01*
X-135462Y32019D02*
X-133796D01*
X-133629Y30520D01*
X-133796Y30686D01*
X-134296Y30853D01*
X-134796D01*
X-135295Y30686D01*
X-135629Y30353D01*
X-135795Y29853D01*
Y29520D01*
X-135629Y29020D01*
X-135295Y28687D01*
X-134796Y28520D01*
X-134296D01*
X-133796Y28687D01*
X-133629Y28853D01*
X-133463Y29186D01*
X-136745Y31186D02*
Y31353D01*
X-136912Y31686D01*
X-137078Y31853D01*
X-137412Y32019D01*
X-138078D01*
X-138411Y31853D01*
X-138578Y31686D01*
X-138745Y31353D01*
Y31019D01*
X-138578Y30686D01*
X-138245Y30186D01*
X-136579Y28520D01*
X-138911D01*
X-110810Y30986D02*
X-110643Y31319D01*
X-110310Y31653D01*
X-109976Y31819D01*
X-109310D01*
X-108976Y31653D01*
X-108643Y31319D01*
X-108477Y30986D01*
X-108310Y30486D01*
Y29653D01*
X-108477Y29153D01*
X-108643Y28820D01*
X-108976Y28487D01*
X-109310Y28320D01*
X-109976D01*
X-110310Y28487D01*
X-110643Y28820D01*
X-110810Y29153D01*
X-113792Y31819D02*
X-112126D01*
X-111959Y30320D01*
X-112126Y30486D01*
X-112626Y30653D01*
X-113126D01*
X-113626Y30486D01*
X-113959Y30153D01*
X-114125Y29653D01*
Y29320D01*
X-113959Y28820D01*
X-113626Y28487D01*
X-113126Y28320D01*
X-112626D01*
X-112126Y28487D01*
X-111959Y28653D01*
X-111793Y28986D01*
X-115908Y31819D02*
X-115409Y31653D01*
X-115075Y31153D01*
X-114909Y30320D01*
Y29820D01*
X-115075Y28986D01*
X-115409Y28487D01*
X-115908Y28320D01*
X-116242D01*
X-116742Y28487D01*
X-117075Y28986D01*
X-117241Y29820D01*
Y30320D01*
X-117075Y31153D01*
X-116742Y31653D01*
X-116242Y31819D01*
X-115908D01*
X-211721Y230D02*
X-215220D01*
X-211721D02*
Y1730D01*
X-211887Y2230D01*
X-212054Y2396D01*
X-212387Y2563D01*
X-212720D01*
X-213054Y2396D01*
X-213220Y2230D01*
X-213387Y1730D01*
Y230D01*
Y1396D02*
X-215220Y2563D01*
X-211721Y5012D02*
X-214054Y3346D01*
Y5846D01*
X-211721Y5012D02*
X-215220D01*
X-211721Y7462D02*
X-211887Y6962D01*
X-212387Y6629D01*
X-213220Y6462D01*
X-213720D01*
X-214553Y6629D01*
X-215053Y6962D01*
X-215220Y7462D01*
Y7795D01*
X-215053Y8295D01*
X-214553Y8628D01*
X-213720Y8795D01*
X-213220D01*
X-212387Y8628D01*
X-211887Y8295D01*
X-211721Y7795D01*
Y7462D01*
X-211901Y13920D02*
X-215400D01*
X-211901D02*
Y15420D01*
X-212067Y15920D01*
X-212234Y16086D01*
X-212567Y16253D01*
X-212900D01*
X-213234Y16086D01*
X-213400Y15920D01*
X-213567Y15420D01*
Y13920D01*
Y15086D02*
X-215400Y16253D01*
X-211901Y17369D02*
Y19202D01*
X-213234Y18202D01*
Y18702D01*
X-213400Y19036D01*
X-213567Y19202D01*
X-214067Y19369D01*
X-214400D01*
X-214900Y19202D01*
X-215233Y18869D01*
X-215400Y18369D01*
Y17869D01*
X-215233Y17369D01*
X-215067Y17203D01*
X-214734Y17036D01*
X-213067Y22318D02*
X-213567Y22152D01*
X-213900Y21818D01*
X-214067Y21318D01*
Y21152D01*
X-213900Y20652D01*
X-213567Y20319D01*
X-213067Y20152D01*
X-212900D01*
X-212401Y20319D01*
X-212067Y20652D01*
X-211901Y21152D01*
Y21318D01*
X-212067Y21818D01*
X-212401Y22152D01*
X-213067Y22318D01*
X-213900D01*
X-214734Y22152D01*
X-215233Y21818D01*
X-215400Y21318D01*
Y20985D01*
X-215233Y20485D01*
X-214900Y20319D01*
X-218471Y29810D02*
X-221970D01*
X-218471D02*
Y31310D01*
X-218637Y31810D01*
X-218804Y31976D01*
X-219137Y32143D01*
X-219471D01*
X-219804Y31976D01*
X-219970Y31810D01*
X-220137Y31310D01*
Y29810D01*
Y30976D02*
X-221970Y32143D01*
X-218471Y33259D02*
Y35092D01*
X-219804Y34092D01*
Y34592D01*
X-219970Y34926D01*
X-220137Y35092D01*
X-220637Y35259D01*
X-220970D01*
X-221470Y35092D01*
X-221803Y34759D01*
X-221970Y34259D01*
Y33759D01*
X-221803Y33259D01*
X-221637Y33093D01*
X-221304Y32926D01*
X-218471Y36875D02*
X-218637Y36375D01*
X-218971Y36209D01*
X-219304D01*
X-219637Y36375D01*
X-219804Y36709D01*
X-219970Y37375D01*
X-220137Y37875D01*
X-220470Y38208D01*
X-220804Y38375D01*
X-221304D01*
X-221637Y38208D01*
X-221803Y38042D01*
X-221970Y37542D01*
Y36875D01*
X-221803Y36375D01*
X-221637Y36209D01*
X-221304Y36042D01*
X-220804D01*
X-220470Y36209D01*
X-220137Y36542D01*
X-219970Y37042D01*
X-219804Y37708D01*
X-219637Y38042D01*
X-219304Y38208D01*
X-218971D01*
X-218637Y38042D01*
X-218471Y37542D01*
Y36875D01*
X-214791Y61890D02*
X-218290D01*
X-214791D02*
Y63390D01*
X-214957Y63890D01*
X-215124Y64056D01*
X-215457Y64223D01*
X-215791D01*
X-216124Y64056D01*
X-216290Y63890D01*
X-216457Y63390D01*
Y61890D01*
Y63056D02*
X-218290Y64223D01*
X-214791Y65339D02*
Y67172D01*
X-216124Y66172D01*
Y66672D01*
X-216290Y67006D01*
X-216457Y67172D01*
X-216957Y67339D01*
X-217290D01*
X-217790Y67172D01*
X-218123Y66839D01*
X-218290Y66339D01*
Y65839D01*
X-218123Y65339D01*
X-217957Y65173D01*
X-217623Y65006D01*
X-214791Y70455D02*
X-218290Y68788D01*
X-214791Y68122D02*
Y70455D01*
X-162780Y74959D02*
Y71460D01*
Y74959D02*
X-164280D01*
X-164780Y74793D01*
X-164946Y74626D01*
X-165113Y74293D01*
Y73959D01*
X-164946Y73626D01*
X-164780Y73460D01*
X-164280Y73293D01*
X-162780D01*
X-163946D02*
X-165113Y71460D01*
X-165896Y74293D02*
X-166229Y74459D01*
X-166729Y74959D01*
Y71460D01*
X-170128Y74959D02*
X-168462Y72626D01*
X-170962D01*
X-170128Y74959D02*
Y71460D01*
X-171578Y74959D02*
Y71460D01*
Y74959D02*
X-173078D01*
X-173578Y74793D01*
X-173744Y74626D01*
X-173911Y74293D01*
Y73959D01*
X-173744Y73626D01*
X-173578Y73460D01*
X-173078Y73293D01*
X-171578D02*
X-173078D01*
X-173578Y73126D01*
X-173744Y72960D01*
X-173911Y72626D01*
Y72127D01*
X-173744Y71793D01*
X-173578Y71627D01*
X-173078Y71460D01*
X-171578D01*
X-162590Y123559D02*
Y120060D01*
Y123559D02*
X-164090D01*
X-164590Y123393D01*
X-164756Y123226D01*
X-164923Y122893D01*
Y122559D01*
X-164756Y122226D01*
X-164590Y122060D01*
X-164090Y121893D01*
X-162590D01*
X-163756D02*
X-164923Y120060D01*
X-165706Y122893D02*
X-166039Y123059D01*
X-166539Y123559D01*
Y120060D01*
X-169938Y123559D02*
X-168272Y121226D01*
X-170772D01*
X-169938Y123559D02*
Y120060D01*
X-174054D02*
X-172721Y123559D01*
X-171388Y120060D01*
X-171888Y121226D02*
X-173554D01*
X-162580Y64289D02*
Y60790D01*
Y64289D02*
X-164080D01*
X-164580Y64123D01*
X-164746Y63956D01*
X-164913Y63623D01*
Y63289D01*
X-164746Y62956D01*
X-164580Y62790D01*
X-164080Y62623D01*
X-162580D01*
X-163746D02*
X-164913Y60790D01*
X-165696Y63623D02*
X-166029Y63789D01*
X-166529Y64289D01*
Y60790D01*
X-168595Y64289D02*
X-170428D01*
X-169429Y62956D01*
X-169928D01*
X-170262Y62790D01*
X-170428Y62623D01*
X-170595Y62123D01*
Y61790D01*
X-170428Y61290D01*
X-170095Y60957D01*
X-169595Y60790D01*
X-169095D01*
X-168595Y60957D01*
X-168429Y61123D01*
X-168262Y61457D01*
X-171378Y64289D02*
Y60790D01*
Y64289D02*
X-172878D01*
X-173378Y64123D01*
X-173544Y63956D01*
X-173711Y63623D01*
Y63289D01*
X-173544Y62956D01*
X-173378Y62790D01*
X-172878Y62623D01*
X-171378D02*
X-172878D01*
X-173378Y62456D01*
X-173544Y62290D01*
X-173711Y61956D01*
Y61457D01*
X-173544Y61123D01*
X-173378Y60957D01*
X-172878Y60790D01*
X-171378D01*
X-162670Y112579D02*
Y109080D01*
Y112579D02*
X-164170D01*
X-164670Y112413D01*
X-164836Y112246D01*
X-165003Y111913D01*
Y111580D01*
X-164836Y111246D01*
X-164670Y111080D01*
X-164170Y110913D01*
X-162670D01*
X-163836D02*
X-165003Y109080D01*
X-165786Y111913D02*
X-166119Y112079D01*
X-166619Y112579D01*
Y109080D01*
X-168685Y112579D02*
X-170518D01*
X-169518Y111246D01*
X-170018D01*
X-170352Y111080D01*
X-170518Y110913D01*
X-170685Y110413D01*
Y110080D01*
X-170518Y109580D01*
X-170185Y109247D01*
X-169685Y109080D01*
X-169185D01*
X-168685Y109247D01*
X-168519Y109413D01*
X-168352Y109747D01*
X-174134Y109080D02*
X-172801Y112579D01*
X-171468Y109080D01*
X-171968Y110246D02*
X-173634D01*
X-162500Y69489D02*
Y65990D01*
Y69489D02*
X-164000D01*
X-164500Y69323D01*
X-164666Y69156D01*
X-164833Y68823D01*
Y68489D01*
X-164666Y68156D01*
X-164500Y67990D01*
X-164000Y67823D01*
X-162500D01*
X-163666D02*
X-164833Y65990D01*
X-165616Y68823D02*
X-165949Y68989D01*
X-166449Y69489D01*
Y65990D01*
X-168182Y68823D02*
X-168515Y68989D01*
X-169015Y69489D01*
Y65990D01*
X-170748Y69489D02*
Y65990D01*
Y69489D02*
X-172248D01*
X-172748Y69323D01*
X-172914Y69156D01*
X-173081Y68823D01*
Y68489D01*
X-172914Y68156D01*
X-172748Y67990D01*
X-172248Y67823D01*
X-170748D02*
X-172248D01*
X-172748Y67656D01*
X-172914Y67490D01*
X-173081Y67156D01*
Y66657D01*
X-172914Y66323D01*
X-172748Y66157D01*
X-172248Y65990D01*
X-170748D01*
X-162500Y128609D02*
Y125110D01*
Y128609D02*
X-164000D01*
X-164500Y128443D01*
X-164666Y128276D01*
X-164833Y127943D01*
Y127610D01*
X-164666Y127276D01*
X-164500Y127110D01*
X-164000Y126943D01*
X-162500D01*
X-163666D02*
X-164833Y125110D01*
X-165616Y127943D02*
X-165949Y128109D01*
X-166449Y128609D01*
Y125110D01*
X-168182Y127943D02*
X-168515Y128109D01*
X-169015Y128609D01*
Y125110D01*
X-173414D02*
X-172081Y128609D01*
X-170748Y125110D01*
X-171248Y126276D02*
X-172914D01*
X-162650Y58989D02*
Y55490D01*
Y58989D02*
X-164150D01*
X-164650Y58823D01*
X-164816Y58656D01*
X-164983Y58323D01*
Y57990D01*
X-164816Y57656D01*
X-164650Y57490D01*
X-164150Y57323D01*
X-162650D01*
X-163816D02*
X-164983Y55490D01*
X-165766Y58323D02*
X-166099Y58489D01*
X-166599Y58989D01*
Y55490D01*
X-169332Y58989D02*
X-168832Y58823D01*
X-168499Y58323D01*
X-168332Y57490D01*
Y56990D01*
X-168499Y56156D01*
X-168832Y55657D01*
X-169332Y55490D01*
X-169665D01*
X-170165Y55657D01*
X-170498Y56156D01*
X-170665Y56990D01*
Y57490D01*
X-170498Y58323D01*
X-170165Y58823D01*
X-169665Y58989D01*
X-169332D01*
X-171448D02*
Y55490D01*
Y58989D02*
X-172948D01*
X-173448Y58823D01*
X-173614Y58656D01*
X-173781Y58323D01*
Y57990D01*
X-173614Y57656D01*
X-173448Y57490D01*
X-172948Y57323D01*
X-171448D02*
X-172948D01*
X-173448Y57156D01*
X-173614Y56990D01*
X-173781Y56656D01*
Y56156D01*
X-173614Y55823D01*
X-173448Y55657D01*
X-172948Y55490D01*
X-171448D01*
X-162330Y117979D02*
Y114480D01*
Y117979D02*
X-163830D01*
X-164330Y117813D01*
X-164496Y117646D01*
X-164663Y117313D01*
Y116980D01*
X-164496Y116646D01*
X-164330Y116480D01*
X-163830Y116313D01*
X-162330D01*
X-163496D02*
X-164663Y114480D01*
X-165446Y117313D02*
X-165779Y117479D01*
X-166279Y117979D01*
Y114480D01*
X-169012Y117979D02*
X-168512Y117813D01*
X-168179Y117313D01*
X-168012Y116480D01*
Y115980D01*
X-168179Y115147D01*
X-168512Y114647D01*
X-169012Y114480D01*
X-169345D01*
X-169845Y114647D01*
X-170178Y115147D01*
X-170345Y115980D01*
Y116480D01*
X-170178Y117313D01*
X-169845Y117813D01*
X-169345Y117979D01*
X-169012D01*
X-173794Y114480D02*
X-172461Y117979D01*
X-171128Y114480D01*
X-171628Y115646D02*
X-173294D01*
X-149430Y51229D02*
Y47730D01*
X-151430D01*
X-152146Y51229D02*
X-153979D01*
X-152979Y49896D01*
X-153479D01*
X-153812Y49730D01*
X-153979Y49563D01*
X-154146Y49063D01*
Y48730D01*
X-153979Y48230D01*
X-153646Y47897D01*
X-153146Y47730D01*
X-152646D01*
X-152146Y47897D01*
X-151979Y48063D01*
X-151813Y48397D01*
X-239920Y-4601D02*
Y-8100D01*
Y-4601D02*
X-242086D01*
X-239920Y-6267D02*
X-241253D01*
X-244152Y-4601D02*
X-242486Y-6934D01*
X-244986D01*
X-244152Y-4601D02*
Y-8100D01*
X-216650Y27539D02*
Y24040D01*
Y27539D02*
X-218816D01*
X-216650Y25873D02*
X-217983D01*
X-219549Y27539D02*
X-221382D01*
X-220382Y26206D01*
X-220882D01*
X-221216Y26040D01*
X-221382Y25873D01*
X-221549Y25373D01*
Y25040D01*
X-221382Y24540D01*
X-221049Y24207D01*
X-220549Y24040D01*
X-220049D01*
X-219549Y24207D01*
X-219383Y24373D01*
X-219216Y24706D01*
X-218360Y54539D02*
Y51040D01*
Y54539D02*
X-220526D01*
X-218360Y52873D02*
X-219693D01*
X-221093Y53706D02*
Y53873D01*
X-221259Y54206D01*
X-221426Y54373D01*
X-221759Y54539D01*
X-222426D01*
X-222759Y54373D01*
X-222926Y54206D01*
X-223092Y53873D01*
Y53540D01*
X-222926Y53206D01*
X-222592Y52706D01*
X-220926Y51040D01*
X-223259D01*
X-238280Y107439D02*
Y103940D01*
Y107439D02*
X-240446D01*
X-238280Y105773D02*
X-239613D01*
X-240846Y106773D02*
X-241179Y106939D01*
X-241679Y107439D01*
Y103940D01*
X-263190Y-42131D02*
Y-45630D01*
Y-42131D02*
X-264356D01*
X-264856Y-42297D01*
X-265190Y-42631D01*
X-265356Y-42964D01*
X-265523Y-43464D01*
Y-44297D01*
X-265356Y-44797D01*
X-265190Y-45130D01*
X-264856Y-45463D01*
X-264356Y-45630D01*
X-263190D01*
X-268306Y-42131D02*
X-266639D01*
X-266473Y-43630D01*
X-266639Y-43464D01*
X-267139Y-43297D01*
X-267639D01*
X-268139Y-43464D01*
X-268472Y-43797D01*
X-268639Y-44297D01*
Y-44630D01*
X-268472Y-45130D01*
X-268139Y-45463D01*
X-267639Y-45630D01*
X-267139D01*
X-266639Y-45463D01*
X-266473Y-45297D01*
X-266306Y-44963D01*
X-263190Y33119D02*
Y29620D01*
Y33119D02*
X-264356D01*
X-264856Y32953D01*
X-265190Y32619D01*
X-265356Y32286D01*
X-265523Y31786D01*
Y30953D01*
X-265356Y30453D01*
X-265190Y30120D01*
X-264856Y29787D01*
X-264356Y29620D01*
X-263190D01*
X-267972Y33119D02*
X-266306Y30786D01*
X-268806D01*
X-267972Y33119D02*
Y29620D01*
X-201650Y4919D02*
Y1420D01*
Y4919D02*
X-202816D01*
X-203316Y4753D01*
X-203650Y4419D01*
X-203816Y4086D01*
X-203983Y3586D01*
Y2753D01*
X-203816Y2253D01*
X-203650Y1920D01*
X-203316Y1587D01*
X-202816Y1420D01*
X-201650D01*
X-205099Y4919D02*
X-206932D01*
X-205932Y3586D01*
X-206432D01*
X-206766Y3420D01*
X-206932Y3253D01*
X-207099Y2753D01*
Y2420D01*
X-206932Y1920D01*
X-206599Y1587D01*
X-206099Y1420D01*
X-205599D01*
X-205099Y1587D01*
X-204933Y1753D01*
X-204766Y2087D01*
X-262260Y-4541D02*
Y-8040D01*
Y-4541D02*
X-263426D01*
X-263926Y-4707D01*
X-264260Y-5041D01*
X-264426Y-5374D01*
X-264593Y-5874D01*
Y-6707D01*
X-264426Y-7207D01*
X-264260Y-7540D01*
X-263926Y-7873D01*
X-263426Y-8040D01*
X-262260D01*
X-265543Y-5374D02*
Y-5207D01*
X-265709Y-4874D01*
X-265876Y-4707D01*
X-266209Y-4541D01*
X-266876D01*
X-267209Y-4707D01*
X-267376Y-4874D01*
X-267542Y-5207D01*
Y-5540D01*
X-267376Y-5874D01*
X-267042Y-6374D01*
X-265376Y-8040D01*
X-267709D01*
X-183084Y53780D02*
X-182751Y53613D01*
X-182417Y53280D01*
X-182251Y52946D01*
Y52280D01*
X-182417Y51947D01*
X-182751Y51613D01*
X-183084Y51447D01*
X-183584Y51280D01*
X-184417D01*
X-184917Y51447D01*
X-185250Y51613D01*
X-185583Y51947D01*
X-185750Y52280D01*
Y52946D01*
X-185583Y53280D01*
X-185250Y53613D01*
X-184917Y53780D01*
X-182251Y56429D02*
X-184584Y54763D01*
Y57262D01*
X-182251Y56429D02*
X-185750D01*
X-182251Y58712D02*
X-182417Y58212D01*
X-182751Y58045D01*
X-183084D01*
X-183417Y58212D01*
X-183584Y58545D01*
X-183750Y59212D01*
X-183917Y59711D01*
X-184250Y60045D01*
X-184584Y60211D01*
X-185083D01*
X-185417Y60045D01*
X-185583Y59878D01*
X-185750Y59378D01*
Y58712D01*
X-185583Y58212D01*
X-185417Y58045D01*
X-185083Y57879D01*
X-184584D01*
X-184250Y58045D01*
X-183917Y58378D01*
X-183750Y58878D01*
X-183584Y59545D01*
X-183417Y59878D01*
X-183084Y60045D01*
X-182751D01*
X-182417Y59878D01*
X-182251Y59378D01*
Y58712D01*
Y60995D02*
X-185750D01*
X-182251D02*
Y62494D01*
X-182417Y62994D01*
X-182584Y63161D01*
X-182917Y63327D01*
X-183250D01*
X-183584Y63161D01*
X-183750Y62994D01*
X-183917Y62494D01*
Y60995D02*
Y62494D01*
X-184084Y62994D01*
X-184250Y63161D01*
X-184584Y63327D01*
X-185083D01*
X-185417Y63161D01*
X-185583Y62994D01*
X-185750Y62494D01*
Y60995D01*
X-197239Y58416D02*
X-197073Y58749D01*
X-196740Y59083D01*
X-196406Y59249D01*
X-195740D01*
X-195406Y59083D01*
X-195073Y58749D01*
X-194907Y58416D01*
X-194740Y57916D01*
Y57083D01*
X-194907Y56583D01*
X-195073Y56250D01*
X-195406Y55917D01*
X-195740Y55750D01*
X-196406D01*
X-196740Y55917D01*
X-197073Y56250D01*
X-197239Y56583D01*
X-199889Y59249D02*
X-198223Y56916D01*
X-200722D01*
X-199889Y59249D02*
Y55750D01*
X-202172Y59249D02*
X-201672Y59083D01*
X-201505Y58749D01*
Y58416D01*
X-201672Y58083D01*
X-202005Y57916D01*
X-202672Y57750D01*
X-203171Y57583D01*
X-203505Y57250D01*
X-203671Y56916D01*
Y56416D01*
X-203505Y56083D01*
X-203338Y55917D01*
X-202838Y55750D01*
X-202172D01*
X-201672Y55917D01*
X-201505Y56083D01*
X-201339Y56416D01*
Y56916D01*
X-201505Y57250D01*
X-201838Y57583D01*
X-202338Y57750D01*
X-203005Y57916D01*
X-203338Y58083D01*
X-203505Y58416D01*
Y58749D01*
X-203338Y59083D01*
X-202838Y59249D01*
X-202172D01*
X-207121Y55750D02*
X-205788Y59249D01*
X-204455Y55750D01*
X-204955Y56916D02*
X-206621D01*
X-210814Y44219D02*
X-210481Y44053D01*
X-210147Y43720D01*
X-209981Y43386D01*
Y42720D01*
X-210147Y42386D01*
X-210481Y42053D01*
X-210814Y41887D01*
X-211314Y41720D01*
X-212147D01*
X-212647Y41887D01*
X-212980Y42053D01*
X-213313Y42386D01*
X-213480Y42720D01*
Y43386D01*
X-213313Y43720D01*
X-212980Y44053D01*
X-212647Y44219D01*
X-209981Y46869D02*
X-212314Y45203D01*
Y47702D01*
X-209981Y46869D02*
X-213480D01*
X-210481Y50318D02*
X-210147Y50151D01*
X-209981Y49652D01*
Y49318D01*
X-210147Y48818D01*
X-210647Y48485D01*
X-211480Y48319D01*
X-212314D01*
X-212980Y48485D01*
X-213313Y48818D01*
X-213480Y49318D01*
Y49485D01*
X-213313Y49985D01*
X-212980Y50318D01*
X-212480Y50485D01*
X-212314D01*
X-211814Y50318D01*
X-211480Y49985D01*
X-211314Y49485D01*
Y49318D01*
X-211480Y48818D01*
X-211814Y48485D01*
X-212314Y48319D01*
X-209981Y51251D02*
X-213480D01*
X-209981D02*
Y52751D01*
X-210147Y53251D01*
X-210314Y53417D01*
X-210647Y53584D01*
X-210981D01*
X-211314Y53417D01*
X-211480Y53251D01*
X-211647Y52751D01*
Y51251D02*
Y52751D01*
X-211814Y53251D01*
X-211980Y53417D01*
X-212314Y53584D01*
X-212813D01*
X-213147Y53417D01*
X-213313Y53251D01*
X-213480Y52751D01*
Y51251D01*
X-182314Y69310D02*
X-181981Y69143D01*
X-181647Y68810D01*
X-181481Y68476D01*
Y67810D01*
X-181647Y67476D01*
X-181981Y67143D01*
X-182314Y66977D01*
X-182814Y66810D01*
X-183647D01*
X-184147Y66977D01*
X-184480Y67143D01*
X-184813Y67476D01*
X-184980Y67810D01*
Y68476D01*
X-184813Y68810D01*
X-184480Y69143D01*
X-184147Y69310D01*
X-181481Y70626D02*
Y72459D01*
X-182814Y71459D01*
Y71959D01*
X-182980Y72292D01*
X-183147Y72459D01*
X-183647Y72625D01*
X-183980D01*
X-184480Y72459D01*
X-184813Y72126D01*
X-184980Y71626D01*
Y71126D01*
X-184813Y70626D01*
X-184647Y70459D01*
X-184313Y70293D01*
X-181981Y75408D02*
X-181647Y75242D01*
X-181481Y74742D01*
Y74408D01*
X-181647Y73909D01*
X-182147Y73575D01*
X-182980Y73409D01*
X-183814D01*
X-184480Y73575D01*
X-184813Y73909D01*
X-184980Y74408D01*
Y74575D01*
X-184813Y75075D01*
X-184480Y75408D01*
X-183980Y75575D01*
X-183814D01*
X-183314Y75408D01*
X-182980Y75075D01*
X-182814Y74575D01*
Y74408D01*
X-182980Y73909D01*
X-183314Y73575D01*
X-183814Y73409D01*
X-181481Y76341D02*
X-184980D01*
X-181481D02*
Y77841D01*
X-181647Y78341D01*
X-181814Y78508D01*
X-182147Y78674D01*
X-182481D01*
X-182814Y78508D01*
X-182980Y78341D01*
X-183147Y77841D01*
Y76341D02*
Y77841D01*
X-183314Y78341D01*
X-183480Y78508D01*
X-183814Y78674D01*
X-184313D01*
X-184647Y78508D01*
X-184813Y78341D01*
X-184980Y77841D01*
Y76341D01*
X-136419Y126206D02*
X-136253Y126539D01*
X-135920Y126873D01*
X-135586Y127039D01*
X-134920D01*
X-134587Y126873D01*
X-134253Y126539D01*
X-134087Y126206D01*
X-133920Y125706D01*
Y124873D01*
X-134087Y124373D01*
X-134253Y124040D01*
X-134587Y123707D01*
X-134920Y123540D01*
X-135586D01*
X-135920Y123707D01*
X-136253Y124040D01*
X-136419Y124373D01*
X-139735Y127039D02*
X-138069Y123540D01*
X-137403Y127039D02*
X-139735D01*
X-143185Y123540D02*
X-141852Y127039D01*
X-140519Y123540D01*
X-141018Y124706D02*
X-142685D01*
X-188421Y-79570D02*
X-191920D01*
Y-77570D01*
X-188421Y-75521D02*
X-190754Y-77187D01*
Y-74688D01*
X-188421Y-75521D02*
X-191920D01*
X2300Y108666D02*
X2467Y108999D01*
X2800Y109333D01*
X3134Y109499D01*
X3800D01*
X4134Y109333D01*
X4467Y108999D01*
X4633Y108666D01*
X4800Y108166D01*
Y107333D01*
X4633Y106833D01*
X4467Y106500D01*
X4134Y106167D01*
X3800Y106000D01*
X3134D01*
X2800Y106167D01*
X2467Y106500D01*
X2300Y106833D01*
X-682Y109499D02*
X984D01*
X1151Y108000D01*
X984Y108166D01*
X484Y108333D01*
X-16D01*
X-515Y108166D01*
X-849Y107833D01*
X-1015Y107333D01*
Y107000D01*
X-849Y106500D01*
X-515Y106167D01*
X-16Y106000D01*
X484D01*
X984Y106167D01*
X1151Y106333D01*
X1317Y106667D01*
X-3798Y109499D02*
X-2132D01*
X-1965Y108000D01*
X-2132Y108166D01*
X-2632Y108333D01*
X-3132D01*
X-3632Y108166D01*
X-3965Y107833D01*
X-4131Y107333D01*
Y107000D01*
X-3965Y106500D01*
X-3632Y106167D01*
X-3132Y106000D01*
X-2632D01*
X-2132Y106167D01*
X-1965Y106333D01*
X-1799Y106667D01*
X-162329Y-54214D02*
X-162163Y-53881D01*
X-161830Y-53547D01*
X-161496Y-53381D01*
X-160830D01*
X-160496Y-53547D01*
X-160163Y-53881D01*
X-159997Y-54214D01*
X-159830Y-54714D01*
Y-55547D01*
X-159997Y-56047D01*
X-160163Y-56380D01*
X-160496Y-56713D01*
X-160830Y-56880D01*
X-161496D01*
X-161830Y-56713D01*
X-162163Y-56380D01*
X-162329Y-56047D01*
X-163646Y-53381D02*
X-165479D01*
X-164479Y-54714D01*
X-164979D01*
X-165312Y-54880D01*
X-165479Y-55047D01*
X-165645Y-55547D01*
Y-55880D01*
X-165479Y-56380D01*
X-165146Y-56713D01*
X-164646Y-56880D01*
X-164146D01*
X-163646Y-56713D01*
X-163479Y-56547D01*
X-163313Y-56213D01*
X-168095Y-53381D02*
X-166429Y-55714D01*
X-168928D01*
X-168095Y-53381D02*
Y-56880D01*
X-162999Y-40094D02*
X-162833Y-39761D01*
X-162500Y-39427D01*
X-162166Y-39261D01*
X-161500D01*
X-161167Y-39427D01*
X-160833Y-39761D01*
X-160667Y-40094D01*
X-160500Y-40594D01*
Y-41427D01*
X-160667Y-41927D01*
X-160833Y-42260D01*
X-161167Y-42593D01*
X-161500Y-42760D01*
X-162166D01*
X-162500Y-42593D01*
X-162833Y-42260D01*
X-162999Y-41927D01*
X-164316Y-39261D02*
X-166149D01*
X-165149Y-40594D01*
X-165649D01*
X-165982Y-40760D01*
X-166149Y-40927D01*
X-166315Y-41427D01*
Y-41760D01*
X-166149Y-42260D01*
X-165815Y-42593D01*
X-165316Y-42760D01*
X-164816D01*
X-164316Y-42593D01*
X-164149Y-42427D01*
X-163983Y-42094D01*
X-167265Y-40094D02*
Y-39927D01*
X-167432Y-39594D01*
X-167598Y-39427D01*
X-167932Y-39261D01*
X-168598D01*
X-168931Y-39427D01*
X-169098Y-39594D01*
X-169265Y-39927D01*
Y-40260D01*
X-169098Y-40594D01*
X-168765Y-41094D01*
X-167099Y-42760D01*
X-169431D01*
X-131480Y-36474D02*
X-131313Y-36141D01*
X-130980Y-35807D01*
X-130646Y-35641D01*
X-129980D01*
X-129647Y-35807D01*
X-129313Y-36141D01*
X-129147Y-36474D01*
X-128980Y-36974D01*
Y-37807D01*
X-129147Y-38307D01*
X-129313Y-38640D01*
X-129647Y-38973D01*
X-129980Y-39140D01*
X-130646D01*
X-130980Y-38973D01*
X-131313Y-38640D01*
X-131480Y-38307D01*
X-132796Y-35641D02*
X-134629D01*
X-133629Y-36974D01*
X-134129D01*
X-134462Y-37140D01*
X-134629Y-37307D01*
X-134795Y-37807D01*
Y-38140D01*
X-134629Y-38640D01*
X-134295Y-38973D01*
X-133796Y-39140D01*
X-133296D01*
X-132796Y-38973D01*
X-132629Y-38807D01*
X-132463Y-38473D01*
X-135579Y-36307D02*
X-135912Y-36141D01*
X-136412Y-35641D01*
Y-39140D01*
X-177830Y43516D02*
X-177663Y43849D01*
X-177330Y44183D01*
X-176996Y44349D01*
X-176330D01*
X-175996Y44183D01*
X-175663Y43849D01*
X-175497Y43516D01*
X-175330Y43016D01*
Y42183D01*
X-175497Y41683D01*
X-175663Y41350D01*
X-175996Y41017D01*
X-176330Y40850D01*
X-176996D01*
X-177330Y41017D01*
X-177663Y41350D01*
X-177830Y41683D01*
X-179146Y44349D02*
X-180979D01*
X-179979Y43016D01*
X-180479D01*
X-180812Y42850D01*
X-180979Y42683D01*
X-181145Y42183D01*
Y41850D01*
X-180979Y41350D01*
X-180646Y41017D01*
X-180146Y40850D01*
X-179646D01*
X-179146Y41017D01*
X-178979Y41183D01*
X-178813Y41517D01*
X-182928Y44349D02*
X-182429Y44183D01*
X-182095Y43683D01*
X-181929Y42850D01*
Y42350D01*
X-182095Y41517D01*
X-182429Y41017D01*
X-182928Y40850D01*
X-183262D01*
X-183762Y41017D01*
X-184095Y41517D01*
X-184261Y42350D01*
Y42850D01*
X-184095Y43683D01*
X-183762Y44183D01*
X-183262Y44349D01*
X-182928D01*
X-93620Y-104344D02*
X-93453Y-104011D01*
X-93120Y-103677D01*
X-92786Y-103511D01*
X-92120D01*
X-91786Y-103677D01*
X-91453Y-104011D01*
X-91287Y-104344D01*
X-91120Y-104844D01*
Y-105677D01*
X-91287Y-106177D01*
X-91453Y-106510D01*
X-91786Y-106843D01*
X-92120Y-107010D01*
X-92786D01*
X-93120Y-106843D01*
X-93453Y-106510D01*
X-93620Y-106177D01*
X-94769Y-104344D02*
Y-104177D01*
X-94936Y-103844D01*
X-95103Y-103677D01*
X-95436Y-103511D01*
X-96102D01*
X-96435Y-103677D01*
X-96602Y-103844D01*
X-96769Y-104177D01*
Y-104510D01*
X-96602Y-104844D01*
X-96269Y-105344D01*
X-94603Y-107010D01*
X-96935D01*
X-99885Y-104677D02*
X-99718Y-105177D01*
X-99385Y-105510D01*
X-98885Y-105677D01*
X-98718D01*
X-98219Y-105510D01*
X-97885Y-105177D01*
X-97719Y-104677D01*
Y-104510D01*
X-97885Y-104011D01*
X-98219Y-103677D01*
X-98718Y-103511D01*
X-98885D01*
X-99385Y-103677D01*
X-99718Y-104011D01*
X-99885Y-104677D01*
Y-105510D01*
X-99718Y-106343D01*
X-99385Y-106843D01*
X-98885Y-107010D01*
X-98552D01*
X-98052Y-106843D01*
X-97885Y-106510D01*
X-177929Y36746D02*
X-177763Y37079D01*
X-177430Y37413D01*
X-177096Y37579D01*
X-176430D01*
X-176096Y37413D01*
X-175763Y37079D01*
X-175597Y36746D01*
X-175430Y36246D01*
Y35413D01*
X-175597Y34913D01*
X-175763Y34580D01*
X-176096Y34247D01*
X-176430Y34080D01*
X-177096D01*
X-177430Y34247D01*
X-177763Y34580D01*
X-177929Y34913D01*
X-178913Y36913D02*
X-179246Y37079D01*
X-179746Y37579D01*
Y34080D01*
X-183478Y37079D02*
X-183312Y37413D01*
X-182812Y37579D01*
X-182478D01*
X-181979Y37413D01*
X-181645Y36913D01*
X-181479Y36080D01*
Y35246D01*
X-181645Y34580D01*
X-181979Y34247D01*
X-182478Y34080D01*
X-182645D01*
X-183145Y34247D01*
X-183478Y34580D01*
X-183645Y35080D01*
Y35246D01*
X-183478Y35746D01*
X-183145Y36080D01*
X-182645Y36246D01*
X-182478D01*
X-181979Y36080D01*
X-181645Y35746D01*
X-181479Y35246D01*
X-239650Y-97661D02*
Y-101160D01*
Y-97661D02*
X-241150D01*
X-241650Y-97827D01*
X-241816Y-97994D01*
X-241983Y-98327D01*
Y-98660D01*
X-241816Y-98994D01*
X-241650Y-99160D01*
X-241150Y-99327D01*
X-239650D01*
X-240816D02*
X-241983Y-101160D01*
X-242766Y-98327D02*
X-243099Y-98161D01*
X-243599Y-97661D01*
Y-101160D01*
X-245665Y-97661D02*
X-247498D01*
X-246498Y-98994D01*
X-246998D01*
X-247332Y-99160D01*
X-247498Y-99327D01*
X-247665Y-99827D01*
Y-100160D01*
X-247498Y-100660D01*
X-247165Y-100993D01*
X-246665Y-101160D01*
X-246165D01*
X-245665Y-100993D01*
X-245499Y-100827D01*
X-245332Y-100494D01*
X-249448Y-97661D02*
X-248948Y-97827D01*
X-248615Y-98327D01*
X-248448Y-99160D01*
Y-99660D01*
X-248615Y-100494D01*
X-248948Y-100993D01*
X-249448Y-101160D01*
X-249781D01*
X-250281Y-100993D01*
X-250614Y-100494D01*
X-250781Y-99660D01*
Y-99160D01*
X-250614Y-98327D01*
X-250281Y-97827D01*
X-249781Y-97661D01*
X-249448D01*
X-215606Y-34001D02*
Y-37500D01*
X-214440Y-34001D02*
X-216773D01*
X-217356Y-34834D02*
Y-34667D01*
X-217523Y-34334D01*
X-217689Y-34167D01*
X-218023Y-34001D01*
X-218689D01*
X-219022Y-34167D01*
X-219189Y-34334D01*
X-219356Y-34667D01*
Y-35001D01*
X-219189Y-35334D01*
X-218856Y-35834D01*
X-217189Y-37500D01*
X-219522D01*
X-248000Y108089D02*
Y104590D01*
Y108089D02*
X-250166D01*
X-248000Y106423D02*
X-249333D01*
X-251732Y108089D02*
Y104590D01*
X-250566Y108089D02*
X-252899D01*
X-255815Y107256D02*
X-255648Y107589D01*
X-255315Y107923D01*
X-254982Y108089D01*
X-254315D01*
X-253982Y107923D01*
X-253649Y107589D01*
X-253482Y107256D01*
X-253315Y106756D01*
Y105923D01*
X-253482Y105423D01*
X-253649Y105090D01*
X-253982Y104757D01*
X-254315Y104590D01*
X-254982D01*
X-255315Y104757D01*
X-255648Y105090D01*
X-255815Y105423D01*
Y105923D01*
X-254982D02*
X-255815D01*
X-258281Y108089D02*
X-256615Y105756D01*
X-259114D01*
X-258281Y108089D02*
Y104590D01*
X-259380Y-98811D02*
Y-102310D01*
Y-98811D02*
X-261546D01*
X-259380Y-100477D02*
X-260713D01*
X-263112Y-98811D02*
Y-102310D01*
X-261946Y-98811D02*
X-264279D01*
X-267195Y-99644D02*
X-267028Y-99311D01*
X-266695Y-98977D01*
X-266362Y-98811D01*
X-265695D01*
X-265362Y-98977D01*
X-265029Y-99311D01*
X-264862Y-99644D01*
X-264696Y-100144D01*
Y-100977D01*
X-264862Y-101477D01*
X-265029Y-101810D01*
X-265362Y-102143D01*
X-265695Y-102310D01*
X-266362D01*
X-266695Y-102143D01*
X-267028Y-101810D01*
X-267195Y-101477D01*
Y-100977D01*
X-266362D02*
X-267195D01*
X-269994Y-98811D02*
X-268328D01*
X-268162Y-100310D01*
X-268328Y-100144D01*
X-268828Y-99977D01*
X-269328D01*
X-269828Y-100144D01*
X-270161Y-100477D01*
X-270328Y-100977D01*
Y-101310D01*
X-270161Y-101810D01*
X-269828Y-102143D01*
X-269328Y-102310D01*
X-268828D01*
X-268328Y-102143D01*
X-268162Y-101977D01*
X-267995Y-101644D01*
X16570Y-101961D02*
Y-105460D01*
Y-101961D02*
X14404D01*
X16570Y-103627D02*
X15237D01*
X12837Y-101961D02*
Y-105460D01*
X14004Y-101961D02*
X11671D01*
X8755Y-102794D02*
X8922Y-102461D01*
X9255Y-102127D01*
X9588Y-101961D01*
X10255D01*
X10588Y-102127D01*
X10921Y-102461D01*
X11088Y-102794D01*
X11254Y-103294D01*
Y-104127D01*
X11088Y-104627D01*
X10921Y-104960D01*
X10588Y-105293D01*
X10255Y-105460D01*
X9588D01*
X9255Y-105293D01*
X8922Y-104960D01*
X8755Y-104627D01*
Y-104127D01*
X9588D02*
X8755D01*
X5956Y-102461D02*
X6122Y-102127D01*
X6622Y-101961D01*
X6955D01*
X7455Y-102127D01*
X7789Y-102627D01*
X7955Y-103460D01*
Y-104294D01*
X7789Y-104960D01*
X7455Y-105293D01*
X6955Y-105460D01*
X6789D01*
X6289Y-105293D01*
X5956Y-104960D01*
X5789Y-104460D01*
Y-104294D01*
X5956Y-103794D01*
X6289Y-103460D01*
X6789Y-103294D01*
X6955D01*
X7455Y-103460D01*
X7789Y-103794D01*
X7955Y-104294D01*
X-33020Y-97774D02*
X-32853Y-97441D01*
X-32520Y-97107D01*
X-32186Y-96941D01*
X-31520D01*
X-31187Y-97107D01*
X-30853Y-97441D01*
X-30687Y-97774D01*
X-30520Y-98274D01*
Y-99107D01*
X-30687Y-99607D01*
X-30853Y-99940D01*
X-31187Y-100273D01*
X-31520Y-100440D01*
X-32186D01*
X-32520Y-100273D01*
X-32853Y-99940D01*
X-33020Y-99607D01*
X-35669Y-96941D02*
X-34003Y-99274D01*
X-36502D01*
X-35669Y-96941D02*
Y-100440D01*
X-38785Y-96941D02*
X-37119Y-99274D01*
X-39618D01*
X-38785Y-96941D02*
Y-100440D01*
X-164421Y-20210D02*
X-167920D01*
X-164421D02*
Y-18710D01*
X-164587Y-18210D01*
X-164754Y-18044D01*
X-165087Y-17877D01*
X-165420D01*
X-165754Y-18044D01*
X-165920Y-18210D01*
X-166087Y-18710D01*
Y-20210D01*
Y-19044D02*
X-167920Y-17877D01*
X-165587Y-14928D02*
X-166087Y-15094D01*
X-166420Y-15428D01*
X-166587Y-15928D01*
Y-16094D01*
X-166420Y-16594D01*
X-166087Y-16927D01*
X-165587Y-17094D01*
X-165420D01*
X-164921Y-16927D01*
X-164587Y-16594D01*
X-164421Y-16094D01*
Y-15928D01*
X-164587Y-15428D01*
X-164921Y-15094D01*
X-165587Y-14928D01*
X-166420D01*
X-167253Y-15094D01*
X-167753Y-15428D01*
X-167920Y-15928D01*
Y-16261D01*
X-167753Y-16761D01*
X-167420Y-16927D01*
X-164421Y-13145D02*
X-164587Y-13645D01*
X-164921Y-13811D01*
X-165254D01*
X-165587Y-13645D01*
X-165754Y-13311D01*
X-165920Y-12645D01*
X-166087Y-12145D01*
X-166420Y-11812D01*
X-166754Y-11645D01*
X-167253D01*
X-167587Y-11812D01*
X-167753Y-11978D01*
X-167920Y-12478D01*
Y-13145D01*
X-167753Y-13645D01*
X-167587Y-13811D01*
X-167253Y-13978D01*
X-166754D01*
X-166420Y-13811D01*
X-166087Y-13478D01*
X-165920Y-12978D01*
X-165754Y-12312D01*
X-165587Y-11978D01*
X-165254Y-11812D01*
X-164921D01*
X-164587Y-11978D01*
X-164421Y-12478D01*
Y-13145D01*
X-175490Y30749D02*
Y27250D01*
X-177490D01*
X-177873Y30083D02*
X-178206Y30249D01*
X-178706Y30749D01*
Y27250D01*
X-182772Y30749D02*
X-181105Y27250D01*
X-180439Y30749D02*
X-182772D01*
X-155711Y-20070D02*
X-159210D01*
X-155711D02*
Y-18570D01*
X-155877Y-18070D01*
X-156044Y-17904D01*
X-156377Y-17737D01*
X-156711D01*
X-157044Y-17904D01*
X-157210Y-18070D01*
X-157377Y-18570D01*
Y-20070D01*
Y-18904D02*
X-159210Y-17737D01*
X-156877Y-14788D02*
X-157377Y-14954D01*
X-157710Y-15288D01*
X-157877Y-15788D01*
Y-15954D01*
X-157710Y-16454D01*
X-157377Y-16787D01*
X-156877Y-16954D01*
X-156711D01*
X-156211Y-16787D01*
X-155877Y-16454D01*
X-155711Y-15954D01*
Y-15788D01*
X-155877Y-15288D01*
X-156211Y-14954D01*
X-156877Y-14788D01*
X-157710D01*
X-158544Y-14954D01*
X-159043Y-15288D01*
X-159210Y-15788D01*
Y-16121D01*
X-159043Y-16621D01*
X-158710Y-16787D01*
X-156877Y-11672D02*
X-157377Y-11838D01*
X-157710Y-12172D01*
X-157877Y-12672D01*
Y-12838D01*
X-157710Y-13338D01*
X-157377Y-13671D01*
X-156877Y-13838D01*
X-156711D01*
X-156211Y-13671D01*
X-155877Y-13338D01*
X-155711Y-12838D01*
Y-12672D01*
X-155877Y-12172D01*
X-156211Y-11838D01*
X-156877Y-11672D01*
X-157710D01*
X-158544Y-11838D01*
X-159043Y-12172D01*
X-159210Y-12672D01*
Y-13005D01*
X-159043Y-13505D01*
X-158710Y-13671D01*
X-238130Y-78461D02*
Y-81960D01*
Y-78461D02*
X-240296D01*
X-238130Y-80127D02*
X-239463D01*
X-242696Y-78461D02*
X-241029D01*
X-240863Y-79960D01*
X-241029Y-79794D01*
X-241529Y-79627D01*
X-242029D01*
X-242529Y-79794D01*
X-242862Y-80127D01*
X-243029Y-80627D01*
Y-80960D01*
X-242862Y-81460D01*
X-242529Y-81793D01*
X-242029Y-81960D01*
X-241529D01*
X-241029Y-81793D01*
X-240863Y-81627D01*
X-240696Y-81293D01*
X-261540Y-91831D02*
Y-95330D01*
Y-91831D02*
X-263040D01*
X-263540Y-91997D01*
X-263706Y-92164D01*
X-263873Y-92497D01*
Y-92830D01*
X-263706Y-93164D01*
X-263540Y-93330D01*
X-263040Y-93497D01*
X-261540D01*
X-262706D02*
X-263873Y-95330D01*
X-264656Y-92497D02*
X-264989Y-92331D01*
X-265489Y-91831D01*
Y-95330D01*
X-267389Y-92664D02*
Y-92497D01*
X-267555Y-92164D01*
X-267722Y-91997D01*
X-268055Y-91831D01*
X-268722D01*
X-269055Y-91997D01*
X-269222Y-92164D01*
X-269388Y-92497D01*
Y-92830D01*
X-269222Y-93164D01*
X-268888Y-93664D01*
X-267222Y-95330D01*
X-269555D01*
X-262790Y-60574D02*
X-262623Y-60241D01*
X-262290Y-59907D01*
X-261956Y-59741D01*
X-261290D01*
X-260957Y-59907D01*
X-260623Y-60241D01*
X-260457Y-60574D01*
X-260290Y-61074D01*
Y-61907D01*
X-260457Y-62407D01*
X-260623Y-62740D01*
X-260957Y-63073D01*
X-261290Y-63240D01*
X-261956D01*
X-262290Y-63073D01*
X-262623Y-62740D01*
X-262790Y-62407D01*
X-266105Y-59741D02*
X-264439Y-63240D01*
X-263773Y-59741D02*
X-266105D01*
X-268888D02*
X-267222D01*
X-267055Y-61240D01*
X-267222Y-61074D01*
X-267722Y-60907D01*
X-268222D01*
X-268722Y-61074D01*
X-269055Y-61407D01*
X-269221Y-61907D01*
Y-62240D01*
X-269055Y-62740D01*
X-268722Y-63073D01*
X-268222Y-63240D01*
X-267722D01*
X-267222Y-63073D01*
X-267055Y-62907D01*
X-266889Y-62573D01*
X-75850Y24184D02*
X-76017Y23851D01*
X-76350Y23517D01*
X-76684Y23351D01*
X-77350D01*
X-77684Y23517D01*
X-78017Y23851D01*
X-78183Y24184D01*
X-78350Y24684D01*
Y25517D01*
X-78183Y26017D01*
X-78017Y26350D01*
X-77684Y26683D01*
X-77350Y26850D01*
X-76684D01*
X-76350Y26683D01*
X-76017Y26350D01*
X-75850Y26017D01*
X-72868Y23351D02*
X-74534D01*
X-74701Y24850D01*
X-74534Y24684D01*
X-74034Y24517D01*
X-73534D01*
X-73035Y24684D01*
X-72701Y25017D01*
X-72535Y25517D01*
Y25850D01*
X-72701Y26350D01*
X-73035Y26683D01*
X-73534Y26850D01*
X-74034D01*
X-74534Y26683D01*
X-74701Y26517D01*
X-74867Y26184D01*
X-70918Y23351D02*
X-71418Y23517D01*
X-71585Y23851D01*
Y24184D01*
X-71418Y24517D01*
X-71085Y24684D01*
X-70418Y24850D01*
X-69919Y25017D01*
X-69585Y25350D01*
X-69419Y25684D01*
Y26184D01*
X-69585Y26517D01*
X-69752Y26683D01*
X-70252Y26850D01*
X-70918D01*
X-71418Y26683D01*
X-71585Y26517D01*
X-71751Y26184D01*
Y25684D01*
X-71585Y25350D01*
X-71251Y25017D01*
X-70752Y24850D01*
X-70085Y24684D01*
X-69752Y24517D01*
X-69585Y24184D01*
Y23851D01*
X-69752Y23517D01*
X-70252Y23351D01*
X-70918D01*
X-109340Y111619D02*
Y108120D01*
Y111619D02*
X-110840D01*
X-111340Y111453D01*
X-111506Y111286D01*
X-111673Y110953D01*
Y110619D01*
X-111506Y110286D01*
X-111340Y110120D01*
X-110840Y109953D01*
X-109340D01*
X-110506D02*
X-111673Y108120D01*
X-112789Y111619D02*
X-114622D01*
X-113622Y110286D01*
X-114122D01*
X-114456Y110120D01*
X-114622Y109953D01*
X-114789Y109453D01*
Y109120D01*
X-114622Y108620D01*
X-114289Y108287D01*
X-113789Y108120D01*
X-113289D01*
X-112789Y108287D01*
X-112623Y108453D01*
X-112456Y108786D01*
X-117572Y111619D02*
X-115905D01*
X-115739Y110120D01*
X-115905Y110286D01*
X-116405Y110453D01*
X-116905D01*
X-117405Y110286D01*
X-117738Y109953D01*
X-117905Y109453D01*
Y109120D01*
X-117738Y108620D01*
X-117405Y108287D01*
X-116905Y108120D01*
X-116405D01*
X-115905Y108287D01*
X-115739Y108453D01*
X-115572Y108786D01*
X-121354Y108120D02*
X-120021Y111619D01*
X-118688Y108120D01*
X-119188Y109286D02*
X-120854D01*
X-110040Y106129D02*
Y102630D01*
Y106129D02*
X-111540D01*
X-112040Y105963D01*
X-112206Y105796D01*
X-112373Y105463D01*
Y105130D01*
X-112206Y104796D01*
X-112040Y104630D01*
X-111540Y104463D01*
X-110040D01*
X-111206D02*
X-112373Y102630D01*
X-113323Y105296D02*
Y105463D01*
X-113489Y105796D01*
X-113656Y105963D01*
X-113989Y106129D01*
X-114656D01*
X-114989Y105963D01*
X-115156Y105796D01*
X-115322Y105463D01*
Y105130D01*
X-115156Y104796D01*
X-114822Y104296D01*
X-113156Y102630D01*
X-115489D01*
X-116605Y106129D02*
X-118438D01*
X-117438Y104796D01*
X-117938D01*
X-118272Y104630D01*
X-118438Y104463D01*
X-118605Y103963D01*
Y103630D01*
X-118438Y103130D01*
X-118105Y102797D01*
X-117605Y102630D01*
X-117105D01*
X-116605Y102797D01*
X-116439Y102963D01*
X-116272Y103296D01*
X-122054Y102630D02*
X-120721Y106129D01*
X-119388Y102630D01*
X-119888Y103796D02*
X-121554D01*
X-109170Y118939D02*
Y115440D01*
Y118939D02*
X-110670D01*
X-111170Y118773D01*
X-111336Y118606D01*
X-111503Y118273D01*
Y117939D01*
X-111336Y117606D01*
X-111170Y117440D01*
X-110670Y117273D01*
X-109170D01*
X-110336D02*
X-111503Y115440D01*
X-114286Y118939D02*
X-112619D01*
X-112453Y117440D01*
X-112619Y117606D01*
X-113119Y117773D01*
X-113619D01*
X-114119Y117606D01*
X-114452Y117273D01*
X-114619Y116773D01*
Y116440D01*
X-114452Y115940D01*
X-114119Y115607D01*
X-113619Y115440D01*
X-113119D01*
X-112619Y115607D01*
X-112453Y115773D01*
X-112286Y116106D01*
X-118068Y115440D02*
X-116735Y118939D01*
X-115402Y115440D01*
X-115902Y116606D02*
X-117568D01*
X-109430Y124259D02*
Y120760D01*
Y124259D02*
X-110930D01*
X-111430Y124093D01*
X-111596Y123926D01*
X-111763Y123593D01*
Y123259D01*
X-111596Y122926D01*
X-111430Y122760D01*
X-110930Y122593D01*
X-109430D01*
X-110596D02*
X-111763Y120760D01*
X-114212Y124259D02*
X-112546Y121926D01*
X-115045D01*
X-114212Y124259D02*
Y120760D01*
X-118328D02*
X-116995Y124259D01*
X-115662Y120760D01*
X-116162Y121926D02*
X-117828D01*
X-106560Y53929D02*
Y50430D01*
Y53929D02*
X-108060D01*
X-108560Y53763D01*
X-108726Y53596D01*
X-108893Y53263D01*
Y52930D01*
X-108726Y52596D01*
X-108560Y52430D01*
X-108060Y52263D01*
X-106560D01*
X-107726D02*
X-108893Y50430D01*
X-109676Y53263D02*
X-110009Y53429D01*
X-110509Y53929D01*
Y50430D01*
X-114408Y52763D02*
X-114242Y52263D01*
X-113908Y51930D01*
X-113409Y51763D01*
X-113242D01*
X-112742Y51930D01*
X-112409Y52263D01*
X-112242Y52763D01*
Y52930D01*
X-112409Y53429D01*
X-112742Y53763D01*
X-113242Y53929D01*
X-113409D01*
X-113908Y53763D01*
X-114242Y53429D01*
X-114408Y52763D01*
Y51930D01*
X-114242Y51096D01*
X-113908Y50597D01*
X-113409Y50430D01*
X-113075D01*
X-112575Y50597D01*
X-112409Y50930D01*
X-93310Y46679D02*
Y43180D01*
Y46679D02*
X-94810D01*
X-95310Y46513D01*
X-95476Y46346D01*
X-95643Y46013D01*
Y45680D01*
X-95476Y45346D01*
X-95310Y45180D01*
X-94810Y45013D01*
X-93310D01*
X-94476D02*
X-95643Y43180D01*
X-98592Y45513D02*
X-98426Y45013D01*
X-98092Y44680D01*
X-97592Y44513D01*
X-97426D01*
X-96926Y44680D01*
X-96593Y45013D01*
X-96426Y45513D01*
Y45680D01*
X-96593Y46179D01*
X-96926Y46513D01*
X-97426Y46679D01*
X-97592D01*
X-98092Y46513D01*
X-98426Y46179D01*
X-98592Y45513D01*
Y44680D01*
X-98426Y43846D01*
X-98092Y43347D01*
X-97592Y43180D01*
X-97259D01*
X-96759Y43347D01*
X-96593Y43680D01*
X1970Y87209D02*
Y83710D01*
Y87209D02*
X470D01*
X-30Y87043D01*
X-196Y86876D01*
X-363Y86543D01*
Y86209D01*
X-196Y85876D01*
X-30Y85710D01*
X470Y85543D01*
X1970D01*
X804D02*
X-363Y83710D01*
X-3146Y87209D02*
X-1479D01*
X-1313Y85710D01*
X-1479Y85876D01*
X-1979Y86043D01*
X-2479D01*
X-2979Y85876D01*
X-3312Y85543D01*
X-3479Y85043D01*
Y84710D01*
X-3312Y84210D01*
X-2979Y83877D01*
X-2479Y83710D01*
X-1979D01*
X-1479Y83877D01*
X-1313Y84043D01*
X-1146Y84377D01*
X-5095Y87209D02*
X-4595Y87043D01*
X-4429Y86709D01*
Y86376D01*
X-4595Y86043D01*
X-4928Y85876D01*
X-5595Y85710D01*
X-6095Y85543D01*
X-6428Y85210D01*
X-6595Y84876D01*
Y84377D01*
X-6428Y84043D01*
X-6262Y83877D01*
X-5762Y83710D01*
X-5095D01*
X-4595Y83877D01*
X-4429Y84043D01*
X-4262Y84377D01*
Y84876D01*
X-4429Y85210D01*
X-4762Y85543D01*
X-5262Y85710D01*
X-5928Y85876D01*
X-6262Y86043D01*
X-6428Y86376D01*
Y86709D01*
X-6262Y87043D01*
X-5762Y87209D01*
X-5095D01*
X-7378D02*
Y83710D01*
Y87209D02*
X-8878D01*
X-9378Y87043D01*
X-9544Y86876D01*
X-9711Y86543D01*
Y86209D01*
X-9544Y85876D01*
X-9378Y85710D01*
X-8878Y85543D01*
X-7378D02*
X-8878D01*
X-9378Y85376D01*
X-9544Y85210D01*
X-9711Y84876D01*
Y84377D01*
X-9544Y84043D01*
X-9378Y83877D01*
X-8878Y83710D01*
X-7378D01*
X-11980Y87359D02*
Y83860D01*
Y87359D02*
X-13480D01*
X-13980Y87193D01*
X-14146Y87026D01*
X-14313Y86693D01*
Y86360D01*
X-14146Y86026D01*
X-13980Y85860D01*
X-13480Y85693D01*
X-11980D01*
X-13146D02*
X-14313Y83860D01*
X-17096Y87359D02*
X-15429D01*
X-15263Y85860D01*
X-15429Y86026D01*
X-15929Y86193D01*
X-16429D01*
X-16929Y86026D01*
X-17262Y85693D01*
X-17429Y85193D01*
Y84860D01*
X-17262Y84360D01*
X-16929Y84027D01*
X-16429Y83860D01*
X-15929D01*
X-15429Y84027D01*
X-15263Y84193D01*
X-15096Y84526D01*
X-20212Y86859D02*
X-20045Y87193D01*
X-19545Y87359D01*
X-19212D01*
X-18712Y87193D01*
X-18379Y86693D01*
X-18212Y85860D01*
Y85026D01*
X-18379Y84360D01*
X-18712Y84027D01*
X-19212Y83860D01*
X-19378D01*
X-19878Y84027D01*
X-20212Y84360D01*
X-20378Y84860D01*
Y85026D01*
X-20212Y85526D01*
X-19878Y85860D01*
X-19378Y86026D01*
X-19212D01*
X-18712Y85860D01*
X-18379Y85526D01*
X-18212Y85026D01*
X-21145Y87359D02*
Y83860D01*
Y87359D02*
X-22644D01*
X-23144Y87193D01*
X-23311Y87026D01*
X-23478Y86693D01*
Y86360D01*
X-23311Y86026D01*
X-23144Y85860D01*
X-22644Y85693D01*
X-21145D02*
X-22644D01*
X-23144Y85526D01*
X-23311Y85360D01*
X-23478Y85026D01*
Y84526D01*
X-23311Y84193D01*
X-23144Y84027D01*
X-22644Y83860D01*
X-21145D01*
X-810Y62029D02*
Y58530D01*
Y62029D02*
X-2310D01*
X-2810Y61863D01*
X-2976Y61696D01*
X-3143Y61363D01*
Y61029D01*
X-2976Y60696D01*
X-2810Y60530D01*
X-2310Y60363D01*
X-810D01*
X-1976D02*
X-3143Y58530D01*
X-5926Y61529D02*
X-5759Y61863D01*
X-5259Y62029D01*
X-4926D01*
X-4426Y61863D01*
X-4093Y61363D01*
X-3926Y60530D01*
Y59696D01*
X-4093Y59030D01*
X-4426Y58697D01*
X-4926Y58530D01*
X-5092D01*
X-5592Y58697D01*
X-5926Y59030D01*
X-6092Y59530D01*
Y59696D01*
X-5926Y60196D01*
X-5592Y60530D01*
X-5092Y60696D01*
X-4926D01*
X-4426Y60530D01*
X-4093Y60196D01*
X-3926Y59696D01*
X-6859Y62029D02*
Y58530D01*
Y62029D02*
X-8358D01*
X-8858Y61863D01*
X-9025Y61696D01*
X-9191Y61363D01*
Y61029D01*
X-9025Y60696D01*
X-8858Y60530D01*
X-8358Y60363D01*
X-6859D02*
X-8358D01*
X-8858Y60196D01*
X-9025Y60030D01*
X-9191Y59696D01*
Y59197D01*
X-9025Y58863D01*
X-8858Y58697D01*
X-8358Y58530D01*
X-6859D01*
X-40850Y-75634D02*
X-40683Y-75301D01*
X-40350Y-74967D01*
X-40016Y-74801D01*
X-39350D01*
X-39017Y-74967D01*
X-38683Y-75301D01*
X-38517Y-75634D01*
X-38350Y-76134D01*
Y-76967D01*
X-38517Y-77467D01*
X-38683Y-77800D01*
X-39017Y-78133D01*
X-39350Y-78300D01*
X-40016D01*
X-40350Y-78133D01*
X-40683Y-77800D01*
X-40850Y-77467D01*
X-44165Y-74801D02*
X-42499Y-78300D01*
X-41833Y-74801D02*
X-44165D01*
X-45782D02*
X-45282Y-74967D01*
X-45115Y-75301D01*
Y-75634D01*
X-45282Y-75967D01*
X-45615Y-76134D01*
X-46282Y-76300D01*
X-46782Y-76467D01*
X-47115Y-76800D01*
X-47281Y-77134D01*
Y-77634D01*
X-47115Y-77967D01*
X-46948Y-78133D01*
X-46448Y-78300D01*
X-45782D01*
X-45282Y-78133D01*
X-45115Y-77967D01*
X-44949Y-77634D01*
Y-77134D01*
X-45115Y-76800D01*
X-45448Y-76467D01*
X-45948Y-76300D01*
X-46615Y-76134D01*
X-46948Y-75967D01*
X-47115Y-75634D01*
Y-75301D01*
X-46948Y-74967D01*
X-46448Y-74801D01*
X-45782D01*
X-40789Y-69964D02*
X-40623Y-69631D01*
X-40290Y-69297D01*
X-39956Y-69131D01*
X-39290D01*
X-38956Y-69297D01*
X-38623Y-69631D01*
X-38457Y-69964D01*
X-38290Y-70464D01*
Y-71297D01*
X-38457Y-71797D01*
X-38623Y-72130D01*
X-38956Y-72463D01*
X-39290Y-72630D01*
X-39956D01*
X-40290Y-72463D01*
X-40623Y-72130D01*
X-40789Y-71797D01*
X-44105Y-69131D02*
X-42439Y-72630D01*
X-41773Y-69131D02*
X-44105D01*
X-47055Y-70297D02*
X-46888Y-70797D01*
X-46555Y-71130D01*
X-46055Y-71297D01*
X-45888D01*
X-45388Y-71130D01*
X-45055Y-70797D01*
X-44889Y-70297D01*
Y-70130D01*
X-45055Y-69631D01*
X-45388Y-69297D01*
X-45888Y-69131D01*
X-46055D01*
X-46555Y-69297D01*
X-46888Y-69631D01*
X-47055Y-70297D01*
Y-71130D01*
X-46888Y-71964D01*
X-46555Y-72463D01*
X-46055Y-72630D01*
X-45722D01*
X-45222Y-72463D01*
X-45055Y-72130D01*
X16800Y141199D02*
Y137700D01*
X13567Y140366D02*
X13734Y140699D01*
X14067Y141033D01*
X14401Y141199D01*
X15067D01*
X15400Y141033D01*
X15734Y140699D01*
X15900Y140366D01*
X16067Y139866D01*
Y139033D01*
X15900Y138533D01*
X15734Y138200D01*
X15400Y137867D01*
X15067Y137700D01*
X14401D01*
X14067Y137867D01*
X13734Y138200D01*
X13567Y138533D01*
X12418Y140366D02*
Y140533D01*
X12251Y140866D01*
X12084Y141033D01*
X11751Y141199D01*
X11085D01*
X10751Y141033D01*
X10585Y140866D01*
X10418Y140533D01*
Y140199D01*
X10585Y139866D01*
X10918Y139366D01*
X12584Y137700D01*
X10251D01*
X9302Y140366D02*
Y140533D01*
X9135Y140866D01*
X8968Y141033D01*
X8635Y141199D01*
X7969D01*
X7635Y141033D01*
X7469Y140866D01*
X7302Y140533D01*
Y140199D01*
X7469Y139866D01*
X7802Y139366D01*
X9468Y137700D01*
X7135D01*
X16700Y107899D02*
Y104400D01*
X13467Y107066D02*
X13634Y107399D01*
X13967Y107733D01*
X14300Y107899D01*
X14967D01*
X15300Y107733D01*
X15634Y107399D01*
X15800Y107066D01*
X15967Y106566D01*
Y105733D01*
X15800Y105233D01*
X15634Y104900D01*
X15300Y104567D01*
X14967Y104400D01*
X14300D01*
X13967Y104567D01*
X13634Y104900D01*
X13467Y105233D01*
X12484Y107233D02*
X12151Y107399D01*
X11651Y107899D01*
Y104400D01*
X9585Y107899D02*
X7752D01*
X8752Y106566D01*
X8252D01*
X7919Y106400D01*
X7752Y106233D01*
X7585Y105733D01*
Y105400D01*
X7752Y104900D01*
X8085Y104567D01*
X8585Y104400D01*
X9085D01*
X9585Y104567D01*
X9752Y104733D01*
X9918Y105067D01*
D91*
X-44440Y15668D02*
G03*
X-41308Y7998I-7787J-7654D01*
G01*
D92*
X15840Y-13928D02*
Y-21800D01*
Y-13928D02*
X10967D01*
X15840Y-17676D02*
X12841D01*
X10067Y-13928D02*
Y-21800D01*
Y-13928D02*
X7068Y-21800D01*
X4069Y-13928D02*
X7068Y-21800D01*
X4069Y-13928D02*
Y-21800D01*
X-3803Y-15802D02*
X-3429Y-15052D01*
X-2679Y-14302D01*
X-1929Y-13928D01*
X-429D01*
X320Y-14302D01*
X1070Y-15052D01*
X1445Y-15802D01*
X1820Y-16927D01*
Y-18801D01*
X1445Y-19926D01*
X1070Y-20675D01*
X320Y-21425D01*
X-429Y-21800D01*
X-1929D01*
X-2679Y-21425D01*
X-3429Y-20675D01*
X-3803Y-19926D01*
X-12201Y-13928D02*
Y-21800D01*
Y-13928D02*
X-17074D01*
X-12201Y-17676D02*
X-15200D01*
X-18723Y-13928D02*
X-19098Y-14302D01*
X-19473Y-13928D01*
X-19098Y-13553D01*
X-18723Y-13928D01*
X-19098Y-16552D02*
Y-21800D01*
X-20860Y-16552D02*
Y-21800D01*
Y-18051D02*
X-21985Y-16927D01*
X-22734Y-16552D01*
X-23859D01*
X-24609Y-16927D01*
X-24984Y-18051D01*
Y-21800D01*
X-27046Y-18801D02*
X-31544D01*
Y-18051D01*
X-31169Y-17301D01*
X-30794Y-16927D01*
X-30044Y-16552D01*
X-28920D01*
X-28170Y-16927D01*
X-27420Y-17676D01*
X-27046Y-18801D01*
Y-19551D01*
X-27420Y-20675D01*
X-28170Y-21425D01*
X-28920Y-21800D01*
X-30044D01*
X-30794Y-21425D01*
X-31544Y-20675D01*
X-39416Y-13928D02*
Y-21800D01*
Y-13928D02*
X-42040D01*
X-43165Y-14302D01*
X-43915Y-15052D01*
X-44290Y-15802D01*
X-44664Y-16927D01*
Y-18801D01*
X-44290Y-19926D01*
X-43915Y-20675D01*
X-43165Y-21425D01*
X-42040Y-21800D01*
X-39416D01*
X-46426Y-18801D02*
X-50925D01*
Y-18051D01*
X-50550Y-17301D01*
X-50175Y-16927D01*
X-49425Y-16552D01*
X-48301D01*
X-47551Y-16927D01*
X-46801Y-17676D01*
X-46426Y-18801D01*
Y-19551D01*
X-46801Y-20675D01*
X-47551Y-21425D01*
X-48301Y-21800D01*
X-49425D01*
X-50175Y-21425D01*
X-50925Y-20675D01*
X-52612Y-13928D02*
Y-21800D01*
X-58760Y-16552D02*
Y-21800D01*
Y-17676D02*
X-58010Y-16927D01*
X-57260Y-16552D01*
X-56136D01*
X-55386Y-16927D01*
X-54636Y-17676D01*
X-54261Y-18801D01*
Y-19551D01*
X-54636Y-20675D01*
X-55386Y-21425D01*
X-56136Y-21800D01*
X-57260D01*
X-58010Y-21425D01*
X-58760Y-20675D01*
X-61234Y-16552D02*
X-63483Y-21800D01*
X-65732Y-16552D02*
X-63483Y-21800D01*
X-62733Y-23300D01*
X-61984Y-24049D01*
X-61234Y-24424D01*
X-60859D01*
X-73230Y-15427D02*
X-73980Y-15052D01*
X-75104Y-13928D01*
Y-21800D01*
X-79003Y-16552D02*
Y-21800D01*
Y-18051D02*
X-80127Y-16927D01*
X-80877Y-16552D01*
X-82002D01*
X-82752Y-16927D01*
X-83126Y-18051D01*
Y-21800D01*
X-89312Y-17676D02*
X-88937Y-16927D01*
X-87812Y-16552D01*
X-86688D01*
X-85563Y-16927D01*
X-85188Y-17676D01*
X-85563Y-18426D01*
X-86313Y-18801D01*
X-88187Y-19176D01*
X-88937Y-19551D01*
X-89312Y-20301D01*
Y-20675D01*
X-88937Y-21425D01*
X-87812Y-21800D01*
X-86688D01*
X-85563Y-21425D01*
X-85188Y-20675D01*
X-100895Y-13928D02*
X-97147Y-19176D01*
X-102770D01*
X-100895Y-13928D02*
Y-21800D01*
X-109780Y-15802D02*
X-109405Y-15052D01*
X-108655Y-14302D01*
X-107905Y-13928D01*
X-106406D01*
X-105656Y-14302D01*
X-104906Y-15052D01*
X-104532Y-15802D01*
X-104157Y-16927D01*
Y-18801D01*
X-104532Y-19926D01*
X-104906Y-20675D01*
X-105656Y-21425D01*
X-106406Y-21800D01*
X-107905D01*
X-108655Y-21425D01*
X-109405Y-20675D01*
X-109780Y-19926D01*
X-111992Y-13928D02*
Y-21800D01*
X-117240Y-13928D02*
Y-21800D01*
X-111992Y-17676D02*
X-117240D01*
M02*
