  0
SECTION
  2
HEADER
  9
$ACADVER
  1
AC1014
  9
$ACADMAINTVER
 70
     9
  9
$DWGCODEPAGE
  3
ANSI_1250
  9
$INSBASE
 10
0.0
 20
0.0
 30
0.0
  9
$EXTMIN
 10
1.000000000000000E+20
 20
1.000000000000000E+20
 30
1.000000000000000E+20
  9
$EXTMAX
 10
-1.000000000000000E+20
 20
-1.000000000000000E+20
 30
-1.000000000000000E+20
  9
$LIMMIN
 10
0.0
 20
0.0
  9
$LIMMAX
 10
420.0
 20
297.0
  9
$ORTHOMODE
 70
     0
  9
$REGENMODE
 70
     1
  9
$FILLMODE
 70
     1
  9
$QTEXTMODE
 70
     0
  9
$MIRRTEXT
 70
     1
  9
$DRAGMODE
 70
     2
  9
$LTSCALE
 40
1.0
  9
$OSMODE
 70
    37
  9
$ATTMODE
 70
     1
  9
$TEXTSIZE
 40
2.5
  9
$TRACEWID
 40
1.0
  9
$TEXTSTYLE
  7
STANDARD
  9
$CLAYER
  8
0
  9
$CELTYPE
  6
BYLAYER
  9
$CECOLOR
 62
   256
  9
$CELTSCALE
 40
1.0
  9
$DELOBJ
 70
     1
  9
$DISPSILH
 70
     0
  9
$DIMSCALE
 40
1.0
  9
$DIMASZ
 40
3.0
  9
$DIMEXO
 40
0.625
  9
$DIMDLI
 40
3.75
  9
$DIMRND
 40
0.0
  9
$DIMDLE
 40
0.0
  9
$DIMEXE
 40
1.25
  9
$DIMTP
 40
0.0
  9
$DIMTM
 40
0.0
  9
$DIMTXT
 40
1.336918010447422
  9
$DIMCEN
 40
2.5
  9
$DIMTSZ
 40
0.0
  9
$DIMTOL
 70
     0
  9
$DIMLIM
 70
     0
  9
$DIMTIH
 70
     0
  9
$DIMTOH
 70
     0
  9
$DIMSE1
 70
     0
  9
$DIMSE2
 70
     0
  9
$DIMTAD
 70
     1
  9
$DIMZIN
 70
     8
  9
$DIMBLK
  1

  9
$DIMASO
 70
     1
  9
$DIMSHO
 70
     1
  9
$DIMPOST
  1

  9
$DIMAPOST
  1

  9
$DIMALT
 70
     0
  9
$DIMALTD
 70
     3
  9
$DIMALTF
 40
0.03937007874016
  9
$DIMLFAC
 40
1.0
  9
$DIMTOFL
 70
     1
  9
$DIMTVP
 40
0.0
  9
$DIMTIX
 70
     0
  9
$DIMSOXD
 70
     0
  9
$DIMSAH
 70
     0
  9
$DIMBLK1
  1

  9
$DIMBLK2
  1

  9
$DIMSTYLE
  2
ISO-25
  9
$DIMCLRD
 70
     0
  9
$DIMCLRE
 70
     0
  9
$DIMCLRT
 70
     0
  9
$DIMTFAC
 40
1.0
  9
$DIMGAP
 40
0.625
  9
$DIMJUST
 70
     0
  9
$DIMSD1
 70
     0
  9
$DIMSD2
 70
     0
  9
$DIMTOLJ
 70
     0
  9
$DIMTZIN
 70
     8
  9
$DIMALTZ
 70
     0
  9
$DIMALTTZ
 70
     0
  9
$DIMFIT
 70
     3
  9
$DIMUPT
 70
     0
  9
$DIMUNIT
 70
     2
  9
$DIMDEC
 70
     2
  9
$DIMTDEC
 70
     2
  9
$DIMALTU
 70
     2
  9
$DIMALTTD
 70
     3
  9
$DIMTXSTY
  7
STANDARD
  9
$DIMAUNIT
 70
     0
  9
$LUNITS
 70
     2
  9
$LUPREC
 70
     4
  9
$SKETCHINC
 40
1.0
  9
$FILLETRAD
 40
10.0
  9
$AUNITS
 70
     0
  9
$AUPREC
 70
     0
  9
$MENU
  1
.
  9
$ELEVATION
 40
0.0
  9
$PELEVATION
 40
0.0
  9
$THICKNESS
 40
0.0
  9
$LIMCHECK
 70
     0
  9
$CHAMFERA
 40
10.0
  9
$CHAMFERB
 40
10.0
  9
$CHAMFERC
 40
20.0
  9
$CHAMFERD
 40
0.0
  9
$SKPOLY
 70
     0
  9
$TDCREATE
 40
2456869.454600266
  9
$TDUPDATE
 40
2456869.454600278
  9
$TDINDWG
 40
0.0000000116
  9
$TDUSRTIMER
 40
0.0000000116
  9
$USRTIMER
 70
     1
  9
$ANGBASE
 50
0.0
  9
$ANGDIR
 70
     0
  9
$PDMODE
 70
     0
  9
$PDSIZE
 40
0.0
  9
$PLINEWID
 40
0.0
  9
$COORDS
 70
     1
  9
$SPLFRAME
 70
     0
  9
$SPLINETYPE
 70
     6
  9
$SPLINESEGS
 70
     8
  9
$ATTDIA
 70
     0
  9
$ATTREQ
 70
     1
  9
$HANDLING
 70
     1
  9
$HANDSEED
  5
380
  9
$SURFTAB1
 70
     6
  9
$SURFTAB2
 70
     6
  9
$SURFTYPE
 70
     6
  9
$SURFU
 70
     6
  9
$SURFV
 70
     6
  9
$UCSNAME
  2

  9
$UCSORG
 10
0.0
 20
0.0
 30
0.0
  9
$UCSXDIR
 10
1.0
 20
0.0
 30
0.0
  9
$UCSYDIR
 10
0.0
 20
1.0
 30
0.0
  9
$PUCSNAME
  2

  9
$PUCSORG
 10
0.0
 20
0.0
 30
0.0
  9
$PUCSXDIR
 10
1.0
 20
0.0
 30
0.0
  9
$PUCSYDIR
 10
0.0
 20
1.0
 30
0.0
  9
$USERI1
 70
     0
  9
$USERI2
 70
     0
  9
$USERI3
 70
     0
  9
$USERI4
 70
     0
  9
$USERI5
 70
     0
  9
$USERR1
 40
0.0
  9
$USERR2
 40
0.0
  9
$USERR3
 40
0.0
  9
$USERR4
 40
0.0
  9
$USERR5
 40
0.0
  9
$WORLDVIEW
 70
     1
  9
$SHADEDGE
 70
     3
  9
$SHADEDIF
 70
    70
  9
$TILEMODE
 70
     1
  9
$MAXACTVP
 70
    64
  9
$PINSBASE
 10
0.0
 20
0.0
 30
0.0
  9
$PLIMCHECK
 70
     0
  9
$PEXTMIN
 10
1.000000000000000E+20
 20
1.000000000000000E+20
 30
1.000000000000000E+20
  9
$PEXTMAX
 10
-1.000000000000000E+20
 20
-1.000000000000000E+20
 30
-1.000000000000000E+20
  9
$PLIMMIN
 10
0.0
 20
0.0
  9
$PLIMMAX
 10
420.0
 20
297.0
  9
$UNITMODE
 70
     0
  9
$VISRETAIN
 70
     1
  9
$PLINEGEN
 70
     0
  9
$PSLTSCALE
 70
     1
  9
$TREEDEPTH
 70
  3020
  9
$PICKSTYLE
 70
     1
  9
$CMLSTYLE
  2
STANDARD
  9
$CMLJUST
 70
     0
  9
$CMLSCALE
 40
20.0
  9
$PROXYGRAPHICS
 70
     1
  9
$MEASUREMENT
 70
     1
  0
ENDSEC
  0
SECTION
  2
CLASSES
  0
CLASS
  1
ACDBDICTIONARYWDFLT
  2
AcDbDictionaryWithDefault
  3
ObjectDBX Classes
 90
        0
280
     0
281
     0
  0
CLASS
  1
VISUALSTYLE
  2
AcDbVisualStyle
  3
ObjectDBX Classes
 90
     4095
280
     0
281
     0
  0
CLASS
  1
MATERIAL
  2
AcDbMaterial
  3
ObjectDBX Classes
 90
     1153
280
     0
281
     0
  0
CLASS
  1
SCALE
  2
AcDbScale
  3
ObjectDBX Classes
 90
     1153
280
     0
281
     0
  0
CLASS
  1
DICTIONARYVAR
  2
AcDbDictionaryVar
  3
ObjectDBX Classes
 90
        0
280
     0
281
     0
  0
CLASS
  1
XRECORD
  2
AcDbXrecord
  3
AutoCAD 2000
 90
        0
280
     0
281
     0
  0
CLASS
  1
LWPOLYLINE
  2
AcDbPolyline
  3
AutoCAD 2000
 90
        0
280
     0
281
     1
  0
CLASS
  1
HATCH
  2
AcDbHatch
  3
AutoCAD 2000
 90
        0
280
     0
281
     1
  0
CLASS
  1
ACDBPLACEHOLDER
  2
AcDbPlaceHolder
  3
ObjectDBX Classes
 90
        0
280
     0
281
     0
  0
CLASS
  1
LAYOUT
  2
AcDbLayout
  3
ObjectDBX Classes
 90
        0
280
     0
281
     0
  0
ENDSEC
  0
SECTION
  2
TABLES
  0
TABLE
  2
VPORT
  5
8
330
0
100
AcDbSymbolTable
 70
     1
  0
VPORT
  5
29
330
8
100
AcDbSymbolTableRecord
100
AcDbViewportTableRecord
  2
*ACTIVE
 70
     0
 10
0.0
 20
0.0
 11
1.0
 21
1.0
 12
344.1869158878504
 22
148.5
 13
0.0
 23
0.0
 14
10.0
 24
10.0
 15
10.0
 25
10.0
 16
0.0
 26
0.0
 36
1.0
 17
0.0
 27
0.0
 37
0.0
 40
297.0
 41
1.972972972850329
 42
50.0
 43
0.0
 44
0.0
 50
0.0
 51
0.0
 71
     0
 72
   100
 73
     1
 74
     3
 75
     0
 76
     0
 77
     0
 78
     0
  0
ENDTAB
  0
TABLE
  2
LTYPE
  5
5
330
0
100
AcDbSymbolTable
 70
     1
  0
LTYPE
  5
14
330
5
100
AcDbSymbolTableRecord
100
AcDbLinetypeTableRecord
  2
BYBLOCK
 70
     0
  3

 72
    65
 73
     0
 40
0.0
  0
LTYPE
  5
15
330
5
100
AcDbSymbolTableRecord
100
AcDbLinetypeTableRecord
  2
BYLAYER
 70
     0
  3

 72
    65
 73
     0
 40
0.0
  0
LTYPE
  5
16
330
5
100
AcDbSymbolTableRecord
100
AcDbLinetypeTableRecord
  2
CONTINUOUS
 70
     0
  3
Solid line
 72
    65
 73
     0
 40
0.0
  0
ENDTAB
  0
TABLE
  2
LAYER
  5
2
330
0
100
AcDbSymbolTable
 70
     4
  0
LAYER
  5
10
330
2
100
AcDbSymbolTableRecord
100
AcDbLayerTableRecord
  2
0
 70
     0
 62
     7
  6
CONTINUOUS
  0
LAYER
  5
3F
330
2
100
AcDbSymbolTableRecord
100
AcDbLayerTableRecord
  2
VISIBLE
 70
     0
 62
     7
  6
CONTINUOUS
  0
LAYER
  5
7A
330
2
100
AcDbSymbolTableRecord
100
AcDbLayerTableRecord
  2
TANGENT_EDGES
 70
     0
 62
     7
  6
CONTINUOUS
  0
LAYER
  5
80
330
2
100
AcDbSymbolTableRecord
100
AcDbLayerTableRecord
  2
DIMENSIONS
 70
     0
 62
     7
  6
CONTINUOUS
  0
ENDTAB
  0
TABLE
  2
STYLE
  5
3
330
0
100
AcDbSymbolTable
 70
     1
  0
STYLE
  5
11
330
3
100
AcDbSymbolTableRecord
100
AcDbTextStyleTableRecord
  2
STANDARD
 70
     0
 40
0.0
 41
1.0
 50
0.0
 71
     0
 42
2.5
  3
txt
  4

  0
ENDTAB
  0
TABLE
  2
VIEW
  5
6
330
0
100
AcDbSymbolTable
 70
     0
  0
ENDTAB
  0
TABLE
  2
UCS
  5
7
330
0
100
AcDbSymbolTable
 70
     0
  0
ENDTAB
  0
TABLE
  2
APPID
  5
9
330
0
100
AcDbSymbolTable
 70
     1
  0
APPID
  5
12
330
9
100
AcDbSymbolTableRecord
100
AcDbRegAppTableRecord
  2
ACAD
 70
     0
  0
ENDTAB
  0
TABLE
  2
DIMSTYLE
  5
A
330
0
100
AcDbSymbolTable
 70
     1
  0
DIMSTYLE
105
27
102
{ACAD_REACTORS
330
81
330
B1
330
BF
330
111
330
11F
330
12D
102
}
330
A
100
AcDbSymbolTableRecord
100
AcDbDimStyleTableRecord
  2
ISO-25
 70
     0
  3

  4

  5

  6

  7

 40
1.0
 41
2.5
 42
0.625
 43
3.75
 44
1.25
 45
0.0
 46
0.0
 47
0.0
 48
0.0
140
2.5
141
2.5
142
0.0
143
0.03937007874016
144
1.0
145
0.0
146
1.0
147
0.625
 71
     0
 72
     0
 73
     0
 74
     0
 75
     0
 76
     0
 77
     1
 78
     8
170
     0
171
     3
172
     1
173
     0
174
     0
175
     0
176
     0
177
     0
178
     0
270
     2
271
     2
272
     2
273
     2
274
     3
340
11
275
     0
280
     0
281
     0
282
     0
283
     0
284
     8
285
     0
286
     0
287
     3
288
     0
  0
ENDTAB
  0
TABLE
  2
BLOCK_RECORD
  5
1
330
0
100
AcDbSymbolTable
 70
     7
  0
BLOCK_RECORD
  5
1F
330
1
100
AcDbSymbolTableRecord
100
AcDbBlockTableRecord
  2
*MODEL_SPACE
  0
BLOCK_RECORD
  5
1B
330
1
100
AcDbSymbolTableRecord
100
AcDbBlockTableRecord
  2
*PAPER_SPACE
  0
BLOCK_RECORD
  5
A4
330
1
100
AcDbSymbolTableRecord
100
AcDbBlockTableRecord
  2
D1
  0
BLOCK_RECORD
  5
B2
330
1
100
AcDbSymbolTableRecord
100
AcDbBlockTableRecord
  2
D2
  0
BLOCK_RECORD
  5
C0
330
1
100
AcDbSymbolTableRecord
100
AcDbBlockTableRecord
  2
D3
  0
BLOCK_RECORD
  5
112
330
1
100
AcDbSymbolTableRecord
100
AcDbBlockTableRecord
  2
D4
  0
BLOCK_RECORD
  5
120
330
1
100
AcDbSymbolTableRecord
100
AcDbBlockTableRecord
  2
D5
  0
BLOCK_RECORD
  5
12E
330
1
100
AcDbSymbolTableRecord
100
AcDbBlockTableRecord
  2
D6
  0
ENDTAB
  0
ENDSEC
  0
SECTION
  2
BLOCKS
  0
BLOCK
  5
20
330
1F
100
AcDbEntity
  8
0
100
AcDbBlockBegin
  2
*MODEL_SPACE
 70
     0
 10
0.0
 20
0.0
 30
0.0
  3
*MODEL_SPACE
  1

  0
ENDBLK
  5
21
330
1F
100
AcDbEntity
  8
0
100
AcDbBlockEnd
  0
BLOCK
  5
1C
330
1B
100
AcDbEntity
 67
     1
  8
0
100
AcDbBlockBegin
  2
*PAPER_SPACE
 70
     0
 10
0.0
 20
0.0
 30
0.0
  3
*PAPER_SPACE
  1

  0
ENDBLK
  5
1D
330
1B
100
AcDbEntity
 67
     1
  8
0
100
AcDbBlockEnd
  0
BLOCK
  5
A5
330
A4
100
AcDbEntity
  8
0
100
AcDbBlockBegin
  2
D1
 70
     0
 10
0.0
 20
0.0
 30
0.0
  3
D1
  1

  0
MTEXT
  5
A7
330
A4
100
AcDbEntity
  8
DIMENSIONS
100
AcDbMText
 10
103.6241641574433
 20
144.2728881835937
 30
0.0
 40
2.707850318471337
 41
0.0
 71
     5
 72
     1
  1
{\fCE|b0|i0|c0|p0;10}{\fCE|b0|i0|c0|p0;}
 11
6.123031769111886E-17
 21
1.0
 31
0.0
  0
MTEXT
  5
A8
330
A4
100
AcDbEntity
  8
DIMENSIONS
100
AcDbMText
 10
103.6241641574433
 20
144.2728881835937
 30
0.0
 40
2.707850318471337
 41
0.0
 71
     5
 72
     1
  1
{\fCE|b0|i0|c0|p0;}
 11
6.123031769111886E-17
 21
1.0
 31
0.0
  0
MTEXT
  5
A9
330
A4
100
AcDbEntity
  8
DIMENSIONS
100
AcDbMText
 10
103.6241641574433
 20
144.2728881835937
 30
0.0
 40
2.707850318471337
 41
0.0
 71
     5
 72
     1
  1
{\fCE|b0|i0|c0|p0;}
 11
6.123031769111886E-17
 21
1.0
 31
0.0
  0
LINE
  5
AA
330
A4
100
AcDbEntity
  8
DIMENSIONS
100
AcDbLine
 10
124.9647111685349
 20
139.108413696289
 30
0.0
 11
103.3880530463322
 21
139.108413696289
 31
0.0
  0
LINE
  5
AB
330
A4
100
AcDbEntity
  8
DIMENSIONS
100
AcDbLine
 10
121.1647101485349
 20
149.108413696289
 30
0.0
 11
103.3880530463322
 21
149.108413696289
 31
0.0
  0
LWPOLYLINE
  5
AC
330
A4
100
AcDbEntity
  8
DIMENSIONS
100
AcDbPolyline
 90
        4
 70
     0
 43
0.0
 10
105.3880530463322
 20
139.108413696289
 10
104.8880530463322
 20
142.108413696289
 10
105.8880530463322
 20
142.108413696289
 10
105.3880530463322
 20
139.108413696289
  0
LINE
  5
AD
330
A4
100
AcDbEntity
  8
DIMENSIONS
100
AcDbLine
 10
105.3880530463322
 20
142.108413696289
 30
0.0
 11
105.3880530463322
 21
144.2728881835937
 31
0.0
  0
LWPOLYLINE
  5
AE
330
A4
100
AcDbEntity
  8
DIMENSIONS
100
AcDbPolyline
 90
        4
 70
     0
 43
0.0
 10
105.3880530463322
 20
149.108413696289
 10
105.8880530463322
 20
146.108413696289
 10
104.8880530463322
 20
146.108413696289
 10
105.3880530463322
 20
149.108413696289
  0
LINE
  5
AF
330
A4
100
AcDbEntity
  8
DIMENSIONS
100
AcDbLine
 10
105.3880530463322
 20
146.108413696289
 30
0.0
 11
105.3880530463322
 21
144.2728881835937
 31
0.0
  0
LINE
  5
B0
330
A4
100
AcDbEntity
  8
DIMENSIONS
100
AcDbLine
 10
105.3880530463322
 20
148.0367780327796
 30
0.0
 11
105.3880530463322
 21
140.508998453617
 31
0.0
  0
ENDBLK
  5
A6
330
A4
100
AcDbEntity
  8
0
100
AcDbBlockEnd
  0
BLOCK
  5
B3
330
B2
100
AcDbEntity
  8
0
100
AcDbBlockBegin
  2
D2
 70
     0
 10
0.0
 20
0.0
 30
0.0
  3
D2
  1

  0
MTEXT
  5
B5
330
B2
100
AcDbEntity
  8
DIMENSIONS
100
AcDbMText
 10
116.3557586669922
 20
158.6580200195312
 30
0.0
 40
2.707850318471337
 41
0.0
 71
     5
 72
     1
  1
{\fCE|b0|i0|c0|p0;0,3}{\fAlibre Symbols|b0|i0|c0|p0;\H1.052632x;`}{\fCE|b0|i0|c0|p0;0,05}{\fMicrosoft Sans Serif|b0|i0|c0|p0;\H0.8947368x;}
 11
6.123031769111886E-17
 21
1.0
 31
0.0
  0
MTEXT
  5
B6
330
B2
100
AcDbEntity
  8
DIMENSIONS
100
AcDbMText
 10
116.3557586669922
 20
158.6580200195312
 30
0.0
 40
2.707850318471337
 41
0.0
 71
     5
 72
     1
  1
{\fCE|b0|i0|c0|p0;}
 11
6.123031769111886E-17
 21
1.0
 31
0.0
  0
MTEXT
  5
B7
330
B2
100
AcDbEntity
  8
DIMENSIONS
100
AcDbMText
 10
116.3557586669922
 20
158.6580200195312
 30
0.0
 40
2.707850318471337
 41
0.0
 71
     5
 72
     1
  1
{\fCE|b0|i0|c0|p0;}
 11
6.123031769111886E-17
 21
1.0
 31
0.0
  0
LINE
  5
B8
330
B2
100
AcDbEntity
  8
DIMENSIONS
100
AcDbLine
 10
121.1647101485349
 20
149.108413696289
 30
0.0
 11
116.8252031114366
 21
149.108413696289
 31
0.0
  0
LINE
  5
B9
330
B2
100
AcDbEntity
  8
DIMENSIONS
100
AcDbLine
 10
160.4514756685349
 20
148.808413696289
 30
0.0
 11
116.8252031114366
 21
148.808413696289
 31
0.0
  0
LWPOLYLINE
  5
BA
330
B2
100
AcDbEntity
  8
DIMENSIONS
100
AcDbPolyline
 90
        4
 70
     0
 43
0.0
 10
118.8252031114366
 20
149.108413696289
 10
118.3252031114366
 20
152.108413696289
 10
119.3252031114366
 20
152.108413696289
 10
118.8252031114366
 20
149.108413696289
  0
LINE
  5
BB
330
B2
100
AcDbEntity
  8
DIMENSIONS
100
AcDbLine
 10
118.8252031114366
 20
152.108413696289
 30
0.0
 11
118.8252031114366
 21
158.6580200195312
 31
0.0
  0
LWPOLYLINE
  5
BC
330
B2
100
AcDbEntity
  8
DIMENSIONS
100
AcDbPolyline
 90
        4
 70
     0
 43
0.0
 10
118.8252031114366
 20
148.808413696289
 10
119.3252031114366
 20
145.808413696289
 10
118.3252031114366
 20
145.808413696289
 10
118.8252031114366
 20
148.808413696289
  0
LINE
  5
BD
330
B2
100
AcDbEntity
  8
DIMENSIONS
100
AcDbLine
 10
118.8252031114366
 20
145.808413696289
 30
0.0
 11
118.8252031114366
 21
145.208413696289
 31
0.0
  0
LINE
  5
BE
330
B2
100
AcDbEntity
  8
DIMENSIONS
100
AcDbLine
 10
118.8252031114366
 20
150.1316313147544
 30
0.0
 11
118.8252031114366
 21
167.184409558773
 31
0.0
  0
ENDBLK
  5
B4
330
B2
100
AcDbEntity
  8
0
100
AcDbBlockEnd
  0
BLOCK
  5
C1
330
C0
100
AcDbEntity
  8
0
100
AcDbBlockBegin
  2
D3
 70
     0
 10
0.0
 20
0.0
 30
0.0
  3
D3
  1

  0
MTEXT
  5
C3
330
C0
100
AcDbEntity
  8
DIMENSIONS
100
AcDbMText
 10
109.5118672688799
 20
158.6580200195312
 30
0.0
 40
2.707850318471337
 41
0.0
 71
     5
 72
     1
  1
{\fCE|b0|i0|c0|p0;1,1}{\fAlibre Symbols|b0|i0|c0|p0;\H1.052632x;`}{\fCE|b0|i0|c0|p0;0,05}{\fMicrosoft Sans Serif|b0|i0|c0|p0;\H0.8947368x;}
 11
6.123031769111886E-17
 21
1.0
 31
0.0
  0
MTEXT
  5
C4
330
C0
100
AcDbEntity
  8
DIMENSIONS
100
AcDbMText
 10
109.5118672688799
 20
158.6580200195312
 30
0.0
 40
2.707850318471337
 41
0.0
 71
     5
 72
     1
  1
{\fCE|b0|i0|c0|p0;}
 11
6.123031769111886E-17
 21
1.0
 31
0.0
  0
MTEXT
  5
C5
330
C0
100
AcDbEntity
  8
DIMENSIONS
100
AcDbMText
 10
109.5118672688799
 20
158.6580200195312
 30
0.0
 40
2.707850318471337
 41
0.0
 71
     5
 72
     1
  1
{\fCE|b0|i0|c0|p0;}
 11
6.123031769111886E-17
 21
1.0
 31
0.0
  0
LINE
  5
C6
330
C0
100
AcDbEntity
  8
DIMENSIONS
100
AcDbLine
 10
121.1647101485349
 20
149.108413696289
 30
0.0
 11
109.9813117133244
 21
149.108413696289
 31
0.0
  0
LINE
  5
C7
330
C0
100
AcDbEntity
  8
DIMENSIONS
100
AcDbLine
 10
169.3962840885349
 20
148.008413696289
 30
0.0
 11
109.9813117133244
 21
148.008413696289
 31
0.0
  0
LWPOLYLINE
  5
C8
330
C0
100
AcDbEntity
  8
DIMENSIONS
100
AcDbPolyline
 90
        4
 70
     0
 43
0.0
 10
111.9813117133244
 20
149.108413696289
 10
111.4813117133244
 20
152.108413696289
 10
112.4813117133244
 20
152.108413696289
 10
111.9813117133244
 20
149.108413696289
  0
LINE
  5
C9
330
C0
100
AcDbEntity
  8
DIMENSIONS
100
AcDbLine
 10
111.9813117133244
 20
152.108413696289
 30
0.0
 11
111.9813117133244
 21
158.6580200195312
 31
0.0
  0
LWPOLYLINE
  5
CA
330
C0
100
AcDbEntity
  8
DIMENSIONS
100
AcDbPolyline
 90
        4
 70
     0
 43
0.0
 10
111.9813117133244
 20
148.008413696289
 10
112.4813117133244
 20
145.008413696289
 10
111.4813117133244
 20
145.008413696289
 10
111.9813117133244
 20
148.008413696289
  0
LINE
  5
CB
330
C0
100
AcDbEntity
  8
DIMENSIONS
100
AcDbLine
 10
111.9813117133244
 20
145.008413696289
 30
0.0
 11
111.9813117133244
 21
144.408413696289
 31
0.0
  0
LINE
  5
CC
330
C0
100
AcDbEntity
  8
DIMENSIONS
100
AcDbLine
 10
111.9813117133244
 20
150.1316313147544
 30
0.0
 11
111.9813117133244
 21
167.184409558773
 31
0.0
  0
ENDBLK
  5
C2
330
C0
100
AcDbEntity
  8
0
100
AcDbBlockEnd
  0
BLOCK
  5
113
330
112
100
AcDbEntity
  8
0
100
AcDbBlockBegin
  2
D4
 70
     0
 10
0.0
 20
0.0
 30
0.0
  3
D4
  1

  0
MTEXT
  5
115
330
112
100
AcDbEntity
  8
DIMENSIONS
100
AcDbMText
 10
154.6016964382595
 20
66.77151785956487
 30
0.0
 40
2.707850318471337
 41
0.0
 71
     5
 72
     1
  1
{\fCE|b0|i0|c0|p0;68}{\fCE|b0|i0|c0|p0;}
  0
MTEXT
  5
116
330
112
100
AcDbEntity
  8
DIMENSIONS
100
AcDbMText
 10
154.6016964382595
 20
66.77151785956487
 30
0.0
 40
2.707850318471337
 41
0.0
 71
     5
 72
     1
  1
{\fCE|b0|i0|c0|p0;}
  0
MTEXT
  5
117
330
112
100
AcDbEntity
  8
DIMENSIONS
100
AcDbMText
 10
154.6016964382595
 20
66.77151785956487
 30
0.0
 40
2.707850318471337
 41
0.0
 71
     5
 72
     1
  1
{\fCE|b0|i0|c0|p0;}
  0
LINE
  5
118
330
112
100
AcDbEntity
  8
DIMENSIONS
100
AcDbLine
 10
191.1647118485349
 20
84.25433384473631
 30
0.0
 11
191.1647118485349
 21
63.00762897067597
 31
0.0
  0
LINE
  5
119
330
112
100
AcDbEntity
  8
DIMENSIONS
100
AcDbLine
 10
123.1647101485349
 20
95.46687381296242
 30
0.0
 11
123.1647101485349
 21
63.00762897067597
 31
0.0
  0
LWPOLYLINE
  5
11A
330
112
100
AcDbEntity
  8
DIMENSIONS
100
AcDbPolyline
 90
        4
 70
     0
 43
0.0
 10
191.1647118485349
 20
65.00762897067597
 10
188.1647118485349
 20
64.50762897067597
 10
188.1647118485349
 20
65.50762897067597
 10
191.1647118485349
 20
65.00762897067597
  0
LINE
  5
11B
330
112
100
AcDbEntity
  8
DIMENSIONS
100
AcDbLine
 10
188.1647118485349
 20
65.00762897067597
 30
0.0
 11
154.6016964382595
 21
65.00762897067597
 31
0.0
  0
LWPOLYLINE
  5
11C
330
112
100
AcDbEntity
  8
DIMENSIONS
100
AcDbPolyline
 90
        4
 70
     0
 43
0.0
 10
123.1647101485349
 20
65.00762897067597
 10
126.1647101485349
 20
65.50762897067597
 10
126.1647101485349
 20
64.50762897067597
 10
123.1647101485349
 20
65.00762897067597
  0
LINE
  5
11D
330
112
100
AcDbEntity
  8
DIMENSIONS
100
AcDbLine
 10
126.1647101485349
 20
65.00762897067597
 30
0.0
 11
154.6016964382595
 21
65.00762897067597
 31
0.0
  0
LINE
  5
11E
330
112
100
AcDbEntity
  8
DIMENSIONS
100
AcDbLine
 10
150.8378074126962
 20
65.00762897067597
 30
0.0
 11
158.3655852037194
 21
65.00762897067597
 31
0.0
  0
ENDBLK
  5
114
330
112
100
AcDbEntity
  8
0
100
AcDbBlockEnd
  0
BLOCK
  5
121
330
120
100
AcDbEntity
  8
0
100
AcDbBlockBegin
  2
D5
 70
     0
 10
0.0
 20
0.0
 30
0.0
  3
D5
  1

  0
MTEXT
  5
123
330
120
100
AcDbEntity
  8
DIMENSIONS
100
AcDbMText
 10
188.6035003662109
 20
135.4080047607422
 30
0.0
 40
2.707850318471337
 41
0.0
 71
     5
 72
     1
  1
{\fCE|b0|i0|c0|p0;M2.5}{\fCE|b0|i0|c0|p0;}
  0
MTEXT
  5
124
330
120
100
AcDbEntity
  8
DIMENSIONS
100
AcDbMText
 10
188.6035003662109
 20
135.4080047607422
 30
0.0
 40
2.707850318471337
 41
0.0
 71
     5
 72
     1
  1
{\fCE|b0|i0|c0|p0;}
  0
MTEXT
  5
125
330
120
100
AcDbEntity
  8
DIMENSIONS
100
AcDbMText
 10
188.6035003662109
 20
135.4080047607422
 30
0.0
 40
2.707850318471337
 41
0.0
 71
     5
 72
     1
  1
{\fCE|b0|i0|c0|p0;}
  0
LINE
  5
126
330
120
100
AcDbEntity
  8
DIMENSIONS
100
AcDbLine
 10
187.6404290485349
 20
130.0544352047363
 30
0.0
 11
187.6404290485349
 21
135.6441158718533
 31
0.0
  0
LINE
  5
127
330
120
100
AcDbEntity
  8
DIMENSIONS
100
AcDbLine
 10
189.6904290485349
 20
130.0544352047363
 30
0.0
 11
189.6904290485349
 21
135.6441158718533
 31
0.0
  0
LWPOLYLINE
  5
128
330
120
100
AcDbEntity
  8
DIMENSIONS
100
AcDbPolyline
 90
        4
 70
     0
 43
0.0
 10
187.6404290485349
 20
133.6441158718533
 10
184.6404290485349
 20
133.1441158718533
 10
184.6404290485349
 20
134.1441158718533
 10
187.6404290485349
 20
133.6441158718533
  0
LINE
  5
129
330
120
100
AcDbEntity
  8
DIMENSIONS
100
AcDbLine
 10
184.6404290485349
 20
133.6441158718533
 30
0.0
 11
184.0404290485349
 21
133.6441158718533
 31
0.0
  0
LWPOLYLINE
  5
12A
330
120
100
AcDbEntity
  8
DIMENSIONS
100
AcDbPolyline
 90
        4
 70
     0
 43
0.0
 10
189.6904290485349
 20
133.6441158718533
 10
192.6904290485349
 20
134.1441158718533
 10
192.6904290485349
 20
133.1441158718533
 10
189.6904290485349
 20
133.6441158718533
  0
LINE
  5
12B
330
120
100
AcDbEntity
  8
DIMENSIONS
100
AcDbLine
 10
192.6904290485349
 20
133.6441158718533
 30
0.0
 11
193.2904290485349
 21
133.6441158718533
 31
0.0
  0
LINE
  5
12C
330
120
100
AcDbEntity
  8
DIMENSIONS
100
AcDbLine
 10
183.075723405433
 20
133.6441158718533
 30
0.0
 11
194.1312801795724
 21
133.6441158718533
 31
0.0
  0
ENDBLK
  5
122
330
120
100
AcDbEntity
  8
0
100
AcDbBlockEnd
  0
BLOCK
  5
12F
330
12E
100
AcDbEntity
  8
0
100
AcDbBlockBegin
  2
D6
 70
     0
 10
0.0
 20
0.0
 30
0.0
  3
D6
  1

  0
MTEXT
  5
131
330
12E
100
AcDbEntity
  8
DIMENSIONS
100
AcDbMText
 10
125.8091430664062
 20
135.9661712646484
 30
0.0
 40
2.707850318471337
 41
0.0
 71
     5
 72
     1
  1
{\fCE|b0|i0|c0|p0;M2.5}{\fCE|b0|i0|c0|p0;}
  0
MTEXT
  5
132
330
12E
100
AcDbEntity
  8
DIMENSIONS
100
AcDbMText
 10
125.8091430664062
 20
135.9661712646484
 30
0.0
 40
2.707850318471337
 41
0.0
 71
     5
 72
     1
  1
{\fCE|b0|i0|c0|p0;}
  0
MTEXT
  5
133
330
12E
100
AcDbEntity
  8
DIMENSIONS
100
AcDbMText
 10
125.8091430664062
 20
135.9661712646484
 30
0.0
 40
2.707850318471337
 41
0.0
 71
     5
 72
     1
  1
{\fCE|b0|i0|c0|p0;}
  0
LINE
  5
134
330
12E
100
AcDbEntity
  8
DIMENSIONS
100
AcDbLine
 10
124.6301918485349
 20
130.0297972047363
 30
0.0
 11
124.6301918485349
 21
136.2022823757596
 31
0.0
  0
LINE
  5
135
330
12E
100
AcDbEntity
  8
DIMENSIONS
100
AcDbLine
 10
126.6801918485349
 20
130.0297972047363
 30
0.0
 11
126.6801918485349
 21
136.2022823757596
 31
0.0
  0
LWPOLYLINE
  5
136
330
12E
100
AcDbEntity
  8
DIMENSIONS
100
AcDbPolyline
 90
        4
 70
     0
 43
0.0
 10
124.6301918485349
 20
134.2022823757596
 10
121.6301918485349
 20
133.7022823757596
 10
121.6301918485349
 20
134.7022823757596
 10
124.6301918485349
 20
134.2022823757596
  0
LINE
  5
137
330
12E
100
AcDbEntity
  8
DIMENSIONS
100
AcDbLine
 10
121.6301918485349
 20
134.2022823757596
 30
0.0
 11
121.0301918485349
 21
134.2022823757596
 31
0.0
  0
LWPOLYLINE
  5
138
330
12E
100
AcDbEntity
  8
DIMENSIONS
100
AcDbPolyline
 90
        4
 70
     0
 43
0.0
 10
126.6801918485349
 20
134.2022823757596
 10
129.6801918485349
 20
134.7022823757596
 10
129.6801918485349
 20
133.7022823757596
 10
126.6801918485349
 20
134.2022823757596
  0
LINE
  5
139
330
12E
100
AcDbEntity
  8
DIMENSIONS
100
AcDbLine
 10
129.6801918485349
 20
134.2022823757596
 30
0.0
 11
130.2801918485349
 21
134.2022823757596
 31
0.0
  0
LINE
  5
13A
330
12E
100
AcDbEntity
  8
DIMENSIONS
100
AcDbLine
 10
120.2813646751168
 20
134.2022823757596
 30
0.0
 11
131.3369190650704
 21
134.2022823757595
 31
0.0
  0
ENDBLK
  5
130
330
12E
100
AcDbEntity
  8
0
100
AcDbBlockEnd
  0
ENDSEC
  0
SECTION
  2
ENTITIES
  0
LINE
  5
40
330
1F
100
AcDbEntity
  8
VISIBLE
100
AcDbLine
 10
186.1654290485349
 20
148.808413696289
 30
0.0
 11
186.1654290485349
 21
149.108413696289
 31
0.0
  0
LINE
  5
41
330
1F
100
AcDbEntity
  8
VISIBLE
100
AcDbLine
 10
162.4514756685349
 20
148.808413696289
 30
0.0
 11
162.4514756685349
 21
146.108413696289
 31
0.0
  0
LINE
  5
42
330
1F
100
AcDbEntity
  8
VISIBLE
100
AcDbLine
 10
128.1551918485349
 20
146.108413696289
 30
0.0
 11
128.1551918485349
 21
149.108413696289
 31
0.0
  0
LINE
  5
43
330
1F
100
AcDbEntity
  8
VISIBLE
100
AcDbLine
 10
123.1647101485349
 20
148.808413696289
 30
0.0
 11
123.1647101485349
 21
144.108413696289
 31
0.0
  0
LINE
  5
44
330
1F
100
AcDbEntity
  8
VISIBLE
100
AcDbLine
 10
128.1551918485349
 20
149.108413696289
 30
0.0
 11
123.1647101485349
 21
149.108413696289
 31
0.0
  0
LINE
  5
45
330
1F
100
AcDbEntity
  8
VISIBLE
100
AcDbLine
 10
154.2514858285349
 20
146.108413696289
 30
0.0
 11
154.2514858285349
 21
148.008413696289
 31
0.0
  0
LINE
  5
46
330
1F
100
AcDbEntity
  8
VISIBLE
100
AcDbLine
 10
182.3690840885349
 20
146.108413696289
 30
0.0
 11
182.3690840885349
 21
148.008413696289
 31
0.0
  0
LINE
  5
47
330
1F
100
AcDbEntity
  8
VISIBLE
100
AcDbLine
 10
123.6647066301925
 20
144.108413696289
 30
0.0
 11
125.9647146868772
 21
144.108413696289
 31
0.0
  0
LINE
  5
48
330
1F
100
AcDbEntity
  8
VISIBLE
100
AcDbLine
 10
126.9647111685349
 20
139.108413696289
 30
0.0
 11
188.0647119685349
 21
139.108413696289
 31
0.0
  0
LINE
  5
49
330
1F
100
AcDbEntity
  8
VISIBLE
100
AcDbLine
 10
182.3206843885349
 20
146.108413696289
 30
0.0
 11
182.3206843885349
 21
148.008413696289
 31
0.0
  0
LINE
  5
4A
330
1F
100
AcDbEntity
  8
VISIBLE
100
AcDbLine
 10
123.1647101485349
 20
139.108413696289
 30
0.0
 11
126.4647111685349
 21
139.108413696289
 31
0.0
  0
LINE
  5
4B
330
1F
100
AcDbEntity
  8
VISIBLE
100
AcDbLine
 10
188.5647119685349
 20
139.108413696289
 30
0.0
 11
191.1647118485349
 21
139.108413696289
 31
0.0
  0
LINE
  5
4C
330
1F
100
AcDbEntity
  8
VISIBLE
100
AcDbLine
 10
126.4647076369814
 20
144.108413696289
 30
0.0
 11
125.9647146868524
 21
144.108413696289
 31
0.0
  0
LINE
  5
4D
330
1F
100
AcDbEntity
  8
VISIBLE
100
AcDbLine
 10
125.9698401085349
 20
148.808413696289
 30
0.0
 11
123.6647101617338
 21
148.808413696289
 31
0.0
  0
LINE
  5
4E
330
1F
100
AcDbEntity
  8
VISIBLE
100
AcDbLine
 10
176.3962840885349
 20
148.008413696289
 30
0.0
 11
171.3962840885349
 21
148.008413696289
 31
0.0
  0
LINE
  5
4F
330
1F
100
AcDbEntity
  8
VISIBLE
100
AcDbLine
 10
189.0647119685349
 20
144.108413696289
 30
0.0
 11
190.6647118485349
 21
144.108413696289
 31
0.0
  0
LINE
  5
50
330
1F
100
AcDbEntity
  8
VISIBLE
100
AcDbLine
 10
126.4647111685349
 20
139.108413696289
 30
0.0
 11
126.9647111685349
 21
139.108413696289
 31
0.0
  0
LINE
  5
51
330
1F
100
AcDbEntity
  8
VISIBLE
100
AcDbLine
 10
126.4647111685349
 20
141.108413696289
 30
0.0
 11
123.1647101485349
 21
141.108413696289
 31
0.0
  0
LINE
  5
52
330
1F
100
AcDbEntity
  8
VISIBLE
100
AcDbLine
 10
188.0647119685349
 20
139.108413696289
 30
0.0
 11
188.5647119685349
 21
139.108413696289
 31
0.0
  0
LINE
  5
53
330
1F
100
AcDbEntity
  8
VISIBLE
100
AcDbLine
 10
191.1647118485349
 20
146.108413696289
 30
0.0
 11
191.1647118485349
 21
149.108413696289
 31
0.0
  0
LINE
  5
54
330
1F
100
AcDbEntity
  8
VISIBLE
100
AcDbLine
 10
188.0647119685349
 20
148.808413696289
 30
0.0
 11
183.1165283485349
 21
148.808413696289
 31
0.0
  0
LINE
  5
55
330
1F
100
AcDbEntity
  8
VISIBLE
100
AcDbLine
 10
188.5647119685349
 20
139.108413696289
 30
0.0
 11
188.5647119685349
 21
148.808413696289
 31
0.0
  0
LINE
  5
56
330
1F
100
AcDbEntity
  8
VISIBLE
100
AcDbLine
 10
191.1647118485349
 20
149.108413696289
 30
0.0
 11
186.1654290485349
 21
149.108413696289
 31
0.0
  0
LINE
  5
57
330
1F
100
AcDbEntity
  8
VISIBLE
100
AcDbLine
 10
123.1647101485349
 20
148.808413696289
 30
0.0
 11
123.1647101485349
 21
149.108413696289
 31
0.0
  0
LINE
  5
58
330
1F
100
AcDbEntity
  8
VISIBLE
100
AcDbLine
 10
171.1520859485349
 20
146.108413696289
 30
0.0
 11
171.1520859485349
 21
148.008413696289
 31
0.0
  0
LINE
  5
59
330
1F
100
AcDbEntity
  8
VISIBLE
100
AcDbLine
 10
160.9514756685349
 20
148.008413696289
 30
0.0
 11
155.7514756685349
 21
148.008413696289
 31
0.0
  0
LINE
  5
5A
330
1F
100
AcDbEntity
  8
VISIBLE
100
AcDbLine
 10
190.6647118485349
 20
146.108413696289
 30
0.0
 11
189.0647119685349
 21
146.108413696289
 31
0.0
  0
LINE
  5
5B
330
1F
100
AcDbEntity
  8
VISIBLE
100
AcDbLine
 10
123.6647066301925
 20
148.808413696289
 30
0.0
 11
123.6647066301925
 21
144.108413696289
 31
0.0
  0
LINE
  5
5C
330
1F
100
AcDbEntity
  8
VISIBLE
100
AcDbLine
 10
126.4647111685349
 20
146.108413696289
 30
0.0
 11
126.4647111685349
 21
139.108413696289
 31
0.0
  0
LINE
  5
5D
330
1F
100
AcDbEntity
  8
VISIBLE
100
AcDbLine
 10
191.1647118485349
 20
141.108413696289
 30
0.0
 11
191.1647118485349
 21
139.108413696289
 31
0.0
  0
LINE
  5
5E
330
1F
100
AcDbEntity
  8
VISIBLE
100
AcDbLine
 10
125.9698401085349
 20
148.808413696289
 30
0.0
 11
125.9698401085349
 21
146.108413696289
 31
0.0
  0
LINE
  5
5F
330
1F
100
AcDbEntity
  8
VISIBLE
100
AcDbLine
 10
190.6647118485349
 20
144.108413696289
 30
0.0
 11
191.1647118485349
 21
144.108413696289
 31
0.0
  0
LINE
  5
60
330
1F
100
AcDbEntity
  8
VISIBLE
100
AcDbLine
 10
125.9647146868524
 20
146.108413696289
 30
0.0
 11
126.4647076369814
 21
146.108413696289
 31
0.0
  0
LINE
  5
61
330
1F
100
AcDbEntity
  8
VISIBLE
100
AcDbLine
 10
123.1647101485349
 20
141.108413696289
 30
0.0
 11
123.1647101485349
 21
144.108413696289
 31
0.0
  0
LINE
  5
62
330
1F
100
AcDbEntity
  8
VISIBLE
100
AcDbLine
 10
125.9647146868773
 20
146.108413696289
 30
0.0
 11
125.9647146868773
 21
144.108413696289
 31
0.0
  0
LINE
  5
63
330
1F
100
AcDbEntity
  8
VISIBLE
100
AcDbLine
 10
171.3962840885349
 20
146.108413696289
 30
0.0
 11
171.3962840885349
 21
148.008413696289
 31
0.0
  0
LINE
  5
64
330
1F
100
AcDbEntity
  8
VISIBLE
100
AcDbLine
 10
166.0702379904159
 20
148.808413696289
 30
0.0
 11
166.0702379904159
 21
146.108413696289
 31
0.0
  0
LINE
  5
65
330
1F
100
AcDbEntity
  8
VISIBLE
100
AcDbLine
 10
188.5647119685349
 20
146.108413696289
 30
0.0
 11
189.0647119685349
 21
146.108413696289
 31
0.0
  0
LINE
  5
66
330
1F
100
AcDbEntity
  8
VISIBLE
100
AcDbLine
 10
176.3962840885349
 20
146.108413696289
 30
0.0
 11
176.3962840885349
 21
148.008413696289
 31
0.0
  0
LINE
  5
67
330
1F
100
AcDbEntity
  8
VISIBLE
100
AcDbLine
 10
188.0647119685349
 20
148.808413696289
 30
0.0
 11
188.5647119685349
 21
148.808413696289
 31
0.0
  0
LINE
  5
68
330
1F
100
AcDbEntity
  8
VISIBLE
100
AcDbLine
 10
166.0702379904159
 20
148.808413696289
 30
0.0
 11
162.4514756685349
 21
148.808413696289
 31
0.0
  0
LINE
  5
69
330
1F
100
AcDbEntity
  8
VISIBLE
100
AcDbLine
 10
155.7514756685349
 20
148.008413696289
 30
0.0
 11
154.2514858285349
 21
148.008413696289
 31
0.0
  0
LINE
  5
6A
330
1F
100
AcDbEntity
  8
VISIBLE
100
AcDbLine
 10
171.3962840885349
 20
148.008413696289
 30
0.0
 11
171.1520859485349
 21
148.008413696289
 31
0.0
  0
LINE
  5
6B
330
1F
100
AcDbEntity
  8
VISIBLE
100
AcDbLine
 10
162.4514756685349
 20
148.008413696289
 30
0.0
 11
160.9514756685349
 21
148.008413696289
 31
0.0
  0
LINE
  5
6C
330
1F
100
AcDbEntity
  8
VISIBLE
100
AcDbLine
 10
123.6647101485349
 20
148.808413696289
 30
0.0
 11
123.1647136800884
 21
148.808413696289
 31
0.0
  0
LINE
  5
6D
330
1F
100
AcDbEntity
  8
VISIBLE
100
AcDbLine
 10
155.7514756685349
 20
146.108413696289
 30
0.0
 11
155.7514756685349
 21
148.008413696289
 31
0.0
  0
LINE
  5
6E
330
1F
100
AcDbEntity
  8
VISIBLE
100
AcDbLine
 10
123.6647066302174
 20
144.108413696289
 30
0.0
 11
123.1647136800884
 21
144.108413696289
 31
0.0
  0
LINE
  5
6F
330
1F
100
AcDbEntity
  8
VISIBLE
100
AcDbLine
 10
191.1647118485349
 20
146.108413696289
 30
0.0
 11
190.6647118485349
 21
146.108413696289
 31
0.0
  0
LINE
  5
70
330
1F
100
AcDbEntity
  8
VISIBLE
100
AcDbLine
 10
182.3690840885349
 20
148.008413696289
 30
0.0
 11
182.3206843885349
 21
148.008413696289
 31
0.0
  0
LINE
  5
71
330
1F
100
AcDbEntity
  8
VISIBLE
100
AcDbLine
 10
183.1165283485349
 20
148.808413696289
 30
0.0
 11
183.1165283485349
 21
146.108413696289
 31
0.0
  0
LINE
  5
72
330
1F
100
AcDbEntity
  8
VISIBLE
100
AcDbLine
 10
191.1647118485349
 20
144.108413696289
 30
0.0
 11
191.1647118485349
 21
146.108413696289
 31
0.0
  0
LINE
  5
73
330
1F
100
AcDbEntity
  8
VISIBLE
100
AcDbLine
 10
191.1647118485349
 20
144.108413696289
 30
0.0
 11
191.1647118485349
 21
141.108413696289
 31
0.0
  0
LINE
  5
74
330
1F
100
AcDbEntity
  8
VISIBLE
100
AcDbLine
 10
189.0647119685349
 20
144.108413696289
 30
0.0
 11
188.5647119685349
 21
144.108413696289
 31
0.0
  0
LINE
  5
75
330
1F
100
AcDbEntity
  8
VISIBLE
100
AcDbLine
 10
183.1165283485349
 20
146.108413696289
 30
0.0
 11
126.9647111685349
 21
146.108413696289
 31
0.0
  0
LINE
  5
76
330
1F
100
AcDbEntity
  8
VISIBLE
100
AcDbLine
 10
191.1647118485349
 20
141.108413696289
 30
0.0
 11
188.5647119685349
 21
141.108413696289
 31
0.0
  0
LINE
  5
77
330
1F
100
AcDbEntity
  8
VISIBLE
100
AcDbLine
 10
183.1165283485349
 20
148.008413696289
 30
0.0
 11
182.3690840885349
 21
148.008413696289
 31
0.0
  0
LINE
  5
78
330
1F
100
AcDbEntity
  8
VISIBLE
100
AcDbLine
 10
126.9647111685349
 20
146.108413696289
 30
0.0
 11
126.4647111685349
 21
146.108413696289
 31
0.0
  0
LINE
  5
79
330
1F
100
AcDbEntity
  8
VISIBLE
100
AcDbLine
 10
123.1647101485349
 20
141.108413696289
 30
0.0
 11
123.1647101485349
 21
139.108413696289
 31
0.0
  0
LINE
  5
7B
330
1F
100
AcDbEntity
  8
TANGENT_EDGES
100
AcDbLine
 10
188.0647119685349
 20
148.808413696289
 30
0.0
 11
188.0647119685349
 21
139.108413696289
 31
0.0
  0
LINE
  5
7C
330
1F
100
AcDbEntity
  8
TANGENT_EDGES
100
AcDbLine
 10
160.9514756685349
 20
148.008413696289
 30
0.0
 11
160.9514756685349
 21
146.108413696289
 31
0.0
  0
LINE
  5
7D
330
1F
100
AcDbEntity
  8
TANGENT_EDGES
100
AcDbLine
 10
190.6647118485349
 20
146.108413696289
 30
0.0
 11
190.6647118485349
 21
144.108413696289
 31
0.0
  0
LINE
  5
7E
330
1F
100
AcDbEntity
  8
TANGENT_EDGES
100
AcDbLine
 10
126.9647111685349
 20
139.108413696289
 30
0.0
 11
126.9647111685349
 21
146.108413696289
 31
0.0
  0
LINE
  5
7F
330
1F
100
AcDbEntity
  8
TANGENT_EDGES
100
AcDbLine
 10
189.0647119685349
 20
144.108413696289
 30
0.0
 11
189.0647119685349
 21
146.108413696289
 31
0.0
  0
DIMENSION
  5
81
330
1F
100
AcDbEntity
  8
DIMENSIONS
100
AcDbDimension
  2
D1
 10
0.0
 20
0.0
 30
0.0
 11
261.0743148814493
 21
293.3813018798827
 31
0.0
 70
    32
  1
<>
 53
90.0
  3
ISO-25
100
AcDbAlignedDimension
 13
126.9647111685349
 23
139.108413696289
 33
0.0
 14
123.1647101485349
 24
149.108413696289
 34
0.0
 50
90.0
100
AcDbRotatedDimension
1001
ACAD
1000
DSTYLE
1002
{
1070
    76
1070
     0
1070
    75
1070
     0
1070
   282
1070
     0
1070
   281
1070
     0
1070
    77
1070
     1
1070
    79
1070
     0
1070
    78
1070
     0
1070
   272
1070
     2
1070
   271
1070
     2
1070
   179
1070
     2
1070
   140
1040
2.707850318471337
1070
    71
1070
     0
1070
    72
1070
     0
1070
    48
1040
0.002
1070
    47
1040
0.005
1002
}
  0
DIMENSION
  5
B1
330
1F
100
AcDbEntity
  8
DIMENSIONS
100
AcDbDimension
  2
D2
 10
0.0
 20
0.0
 30
0.0
 11
273.8059093909982
 21
307.7664337158202
 31
0.0
 70
    32
  1
<>
 53
270.0
  3
ISO-25
100
AcDbAlignedDimension
 13
123.1647101485349
 23
149.108413696289
 33
0.0
 14
162.4514756685349
 24
148.808413696289
 34
0.0
 50
270.0
100
AcDbRotatedDimension
1001
ACAD
1000
DSTYLE
1002
{
1070
    76
1070
     0
1070
    75
1070
     0
1070
   282
1070
     0
1070
   281
1070
     0
1070
    77
1070
     1
1070
    79
1070
     0
1070
    78
1070
     0
1070
   272
1070
     2
1070
   271
1070
     2
1070
   179
1070
     2
1070
   140
1040
2.707850318471337
1070
    71
1070
     0
1070
    72
1070
     0
1070
    48
1040
0.002
1070
    47
1040
0.05
1002
}
  0
DIMENSION
  5
BF
330
1F
100
AcDbEntity
  8
DIMENSIONS
100
AcDbDimension
  2
D3
 10
0.0
 20
0.0
 30
0.0
 11
266.9620179928859
 21
307.7664337158203
 31
0.0
 70
    32
  1
<>
 53
270.0
  3
ISO-25
100
AcDbAlignedDimension
 13
123.1647101485349
 23
149.108413696289
 33
0.0
 14
171.3962840885349
 24
148.008413696289
 34
0.0
 50
270.0
100
AcDbRotatedDimension
1001
ACAD
1000
DSTYLE
1002
{
1070
    76
1070
     0
1070
    75
1070
     0
1070
   282
1070
     0
1070
   281
1070
     0
1070
    77
1070
     1
1070
    79
1070
     0
1070
    78
1070
     0
1070
   272
1070
     2
1070
   271
1070
     2
1070
   179
1070
     2
1070
   140
1040
2.707850318471337
1070
    71
1070
     0
1070
    72
1070
     0
1070
    48
1040
0.002
1070
    47
1040
0.05
1002
}
  0
LINE
  5
CD
330
1F
100
AcDbEntity
  8
VISIBLE
100
AcDbLine
 10
171.1520859485349
 20
109.5981438529624
 30
0.0
 11
176.1520859485349
 21
109.5981438529624
 31
0.0
  0
LINE
  5
CE
330
1F
100
AcDbEntity
  8
VISIBLE
100
AcDbLine
 10
123.1647101485349
 20
123.4139378847363
 30
0.0
 11
123.1647101485349
 21
129.0297972047363
 31
0.0
  0
LINE
  5
CF
330
1F
100
AcDbEntity
  8
VISIBLE
100
AcDbLine
 10
123.1647101485349
 20
97.46687381296242
 30
0.0
 11
125.9698401085349
 21
97.46687381296242
 31
0.0
  0
ARC
  5
D0
330
1F
100
AcDbEntity
  8
VISIBLE
100
AcDbCircle
 10
124.6647101485349
 20
129.0297972047363
 30
0.0
 40
1.5
100
AcDbArc
 50
90.0
 51
180.0
  0
ARC
  5
D1
330
1F
100
AcDbEntity
  8
VISIBLE
100
AcDbCircle
 10
187.6654290485349
 20
129.0544352047363
 30
0.0
 40
1.5
100
AcDbArc
 50
90.0
 51
180.0
  0
LINE
  5
D2
330
1F
100
AcDbEntity
  8
VISIBLE
100
AcDbLine
 10
161.7514756685349
 20
97.62007889296243
 30
0.0
 11
161.7514756685349
 21
96.9073449329624
 31
0.0
  0
LINE
  5
D3
330
1F
100
AcDbEntity
  8
VISIBLE
100
AcDbLine
 10
128.1551918485349
 20
123.4139378847363
 30
0.0
 11
123.1647101485349
 21
123.4139378847363
 31
0.0
  0
LINE
  5
D4
330
1F
100
AcDbEntity
  8
VISIBLE
100
AcDbLine
 10
176.3962840885349
 20
100.9719457129624
 30
0.0
 11
176.3962840885349
 21
95.97194571296241
 31
0.0
  0
LINE
  5
D5
330
1F
100
AcDbEntity
  8
VISIBLE
100
AcDbLine
 10
171.1520859485349
 20
104.5981438529624
 30
0.0
 11
171.1520859485349
 21
109.5981438529624
 31
0.0
  0
LINE
  5
D6
330
1F
100
AcDbEntity
  8
VISIBLE
100
AcDbLine
 10
166.0702379904159
 20
95.4073449329624
 30
0.0
 11
166.0702379904159
 21
88.2449373129624
 31
0.0
  0
ARC
  5
D7
330
1F
100
AcDbEntity
  8
VISIBLE
100
AcDbCircle
 10
184.6654290485349
 20
123.4139378847363
 30
0.0
 40
1.5
100
AcDbArc
 50
270.0
 51
0.0
  0
LINE
  5
D8
330
1F
100
AcDbEntity
  8
VISIBLE
100
AcDbLine
 10
155.7514756685349
 20
97.62007889296241
 30
0.0
 11
161.7514756685349
 21
97.62007889296241
 31
0.0
  0
ARC
  5
D9
330
1F
100
AcDbEntity
  8
VISIBLE
100
AcDbCircle
 10
189.6647118485349
 20
129.0544352047363
 30
0.0
 40
1.5
100
AcDbArc
 50
0.0
 51
90.0
  0
LINE
  5
DA
330
1F
100
AcDbEntity
  8
VISIBLE
100
AcDbLine
 10
125.9698401085349
 20
90.56674307333697
 30
0.0
 11
123.6647101617338
 21
90.55809545030239
 31
0.0
  0
LINE
  5
DB
330
1F
100
AcDbEntity
  8
VISIBLE
100
AcDbLine
 10
176.3962840885349
 20
95.97194571296241
 30
0.0
 11
171.3962840885349
 21
95.97194571296241
 31
0.0
  0
LINE
  5
DC
330
1F
100
AcDbEntity
  8
VISIBLE
100
AcDbLine
 10
188.5647119685349
 20
80.8355358548434
 30
0.0
 11
188.5647119685349
 21
77.2043920047363
 31
0.0
  0
ARC
  5
DD
330
1F
100
AcDbEntity
  8
VISIBLE
100
AcDbCircle
 10
126.6551918485349
 20
129.0297972047363
 30
0.0
 40
1.5
100
AcDbArc
 50
0.0
 51
90.0
  0
LINE
  5
DE
330
1F
100
AcDbEntity
  8
VISIBLE
100
AcDbLine
 10
191.1647118485349
 20
129.0544352047363
 30
0.0
 11
191.1647118485349
 21
123.4139378847363
 31
0.0
  0
LINE
  5
DF
330
1F
100
AcDbEntity
  8
VISIBLE
100
AcDbLine
 10
171.3962840885349
 20
95.97194571296241
 30
0.0
 11
171.3962840885349
 21
100.9719457129624
 31
0.0
  0
LINE
  5
E0
330
1F
100
AcDbEntity
  8
VISIBLE
100
AcDbLine
 10
188.0647119685349
 20
76.7043920047363
 30
0.0
 11
183.1165283485349
 21
76.7043920047363
 31
0.0
  0
LINE
  5
E1
330
1F
100
AcDbEntity
  8
VISIBLE
100
AcDbLine
 10
191.1647118485349
 20
123.4139378847363
 30
0.0
 11
186.1654290485349
 21
123.4139378847363
 31
0.0
  0
LINE
  5
E2
330
1F
100
AcDbEntity
  8
VISIBLE
100
AcDbLine
 10
162.4514756685349
 20
88.2449373129624
 30
0.0
 11
162.4514756685349
 21
95.63848717891744
 31
0.0
  0
LINE
  5
E3
330
1F
100
AcDbEntity
  8
VISIBLE
100
AcDbLine
 10
129.6551918485349
 20
121.9139378847363
 30
0.0
 11
184.6654290485349
 21
121.9139378847363
 31
0.0
  0
ARC
  5
E4
330
1F
100
AcDbEntity
  8
VISIBLE
100
AcDbCircle
 10
163.2514756685349
 20
96.9073449329624
 30
0.0
 40
1.5
100
AcDbArc
 50
180.0
 51
237.7690473644983
  0
LINE
  5
E5
330
1F
100
AcDbEntity
  8
VISIBLE
100
AcDbLine
 10
160.9514756685349
 20
91.62007889296241
 30
0.0
 11
155.7514756685349
 21
91.62007889296241
 31
0.0
  0
LINE
  5
E6
330
1F
100
AcDbEntity
  8
VISIBLE
100
AcDbLine
 10
190.6647118485349
 20
85.7543338447363
 30
0.0
 11
189.0647119685349
 21
85.7543338447363
 31
0.0
  0
ARC
  5
E7
330
1F
100
AcDbEntity
  8
VISIBLE
100
AcDbCircle
 10
129.6551918485349
 20
123.4139378847363
 30
0.0
 40
1.5
100
AcDbArc
 50
180.0
 51
270.0
  0
LINE
  5
E8
330
1F
100
AcDbEntity
  8
VISIBLE
100
AcDbLine
 10
187.3206843885349
 20
109.6233457329624
 30
0.0
 11
187.3206843885349
 21
104.6233457329624
 31
0.0
  0
LINE
  5
E9
330
1F
100
AcDbEntity
  8
VISIBLE
100
AcDbLine
 10
182.3690840885349
 20
100.9973457129624
 30
0.0
 11
187.3690840885349
 21
100.9973457129624
 31
0.0
  0
LINE
  5
EA
330
1F
100
AcDbEntity
  8
VISIBLE
100
AcDbLine
 10
163.2514756685349
 20
95.4073449329624
 30
0.0
 11
166.0702379904159
 21
95.4073449329624
 31
0.0
  0
CIRCLE
  5
EB
330
1F
100
AcDbEntity
  8
VISIBLE
100
AcDbCircle
 10
188.6654290485349
 20
128.0544352047363
 30
0.0
 40
1.025000000000006
  0
LINE
  5
EC
330
1F
100
AcDbEntity
  8
VISIBLE
100
AcDbLine
 10
154.2514858285349
 20
108.1542338329624
 30
0.0
 11
154.2514858285349
 21
117.1542338329624
 31
0.0
  0
LINE
  5
ED
330
1F
100
AcDbEntity
  8
VISIBLE
100
AcDbLine
 10
182.3206843885349
 20
109.6233457329624
 30
0.0
 11
187.3206843885349
 21
109.6233457329624
 31
0.0
  0
ARC
  5
EE
330
1F
100
AcDbEntity
  8
VISIBLE
100
AcDbCircle
 10
125.9647146868524
 20
90.06672032713512
 30
0.0
 40
0.4999964816576617
100
AcDbArc
 50
0.2153454893689155
 51
90.0
  0
LINE
  5
EF
330
1F
100
AcDbEntity
  8
VISIBLE
100
AcDbLine
 10
125.9698401085349
 20
97.46687381296242
 30
0.0
 11
125.9698401085349
 21
90.56674307333697
 31
0.0
  0
LINE
  5
F0
330
1F
100
AcDbEntity
  8
VISIBLE
100
AcDbLine
 10
171.3962840885349
 20
100.9719457129624
 30
0.0
 11
176.3962840885349
 21
100.9719457129624
 31
0.0
  0
LINE
  5
F1
330
1F
100
AcDbEntity
  8
VISIBLE
100
AcDbLine
 10
183.1165283485349
 20
80.8355358548434
 30
0.0
 11
188.5647119685349
 21
80.8355358548434
 31
0.0
  0
LINE
  5
F2
330
1F
100
AcDbEntity
  8
VISIBLE
100
AcDbLine
 10
154.2514858285349
 20
117.1542338329624
 30
0.0
 11
163.2514858285349
 21
117.1542338329624
 31
0.0
  0
LINE
  5
F3
330
1F
100
AcDbEntity
  8
VISIBLE
100
AcDbLine
 10
187.3690840885349
 20
100.9973457129624
 30
0.0
 11
187.3690840885349
 21
95.99734571296243
 31
0.0
  0
ARC
  5
F4
330
1F
100
AcDbEntity
  8
VISIBLE
100
AcDbCircle
 10
189.0647119685349
 20
85.25433384473605
 30
0.0
 40
0.5000000000002416
100
AcDbArc
 50
90.0
 51
179.9999999999707
  0
LINE
  5
F5
330
1F
100
AcDbEntity
  8
VISIBLE
100
AcDbLine
 10
128.1551918485349
 20
129.0297972047363
 30
0.0
 11
128.1551918485349
 21
123.4139378847363
 31
0.0
  0
LINE
  5
F6
330
1F
100
AcDbEntity
  8
VISIBLE
100
AcDbLine
 10
186.1654290485349
 20
123.4139378847363
 30
0.0
 11
186.1654290485349
 21
129.0544352047363
 31
0.0
  0
LINE
  5
F7
330
1F
100
AcDbEntity
  8
VISIBLE
100
AcDbLine
 10
126.4647111685349
 20
77.2043920047363
 30
0.0
 11
126.4647111685349
 21
90.0685995666698
 31
0.0
  0
ARC
  5
F8
330
1F
100
AcDbEntity
  8
VISIBLE
100
AcDbCircle
 10
188.0647119685349
 20
77.2043920047363
 30
0.0
 40
0.5
100
AcDbArc
 50
270.0
 51
0.0
  0
LINE
  5
F9
330
1F
100
AcDbEntity
  8
VISIBLE
100
AcDbLine
 10
166.0702379904159
 20
88.2449373129624
 30
0.0
 11
162.4514756685349
 21
88.2449373129624
 31
0.0
  0
LINE
  5
FA
330
1F
100
AcDbEntity
  8
VISIBLE
100
AcDbLine
 10
155.7514756685349
 20
91.62007889296241
 30
0.0
 11
155.7514756685349
 21
97.62007889296241
 31
0.0
  0
LINE
  5
FB
330
1F
100
AcDbEntity
  8
VISIBLE
100
AcDbLine
 10
188.5647119685349
 20
85.25433384473631
 30
0.0
 11
188.5647119685349
 21
80.8355358548434
 31
0.0
  0
LINE
  5
FC
330
1F
100
AcDbEntity
  8
VISIBLE
100
AcDbLine
 10
182.3206843885349
 20
104.6233457329624
 30
0.0
 11
182.3206843885349
 21
109.6233457329624
 31
0.0
  0
LINE
  5
FD
330
1F
100
AcDbEntity
  8
VISIBLE
100
AcDbLine
 10
163.2514858285349
 20
108.1542338329624
 30
0.0
 11
154.2514858285349
 21
108.1542338329624
 31
0.0
  0
LINE
  5
FE
330
1F
100
AcDbEntity
  8
VISIBLE
100
AcDbLine
 10
176.1520859485349
 20
104.5981438529624
 30
0.0
 11
171.1520859485349
 21
104.5981438529624
 31
0.0
  0
LINE
  5
FF
330
1F
100
AcDbEntity
  8
VISIBLE
100
AcDbLine
 10
123.1647101485349
 20
91.0562197291351
 30
0.0
 11
123.1647101485349
 21
97.46687381296242
 31
0.0
  0
LINE
  5
100
330
1F
100
AcDbEntity
  8
VISIBLE
100
AcDbLine
 10
163.2514858285349
 20
117.1542338329624
 30
0.0
 11
163.2514858285349
 21
108.1542338329624
 31
0.0
  0
ARC
  5
101
330
1F
100
AcDbEntity
  8
VISIBLE
100
AcDbCircle
 10
160.9514756685349
 20
90.12007889296241
 30
0.0
 40
1.5
100
AcDbArc
 50
0.0
 51
90.0
  0
ARC
  5
102
330
1F
100
AcDbEntity
  8
VISIBLE
100
AcDbCircle
 10
123.6647101485349
 20
91.05809896862
 30
0.0
 40
0.5000000000000105
100
AcDbArc
 50
180.215345489362
 51
270.0
  0
ARC
  5
103
330
1F
100
AcDbEntity
  8
VISIBLE
100
AcDbCircle
 10
190.6647118485349
 20
86.2543338447363
 30
0.0
 40
0.5
100
AcDbArc
 50
270.0
 51
0.0
  0
CIRCLE
  5
104
330
1F
100
AcDbEntity
  8
VISIBLE
100
AcDbCircle
 10
125.6551918485349
 20
128.0297972047363
 30
0.0
 40
1.025000000000006
  0
LINE
  5
105
330
1F
100
AcDbEntity
  8
VISIBLE
100
AcDbLine
 10
187.3206843885349
 20
104.6233457329624
 30
0.0
 11
182.3206843885349
 21
104.6233457329624
 31
0.0
  0
LINE
  5
106
330
1F
100
AcDbEntity
  8
VISIBLE
100
AcDbLine
 10
182.3690840885349
 20
95.99734571296241
 30
0.0
 11
182.3690840885349
 21
100.9973457129624
 31
0.0
  0
LINE
  5
107
330
1F
100
AcDbEntity
  8
VISIBLE
100
AcDbLine
 10
124.6647101485349
 20
130.5297972047363
 30
0.0
 11
126.6551918485349
 21
130.5297972047363
 31
0.0
  0
LINE
  5
108
330
1F
100
AcDbEntity
  8
VISIBLE
100
AcDbLine
 10
187.6654290485349
 20
130.5544352047363
 30
0.0
 11
189.6647118485349
 21
130.5544352047363
 31
0.0
  0
LINE
  5
109
330
1F
100
AcDbEntity
  8
VISIBLE
100
AcDbLine
 10
191.1647118485349
 20
123.4139378847363
 30
0.0
 11
191.1647118485349
 21
86.2543338447363
 31
0.0
  0
LINE
  5
10A
330
1F
100
AcDbEntity
  8
VISIBLE
100
AcDbLine
 10
183.1165283485349
 20
76.7043920047363
 30
0.0
 11
126.9647111685349
 21
76.7043920047363
 31
0.0
  0
LINE
  5
10B
330
1F
100
AcDbEntity
  8
VISIBLE
100
AcDbLine
 10
187.3690840885349
 20
95.99734571296243
 30
0.0
 11
182.3690840885349
 21
95.99734571296243
 31
0.0
  0
LINE
  5
10C
330
1F
100
AcDbEntity
  8
VISIBLE
100
AcDbLine
 10
183.1165283485349
 20
76.7043920047363
 30
0.0
 11
183.1165283485349
 21
80.8355358548434
 31
0.0
  0
LINE
  5
10D
330
1F
100
AcDbEntity
  8
VISIBLE
100
AcDbLine
 10
176.1520859485349
 20
109.5981438529624
 30
0.0
 11
176.1520859485349
 21
104.5981438529624
 31
0.0
  0
ARC
  5
10E
330
1F
100
AcDbEntity
  8
VISIBLE
100
AcDbCircle
 10
163.2514756685349
 20
96.90734493296242
 30
0.0
 40
1.499999999999996
100
AcDbArc
 50
237.7690473644986
 51
270.0
  0
ARC
  5
10F
330
1F
100
AcDbEntity
  8
VISIBLE
100
AcDbCircle
 10
126.9647111685349
 20
77.2043920047363
 30
0.0
 40
0.5
100
AcDbArc
 50
180.0
 51
270.0
  0
LINE
  5
110
330
1F
100
AcDbEntity
  8
VISIBLE
100
AcDbLine
 10
123.1647101485349
 20
97.46687381296242
 30
0.0
 11
123.1647101485349
 21
123.4139378847363
 31
0.0
  0
DIMENSION
  5
111
330
1F
100
AcDbEntity
  8
DIMENSIONS
100
AcDbDimension
  2
D4
 10
0.0
 20
0.0
 30
0.0
 11
312.0518471622655
 21
164.7376043109296
 31
0.0
 70
    32
  1
<>
  3
ISO-25
100
AcDbAlignedDimension
 13
191.1647118485349
 23
86.2543338447363
 33
0.0
 14
123.1647101485349
 24
97.46687381296242
 34
0.0
100
AcDbRotatedDimension
1001
ACAD
1000
DSTYLE
1002
{
1070
    76
1070
     0
1070
    75
1070
     0
1070
   282
1070
     0
1070
   281
1070
     0
1070
    77
1070
     1
1070
    79
1070
     0
1070
    78
1070
     0
1070
   272
1070
     2
1070
   271
1070
     2
1070
   179
1070
     2
1070
   140
1040
2.707850318471337
1070
    71
1070
     0
1070
    72
1070
     0
1070
    48
1040
0.002
1070
    47
1040
0.005
1002
}
  0
DIMENSION
  5
11F
330
1F
100
AcDbEntity
  8
DIMENSIONS
100
AcDbDimension
  2
D5
 10
0.0
 20
0.0
 30
0.0
 11
346.0536510902169
 21
233.3740912121069
 31
0.0
 70
    32
  1
<>
  3
ISO-25
100
AcDbAlignedDimension
 13
187.6404290485349
 23
128.0544352047363
 33
0.0
 14
189.6904290485349
 24
128.0544352047363
 34
0.0
100
AcDbRotatedDimension
1001
ACAD
1000
DSTYLE
1002
{
1070
    76
1070
     0
1070
    75
1070
     0
1070
   282
1070
     0
1070
   281
1070
     0
1070
    77
1070
     1
1070
    79
1070
     0
1070
    78
1070
     0
1070
   272
1070
     2
1070
   271
1070
     2
1070
   179
1070
     2
1070
   140
1040
2.707850318471337
1070
    71
1070
     0
1070
    72
1070
     0
1070
    48
1040
0.002
1070
    47
1040
0.005
1002
}
  0
DIMENSION
  5
12D
330
1F
100
AcDbEntity
  8
DIMENSIONS
100
AcDbDimension
  2
D6
 10
0.0
 20
0.0
 30
0.0
 11
283.2592937904122
 21
233.9322577160131
 31
0.0
 70
    32
  1
<>
  3
ISO-25
100
AcDbAlignedDimension
 13
124.6301918485349
 23
128.0297972047363
 33
0.0
 14
126.6801918485349
 24
128.0297972047363
 34
0.0
100
AcDbRotatedDimension
1001
ACAD
1000
DSTYLE
1002
{
1070
    76
1070
     0
1070
    75
1070
     0
1070
   282
1070
     0
1070
   281
1070
     0
1070
    77
1070
     1
1070
    79
1070
     0
1070
    78
1070
     0
1070
   272
1070
     2
1070
   271
1070
     2
1070
   179
1070
     2
1070
   140
1040
2.707850318471337
1070
    71
1070
     0
1070
    72
1070
     0
1070
    48
1040
0.002
1070
    47
1040
0.005
1002
}
  0
LINE
  5
13B
330
1F
100
AcDbEntity
  8
VISIBLE
100
AcDbLine
 10
209.5186046188372
 20
-2.444326465578577
 30
0.0
 11
209.5186046188372
 21
-4.64886723408344
 31
0.0
  0
LINE
  5
13C
330
1F
100
AcDbEntity
  8
VISIBLE
100
AcDbLine
 10
237.9295322035444
 20
13.71319575573251
 30
0.0
 11
237.9295322035444
 21
16.16268549851569
 31
0.0
  0
LINE
  5
13D
330
1F
100
AcDbEntity
  8
VISIBLE
100
AcDbLine
 10
225.9010601537508
 20
1.053663704698025
 30
0.0
 11
228.0930911754291
 21
2.319233405135996
 31
0.0
  0
LINE
  5
13E
330
1F
100
AcDbEntity
  8
VISIBLE
100
AcDbLine
 10
203.9164345429785
 20
10.48337945747533
 30
0.0
 11
198.8518475452543
 21
7.559338791004995
 31
0.0
  0
LINE
  5
13F
330
1F
100
AcDbEntity
  8
VISIBLE
100
AcDbLine
 10
217.5442538419102
 20
15.75343661934509
 30
0.0
 11
221.079787747843
 21
13.71219516702578
 31
0.0
  0
LINE
  5
140
330
1F
100
AcDbEntity
  8
VISIBLE
100
AcDbLine
 10
196.2929961679499
 20
11.2412330910128
 30
0.0
 11
196.2929961679499
 21
9.036692322507943
 31
0.0
  0
LINE
  5
141
330
1F
100
AcDbEntity
  8
VISIBLE
100
AcDbLine
 10
222.2948155696994
 20
-1.028402576667677
 30
0.0
 11
222.2948155696994
 21
-3.477892319450856
 31
0.0
  0
ELLIPSE
  5
142
330
1F
100
AcDbEntity
  8
VISIBLE
100
AcDbEllipse
 10
244.3923327049492
 20
8.871866856545143
 30
0.0
 11
1.500000000001279
 21
-4.796163466380676E-13
 31
0.0
210
0.0
220
0.0
230
1.0
 40
0.5773502691894595
 41
-0.785398163396846
 42
0.0
  0
LINE
  5
143
330
1F
100
AcDbEntity
  8
VISIBLE
100
AcDbLine
 10
193.381296649727
 20
41.88262128743512
 30
0.0
 11
197.3523088570886
 21
44.17528625431067
 31
0.0
  0
LINE
  5
144
330
1F
100
AcDbEntity
  8
VISIBLE
100
AcDbLine
 10
231.6993357594804
 20
4.401299686501725
 30
0.0
 11
233.8913667811587
 21
5.666869386939696
 31
0.0
  0
LINE
  5
145
330
1F
100
AcDbEntity
  8
VISIBLE
100
AcDbLine
 10
175.0339516926938
 20
31.04482776329872
 30
0.0
 11
177.0174781095194
 21
29.89963825259976
 31
0.0
  0
LINE
  5
146
330
1F
100
AcDbEntity
  8
VISIBLE
100
AcDbLine
 10
222.9297205087832
 20
4.070270211192023
 30
0.0
 11
222.9297205087832
 21
5.621613714954705
 31
0.0
  0
LINE
  5
147
330
1F
100
AcDbEntity
  8
VISIBLE
100
AcDbLine
 10
210.9366873550498
 20
16.83802581096236
 30
0.0
 11
204.5727263243709
 21
20.51226042513713
 31
0.0
  0
LINE
  5
148
330
1F
100
AcDbEntity
  8
VISIBLE
100
AcDbLine
 10
200.7991873977103
 20
33.92566545309292
 30
0.0
 11
200.881112308546
 21
33.97296482241723
 31
0.0
  0
LINE
  5
149
330
1F
100
AcDbEntity
  8
VISIBLE
100
AcDbLine
 10
196.9101001011844
 20
37.39577592203572
 30
0.0
 11
196.9101001011844
 21
39.8452656648189
 31
0.0
  0
ELLIPSE
  5
14A
330
1F
100
AcDbEntity
  8
VISIBLE
100
AcDbEllipse
 10
198.4129690288685
 20
43.56291381861485
 30
0.0
 11
-1.5
 21
7.105427357601002E-15
 31
0.0
210
0.0
220
0.0
230
1.0
 40
0.5773502691896084
 41
-2.35619449019235
 42
-0.7853981633974318
  0
ELLIPSE
  5
14B
330
1F
100
AcDbEntity
  8
VISIBLE
100
AcDbEllipse
 10
242.9786262795608
 20
17.85303645107589
 30
0.0
 11
-1.499999999999972
 21
7.105427357601002E-15
 31
0.0
210
0.0
220
0.0
230
1.0
 40
0.5773502691896336
 41
-2.356194490192324
 42
-0.7853981633974336
  0
LINE
  5
14C
330
1F
100
AcDbEntity
  8
VISIBLE
100
AcDbLine
 10
198.8518475452543
 20
7.559338791004993
 30
0.0
 11
196.2929961679499
 21
9.036692322507955
 31
0.0
  0
LINE
  5
14D
330
1F
100
AcDbEntity
  8
VISIBLE
100
AcDbLine
 10
202.4272476069213
 20
14.70119515248701
 30
0.0
 11
201.9232685906234
 21
14.41022273176147
 31
0.0
  0
LINE
  5
14E
330
1F
100
AcDbEntity
  8
VISIBLE
100
AcDbLine
 10
222.9297205087832
 20
4.070270211192023
 30
0.0
 11
219.3941866028505
 21
2.029028758872713
 31
0.0
  0
LINE
  5
14F
330
1F
100
AcDbEntity
  8
VISIBLE
100
AcDbLine
 10
222.2948155696994
 20
-3.477892319450877
 30
0.0
 11
223.001922350886
 21
-3.069644028987017
 31
0.0
  0
LINE
  5
150
330
1F
100
AcDbEntity
  8
VISIBLE
100
AcDbLine
 10
196.9101001011843
 20
39.84526566481892
 30
0.0
 11
193.381296649727
 21
41.88262128743511
 31
0.0
  0
LINE
  5
151
330
1F
100
AcDbEntity
  8
VISIBLE
100
AcDbLine
 10
234.5984735623453
 20
6.075117677403524
 30
0.0
 11
236.7905045840236
 21
7.340687377841498
 31
0.0
  0
LINE
  5
152
330
1F
100
AcDbEntity
  8
VISIBLE
100
AcDbLine
 10
215.1528187079373
 20
10.09087104997877
 30
0.0
 11
211.6172848020046
 21
8.04962959765946
 31
0.0
  0
LINE
  5
153
330
1F
100
AcDbEntity
  8
VISIBLE
100
AcDbLine
 10
204.5727263243709
 20
20.51226042513713
 30
0.0
 11
204.5727263243709
 21
22.06360392889981
 31
0.0
  0
LINE
  5
154
330
1F
100
AcDbEntity
  8
VISIBLE
100
AcDbLine
 10
214.0087199359775
 20
13.71219516702578
 30
0.0
 11
217.5442538419103
 21
15.7534366193451
 31
0.0
  0
LINE
  5
155
330
1F
100
AcDbEntity
  8
VISIBLE
100
AcDbLine
 10
215.8586526969177
 20
4.070270211192023
 30
0.0
 11
215.8586526969177
 21
5.621613714954705
 31
0.0
  0
LINE
  5
156
330
1F
100
AcDbEntity
  8
VISIBLE
100
AcDbLine
 10
203.9164345429785
 20
12.68792022598019
 30
0.0
 11
198.8518475452543
 21
9.76387955950985
 31
0.0
  0
ELLIPSE
  5
157
330
1F
100
AcDbEntity
  8
VISIBLE
100
AcDbEllipse
 10
236.8688720317646
 20
14.3255681914283
 30
0.0
 11
1.499999999999972
 21
1.776356839400250E-15
 31
0.0
210
0.0
220
0.0
230
1.0
 40
0.5773502691896324
 41
3.926990816987238
 42
5.497787143782139
  0
LINE
  5
158
330
1F
100
AcDbEntity
  8
VISIBLE
100
AcDbLine
 10
170.5022585561234
 20
24.18267416290544
 30
0.0
 11
171.0700693534164
 21
23.85729890928813
 31
0.0
  0
LINE
  5
159
330
1F
100
AcDbEntity
  8
VISIBLE
100
AcDbLine
 10
198.184606919802
 20
17.1506848952702
 30
0.0
 11
202.4272476069213
 21
14.70119515248701
 31
0.0
  0
LINE
  5
15A
330
1F
100
AcDbEntity
  8
VISIBLE
100
AcDbLine
 10
234.5984735623453
 20
3.625627934620322
 30
0.0
 11
234.5984735623453
 21
6.075117677403503
 31
0.0
  0
LINE
  5
15B
330
1F
100
AcDbEntity
  8
VISIBLE
100
AcDbLine
 10
163.0396665015926
 20
13.09721930412852
 30
0.0
 11
206.2438913977761
 21
-11.84675156981213
 31
0.0
  0
LINE
  5
15C
330
1F
100
AcDbEntity
  8
VISIBLE
100
AcDbLine
 10
221.9239320494976
 20
7.611579067682204
 30
0.0
 11
221.9239320494976
 21
9.162922571444884
 31
0.0
  0
ELLIPSE
  5
15D
330
1F
100
AcDbEntity
  8
VISIBLE
100
AcDbEllipse
 10
244.392332704949
 20
17.03683266582179
 30
0.0
 11
-1.500000000001421
 21
0.0
 31
0.0
210
0.0
220
0.0
230
1.0
 40
0.577350269189374
 41
-3.141592653589449
 42
-2.356194490192529
  0
ELLIPSE
  5
15E
330
1F
100
AcDbEntity
  8
VISIBLE
100
AcDbEllipse
 10
244.3923327049509
 20
17.03683266582203
 30
0.0
 11
1.499999999999545
 21
8.171241461241152E-14
 31
0.0
210
0.0
220
0.0
230
1.0
 40
0.5773502691897503
 41
5.497787143782044
 42
6.283185307179586
  0
LINE
  5
15F
330
1F
100
AcDbEntity
  8
VISIBLE
100
AcDbLine
 10
237.4976113652101
 20
6.197592164542723
 30
0.0
 11
239.6896423868884
 21
4.932022464104747
 31
0.0
  0
LINE
  5
160
330
1F
100
AcDbEntity
  8
VISIBLE
100
AcDbLine
 10
172.1383488724564
 20
27.08267167417056
 30
0.0
 11
170.5022610626683
 21
28.02020665692875
 31
0.0
  0
LINE
  5
161
330
1F
100
AcDbEntity
  8
VISIBLE
100
AcDbLine
 10
211.6172848020046
 20
8.049629597659454
 30
0.0
 11
208.0817508960719
 21
10.09087104997877
 31
0.0
  0
LINE
  5
162
330
1F
100
AcDbEntity
  8
VISIBLE
100
AcDbLine
 10
213.3502734233705
 20
-4.477893670659974
 30
0.0
 11
214.4816441884162
 21
-5.131090886412363
 31
0.0
  0
LINE
  5
163
330
1F
100
AcDbEntity
  8
VISIBLE
100
AcDbLine
 10
222.2948155696994
 20
-3.477892319450877
 30
0.0
 11
220.1734952261398
 21
-2.253147448059288
 31
0.0
  0
LINE
  5
164
330
1F
100
AcDbEntity
  8
VISIBLE
100
AcDbLine
 10
209.5186046188372
 20
-2.444326465578577
 30
0.0
 11
206.9509981789626
 21
-3.926734734813174
 31
0.0
  0
ELLIPSE
  5
165
330
1F
100
AcDbEntity
  8
VISIBLE
100
AcDbEllipse
 10
199.8204521367668
 20
42.75030306739009
 30
0.0
 11
-1.499999999999403
 21
0.0
 31
0.0
210
0.0
220
0.0
230
1.0
 40
0.5773502691897955
 41
-3.141592653589645
 42
-2.356194490192089
  0
ELLIPSE
  5
166
330
1F
100
AcDbEntity
  8
VISIBLE
100
AcDbEllipse
 10
199.8204521367674
 20
42.75030306738964
 30
0.0
 11
1.499999999998835
 21
8.739675649849232E-13
 31
0.0
210
0.0
220
0.0
230
1.0
 40
0.5773502691897301
 41
5.497787143781484
 42
6.283185307179586
  0
ELLIPSE
  5
167
330
1F
100
AcDbEntity
  8
VISIBLE
100
AcDbEllipse
 10
163.3932198921859
 20
13.3013434493604
 30
0.0
 11
0.5
 21
0.0
 31
0.0
210
0.0
220
0.0
230
1.0
 40
0.5773502691894734
 41
3.141592653589621
 42
3.926990816987283
  0
LINE
  5
168
330
1F
100
AcDbEntity
  8
VISIBLE
100
AcDbLine
 10
228.8001979566156
 20
0.2779919528167234
 30
0.0
 11
228.8001979566156
 21
2.727481695599904
 31
0.0
  0
LINE
  5
169
330
1F
100
AcDbEntity
  8
VISIBLE
100
AcDbLine
 10
217.5442538419102
 20
10.11961021094378
 30
0.0
 11
217.5442538419102
 21
11.67095371470646
 31
0.0
  0
LINE
  5
16A
330
1F
100
AcDbEntity
  8
VISIBLE
100
AcDbLine
 10
223.0019223508859
 20
-0.6201542862037783
 30
0.0
 11
225.1939533725642
 21
0.6454154142342006
 31
0.0
  0
LINE
  5
16B
330
1F
100
AcDbEntity
  8
VISIBLE
100
AcDbLine
 10
212.4660313960592
 20
-4.580162752693077
 30
0.0
 11
212.643166642184
 21
-4.477893670659988
 31
0.0
  0
LINE
  5
16C
330
1F
100
AcDbEntity
  8
VISIBLE
100
AcDbLine
 10
225.4594659554304
 20
5.570337615362924
 30
0.0
 11
221.9239320494977
 21
7.611579067682239
 31
0.0
  0
LINE
  5
16D
330
1F
100
AcDbEntity
  8
VISIBLE
100
AcDbLine
 10
223.0019223508859
 20
-3.069644028986978
 30
0.0
 11
223.0019223508859
 21
-0.6201542862037996
 31
0.0
  0
LINE
  5
16E
330
1F
100
AcDbEntity
  8
VISIBLE
100
AcDbLine
 10
219.3956777668345
 20
-5.151710310352676
 30
0.0
 11
217.2743574232749
 21
-3.926965438961076
 31
0.0
  0
LINE
  5
16F
330
1F
100
AcDbEntity
  8
VISIBLE
100
AcDbLine
 10
216.4965399639697
 20
-6.825528301254575
 30
0.0
 11
217.2036467451563
 21
-6.417280010790712
 31
0.0
  0
LINE
  5
170
330
1F
100
AcDbEntity
  8
VISIBLE
100
AcDbLine
 10
236.7905045840236
 20
4.891197635058322
 30
0.0
 11
237.4976113652102
 21
5.299445925522187
 31
0.0
  0
ELLIPSE
  5
171
330
1F
100
AcDbEntity
  8
VISIBLE
100
AcDbEllipse
 10
206.5974447883693
 20
-11.6426274245803
 30
0.0
 11
0.5
 21
0.0
 31
0.0
210
0.0
220
0.0
230
1.0
 40
0.5773502691894876
 41
3.926990816987231
 42
5.497787143782188
  0
LINE
  5
172
330
1F
100
AcDbEntity
  8
VISIBLE
100
AcDbLine
 10
245.4529928767303
 20
16.42446023012629
 30
0.0
 11
241.4645589724938
 21
14.12173684187029
 31
0.0
  0
LINE
  5
173
330
1F
100
AcDbEntity
  8
VISIBLE
100
AcDbLine
 10
241.4645589724937
 20
11.67224709908711
 30
0.0
 11
241.4645589724937
 21
14.12173684187029
 31
0.0
  0
LINE
  5
174
330
1F
100
AcDbEntity
  8
VISIBLE
100
AcDbLine
 10
230.9922289782939
 20
3.993051396037822
 30
0.0
 11
230.9922289782939
 21
1.543561653254642
 31
0.0
  0
LINE
  5
175
330
1F
100
AcDbEntity
  8
VISIBLE
100
AcDbLine
 10
208.0817508960719
 20
10.09087104997877
 30
0.0
 11
211.6172848020046
 21
12.13211250229809
 31
0.0
  0
LINE
  5
176
330
1F
100
AcDbEntity
  8
VISIBLE
100
AcDbLine
 10
206.2438913977761
 20
-3.926734734813177
 30
0.0
 11
202.7449972055179
 21
-1.906647231046886
 31
0.0
  0
LINE
  5
177
330
1F
100
AcDbEntity
  8
VISIBLE
100
AcDbLine
 10
215.1528187079373
 20
8.539527546216094
 30
0.0
 11
215.1528187079373
 21
10.09087104997877
 31
0.0
  0
LINE
  5
178
330
1F
100
AcDbEntity
  8
VISIBLE
100
AcDbLine
 10
219.3956777668345
 20
-5.151710310352676
 30
0.0
 11
220.1027845480211
 21
-4.743462019888817
 31
0.0
  0
LINE
  5
179
330
1F
100
AcDbEntity
  8
VISIBLE
100
AcDbLine
 10
196.9101001011844
 20
37.39577592203572
 30
0.0
 11
193.381296649727
 21
39.43313154465191
 31
0.0
  0
LINE
  5
17A
330
1F
100
AcDbEntity
  8
VISIBLE
100
AcDbLine
 10
241.4645589724937
 20
14.12173684187029
 30
0.0
 11
237.9295322035445
 21
16.16268549851569
 31
0.0
  0
LINE
  5
17B
330
1F
100
AcDbEntity
  8
VISIBLE
100
AcDbLine
 10
209.5668935931944
 20
-10.33646364823358
 30
0.0
 11
209.5668935931944
 21
-6.253980743594944
 31
0.0
  0
LINE
  5
17C
330
1F
100
AcDbEntity
  8
VISIBLE
100
AcDbLine
 10
193.381296649727
 20
39.43313154465193
 30
0.0
 11
193.381296649727
 21
41.8826212874351
 31
0.0
  0
LINE
  5
17D
330
1F
100
AcDbEntity
  8
VISIBLE
100
AcDbLine
 10
196.2929961679499
 20
11.2412330910128
 30
0.0
 11
201.5210254152076
 21
14.25963718424827
 31
0.0
  0
LINE
  5
17E
330
1F
100
AcDbEntity
  8
VISIBLE
100
AcDbLine
 10
214.0087199359775
 20
12.1608516632631
 30
0.0
 11
214.0087199359775
 21
13.71219516702578
 31
0.0
  0
LINE
  5
17F
330
1F
100
AcDbEntity
  8
VISIBLE
100
AcDbLine
 10
196.9101001011843
 20
36.17103105064412
 30
0.0
 11
235.8082118599848
 21
13.71319575573252
 31
0.0
  0
ELLIPSE
  5
180
330
1F
100
AcDbEntity
  8
VISIBLE
100
AcDbEllipse
 10
202.9839287624013
 20
13.79785029606634
 30
0.0
 11
-1.499999999998067
 21
-8.490985692333197E-13
 31
0.0
210
0.0
220
0.0
230
1.0
 40
0.5773502691898348
 41
-0.7853981633982784
 42
-0.386688626156331
  0
LINE
  5
181
330
1F
100
AcDbEntity
  8
VISIBLE
100
AcDbLine
 10
197.6189214948528
 20
12.57830404207492
 30
0.0
 11
193.9419662326827
 21
14.70119515248701
 31
0.0
  0
LINE
  5
182
330
1F
100
AcDbEntity
  8
VISIBLE
100
AcDbLine
 10
215.1887509696027
 20
-5.131090886412377
 30
0.0
 11
216.4965399639698
 21
-4.376038558471347
 31
0.0
  0
LINE
  5
183
330
1F
100
AcDbEntity
  8
VISIBLE
100
AcDbLine
 10
225.1939533725642
 20
-1.804074328548975
 30
0.0
 11
225.9010601537508
 21
-1.395826038085115
 31
0.0
  0
LINE
  5
184
330
1F
100
AcDbEntity
  8
VISIBLE
100
AcDbLine
 10
214.4816441884161
 20
-3.498097724556978
 30
0.0
 11
213.3502734233705
 21
-2.844900508804592
 31
0.0
  0
LINE
  5
185
330
1F
100
AcDbEntity
  8
VISIBLE
100
AcDbLine
 10
221.0797877478429
 20
12.1608516632631
 30
0.0
 11
217.5442538419102
 21
10.11961021094379
 31
0.0
  0
ELLIPSE
  5
186
330
1F
100
AcDbEntity
  8
VISIBLE
100
AcDbEllipse
 10
197.9707602729641
 20
36.78340348634027
 30
0.0
 11
-1.499999999999915
 21
-5.186961971048731E-13
 31
0.0
210
0.0
220
0.0
230
1.0
 40
0.5773502691895512
 41
-0.785398163397685
 42
0.0
  0
ELLIPSE
  5
187
330
1F
100
AcDbEntity
  8
VISIBLE
100
AcDbEllipse
 10
197.9707602729638
 20
36.78340348634009
 30
0.0
 11
1.499999999999602
 21
0.0
 31
0.0
210
0.0
220
0.0
230
1.0
 40
0.5773502691897663
 41
3.14159265358999
 42
3.926990816987457
  0
LINE
  5
188
330
1F
100
AcDbEntity
  8
VISIBLE
100
AcDbLine
 10
170.5022585561234
 20
28.02020809326572
 30
0.0
 11
170.5022585561234
 21
24.18267416290541
 31
0.0
  0
LINE
  5
189
330
1F
100
AcDbEntity
  8
VISIBLE
100
AcDbLine
 10
228.9949998613631
 20
9.162922571444884
 30
0.0
 11
225.4594659554304
 21
7.121681119125572
 31
0.0
  0
LINE
  5
18A
330
1F
100
AcDbEntity
  8
VISIBLE
100
AcDbLine
 10
217.3006483857287
 20
20.51226042513713
 30
0.0
 11
217.3006483857287
 21
22.06360392889981
 31
0.0
  0
LINE
  5
18B
330
1F
100
AcDbEntity
  8
VISIBLE
100
AcDbLine
 10
219.3941866028505
 20
7.662855167273992
 30
0.0
 11
222.9297205087832
 21
5.621613714954673
 31
0.0
  0
LINE
  5
18C
330
1F
100
AcDbEntity
  8
VISIBLE
100
AcDbLine
 10
217.5442538419102
 20
10.11961021094378
 30
0.0
 11
214.0087199359775
 21
12.1608516632631
 31
0.0
  0
LINE
  5
18D
330
1F
100
AcDbEntity
  8
VISIBLE
100
AcDbLine
 10
201.9232685906234
 20
13.83867512511206
 30
0.0
 11
203.9164345429785
 21
12.68792022598019
 31
0.0
  0
LINE
  5
18E
330
1F
100
AcDbEntity
  8
VISIBLE
100
AcDbLine
 10
239.6896423868884
 20
9.014505368743333
 30
0.0
 11
239.6896423868884
 21
4.932022464104703
 31
0.0
  0
LINE
  5
18F
330
1F
100
AcDbEntity
  8
VISIBLE
100
AcDbLine
 10
228.0930911754291
 20
-0.1302563376471788
 30
0.0
 11
228.8001979566157
 21
0.2779919528166808
 31
0.0
  0
LINE
  5
190
330
1F
100
AcDbEntity
  8
VISIBLE
100
AcDbLine
 10
172.1383488724564
 20
24.8781309056657
 30
0.0
 11
172.1347110558962
 21
24.88021550055463
 31
0.0
  0
ELLIPSE
  5
191
330
1F
100
AcDbEntity
  8
VISIBLE
100
AcDbEllipse
 10
242.9786262795608
 20
17.03653987014817
 30
0.0
 11
1.024999999999977
 21
-3.552713678800501E-15
 31
0.0
210
0.0
220
0.0
230
1.0
 40
0.5773502691896354
 41
-2.356194490192351
 42
0.0
  0
ELLIPSE
  5
192
330
1F
100
AcDbEntity
  8
VISIBLE
100
AcDbEllipse
 10
242.9786262795608
 20
17.03653987014816
 30
0.0
 11
-1.025000000000006
 21
0.0
 31
0.0
210
0.0
220
0.0
230
1.0
 40
0.5773502691896194
 41
-3.141592653589793
 42
0.0
  0
ELLIPSE
  5
193
330
1F
100
AcDbEntity
  8
VISIBLE
100
AcDbEllipse
 10
242.9786262795614
 20
17.0365398701483
 30
0.0
 11
1.025000000000603
 21
0.0
 31
0.0
210
0.0
220
0.0
230
1.0
 40
0.5773502691894704
 41
3.141592653590009
 42
3.926990816987134
  0
LINE
  5
194
330
1F
100
AcDbEntity
  8
VISIBLE
100
AcDbLine
 10
204.5727263243709
 20
22.06360392889981
 30
0.0
 11
210.9366873550498
 21
25.73783854307458
 31
0.0
  0
LINE
  5
195
330
1F
100
AcDbEntity
  8
VISIBLE
100
AcDbLine
 10
211.7589246148726
 20
-7.43790078594018
 30
0.0
 11
212.4660313960592
 21
-7.02965249547632
 31
0.0
  0
LINE
  5
196
330
1F
100
AcDbEntity
  8
VISIBLE
100
AcDbLine
 10
236.7905045840236
 20
4.891197635058322
 30
0.0
 11
234.669184240464
 21
6.115942506449919
 31
0.0
  0
LINE
  5
197
330
1F
100
AcDbEntity
  8
VISIBLE
100
AcDbLine
 10
172.1383488724564
 20
27.08267167417056
 30
0.0
 11
172.1383488724564
 21
24.8781309056657
 31
0.0
  0
LINE
  5
198
330
1F
100
AcDbEntity
  8
VISIBLE
100
AcDbLine
 10
225.4594659554304
 20
11.2041640237642
 30
0.0
 11
228.9949998613632
 21
9.162922571444888
 31
0.0
  0
LINE
  5
199
330
1F
100
AcDbEntity
  8
VISIBLE
100
AcDbLine
 10
219.3941866028505
 20
2.029028758872723
 30
0.0
 11
215.8586526969178
 21
4.070270211192035
 31
0.0
  0
ELLIPSE
  5
19A
330
1F
100
AcDbEntity
  8
VISIBLE
100
AcDbEllipse
 10
214.8351975790094
 20
-4.926966741180486
 30
0.0
 11
0.5000000000000284
 21
0.0
 31
0.0
210
0.0
220
0.0
230
1.0
 40
0.5773502691894761
 41
3.926990816987227
 42
5.497787143782152
  0
ELLIPSE
  5
19B
330
1F
100
AcDbEntity
  8
VISIBLE
100
AcDbEllipse
 10
171.781152680265
 20
24.67609134992418
 30
0.0
 11
-0.499999999999801
 21
0.0
 31
0.0
210
0.0
220
0.0
230
1.0
 40
0.5773502691897457
 41
3.14159265358967
 42
3.926983780352303
  0
ELLIPSE
  5
19C
330
1F
100
AcDbEntity
  8
VISIBLE
100
AcDbEllipse
 10
171.7811526802645
 20
24.67609134992424
 30
0.0
 11
0.5000000000003126
 21
-1.421085471520200E-13
 31
0.0
210
0.0
220
0.0
230
1.0
 40
0.5773502691894818
 41
-0.7816396755782885
 42
0.0
  0
LINE
  5
19D
330
1F
100
AcDbEntity
  8
VISIBLE
100
AcDbLine
 10
177.0174781095193
 20
29.89963825259982
 30
0.0
 11
172.1383488724564
 21
27.08267167417059
 31
0.0
  0
LINE
  5
19E
330
1F
100
AcDbEntity
  8
VISIBLE
100
AcDbLine
 10
211.6172848020046
 20
12.13211250229808
 30
0.0
 11
215.1528187079374
 21
10.09087104997877
 31
0.0
  0
LINE
  5
19F
330
1F
100
AcDbEntity
  8
VISIBLE
100
AcDbLine
 10
212.4660313960592
 20
-7.029652495476277
 30
0.0
 11
212.4660313960592
 21
-4.580162752693099
 31
0.0
  0
LINE
  5
1A0
330
1F
100
AcDbEntity
  8
VISIBLE
100
AcDbLine
 10
228.0930911754291
 20
2.319233405136025
 30
0.0
 11
228.0930911754291
 21
-0.1302563376471539
 31
0.0
  0
LINE
  5
1A1
330
1F
100
AcDbEntity
  8
VISIBLE
100
AcDbLine
 10
220.1027845480211
 20
-2.293972277105677
 30
0.0
 11
222.2948155696994
 21
-1.028402576667705
 31
0.0
  0
LINE
  5
1A2
330
1F
100
AcDbEntity
  8
VISIBLE
100
AcDbLine
 10
219.3956777668345
 20
-2.702220567569476
 30
0.0
 11
219.3956777668345
 21
-5.151710310352655
 31
0.0
  0
LINE
  5
1A3
330
1F
100
AcDbEntity
  8
VISIBLE
100
AcDbLine
 10
172.1347110558962
 20
24.88021550055463
 30
0.0
 11
172.1347110558962
 21
24.47197008280529
 31
0.0
  0
LINE
  5
1A4
330
1F
100
AcDbEntity
  8
VISIBLE
100
AcDbLine
 10
205.6661570359857
 20
-0.2201148165803772
 30
0.0
 11
209.5186046188372
 21
-2.444326465578598
 31
0.0
  0
LINE
  5
1A5
330
1F
100
AcDbEntity
  8
VISIBLE
100
AcDbLine
 10
210.9366873550498
 20
25.73783854307457
 30
0.0
 11
217.3006483857287
 21
22.06360392889981
 31
0.0
  0
LINE
  5
1A6
330
1F
100
AcDbEntity
  8
VISIBLE
100
AcDbLine
 10
208.0817508960719
 20
8.539527546216094
 30
0.0
 11
208.0817508960719
 21
10.09087104997877
 31
0.0
  0
LINE
  5
1A7
330
1F
100
AcDbEntity
  8
VISIBLE
100
AcDbLine
 10
198.8518475452543
 20
9.763879559509842
 30
0.0
 11
198.8518475452543
 21
7.559338791004983
 31
0.0
  0
LINE
  5
1A8
330
1F
100
AcDbEntity
  8
VISIBLE
100
AcDbLine
 10
222.9297205087832
 20
5.621613714954725
 30
0.0
 11
219.3941866028505
 21
3.580372262635413
 31
0.0
  0
LINE
  5
1A9
330
1F
100
AcDbEntity
  8
VISIBLE
100
AcDbLine
 10
217.2036467451562
 20
-3.967790268007477
 30
0.0
 11
219.3956777668345
 21
-2.702220567569505
 31
0.0
  0
ELLIPSE
  5
1AA
330
1F
100
AcDbEntity
  8
VISIBLE
100
AcDbEllipse
 10
212.9967200327772
 20
-3.049024654036486
 30
0.0
 11
-0.5
 21
0.0
 31
0.0
210
0.0
220
0.0
230
1.0
 40
0.5773502691896368
 41
-2.356194490192455
 42
-0.7853981633973381
  0
LINE
  5
1AB
330
1F
100
AcDbEntity
  8
VISIBLE
100
AcDbLine
 10
200.881112308546
 20
42.13793063169442
 30
0.0
 11
196.9101001011844
 21
39.84526566481887
 31
0.0
  0
LINE
  5
1AC
330
1F
100
AcDbEntity
  8
VISIBLE
100
AcDbLine
 10
237.9295322035444
 20
16.16268549851569
 30
0.0
 11
241.917966107781
 21
18.46540888677169
 31
0.0
  0
LINE
  5
1AD
330
1F
100
AcDbEntity
  8
VISIBLE
100
AcDbLine
 10
211.7589246148726
 20
-4.988411043156976
 30
0.0
 11
211.7589246148726
 21
-7.437900785940155
 31
0.0
  0
LINE
  5
1AE
330
1F
100
AcDbEntity
  8
VISIBLE
100
AcDbLine
 10
228.8001979566156
 20
2.727481695599824
 30
0.0
 11
230.9922289782939
 21
3.993051396037794
 31
0.0
  0
LINE
  5
1AF
330
1F
100
AcDbEntity
  8
VISIBLE
100
AcDbLine
 10
211.6172848020046
 20
6.498286093896823
 30
0.0
 11
211.6172848020046
 21
8.049629597659502
 31
0.0
  0
LINE
  5
1B0
330
1F
100
AcDbEntity
  8
VISIBLE
100
AcDbLine
 10
217.2036467451562
 20
-6.417280010790677
 30
0.0
 11
217.2036467451562
 21
-3.967790268007498
 31
0.0
  0
LINE
  5
1B1
330
1F
100
AcDbEntity
  8
VISIBLE
100
AcDbLine
 10
163.0396665015926
 20
19.22094366108647
 30
0.0
 11
172.1360349032271
 21
24.47273440641812
 31
0.0
  0
ELLIPSE
  5
1B2
330
1F
100
AcDbEntity
  8
VISIBLE
100
AcDbEllipse
 10
206.5974447883694
 20
-3.722610589581166
 30
0.0
 11
0.5
 21
3.552713678800501E-15
 31
0.0
210
0.0
220
0.0
230
1.0
 40
0.5773502691898429
 41
3.926990816987237
 42
5.497787143782126
  0
LINE
  5
1B3
330
1F
100
AcDbEntity
  8
VISIBLE
100
AcDbLine
 10
233.8913667811587
 20
3.217379644156523
 30
0.0
 11
231.7700464375991
 21
4.442124515548118
 31
0.0
  0
LINE
  5
1B4
330
1F
100
AcDbEntity
  8
VISIBLE
100
AcDbLine
 10
198.8518475452543
 20
9.763879559509842
 30
0.0
 11
196.2929961679499
 21
11.2412330910128
 31
0.0
  0
LINE
  5
1B5
330
1F
100
AcDbEntity
  8
VISIBLE
100
AcDbLine
 10
206.9509981789626
 20
-11.84675156981218
 30
0.0
 11
209.5668935931944
 21
-10.33646364823358
 31
0.0
  0
LINE
  5
1B6
330
1F
100
AcDbEntity
  8
VISIBLE
100
AcDbLine
 10
230.9922289782939
 20
1.543561653254622
 30
0.0
 11
228.8709086347343
 21
2.768306524646224
 31
0.0
  0
LINE
  5
1B7
330
1F
100
AcDbEntity
  8
VISIBLE
100
AcDbLine
 10
193.9419662326827
 20
14.70119515248701
 30
0.0
 11
198.184606919802
 21
17.15068489527019
 31
0.0
  0
LINE
  5
1B8
330
1F
100
AcDbEntity
  8
VISIBLE
100
AcDbLine
 10
215.1528187079373
 20
8.539527546216094
 30
0.0
 11
211.6172848020046
 21
6.498286093896779
 31
0.0
  0
LINE
  5
1B9
330
1F
100
AcDbEntity
  8
VISIBLE
100
AcDbLine
 10
212.6431666421839
 20
-2.844900508804578
 30
0.0
 11
209.5186046188372
 21
-4.6488672340835
 31
0.0
  0
LINE
  5
1BA
330
1F
100
AcDbEntity
  8
VISIBLE
100
AcDbLine
 10
211.6172848020046
 20
6.498286093896823
 30
0.0
 11
208.0817508960719
 21
8.539527546216133
 31
0.0
  0
LINE
  5
1BB
330
1F
100
AcDbEntity
  8
VISIBLE
100
AcDbLine
 10
225.1939533725642
 20
-1.804074328548975
 30
0.0
 11
223.0726330290046
 21
-0.5793294571573746
 31
0.0
  0
LINE
  5
1BC
330
1F
100
AcDbEntity
  8
VISIBLE
100
AcDbLine
 10
220.1027845480211
 20
-4.743462019888877
 30
0.0
 11
220.1027845480211
 21
-2.293972277105695
 31
0.0
  0
LINE
  5
1BD
330
1F
100
AcDbEntity
  8
VISIBLE
100
AcDbLine
 10
177.0174781095193
 20
29.89963825259982
 30
0.0
 11
177.0174781095193
 21
27.69509748409496
 31
0.0
  0
LINE
  5
1BE
330
1F
100
AcDbEntity
  8
VISIBLE
100
AcDbLine
 10
233.8913667811587
 20
3.217379644156523
 30
0.0
 11
234.5984735623453
 21
3.625627934620391
 31
0.0
  0
LINE
  5
1BF
330
1F
100
AcDbEntity
  8
VISIBLE
100
AcDbLine
 10
221.9239320494976
 20
9.162922571444884
 30
0.0
 11
225.4594659554304
 21
11.2041640237642
 31
0.0
  0
LINE
  5
1C0
330
1F
100
AcDbEntity
  8
VISIBLE
100
AcDbLine
 10
202.4272476069213
 20
13.54770270438651
 30
0.0
 11
202.4272476069213
 21
14.70119515248701
 31
0.0
  0
LINE
  5
1C1
330
1F
100
AcDbEntity
  8
VISIBLE
100
AcDbLine
 10
210.9366873550498
 20
18.38936931472504
 30
0.0
 11
204.5727263243709
 21
22.06360392889981
 31
0.0
  0
LINE
  5
1C2
330
1F
100
AcDbEntity
  8
VISIBLE
100
AcDbLine
 10
217.5442538419102
 20
11.67095371470646
 30
0.0
 11
214.0087199359775
 21
13.71219516702578
 31
0.0
  0
LINE
  5
1C3
330
1F
100
AcDbEntity
  8
VISIBLE
100
AcDbLine
 10
217.3006483857287
 20
20.51226042513713
 30
0.0
 11
210.9366873550498
 21
16.83802581096237
 31
0.0
  0
LINE
  5
1C4
330
1F
100
AcDbEntity
  8
VISIBLE
100
AcDbLine
 10
170.5009347181783
 20
28.42768919282112
 30
0.0
 11
175.0339516926938
 21
31.04482776329881
 31
0.0
  0
ELLIPSE
  5
1C5
330
1F
100
AcDbEntity
  8
VISIBLE
100
AcDbEllipse
 10
199.8204521367661
 20
34.58533725811333
 30
0.0
 11
1.500000000000114
 21
-4.547473508864641E-13
 31
0.0
210
0.0
220
0.0
230
1.0
 40
0.5773502691896831
 41
-0.785398163397242
 42
0.0
  0
LINE
  5
1C6
330
1F
100
AcDbEntity
  8
VISIBLE
100
AcDbLine
 10
225.9010601537508
 20
-1.395826038085175
 30
0.0
 11
225.9010601537508
 21
1.053663704698003
 31
0.0
  0
LINE
  5
1C7
330
1F
100
AcDbEntity
  8
VISIBLE
100
AcDbLine
 10
177.0174781095193
 20
27.69509748409492
 30
0.0
 11
172.1383488724564
 21
24.87813090566568
 31
0.0
  0
LINE
  5
1C8
330
1F
100
AcDbEntity
  8
VISIBLE
100
AcDbLine
 10
217.3006483857287
 20
22.0636039288998
 30
0.0
 11
210.9366873550498
 21
18.38936931472504
 31
0.0
  0
LINE
  5
1C9
330
1F
100
AcDbEntity
  8
VISIBLE
100
AcDbLine
 10
233.8913667811587
 20
5.666869386939624
 30
0.0
 11
233.8913667811587
 21
3.217379644156443
 31
0.0
  0
LINE
  5
1CA
330
1F
100
AcDbEntity
  8
VISIBLE
100
AcDbLine
 10
237.4976113652101
 20
5.299445925522223
 30
0.0
 11
237.4976113652101
 21
7.748935668305403
 31
0.0
  0
ELLIPSE
  5
1CB
330
1F
100
AcDbEntity
  8
VISIBLE
100
AcDbEllipse
 10
196.5582613230718
 20
11.96593160637869
 30
0.0
 11
-1.500000000001165
 21
-6.181721801112872E-13
 31
0.0
210
0.0
220
0.0
230
1.0
 40
0.5773502691894997
 41
-2.841712612488294
 42
-2.356194490192911
  0
ELLIPSE
  5
1CC
330
1F
100
AcDbEntity
  8
VISIBLE
100
AcDbEllipse
 10
170.8558169317555
 20
28.22433224389622
 30
0.0
 11
0.5000000000006537
 21
0.0
 31
0.0
210
0.0
220
0.0
230
1.0
 40
0.5773502691891307
 41
3.141592653589793
 42
3.92699081698661
  0
ELLIPSE
  5
1CD
330
1F
100
AcDbEntity
  8
VISIBLE
100
AcDbEllipse
 10
170.8558169317552
 20
28.22433224389612
 30
0.0
 11
-0.5000000000003411
 21
1.527666881884215E-13
 31
0.0
210
0.0
220
0.0
230
1.0
 40
0.5773502691896054
 41
-0.7816396755782967
 42
0.0
  0
LINE
  5
1CE
330
1F
100
AcDbEntity
  8
VISIBLE
100
AcDbLine
 10
193.9419662326827
 20
13.14985164872433
 30
0.0
 11
193.9419662326827
 21
14.70119515248701
 31
0.0
  0
ELLIPSE
  5
1CF
330
1F
100
AcDbEntity
  8
VISIBLE
100
AcDbEllipse
 10
170.8558169317569
 20
24.38679831353647
 30
0.0
 11
0.5000000000021032
 21
0.0
 31
0.0
210
0.0
220
0.0
230
1.0
 40
0.5773502691886435
 41
3.141592653591676
 42
3.926983780351395
  0
ELLIPSE
  5
1D0
330
1F
100
AcDbEntity
  8
VISIBLE
100
AcDbEllipse
 10
214.8351975790094
 20
-3.293973579325112
 30
0.0
 11
0.5000000000000284
 21
0.0
 31
0.0
210
0.0
220
0.0
230
1.0
 40
0.5773502691894405
 41
3.926990816987197
 42
5.497787143782182
  0
LINE
  5
1D1
330
1F
100
AcDbEntity
  8
VISIBLE
100
AcDbLine
 10
236.7905045840236
 20
7.340687377841522
 30
0.0
 11
236.7905045840236
 21
4.891197635058344
 31
0.0
  0
ELLIPSE
  5
1D2
330
1F
100
AcDbEntity
  8
VISIBLE
100
AcDbEllipse
 10
198.4062385743931
 20
42.75030306739026
 30
0.0
 11
1.025000000000006
 21
-4.973799150320701E-14
 31
0.0
210
0.0
220
0.0
230
1.0
 40
0.5773502691896298
 41
-2.356194490192324
 42
0.0
  0
ELLIPSE
  5
1D3
330
1F
100
AcDbEntity
  8
VISIBLE
100
AcDbEllipse
 10
198.4062385743931
 20
42.75030306739022
 30
0.0
 11
-1.025000000000006
 21
0.0
 31
0.0
210
0.0
220
0.0
230
1.0
 40
0.5773502691896506
 41
-3.141592653589793
 42
0.0
  0
ELLIPSE
  5
1D4
330
1F
100
AcDbEntity
  8
VISIBLE
100
AcDbEllipse
 10
198.4062385743935
 20
42.7503030673902
 30
0.0
 11
1.025000000000375
 21
0.0
 31
0.0
210
0.0
220
0.0
230
1.0
 40
0.5773502691894148
 41
3.141592653589757
 42
3.92699081698705
  0
LINE
  5
1D5
330
1F
100
AcDbEntity
  8
VISIBLE
100
AcDbLine
 10
225.4594659554304
 20
7.121681119125524
 30
0.0
 11
221.9239320494977
 21
9.16292257144484
 31
0.0
  0
LINE
  5
1D6
330
1F
100
AcDbEntity
  8
VISIBLE
100
AcDbLine
 10
203.9164345429785
 20
12.68792022598019
 30
0.0
 11
203.9164345429785
 21
10.48337945747533
 31
0.0
  0
LINE
  5
1D7
330
1F
100
AcDbEntity
  8
VISIBLE
100
AcDbLine
 10
202.7449972055179
 20
-1.906647231046875
 30
0.0
 11
202.7449972055179
 21
-4.111187999551738
 31
0.0
  0
LINE
  5
1D8
330
1F
100
AcDbEntity
  8
VISIBLE
100
AcDbLine
 10
209.5668935931944
 20
-6.253980743594877
 30
0.0
 11
211.7589246148727
 21
-4.988411043156901
 31
0.0
  0
LINE
  5
1D9
330
1F
100
AcDbEntity
  8
VISIBLE
100
AcDbLine
 10
210.9366873550498
 20
16.83802581096236
 30
0.0
 11
210.9366873550498
 21
18.38936931472504
 31
0.0
  0
LINE
  5
1DA
330
1F
100
AcDbEntity
  8
VISIBLE
100
AcDbLine
 10
215.8586526969177
 20
5.621613714954725
 30
0.0
 11
219.3941866028505
 21
7.662855167274035
 31
0.0
  0
LINE
  5
1DB
330
1F
100
AcDbEntity
  8
VISIBLE
100
AcDbLine
 10
228.9949998613631
 20
7.611579067682204
 30
0.0
 11
228.9949998613631
 21
9.162922571444884
 31
0.0
  0
LINE
  5
1DC
330
1F
100
AcDbEntity
  8
VISIBLE
100
AcDbLine
 10
219.3941866028505
 20
2.029028758872723
 30
0.0
 11
219.3941866028505
 21
3.580372262635402
 31
0.0
  0
LINE
  5
1DD
330
1F
100
AcDbEntity
  8
VISIBLE
100
AcDbLine
 10
216.4965399639697
 20
-4.376038558471379
 30
0.0
 11
216.4965399639697
 21
-6.825528301254558
 31
0.0
  0
ELLIPSE
  5
1DE
330
1F
100
AcDbEntity
  8
VISIBLE
100
AcDbEllipse
 10
212.9967200327772
 20
-4.682017815891879
 30
0.0
 11
-0.5000000000000568
 21
0.0
 31
0.0
210
0.0
220
0.0
230
1.0
 40
0.5773502691894788
 41
-2.356194490192327
 42
-0.785398163397466
  0
LINE
  5
1DF
330
1F
100
AcDbEntity
  8
VISIBLE
100
AcDbLine
 10
199.4736292006483
 20
44.17528625431062
 30
0.0
 11
200.881112308546
 21
43.36267550308602
 31
0.0
  0
LINE
  5
1E0
330
1F
100
AcDbEntity
  8
VISIBLE
100
AcDbLine
 10
211.7589246148726
 20
-7.43790078594018
 30
0.0
 11
209.637604271313
 21
-6.21315591454858
 31
0.0
  0
LINE
  5
1E1
330
1F
100
AcDbEntity
  8
VISIBLE
100
AcDbLine
 10
244.0392864513406
 20
18.46540888677169
 30
0.0
 11
245.4529928767303
 21
17.64920510151788
 31
0.0
  0
LINE
  5
1E2
330
1F
100
AcDbEntity
  8
VISIBLE
100
AcDbLine
 10
241.4645589724937
 20
11.67224709908711
 30
0.0
 11
215.1887509696027
 21
-3.498097724556938
 31
0.0
  0
LINE
  5
1E3
330
1F
100
AcDbEntity
  8
VISIBLE
100
AcDbLine
 10
225.4594659554304
 20
5.570337615362924
 30
0.0
 11
225.4594659554304
 21
7.121681119125601
 31
0.0
  0
LINE
  5
1E4
330
1F
100
AcDbEntity
  8
VISIBLE
100
AcDbLine
 10
202.7449972055179
 20
-4.111187999551777
 30
0.0
 11
163.0396665015926
 21
18.81269537062257
 31
0.0
  0
LINE
  5
1E5
330
1F
100
AcDbEntity
  8
VISIBLE
100
AcDbLine
 10
216.4965399639697
 20
-6.825528301254575
 30
0.0
 11
212.5367420741779
 21
-4.539337923646734
 31
0.0
  0
LINE
  5
1E6
330
1F
100
AcDbEntity
  8
VISIBLE
100
AcDbLine
 10
219.3941866028505
 20
3.580372262635324
 30
0.0
 11
215.8586526969178
 21
5.621613714954639
 31
0.0
  0
LINE
  5
1E7
330
1F
100
AcDbEntity
  8
VISIBLE
100
AcDbLine
 10
239.6896423868884
 20
4.932022464104723
 30
0.0
 11
245.4529928767302
 21
8.259494420849053
 31
0.0
  0
LINE
  5
1E8
330
1F
100
AcDbEntity
  8
VISIBLE
100
AcDbLine
 10
228.0930911754291
 20
-0.1302563376471788
 30
0.0
 11
225.9717708318695
 21
1.094488533744425
 31
0.0
  0
LINE
  5
1E9
330
1F
100
AcDbEntity
  8
VISIBLE
100
AcDbLine
 10
202.7449972055179
 20
-1.906647231046875
 30
0.0
 11
205.6661570359857
 21
-0.2201148165803524
 31
0.0
  0
LINE
  5
1EA
330
1F
100
AcDbEntity
  8
VISIBLE
100
AcDbLine
 10
221.0797877478429
 20
13.71219516702577
 30
0.0
 11
217.5442538419102
 21
11.67095371470646
 31
0.0
  0
LINE
  5
1EB
330
1F
100
AcDbEntity
  8
VISIBLE
100
AcDbLine
 10
230.9922289782939
 20
1.543561653254622
 30
0.0
 11
231.6993357594804
 21
1.951809943718487
 31
0.0
  0
ELLIPSE
  5
1EC
330
1F
100
AcDbEntity
  8
VISIBLE
100
AcDbEllipse
 10
202.9839287624028
 20
14.45104756080768
 30
0.0
 11
1.499999999999545
 21
-2.025046796916285E-13
 31
0.0
210
0.0
220
0.0
230
1.0
 40
0.5773502691896603
 41
-2.918730734736112
 42
-2.356194490192164
  0
LINE
  5
1ED
330
1F
100
AcDbEntity
  8
VISIBLE
100
AcDbLine
 10
237.4976113652101
 20
7.748935668305364
 30
0.0
 11
239.6896423868884
 21
9.014505368743336
 31
0.0
  0
ELLIPSE
  5
1EE
330
1F
100
AcDbEntity
  8
VISIBLE
100
AcDbEllipse
 10
163.3932198921869
 20
19.01681951585435
 30
0.0
 11
-0.5000000000009379
 21
2.948752353404416E-13
 31
0.0
210
0.0
220
0.0
230
1.0
 40
0.5773502691891933
 41
-0.7853981633962458
 42
0.0
  0
ELLIPSE
  5
1EF
330
1F
100
AcDbEntity
  8
VISIBLE
100
AcDbEllipse
 10
163.393219892185
 20
19.01681951585434
 30
0.0
 11
0.4999999999990337
 21
0.0
 31
0.0
210
0.0
220
0.0
230
1.0
 40
0.5773502691901417
 41
3.141592653589079
 42
3.926990816987608
  0
LINE
  5
1F0
330
1F
100
AcDbEntity
  8
VISIBLE
100
AcDbLine
 10
196.7703933574289
 20
11.51685848686888
 30
0.0
 11
193.9419662326827
 21
13.14985164872433
 31
0.0
  0
LINE
  5
1F1
330
1F
100
AcDbEntity
  8
VISIBLE
100
AcDbLine
 10
221.0797877478429
 20
12.1608516632631
 30
0.0
 11
221.0797877478429
 21
13.71219516702578
 31
0.0
  0
LINE
  5
1F2
330
1F
100
AcDbEntity
  8
VISIBLE
100
AcDbLine
 10
228.9949998613631
 20
7.611579067682204
 30
0.0
 11
225.4594659554304
 21
5.57033761536289
 31
0.0
  0
LINE
  5
1F3
330
1F
100
AcDbEntity
  8
VISIBLE
100
AcDbLine
 10
225.1939533725642
 20
0.6454154142341224
 30
0.0
 11
225.1939533725642
 21
-1.804074328549056
 31
0.0
  0
LINE
  5
1F4
330
1F
100
AcDbEntity
  8
VISIBLE
100
AcDbLine
 10
176.9431400018975
 20
29.94255737904632
 30
0.0
 11
193.381296649727
 21
39.43313154465193
 31
0.0
  0
LINE
  5
1F5
330
1F
100
AcDbEntity
  8
VISIBLE
100
AcDbLine
 10
231.6993357594804
 20
1.951809943718523
 30
0.0
 11
231.6993357594804
 21
4.401299686501702
 31
0.0
  0
LINE
  5
1F6
330
1F
100
AcDbEntity
  8
VISIBLE
100
AcDbLine
 10
241.4645589724937
 20
11.67224709908711
 30
0.0
 11
237.9295322035445
 21
13.71319575573251
 31
0.0
  0
LINE
  5
1F7
330
1F
100
AcDbEntity
  8
VISIBLE
100
AcDbLine
 10
201.3204521367662
 20
34.58533725811303
 30
0.0
 11
201.3204521367662
 21
42.75030306739028
 31
0.0
  0
LINE
  5
1F8
330
1F
100
AcDbEntity
  8
VISIBLE
100
AcDbLine
 10
162.8932198921858
 20
13.30134344936045
 30
0.0
 11
162.8932198921858
 21
19.01681951585454
 31
0.0
  0
LINE
  5
1F9
330
1F
100
AcDbEntity
  8
VISIBLE
100
AcDbLine
 10
245.8923327049504
 20
8.871866856544823
 30
0.0
 11
245.8923327049504
 21
17.03683266582208
 31
0.0
  0
LINE
  5
1FA
330
1F
100
AcDbEntity
  8
VISIBLE
100
AcDbLine
 10
170.3558169317548
 20
24.38679831353592
 30
0.0
 11
170.3558169317548
 21
28.22433224389624
 31
0.0
  0
LINE
  5
1FB
330
1F
100
AcDbEntity
  8
TANGENT_EDGES
100
AcDbLine
 10
206.2438913977761
 20
-3.926734734813177
 30
0.0
 11
206.2438913977761
 21
-11.84675156981212
 31
0.0
  0
LINE
  5
1FC
330
1F
100
AcDbEntity
  8
TANGENT_EDGES
100
AcDbLine
 10
200.881112308546
 20
33.97296482241723
 30
0.0
 11
200.881112308546
 21
42.13793063169449
 31
0.0
  0
LINE
  5
1FD
330
1F
100
AcDbEntity
  8
TANGENT_EDGES
100
AcDbLine
 10
197.6189214948528
 20
12.57830404207492
 30
0.0
 11
197.6189214948528
 21
12.00675643542551
 31
0.0
  0
LINE
  5
1FE
330
1F
100
AcDbEntity
  8
TANGENT_EDGES
100
AcDbLine
 10
206.9509981789626
 20
-11.84675156981218
 30
0.0
 11
206.9509981789626
 21
-3.926734734813238
 31
0.0
  0
LINE
  5
1FF
330
1F
100
AcDbEntity
  8
TANGENT_EDGES
100
AcDbLine
 10
212.6431666421839
 20
-2.844900508804578
 30
0.0
 11
212.6431666421839
 21
-4.477893670660027
 31
0.0
  0
LINE
  5
200
330
1F
100
AcDbEntity
  8
TANGENT_EDGES
100
AcDbLine
 10
245.4529928767303
 20
8.259494420849034
 30
0.0
 11
245.4529928767303
 21
16.42446023012629
 31
0.0
  0
LINE
  5
201
330
1F
100
AcDbEntity
  8
TANGENT_EDGES
100
AcDbLine
 10
201.9232685906234
 20
13.83867512511206
 30
0.0
 11
201.9232685906234
 21
14.41022273176147
 31
0.0
  0
LINE
  5
202
330
1F
100
AcDbEntity
  8
TANGENT_EDGES
100
AcDbLine
 10
196.9101001011844
 20
37.39577592203572
 30
0.0
 11
196.9101001011844
 21
36.17103105064413
 31
0.0
  0
LINE
  5
203
330
1F
100
AcDbEntity
  8
TANGENT_EDGES
100
AcDbLine
 10
214.4816441884161
 20
-3.498097724556978
 30
0.0
 11
214.4816441884161
 21
-5.13109088641243
 31
0.0
  0
LINE
  5
204
330
1F
100
AcDbEntity
  8
TANGENT_EDGES
100
AcDbLine
 10
215.1887509696027
 20
-5.131090886412377
 30
0.0
 11
215.1887509696027
 21
-3.498097724556924
 31
0.0
  0
LINE
  5
205
330
1F
100
AcDbEntity
  8
TANGENT_EDGES
100
AcDbLine
 10
163.0396665015926
 20
13.09721930412852
 30
0.0
 11
163.0396665015926
 21
18.81269537062261
 31
0.0
  0
LINE
  5
206
330
1F
100
AcDbEntity
  8
TANGENT_EDGES
100
AcDbLine
 10
213.3502734233705
 20
-4.477893670659974
 30
0.0
 11
213.3502734233705
 21
-2.844900508804521
 31
0.0
  0
LINE
  5
207
330
1F
100
AcDbEntity
  8
VISIBLE
100
AcDbLine
 10
191.1647118485349
 20
204.4659441227568
 30
0.0
 11
191.1647118485349
 21
201.3659441227568
 31
0.0
  0
ARC
  5
208
330
1F
100
AcDbEntity
  8
VISIBLE
100
AcDbCircle
 10
189.6647118485349
 20
176.8153356953129
 30
0.0
 40
1.5
100
AcDbArc
 50
270.0
 51
0.0
  0
LINE
  5
209
330
1F
100
AcDbEntity
  8
VISIBLE
100
AcDbLine
 10
191.1647118485349
 20
196.2659441227568
 30
0.0
 11
191.1647118485349
 21
193.1659441227568
 31
0.0
  0
ARC
  5
20A
330
1F
100
AcDbEntity
  8
VISIBLE
100
AcDbCircle
 10
187.6654290485349
 20
176.8153356953129
 30
0.0
 40
1.5
100
AcDbArc
 50
180.0
 51
270.0
  0
LINE
  5
20B
330
1F
100
AcDbEntity
  8
VISIBLE
100
AcDbLine
 10
128.1551918485349
 20
182.4558330153129
 30
0.0
 11
128.1551918485349
 21
176.8399736953129
 31
0.0
  0
LINE
  5
20C
330
1F
100
AcDbEntity
  8
VISIBLE
100
AcDbLine
 10
191.1647118485349
 20
209.5659441227567
 30
0.0
 11
191.1647118485349
 21
208.5659441227567
 31
0.0
  0
LINE
  5
20D
330
1F
100
AcDbEntity
  8
VISIBLE
100
AcDbLine
 10
123.1647101485349
 20
208.5659441227568
 30
0.0
 11
123.1647101485349
 21
209.5659441227568
 31
0.0
  0
LINE
  5
20E
330
1F
100
AcDbEntity
  8
VISIBLE
100
AcDbLine
 10
191.1647118485349
 20
192.1659441227568
 30
0.0
 11
191.1647118485349
 21
189.0659441227568
 31
0.0
  0
LINE
  5
20F
330
1F
100
AcDbEntity
  8
VISIBLE
100
AcDbLine
 10
188.5647119685349
 20
224.9659441227568
 30
0.0
 11
126.4647111685349
 21
224.9659441227568
 31
0.0
  0
LINE
  5
210
330
1F
100
AcDbEntity
  8
VISIBLE
100
AcDbLine
 10
123.1647101485349
 20
200.3659441227568
 30
0.0
 11
123.1647101485349
 21
201.3659441227568
 31
0.0
  0
LINE
  5
211
330
1F
100
AcDbEntity
  8
VISIBLE
100
AcDbLine
 10
123.6647066301925
 20
215.3116754629953
 30
0.0
 11
125.9647146868772
 21
215.3030470545716
 31
0.0
  0
LINE
  5
212
330
1F
100
AcDbEntity
  8
VISIBLE
100
AcDbLine
 10
126.4647111685349
 20
220.8659441227568
 30
0.0
 11
126.4647111685349
 21
221.8659441227568
 31
0.0
  0
LINE
  5
213
330
1F
100
AcDbEntity
  8
VISIBLE
100
AcDbLine
 10
123.1647101485349
 20
189.0659441227568
 30
0.0
 11
123.1647101485349
 21
192.1659441227568
 31
0.0
  0
LINE
  5
214
330
1F
100
AcDbEntity
  8
VISIBLE
100
AcDbLine
 10
126.9647111685349
 20
229.1653788953129
 30
0.0
 11
188.0647119685349
 21
229.1653788953129
 31
0.0
  0
LINE
  5
215
330
1F
100
AcDbEntity
  8
VISIBLE
100
AcDbLine
 10
123.1647101485349
 20
192.1659441227568
 30
0.0
 11
123.1647101485349
 21
193.1659441227568
 31
0.0
  0
LINE
  5
216
330
1F
100
AcDbEntity
  8
VISIBLE
100
AcDbLine
 10
123.1647101485349
 20
184.9659441227568
 30
0.0
 11
191.1647118485349
 21
184.9659441227568
 31
0.0
  0
ARC
  5
217
330
1F
100
AcDbEntity
  8
VISIBLE
100
AcDbCircle
 10
125.9647146868524
 20
215.8030505729141
 30
0.0
 40
0.4999999867640668
100
AcDbArc
 50
270.0
 51
359.7846545106294
  0
LINE
  5
218
330
1F
100
AcDbEntity
  8
VISIBLE
100
AcDbLine
 10
189.0647119685349
 20
220.1154370553129
 30
0.0
 11
190.6647118485349
 21
220.1154370553129
 31
0.0
  0
LINE
  5
219
330
1F
100
AcDbEntity
  8
VISIBLE
100
AcDbLine
 10
123.1647101485349
 20
196.2659441227568
 30
0.0
 11
123.1647101485349
 21
197.2659441227568
 31
0.0
  0
LINE
  5
21A
330
1F
100
AcDbEntity
  8
VISIBLE
100
AcDbLine
 10
191.1647118485349
 20
209.5659441227567
 30
0.0
 11
123.1647101485349
 21
209.5659441227567
 31
0.0
  0
LINE
  5
21B
330
1F
100
AcDbEntity
  8
VISIBLE
100
AcDbLine
 10
123.1647101485349
 20
212.6659441227568
 30
0.0
 11
191.1647118485349
 21
212.6659441227568
 31
0.0
  0
LINE
  5
21C
330
1F
100
AcDbEntity
  8
VISIBLE
100
AcDbLine
 10
189.6647118485349
 20
175.3153356953129
 30
0.0
 11
187.6654290485349
 21
175.3153356953129
 31
0.0
  0
ARC
  5
21D
330
1F
100
AcDbEntity
  8
VISIBLE
100
AcDbCircle
 10
126.9647111685349
 20
228.6653788953129
 30
0.0
 40
0.4999999999999716
100
AcDbArc
 50
90.0
 51
180.0
  0
LINE
  5
21E
330
1F
100
AcDbEntity
  8
VISIBLE
100
AcDbLine
 10
191.1647118485349
 20
208.5659441227568
 30
0.0
 11
191.1647118485349
 21
205.4659441227568
 31
0.0
  0
LINE
  5
21F
330
1F
100
AcDbEntity
  8
VISIBLE
100
AcDbLine
 10
188.5647119685349
 20
220.8659441227568
 30
0.0
 11
188.5647119685349
 21
220.6154370553129
 31
0.0
  0
LINE
  5
220
330
1F
100
AcDbEntity
  8
VISIBLE
100
AcDbLine
 10
191.1647118485349
 20
213.6659441227568
 30
0.0
 11
123.1647101485349
 21
213.6659441227568
 31
0.0
  0
LINE
  5
221
330
1F
100
AcDbEntity
  8
VISIBLE
100
AcDbLine
 10
191.1647118485349
 20
217.7659441227568
 30
0.0
 11
191.1647118485349
 21
216.7659441227568
 31
0.0
  0
LINE
  5
222
330
1F
100
AcDbEntity
  8
VISIBLE
100
AcDbLine
 10
123.1647101485349
 20
213.6659441227568
 30
0.0
 11
123.1647101485349
 21
214.8135511841875
 31
0.0
  0
ARC
  5
223
330
1F
100
AcDbEntity
  8
VISIBLE
100
AcDbCircle
 10
124.6647101485349
 20
176.8399736953129
 30
0.0
 40
1.5
100
AcDbArc
 50
180.0
 51
270.0
  0
LINE
  5
224
330
1F
100
AcDbEntity
  8
VISIBLE
100
AcDbLine
 10
126.4647111685349
 20
217.7659441227568
 30
0.0
 11
126.4647111685349
 21
220.8659441227568
 31
0.0
  0
LINE
  5
225
330
1F
100
AcDbEntity
  8
VISIBLE
100
AcDbLine
 10
191.1647118485349
 20
189.0659441227568
 30
0.0
 11
191.1647118485349
 21
188.0659441227568
 31
0.0
  0
ARC
  5
226
330
1F
100
AcDbEntity
  8
VISIBLE
100
AcDbCircle
 10
188.0647119685347
 20
228.6653788953129
 30
0.0
 40
0.5000000000002274
100
AcDbArc
 50
0.0
 51
89.99999999997394
  0
LINE
  5
227
330
1F
100
AcDbEntity
  8
VISIBLE
100
AcDbLine
 10
191.1647118485349
 20
213.6659441227568
 30
0.0
 11
191.1647118485349
 21
212.6659441227568
 31
0.0
  0
ARC
  5
228
330
1F
100
AcDbEntity
  8
VISIBLE
100
AcDbCircle
 10
184.6654290485349
 20
182.4558330153129
 30
0.0
 40
1.5
100
AcDbArc
 50
0.0
 51
90.0
  0
CIRCLE
  5
229
330
1F
100
AcDbEntity
  8
VISIBLE
100
AcDbCircle
 10
125.6551918485349
 20
177.8399736953129
 30
0.0
 40
1.025000000000006
  0
LINE
  5
22A
330
1F
100
AcDbEntity
  8
VISIBLE
100
AcDbLine
 10
123.1647101485349
 20
201.3659441227568
 30
0.0
 11
123.1647101485349
 21
204.4659441227568
 31
0.0
  0
LINE
  5
22B
330
1F
100
AcDbEntity
  8
VISIBLE
100
AcDbLine
 10
123.1647101485349
 20
197.2659441227568
 30
0.0
 11
123.1647101485349
 21
200.3659441227568
 31
0.0
  0
LINE
  5
22C
330
1F
100
AcDbEntity
  8
VISIBLE
100
AcDbLine
 10
191.1647118485349
 20
219.6154370553129
 30
0.0
 11
191.1647118485349
 21
217.7659441227568
 31
0.0
  0
LINE
  5
22D
330
1F
100
AcDbEntity
  8
VISIBLE
100
AcDbLine
 10
191.1647118485349
 20
205.4659441227568
 30
0.0
 11
191.1647118485349
 21
204.4659441227568
 31
0.0
  0
LINE
  5
22E
330
1F
100
AcDbEntity
  8
VISIBLE
100
AcDbLine
 10
123.1647101485349
 20
204.4659441227568
 30
0.0
 11
191.1647118485349
 21
204.4659441227568
 31
0.0
  0
LINE
  5
22F
330
1F
100
AcDbEntity
  8
VISIBLE
100
AcDbLine
 10
191.1647118485349
 20
201.3659441227568
 30
0.0
 11
191.1647118485349
 21
200.3659441227568
 31
0.0
  0
LINE
  5
230
330
1F
100
AcDbEntity
  8
VISIBLE
100
AcDbLine
 10
188.5647119685349
 20
221.8659441227568
 30
0.0
 11
188.5647119685349
 21
220.8659441227568
 31
0.0
  0
LINE
  5
231
330
1F
100
AcDbEntity
  8
VISIBLE
100
AcDbLine
 10
191.1647118485349
 20
189.0659441227568
 30
0.0
 11
123.1647101485349
 21
189.0659441227568
 31
0.0
  0
ARC
  5
232
330
1F
100
AcDbEntity
  8
VISIBLE
100
AcDbCircle
 10
190.6647118485346
 20
219.6154370553129
 30
0.0
 40
0.5000000000002558
100
AcDbArc
 50
0.0
 51
89.99999999997068
  0
LINE
  5
233
330
1F
100
AcDbEntity
  8
VISIBLE
100
AcDbLine
 10
191.1647118485349
 20
212.6659441227568
 30
0.0
 11
191.1647118485349
 21
209.5659441227567
 31
0.0
  0
CIRCLE
  5
234
330
1F
100
AcDbEntity
  8
VISIBLE
100
AcDbCircle
 10
188.6654290485349
 20
177.8153356953129
 30
0.0
 40
1.025000000000006
  0
LINE
  5
235
330
1F
100
AcDbEntity
  8
VISIBLE
100
AcDbLine
 10
191.1647118485349
 20
216.7659441227568
 30
0.0
 11
191.1647118485349
 21
213.6659441227568
 31
0.0
  0
LINE
  5
236
330
1F
100
AcDbEntity
  8
VISIBLE
100
AcDbLine
 10
191.1647118485349
 20
200.3659441227568
 30
0.0
 11
191.1647118485349
 21
197.2659441227568
 31
0.0
  0
LINE
  5
237
330
1F
100
AcDbEntity
  8
VISIBLE
100
AcDbLine
 10
123.1647101485349
 20
205.4659441227568
 30
0.0
 11
123.1647101485349
 21
208.5659441227568
 31
0.0
  0
LINE
  5
238
330
1F
100
AcDbEntity
  8
VISIBLE
100
AcDbLine
 10
123.1647101485349
 20
200.3659441227568
 30
0.0
 11
191.1647118485349
 21
200.3659441227568
 31
0.0
  0
LINE
  5
239
330
1F
100
AcDbEntity
  8
VISIBLE
100
AcDbLine
 10
126.6551918485349
 20
175.3399736953129
 30
0.0
 11
124.6647101485349
 21
175.3399736953129
 31
0.0
  0
LINE
  5
23A
330
1F
100
AcDbEntity
  8
VISIBLE
100
AcDbLine
 10
123.1647101485349
 20
204.4659441227568
 30
0.0
 11
123.1647101485349
 21
205.4659441227568
 31
0.0
  0
LINE
  5
23B
330
1F
100
AcDbEntity
  8
VISIBLE
100
AcDbLine
 10
191.1647118485349
 20
193.1659441227568
 30
0.0
 11
123.1647101485349
 21
193.1659441227568
 31
0.0
  0
LINE
  5
23C
330
1F
100
AcDbEntity
  8
VISIBLE
100
AcDbLine
 10
184.6654290485349
 20
183.9558330153129
 30
0.0
 11
129.6551918485349
 21
183.9558330153129
 31
0.0
  0
LINE
  5
23D
330
1F
100
AcDbEntity
  8
VISIBLE
100
AcDbLine
 10
123.1647101485349
 20
188.0659441227568
 30
0.0
 11
191.1647118485349
 21
188.0659441227568
 31
0.0
  0
LINE
  5
23E
330
1F
100
AcDbEntity
  8
VISIBLE
100
AcDbLine
 10
188.5647119685349
 20
228.6653788953129
 30
0.0
 11
188.5647119685349
 21
224.9659441227568
 31
0.0
  0
LINE
  5
23F
330
1F
100
AcDbEntity
  8
VISIBLE
100
AcDbLine
 10
191.1647118485349
 20
197.2659441227568
 30
0.0
 11
123.1647101485349
 21
197.2659441227568
 31
0.0
  0
LINE
  5
240
330
1F
100
AcDbEntity
  8
VISIBLE
100
AcDbLine
 10
191.1647118485349
 20
205.4659441227568
 30
0.0
 11
123.1647101485349
 21
205.4659441227568
 31
0.0
  0
LINE
  5
241
330
1F
100
AcDbEntity
  8
VISIBLE
100
AcDbLine
 10
191.1647118485349
 20
193.1659441227568
 30
0.0
 11
191.1647118485349
 21
192.1659441227568
 31
0.0
  0
LINE
  5
242
330
1F
100
AcDbEntity
  8
VISIBLE
100
AcDbLine
 10
126.4647111685349
 20
215.8011713333794
 30
0.0
 11
126.4647111685349
 21
216.7659441227568
 31
0.0
  0
ARC
  5
243
330
1F
100
AcDbEntity
  8
VISIBLE
100
AcDbCircle
 10
126.6551918485349
 20
176.8399736953129
 30
0.0
 40
1.5
100
AcDbArc
 50
270.0
 51
0.0
  0
LINE
  5
244
330
1F
100
AcDbEntity
  8
VISIBLE
100
AcDbLine
 10
126.4647111685349
 20
221.8659441227568
 30
0.0
 11
126.4647111685349
 21
224.9659441227568
 31
0.0
  0
ARC
  5
245
330
1F
100
AcDbEntity
  8
VISIBLE
100
AcDbCircle
 10
123.6647066302174
 20
214.8116719446527
 30
0.0
 40
0.4999999867640668
100
AcDbArc
 50
90.0
 51
179.7846545106295
  0
LINE
  5
246
330
1F
100
AcDbEntity
  8
VISIBLE
100
AcDbLine
 10
123.1647101485349
 20
176.8399736953129
 30
0.0
 11
123.1647101485349
 21
184.9659441227568
 31
0.0
  0
LINE
  5
247
330
1F
100
AcDbEntity
  8
VISIBLE
100
AcDbLine
 10
126.4647111685349
 20
216.7659441227568
 30
0.0
 11
191.1647118485349
 21
216.7659441227568
 31
0.0
  0
LINE
  5
248
330
1F
100
AcDbEntity
  8
VISIBLE
100
AcDbLine
 10
186.1654290485349
 20
176.8153356953129
 30
0.0
 11
186.1654290485349
 21
182.4558330153129
 31
0.0
  0
ARC
  5
249
330
1F
100
AcDbEntity
  8
VISIBLE
100
AcDbCircle
 10
129.6551918485349
 20
182.4558330153129
 30
0.0
 40
1.5
100
AcDbArc
 50
90.0
 51
180.0
  0
LINE
  5
24A
330
1F
100
AcDbEntity
  8
VISIBLE
100
AcDbLine
 10
123.1647101485349
 20
192.1659441227568
 30
0.0
 11
191.1647118485349
 21
192.1659441227568
 31
0.0
  0
LINE
  5
24B
330
1F
100
AcDbEntity
  8
VISIBLE
100
AcDbLine
 10
188.5647119685349
 20
224.9659441227568
 30
0.0
 11
188.5647119685349
 21
221.8659441227568
 31
0.0
  0
ARC
  5
24C
330
1F
100
AcDbEntity
  8
VISIBLE
100
AcDbCircle
 10
189.0647119685349
 20
220.6154370553129
 30
0.0
 40
0.5000000000000284
100
AcDbArc
 50
180.0
 51
269.9999999999968
  0
LINE
  5
24D
330
1F
100
AcDbEntity
  8
VISIBLE
100
AcDbLine
 10
123.1647101485349
 20
188.0659441227568
 30
0.0
 11
123.1647101485349
 21
189.0659441227568
 31
0.0
  0
LINE
  5
24E
330
1F
100
AcDbEntity
  8
VISIBLE
100
AcDbLine
 10
126.4647111685349
 20
220.8659441227568
 30
0.0
 11
188.5647119685349
 21
220.8659441227568
 31
0.0
  0
LINE
  5
24F
330
1F
100
AcDbEntity
  8
VISIBLE
100
AcDbLine
 10
123.1647101485349
 20
196.2659441227568
 30
0.0
 11
191.1647118485349
 21
196.2659441227568
 31
0.0
  0
LINE
  5
250
330
1F
100
AcDbEntity
  8
VISIBLE
100
AcDbLine
 10
188.5647119685349
 20
221.8659441227568
 30
0.0
 11
126.4647111685349
 21
221.8659441227568
 31
0.0
  0
LINE
  5
251
330
1F
100
AcDbEntity
  8
VISIBLE
100
AcDbLine
 10
123.1647101485349
 20
193.1659441227568
 30
0.0
 11
123.1647101485349
 21
196.2659441227568
 31
0.0
  0
LINE
  5
252
330
1F
100
AcDbEntity
  8
VISIBLE
100
AcDbLine
 10
191.1647118485349
 20
217.7659441227568
 30
0.0
 11
126.4647111685349
 21
217.7659441227568
 31
0.0
  0
LINE
  5
253
330
1F
100
AcDbEntity
  8
VISIBLE
100
AcDbLine
 10
123.1647101485349
 20
208.5659441227568
 30
0.0
 11
191.1647118485349
 21
208.5659441227568
 31
0.0
  0
LINE
  5
254
330
1F
100
AcDbEntity
  8
VISIBLE
100
AcDbLine
 10
123.1647101485349
 20
212.6659441227568
 30
0.0
 11
123.1647101485349
 21
213.6659441227568
 31
0.0
  0
LINE
  5
255
330
1F
100
AcDbEntity
  8
VISIBLE
100
AcDbLine
 10
191.1647118485349
 20
184.9659441227568
 30
0.0
 11
191.1647118485349
 21
176.8153356953129
 31
0.0
  0
LINE
  5
256
330
1F
100
AcDbEntity
  8
VISIBLE
100
AcDbLine
 10
123.1647101485349
 20
184.9659441227568
 30
0.0
 11
123.1647101485349
 21
188.0659441227568
 31
0.0
  0
LINE
  5
257
330
1F
100
AcDbEntity
  8
VISIBLE
100
AcDbLine
 10
191.1647118485349
 20
201.3659441227568
 30
0.0
 11
123.1647101485349
 21
201.3659441227568
 31
0.0
  0
LINE
  5
258
330
1F
100
AcDbEntity
  8
VISIBLE
100
AcDbLine
 10
126.4647111685349
 20
224.9659441227568
 30
0.0
 11
126.4647111685349
 21
228.6653788953129
 31
0.0
  0
LINE
  5
259
330
1F
100
AcDbEntity
  8
VISIBLE
100
AcDbLine
 10
191.1647118485349
 20
197.2659441227568
 30
0.0
 11
191.1647118485349
 21
196.2659441227568
 31
0.0
  0
LINE
  5
25A
330
1F
100
AcDbEntity
  8
VISIBLE
100
AcDbLine
 10
123.1647101485349
 20
209.5659441227568
 30
0.0
 11
123.1647101485349
 21
212.6659441227568
 31
0.0
  0
LINE
  5
25B
330
1F
100
AcDbEntity
  8
VISIBLE
100
AcDbLine
 10
191.1647118485349
 20
188.0659441227568
 30
0.0
 11
191.1647118485349
 21
184.9659441227568
 31
0.0
  0
LINE
  5
25C
330
1F
100
AcDbEntity
  8
VISIBLE
100
AcDbLine
 10
126.4647111685349
 20
216.7659441227568
 30
0.0
 11
126.4647111685349
 21
217.7659441227568
 31
0.0
  0
LINE
  5
25D
330
1F
100
AcDbEntity
  8
VISIBLE
100
AcDbLine
 10
20.0663966686615
 20
148.808413696289
 30
0.0
 11
20.0663966686615
 21
146.108413696289
 31
0.0
  0
LINE
  5
25E
330
1F
100
AcDbEntity
  8
VISIBLE
100
AcDbLine
 10
40.63468759111053
 20
144.108413696289
 30
0.0
 11
43.73468759111053
 21
144.108413696289
 31
0.0
  0
LINE
  5
25F
330
1F
100
AcDbEntity
  8
VISIBLE
100
AcDbLine
 10
35.53468759111053
 20
144.108413696289
 30
0.0
 11
35.53468759111053
 21
141.108413696289
 31
0.0
  0
LINE
  5
260
330
1F
100
AcDbEntity
  8
VISIBLE
100
AcDbLine
 10
69.78529601855439
 20
139.108413696289
 30
0.0
 11
68.28529601855439
 21
139.108413696289
 31
0.0
  0
LINE
  5
261
330
1F
100
AcDbEntity
  8
VISIBLE
100
AcDbLine
 10
48.83468759111049
 20
144.108413696289
 30
0.0
 11
51.9346875911105
 21
144.108413696289
 31
0.0
  0
LINE
  5
262
330
1F
100
AcDbEntity
  8
VISIBLE
100
AcDbLine
 10
40.22820652678052
 20
146.108413696289
 30
0.0
 11
40.22820652678052
 21
148.008413696289
 31
0.0
  0
LINE
  5
263
330
1F
100
AcDbEntity
  8
VISIBLE
100
AcDbLine
 10
35.53468759111053
 20
141.108413696289
 30
0.0
 11
36.53468759111053
 21
141.108413696289
 31
0.0
  0
LINE
  5
264
330
1F
100
AcDbEntity
  8
VISIBLE
100
AcDbLine
 10
15.9352528185544
 20
148.808413696289
 30
0.0
 11
15.9352528185544
 21
139.108413696289
 31
0.0
  0
LINE
  5
265
330
1F
100
AcDbEntity
  8
VISIBLE
100
AcDbLine
 10
52.9346875911105
 20
144.108413696289
 30
0.0
 11
56.0346875911105
 21
144.108413696289
 31
0.0
  0
LINE
  5
266
330
1F
100
AcDbEntity
  8
VISIBLE
100
AcDbLine
 10
35.22820652678051
 20
148.008413696289
 30
0.0
 11
35.2028065267805
 21
148.008413696289
 31
0.0
  0
LINE
  5
267
330
1F
100
AcDbEntity
  8
VISIBLE
100
AcDbLine
 10
34.6382057467805
 20
148.808413696289
 30
0.0
 11
27.4757981267805
 21
148.808413696289
 31
0.0
  0
LINE
  5
268
330
1F
100
AcDbEntity
  8
VISIBLE
100
AcDbLine
 10
52.9346875911105
 20
141.108413696289
 30
0.0
 11
52.9346875911105
 21
144.108413696289
 31
0.0
  0
LINE
  5
269
330
1F
100
AcDbEntity
  8
VISIBLE
100
AcDbLine
 10
68.28529601855439
 20
149.108413696289
 30
0.0
 11
69.78529601855439
 21
149.108413696289
 31
0.0
  0
LINE
  5
26A
330
1F
100
AcDbEntity
  8
VISIBLE
100
AcDbLine
 10
20.0663966686615
 20
148.808413696289
 30
0.0
 11
16.4352528185544
 21
148.808413696289
 31
0.0
  0
LINE
  5
26B
330
1F
100
AcDbEntity
  8
VISIBLE
100
AcDbLine
 10
44.73468759111053
 20
141.108413696289
 30
0.0
 11
44.73468759111053
 21
144.108413696289
 31
0.0
  0
LINE
  5
26C
330
1F
100
AcDbEntity
  8
VISIBLE
100
AcDbLine
 10
43.8290046667805
 20
146.108413696289
 30
0.0
 11
43.8290046667805
 21
148.008413696289
 31
0.0
  0
LINE
  5
26D
330
1F
100
AcDbEntity
  8
VISIBLE
100
AcDbLine
 10
36.53468759111053
 20
144.108413696289
 30
0.0
 11
39.63468759111053
 21
144.108413696289
 31
0.0
  0
LINE
  5
26E
330
1F
100
AcDbEntity
  8
VISIBLE
100
AcDbLine
 10
24.2346875911105
 20
144.108413696289
 30
0.0
 11
24.4851946585544
 21
144.108413696289
 31
0.0
  0
LINE
  5
26F
330
1F
100
AcDbEntity
  8
VISIBLE
100
AcDbLine
 10
36.53468759111053
 20
141.108413696289
 30
0.0
 11
36.53468759111053
 21
144.108413696289
 31
0.0
  0
LINE
  5
270
330
1F
100
AcDbEntity
  8
VISIBLE
100
AcDbLine
 10
27.33468759111053
 20
141.108413696289
 30
0.0
 11
28.33468759111053
 21
141.108413696289
 31
0.0
  0
LINE
  5
271
330
1F
100
AcDbEntity
  8
VISIBLE
100
AcDbLine
 10
56.0346875911105
 20
141.108413696289
 30
0.0
 11
57.0346875911105
 21
141.108413696289
 31
0.0
  0
LINE
  5
272
330
1F
100
AcDbEntity
  8
VISIBLE
100
AcDbLine
 10
15.9352528185544
 20
139.108413696289
 30
0.0
 11
16.43525281855441
 21
139.108413696289
 31
0.0
  0
LINE
  5
273
330
1F
100
AcDbEntity
  8
VISIBLE
100
AcDbLine
 10
68.28529601855439
 20
149.108413696289
 30
0.0
 11
62.6447986985544
 21
149.108413696289
 31
0.0
  0
LINE
  5
274
330
1F
100
AcDbEntity
  8
VISIBLE
100
AcDbLine
 10
62.6447986985544
 20
146.108413696289
 30
0.0
 11
62.6447986985544
 21
149.108413696289
 31
0.0
  0
LINE
  5
275
330
1F
100
AcDbEntity
  8
VISIBLE
100
AcDbLine
 10
47.8346875911105
 20
144.108413696289
 30
0.0
 11
47.8346875911105
 21
141.108413696289
 31
0.0
  0
LINE
  5
276
330
1F
100
AcDbEntity
  8
VISIBLE
100
AcDbLine
 10
31.43468759111052
 20
141.108413696289
 30
0.0
 11
32.43468759111052
 21
141.108413696289
 31
0.0
  0
LINE
  5
277
330
1F
100
AcDbEntity
  8
VISIBLE
100
AcDbLine
 10
20.1346875911105
 20
139.108413696289
 30
0.0
 11
20.1346875911105
 21
144.108413696289
 31
0.0
  0
LINE
  5
278
330
1F
100
AcDbEntity
  8
VISIBLE
100
AcDbLine
 10
35.2028065267805
 20
148.008413696289
 30
0.0
 11
34.86934799273555
 21
148.008413696289
 31
0.0
  0
LINE
  5
279
330
1F
100
AcDbEntity
  8
VISIBLE
100
AcDbLine
 10
25.4851946585544
 20
144.108413696289
 30
0.0
 11
27.33468759111052
 21
144.108413696289
 31
0.0
  0
LINE
  5
27A
330
1F
100
AcDbEntity
  8
VISIBLE
100
AcDbLine
 10
39.63468759111053
 20
141.108413696289
 30
0.0
 11
40.63468759111053
 21
141.108413696289
 31
0.0
  0
LINE
  5
27B
330
1F
100
AcDbEntity
  8
VISIBLE
100
AcDbLine
 10
48.8542065467805
 20
148.008413696289
 30
0.0
 11
43.8542065467805
 21
148.008413696289
 31
0.0
  0
LINE
  5
27C
330
1F
100
AcDbEntity
  8
VISIBLE
100
AcDbLine
 10
56.3850946467805
 20
146.108413696289
 30
0.0
 11
56.3850946467805
 21
148.008413696289
 31
0.0
  0
LINE
  5
27D
330
1F
100
AcDbEntity
  8
VISIBLE
100
AcDbLine
 10
60.1346875911105
 20
144.108413696289
 30
0.0
 11
60.1346875911105
 21
139.108413696289
 31
0.0
  0
LINE
  5
27E
330
1F
100
AcDbEntity
  8
VISIBLE
100
AcDbLine
 10
43.73468759111052
 20
141.108413696289
 30
0.0
 11
44.73468759111052
 21
141.108413696289
 31
0.0
  0
LINE
  5
27F
330
1F
100
AcDbEntity
  8
VISIBLE
100
AcDbLine
 10
23.2346875911105
 20
141.108413696289
 30
0.0
 11
24.2346875911105
 21
141.108413696289
 31
0.0
  0
LINE
  5
280
330
1F
100
AcDbEntity
  8
VISIBLE
100
AcDbLine
 10
24.9851946585544
 20
144.108413696289
 30
0.0
 11
25.4851946585544
 21
144.108413696289
 31
0.0
  0
LINE
  5
281
330
1F
100
AcDbEntity
  8
VISIBLE
100
AcDbLine
 10
36.69773462678052
 20
148.808413696289
 30
0.0
 11
34.86934799273554
 21
148.808413696289
 31
0.0
  0
LINE
  5
282
330
1F
100
AcDbEntity
  8
VISIBLE
100
AcDbLine
 10
24.2346875911105
 20
141.108413696289
 30
0.0
 11
24.2346875911105
 21
144.108413696289
 31
0.0
  0
LINE
  5
283
330
1F
100
AcDbEntity
  8
VISIBLE
100
AcDbLine
 10
43.73468759111053
 20
144.108413696289
 30
0.0
 11
43.73468759111053
 21
141.108413696289
 31
0.0
  0
LINE
  5
284
330
1F
100
AcDbEntity
  8
VISIBLE
100
AcDbLine
 10
32.43468759111053
 20
144.108413696289
 30
0.0
 11
35.53468759111053
 21
144.108413696289
 31
0.0
  0
LINE
  5
285
330
1F
100
AcDbEntity
  8
VISIBLE
100
AcDbLine
 10
31.43468759111053
 20
144.108413696289
 30
0.0
 11
31.43468759111053
 21
141.108413696289
 31
0.0
  0
LINE
  5
286
330
1F
100
AcDbEntity
  8
VISIBLE
100
AcDbLine
 10
27.4757981267805
 20
148.808413696289
 30
0.0
 11
27.4757981267805
 21
146.108413696289
 31
0.0
  0
LINE
  5
287
330
1F
100
AcDbEntity
  8
VISIBLE
100
AcDbLine
 10
40.22820652678052
 20
148.008413696289
 30
0.0
 11
35.22820652678052
 21
148.008413696289
 31
0.0
  0
LINE
  5
288
330
1F
100
AcDbEntity
  8
VISIBLE
100
AcDbLine
 10
69.78529601855439
 20
139.108413696289
 30
0.0
 11
69.78529601855439
 21
149.108413696289
 31
0.0
  0
LINE
  5
289
330
1F
100
AcDbEntity
  8
VISIBLE
100
AcDbLine
 10
28.33468759111053
 20
144.108413696289
 30
0.0
 11
31.43468759111053
 21
144.108413696289
 31
0.0
  0
LINE
  5
28A
330
1F
100
AcDbEntity
  8
VISIBLE
100
AcDbLine
 10
24.4851946585544
 20
146.108413696289
 30
0.0
 11
24.98519465855441
 21
146.108413696289
 31
0.0
  0
LINE
  5
28B
330
1F
100
AcDbEntity
  8
VISIBLE
100
AcDbLine
 10
23.2346875911105
 20
144.108413696289
 30
0.0
 11
23.2346875911105
 21
141.108413696289
 31
0.0
  0
LINE
  5
28C
330
1F
100
AcDbEntity
  8
VISIBLE
100
AcDbLine
 10
44.73468759111053
 20
144.108413696289
 30
0.0
 11
47.83468759111051
 21
144.108413696289
 31
0.0
  0
LINE
  5
28D
330
1F
100
AcDbEntity
  8
VISIBLE
100
AcDbLine
 10
35.2028065267805
 20
146.108413696289
 30
0.0
 11
35.2028065267805
 21
148.008413696289
 31
0.0
  0
LINE
  5
28E
330
1F
100
AcDbEntity
  8
VISIBLE
100
AcDbLine
 10
28.33468759111053
 20
141.108413696289
 30
0.0
 11
28.33468759111053
 21
144.108413696289
 31
0.0
  0
LINE
  5
28F
330
1F
100
AcDbEntity
  8
VISIBLE
100
AcDbLine
 10
15.9352528185544
 20
148.808413696289
 30
0.0
 11
16.4352528185544
 21
148.808413696289
 31
0.0
  0
LINE
  5
290
330
1F
100
AcDbEntity
  8
VISIBLE
100
AcDbLine
 10
16.4352528185544
 20
139.108413696289
 30
0.0
 11
20.13468759111051
 21
139.108413696289
 31
0.0
  0
LINE
  5
291
330
1F
100
AcDbEntity
  8
VISIBLE
100
AcDbLine
 10
24.4851946585544
 20
146.108413696289
 30
0.0
 11
20.0663966686615
 21
146.108413696289
 31
0.0
  0
LINE
  5
292
330
1F
100
AcDbEntity
  8
VISIBLE
100
AcDbLine
 10
32.43468759111053
 20
141.108413696289
 30
0.0
 11
32.43468759111053
 21
144.108413696289
 31
0.0
  0
LINE
  5
293
330
1F
100
AcDbEntity
  8
VISIBLE
100
AcDbLine
 10
36.69773462678052
 20
148.808413696289
 30
0.0
 11
36.69773462678052
 21
148.008413696289
 31
0.0
  0
LINE
  5
294
330
1F
100
AcDbEntity
  8
VISIBLE
100
AcDbLine
 10
51.9346875911105
 20
141.108413696289
 30
0.0
 11
52.9346875911105
 21
141.108413696289
 31
0.0
  0
LINE
  5
295
330
1F
100
AcDbEntity
  8
VISIBLE
100
AcDbLine
 10
34.86934799273555
 20
148.008413696289
 30
0.0
 11
34.86934799273555
 21
148.808413696289
 31
0.0
  0
LINE
  5
296
330
1F
100
AcDbEntity
  8
VISIBLE
100
AcDbLine
 10
40.63468759111053
 20
141.108413696289
 30
0.0
 11
40.63468759111053
 21
144.108413696289
 31
0.0
  0
LINE
  5
297
330
1F
100
AcDbEntity
  8
VISIBLE
100
AcDbLine
 10
56.3850946467805
 20
148.008413696289
 30
0.0
 11
48.8542065467805
 21
148.008413696289
 31
0.0
  0
LINE
  5
298
330
1F
100
AcDbEntity
  8
VISIBLE
100
AcDbLine
 10
51.9346875911105
 20
144.108413696289
 30
0.0
 11
51.9346875911105
 21
141.108413696289
 31
0.0
  0
LINE
  5
299
330
1F
100
AcDbEntity
  8
VISIBLE
100
AcDbLine
 10
57.0346875911105
 20
141.108413696289
 30
0.0
 11
57.0346875911105
 21
144.108413696289
 31
0.0
  0
LINE
  5
29A
330
1F
100
AcDbEntity
  8
VISIBLE
100
AcDbLine
 10
25.4851946585544
 20
146.108413696289
 30
0.0
 11
24.9851946585544
 21
146.108413696289
 31
0.0
  0
LINE
  5
29B
330
1F
100
AcDbEntity
  8
VISIBLE
100
AcDbLine
 10
56.0346875911105
 20
144.108413696289
 30
0.0
 11
56.0346875911105
 21
141.108413696289
 31
0.0
  0
LINE
  5
29C
330
1F
100
AcDbEntity
  8
VISIBLE
100
AcDbLine
 10
34.6382057467805
 20
148.808413696289
 30
0.0
 11
34.6382057467805
 21
146.108413696289
 31
0.0
  0
LINE
  5
29D
330
1F
100
AcDbEntity
  8
VISIBLE
100
AcDbLine
 10
24.9851946585544
 20
146.108413696289
 30
0.0
 11
24.9851946585544
 21
144.108413696289
 31
0.0
  0
LINE
  5
29E
330
1F
100
AcDbEntity
  8
VISIBLE
100
AcDbLine
 10
20.1346875911105
 20
144.108413696289
 30
0.0
 11
23.2346875911105
 21
144.108413696289
 31
0.0
  0
LINE
  5
29F
330
1F
100
AcDbEntity
  8
VISIBLE
100
AcDbLine
 10
48.8542065467805
 20
146.108413696289
 30
0.0
 11
48.8542065467805
 21
148.008413696289
 31
0.0
  0
LINE
  5
2A0
330
1F
100
AcDbEntity
  8
VISIBLE
100
AcDbLine
 10
35.22820652678052
 20
146.108413696289
 30
0.0
 11
35.22820652678052
 21
148.008413696289
 31
0.0
  0
LINE
  5
2A1
330
1F
100
AcDbEntity
  8
VISIBLE
100
AcDbLine
 10
27.33468759111053
 20
144.108413696289
 30
0.0
 11
27.33468759111053
 21
141.108413696289
 31
0.0
  0
LINE
  5
2A2
330
1F
100
AcDbEntity
  8
VISIBLE
100
AcDbLine
 10
24.9851946585544
 20
144.108413696289
 30
0.0
 11
24.4851946585544
 21
144.108413696289
 31
0.0
  0
LINE
  5
2A3
330
1F
100
AcDbEntity
  8
VISIBLE
100
AcDbLine
 10
62.6447986985544
 20
146.108413696289
 30
0.0
 11
25.4851946585544
 21
146.108413696289
 31
0.0
  0
LINE
  5
2A4
330
1F
100
AcDbEntity
  8
VISIBLE
100
AcDbLine
 10
43.85420654678051
 20
146.108413696289
 30
0.0
 11
43.85420654678051
 21
148.008413696289
 31
0.0
  0
LINE
  5
2A5
330
1F
100
AcDbEntity
  8
VISIBLE
100
AcDbLine
 10
60.1346875911105
 20
139.108413696289
 30
0.0
 11
68.28529601855439
 21
139.108413696289
 31
0.0
  0
LINE
  5
2A6
330
1F
100
AcDbEntity
  8
VISIBLE
100
AcDbLine
 10
43.8542065467805
 20
148.008413696289
 30
0.0
 11
43.8290046667805
 21
148.008413696289
 31
0.0
  0
LINE
  5
2A7
330
1F
100
AcDbEntity
  8
VISIBLE
100
AcDbLine
 10
47.8346875911105
 20
141.108413696289
 30
0.0
 11
48.83468759111049
 21
141.108413696289
 31
0.0
  0
LINE
  5
2A8
330
1F
100
AcDbEntity
  8
VISIBLE
100
AcDbLine
 10
34.86934799273555
 20
148.808413696289
 30
0.0
 11
34.6382057467805
 21
148.808413696289
 31
0.0
  0
LINE
  5
2A9
330
1F
100
AcDbEntity
  8
VISIBLE
100
AcDbLine
 10
57.0346875911105
 20
144.108413696289
 30
0.0
 11
60.1346875911105
 21
144.108413696289
 31
0.0
  0
LINE
  5
2AA
330
1F
100
AcDbEntity
  8
VISIBLE
100
AcDbLine
 10
39.63468759111053
 20
144.108413696289
 30
0.0
 11
39.63468759111053
 21
141.108413696289
 31
0.0
  0
LINE
  5
2AB
330
1F
100
AcDbEntity
  8
VISIBLE
100
AcDbLine
 10
48.83468759111049
 20
141.108413696289
 30
0.0
 11
48.83468759111049
 21
144.108413696289
 31
0.0
  0
LINE
  5
2AC
330
1F
100
AcDbEntity
  8
TANGENT_EDGES
100
AcDbLine
 10
16.4352528185544
 20
139.108413696289
 30
0.0
 11
16.4352528185544
 21
148.808413696289
 31
0.0
  0
LINE
  5
2AD
330
1F
100
AcDbEntity
  8
TANGENT_EDGES
100
AcDbLine
 10
24.4851946585544
 20
146.108413696289
 30
0.0
 11
24.4851946585544
 21
144.108413696289
 31
0.0
  0
LINE
  5
2AE
330
1F
100
AcDbEntity
  8
TANGENT_EDGES
100
AcDbLine
 10
68.28529601855439
 20
139.108413696289
 30
0.0
 11
68.28529601855439
 21
149.108413696289
 31
0.0
  0
LINE
  5
2AF
330
1F
100
AcDbEntity
  8
TANGENT_EDGES
100
AcDbLine
 10
25.4851946585544
 20
144.108413696289
 30
0.0
 11
25.4851946585544
 21
146.108413696289
 31
0.0
  0
LINE
  5
2B0
330
1F
100
AcDbEntity
  8
VISIBLE
100
AcDbLine
 10
75.0062721181909
 20
28.86175334214928
 30
0.0
 11
75.25340085592529
 21
29.00443318540471
 31
0.0
  0
LINE
  5
2B1
330
1F
100
AcDbEntity
  8
VISIBLE
100
AcDbLine
 10
76.24335043443926
 20
29.57598084104391
 30
0.0
 11
76.31406111255794
 21
29.61680567009031
 31
0.0
  0
LINE
  5
2B2
330
1F
100
AcDbEntity
  8
VISIBLE
100
AcDbLine
 10
124.1553418329271
 20
0.16905817227995
 30
0.0
 11
125.7792000569375
 21
-0.7755375651191159
 31
0.0
  0
LINE
  5
2B3
330
1F
100
AcDbEntity
  8
VISIBLE
100
AcDbLine
 10
93.708887929747
 20
39.65971361550133
 30
0.0
 11
93.708887929747
 21
42.10920335828451
 31
0.0
  0
LINE
  5
2B4
330
1F
100
AcDbEntity
  8
VISIBLE
100
AcDbLine
 10
145.3983948365652
 20
13.98089545130224
 30
0.0
 11
145.3983948365652
 21
16.43038519408542
 31
0.0
  0
LINE
  5
2B5
330
1F
100
AcDbEntity
  8
VISIBLE
100
AcDbLine
 10
136.7009814279706
 20
11.40893122137992
 30
0.0
 11
135.9938746467841
 21
11.00068293091605
 31
0.0
  0
LINE
  5
2B6
330
1F
100
AcDbEntity
  8
VISIBLE
100
AcDbLine
 10
125.7792025447462
 20
-0.7755390122734589
 30
0.0
 11
125.7792025447462
 21
3.061994918086855
 31
0.0
  0
LINE
  5
2B7
330
1F
100
AcDbEntity
  8
VISIBLE
100
AcDbLine
 10
133.0947368439192
 20
6.877375197231034
 30
0.0
 11
85.01147452115248
 21
34.63825964279582
 31
0.0
  0
LINE
  5
2B8
330
1F
100
AcDbEntity
  8
VISIBLE
100
AcDbLine
 10
128.0035680193761
 20
6.387477248674402
 30
0.0
 11
127.2964612381895
 21
5.979228958210538
 31
0.0
  0
LINE
  5
2B9
330
1F
100
AcDbEntity
  8
VISIBLE
100
AcDbLine
 10
133.0947368439192
 20
9.326864940014213
 30
0.0
 11
133.0947368439192
 21
6.877375197231034
 31
0.0
  0
LINE
  5
2BA
330
1F
100
AcDbEntity
  8
VISIBLE
100
AcDbLine
 10
135.9938746467841
 20
8.55119318813287
 30
0.0
 11
133.8018436251058
 21
7.285623487694902
 31
0.0
  0
LINE
  5
2BB
330
1F
100
AcDbEntity
  8
VISIBLE
100
AcDbLine
 10
145.8365389923913
 20
22.39105224748337
 30
0.0
 11
149.807551199753
 21
24.68371721435891
 31
0.0
  0
LINE
  5
2BC
330
1F
100
AcDbEntity
  8
VISIBLE
100
AcDbLine
 10
142.4992570337003
 20
14.75656720318358
 30
0.0
 11
141.7921502525137
 21
14.34831891271972
 31
0.0
  0
LINE
  5
2BD
330
1F
100
AcDbEntity
  8
VISIBLE
100
AcDbLine
 10
119.8718393144819
 20
1.937571299031539
 30
0.0
 11
119.8718393144819
 21
4.387061041814714
 31
0.0
  0
LINE
  5
2BE
330
1F
100
AcDbEntity
  8
VISIBLE
100
AcDbLine
 10
145.3983948365652
 20
16.43038519408542
 30
0.0
 11
144.6912880553786
 21
16.02213690362156
 31
0.0
  0
LINE
  5
2BF
330
1F
100
AcDbEntity
  8
VISIBLE
100
AcDbLine
 10
138.8930124496489
 20
10.2250111790347
 30
0.0
 11
136.7009814279706
 21
8.959441478596737
 31
0.0
  0
LINE
  5
2C0
330
1F
100
AcDbEntity
  8
VISIBLE
100
AcDbLine
 10
124.1553418329271
 20
0.1690581722799482
 30
0.0
 11
124.1553418329271
 21
2.373559283343031
 31
0.0
  0
LINE
  5
2C1
330
1F
100
AcDbEntity
  8
VISIBLE
100
AcDbLine
 10
122.7709771173467
 20
3.611389289933388
 30
0.0
 11
122.7709771173467
 21
6.060879032716567
 31
0.0
  0
ELLIPSE
  5
2C2
330
1F
100
AcDbEntity
  8
VISIBLE
100
AcDbEllipse
 10
107.7448806224879
 20
48.98872823773836
 30
0.0
 11
1.5
 21
0.0
 31
0.0
210
0.0
220
0.0
230
1.0
 40
0.5773502691896226
 41
0.0
 42
0.7853981633974486
  0
ELLIPSE
  5
2C3
330
1F
100
AcDbEntity
  8
VISIBLE
100
AcDbEllipse
 10
107.7448806224879
 20
48.98872823773836
 30
0.0
 11
1.5
 21
0.0
 31
0.0
210
0.0
220
0.0
230
1.0
 40
0.5773502691896226
 41
5.497787143782142
 42
6.283185307179586
  0
LINE
  5
2C4
330
1F
100
AcDbEntity
  8
VISIBLE
100
AcDbLine
 10
116.972701511617
 20
0.2637533081297043
 30
0.0
 11
116.972701511617
 21
4.346236212768332
 31
0.0
  0
LINE
  5
2C5
330
1F
100
AcDbEntity
  8
VISIBLE
100
AcDbLine
 10
130.9027058222409
 20
8.06129523957624
 30
0.0
 11
82.81944349947419
 21
35.82217968514102
 31
0.0
  0
LINE
  5
2C6
330
1F
100
AcDbEntity
  8
VISIBLE
100
AcDbLine
 10
70.44547442001526
 20
19.85990233013147
 30
0.0
 11
73.94436861227345
 21
17.83981482636518
 31
0.0
  0
ELLIPSE
  5
2C7
330
1F
100
AcDbEntity
  8
VISIBLE
100
AcDbEllipse
 10
114.003252706792
 20
-2.675403630072417
 30
0.0
 11
0.5
 21
0.0
 31
0.0
210
0.0
220
0.0
230
1.0
 40
0.5773502691896155
 41
3.926990816987261
 42
5.497787143782137
  0
LINE
  5
2C8
330
1F
100
AcDbEntity
  8
VISIBLE
100
AcDbLine
 10
75.25340085592529
 20
29.3310319157554
 30
0.0
 11
75.96050763711185
 21
29.73928020621926
 31
0.0
  0
LINE
  5
2C9
330
1F
100
AcDbEntity
  8
VISIBLE
100
AcDbLine
 10
144.6912880553786
 20
16.02213690362156
 30
0.0
 11
144.6912880553786
 21
13.57264716083838
 31
0.0
  0
LINE
  5
2CA
330
1F
100
AcDbEntity
  8
VISIBLE
100
AcDbLine
 10
79.2131989154228
 20
31.29062366099215
 30
0.0
 11
79.2131989154228
 21
33.74011340377533
 31
0.0
  0
LINE
  5
2CB
330
1F
100
AcDbEntity
  8
VISIBLE
100
AcDbLine
 10
84.94076384303382
 20
34.59743481374944
 30
0.0
 11
85.01147452115248
 21
34.63825964279582
 31
0.0
  0
ELLIPSE
  5
2CC
330
1F
100
AcDbEntity
  8
VISIBLE
100
AcDbEllipse
 10
123.8053990572441
 20
2.167371623069466
 30
0.0
 11
0.5
 21
0.0
 31
0.0
210
0.0
220
0.0
230
1.0
 40
0.5773502691896226
 41
0.7854052000324866
 42
2.352436002373636
  0
LINE
  5
2CD
330
1F
100
AcDbEntity
  8
VISIBLE
100
AcDbLine
 10
141.7921502525137
 20
11.89882916993654
 30
0.0
 11
139.6001192308354
 21
10.63325946949857
 31
0.0
  0
LINE
  5
2CE
330
1F
100
AcDbEntity
  8
VISIBLE
100
AcDbLine
 10
119.8718393144819
 20
4.387061041814718
 30
0.0
 11
119.1647325332953
 21
3.978812751350855
 31
0.0
  0
LINE
  5
2CF
330
1F
100
AcDbEntity
  8
VISIBLE
100
AcDbLine
 10
96.60802573261185
 20
43.78302134918635
 30
0.0
 11
97.31513251379839
 21
44.19126963965022
 31
0.0
  0
LINE
  5
2D0
330
1F
100
AcDbEntity
  8
VISIBLE
100
AcDbLine
 10
82.11233671828764
 20
35.41393139467716
 30
0.0
 11
82.81944349947418
 21
35.82217968514102
 31
0.0
  0
LINE
  5
2D1
330
1F
100
AcDbEntity
  8
VISIBLE
100
AcDbLine
 10
123.4531744990198
 20
4.005256131882767
 30
0.0
 11
122.7709771173467
 21
3.611389289933388
 31
0.0
  0
LINE
  5
2D2
330
1F
100
AcDbEntity
  8
VISIBLE
100
AcDbLine
 10
75.25340085592529
 20
28.4328856767349
 30
0.0
 11
75.25340085592529
 21
29.33103191575539
 31
0.0
  0
LINE
  5
2D3
330
1F
100
AcDbEntity
  8
VISIBLE
100
AcDbLine
 10
122.7709771173467
 20
6.060879032716569
 30
0.0
 11
122.0638703361602
 21
5.652630742252702
 31
0.0
  0
LINE
  5
2D4
330
1F
100
AcDbEntity
  8
VISIBLE
100
AcDbLine
 10
130.1955990410544
 20
7.653046949112374
 30
0.0
 11
130.1955990410544
 21
5.203557206329195
 31
0.0
  0
LINE
  5
2D5
330
1F
100
AcDbEntity
  8
VISIBLE
100
AcDbLine
 10
79.14248823730414
 20
31.24979883194576
 30
0.0
 11
79.2131989154228
 21
31.29062366099215
 31
0.0
  0
LINE
  5
2D6
330
1F
100
AcDbEntity
  8
VISIBLE
100
AcDbLine
 10
87.91061232401732
 20
36.31207763369766
 30
0.0
 11
87.91061232401732
 21
38.76156737648085
 31
0.0
  0
LINE
  5
2D7
330
1F
100
AcDbEntity
  8
VISIBLE
100
AcDbLine
 10
82.11233671828764
 20
35.41393139467716
 30
0.0
 11
130.1955990410544
 21
7.653046949112376
 31
0.0
  0
LINE
  5
2D8
330
1F
100
AcDbEntity
  8
VISIBLE
100
AcDbLine
 10
130.9027058222409
 20
8.06129523957624
 30
0.0
 11
130.1955990410544
 21
7.653046949112374
 31
0.0
  0
LINE
  5
2D9
330
1F
100
AcDbEntity
  8
VISIBLE
100
AcDbLine
 10
144.6912880553786
 20
13.57264716083838
 30
0.0
 11
142.4992570337003
 21
12.3070774604004
 31
0.0
  0
ELLIPSE
  5
2DA
330
1F
100
AcDbEntity
  8
VISIBLE
100
AcDbEllipse
 10
106.3311741970983
 20
49.80493202299218
 30
0.0
 11
1.5
 21
-1.421085471520200E-14
 31
0.0
210
0.0
220
0.0
230
1.0
 40
0.5773502691896226
 41
-5.497787143782119
 42
-3.926990816987237
  0
LINE
  5
2DB
330
1F
100
AcDbEntity
  8
VISIBLE
100
AcDbLine
 10
141.7921502525137
 20
14.34831891271972
 30
0.0
 11
141.7921502525137
 21
11.89882916993654
 31
0.0
  0
LINE
  5
2DC
330
1F
100
AcDbEntity
  8
VISIBLE
100
AcDbLine
 10
85.01147452115248
 20
37.087749385579
 30
0.0
 11
85.71858130233902
 21
37.49599767604286
 31
0.0
  0
LINE
  5
2DD
330
1F
100
AcDbEntity
  8
VISIBLE
100
AcDbLine
 10
147.244022100289
 20
13.4134756869815
 30
0.0
 11
149.3653424438487
 21
12.18873081558992
 31
0.0
  0
ELLIPSE
  5
2DE
330
1F
100
AcDbEntity
  8
VISIBLE
100
AcDbEllipse
 10
106.3306670601148
 20
48.98872823773836
 30
0.0
 11
1.025000000000006
 21
-7.105427357601002E-15
 31
0.0
210
0.0
220
0.0
230
1.0
 40
0.5773502691896228
 41
-5.497787143782133
 42
-3.141592653589793
  0
ELLIPSE
  5
2DF
330
1F
100
AcDbEntity
  8
VISIBLE
100
AcDbEllipse
 10
106.3306670601148
 20
48.98872823773836
 30
0.0
 11
1.025000000000006
 21
-7.105427357601002E-15
 31
0.0
210
0.0
220
0.0
230
1.0
 40
0.5773502691896228
 41
-3.141592653589793
 42
0.0000000000000249
  0
ELLIPSE
  5
2E0
330
1F
100
AcDbEntity
  8
VISIBLE
100
AcDbEllipse
 10
106.3306670601148
 20
48.98872823773836
 30
0.0
 11
1.025000000000006
 21
-7.105427357601002E-15
 31
0.0
210
0.0
220
0.0
230
1.0
 40
0.5773502691896228
 41
-6.283185307179561
 42
-5.497787143782133
  0
LINE
  5
2E1
330
1F
100
AcDbEntity
  8
VISIBLE
100
AcDbLine
 10
114.3568060973853
 20
-2.879527775304346
 30
0.0
 11
123.4531744990198
 21
2.372262970027313
 31
0.0
  0
LINE
  5
2E2
330
1F
100
AcDbEntity
  8
VISIBLE
100
AcDbLine
 10
87.83990164589866
 20
36.27125280465128
 30
0.0
 11
87.91061232401732
 21
36.31207763369766
 31
0.0
  0
LINE
  5
2E3
330
1F
100
AcDbEntity
  8
VISIBLE
100
AcDbLine
 10
93.63817725162835
 20
39.61888878645495
 30
0.0
 11
93.708887929747
 21
39.65971361550133
 31
0.0
  0
LINE
  5
2E4
330
1F
100
AcDbEntity
  8
VISIBLE
100
AcDbLine
 10
147.5904258582434
 20
15.24646515174022
 30
0.0
 11
99.50716353547669
 21
43.00734959730501
 31
0.0
  0
LINE
  5
2E5
330
1F
100
AcDbEntity
  8
VISIBLE
100
AcDbLine
 10
87.91061232401732
 20
38.76156737648084
 30
0.0
 11
88.61771910520388
 21
39.16981566694471
 31
0.0
  0
LINE
  5
2E6
330
1F
100
AcDbEntity
  8
VISIBLE
100
AcDbLine
 10
127.2964612381895
 20
3.529739215427359
 30
0.0
 11
79.2131989154228
 21
31.29062366099215
 31
0.0
  0
LINE
  5
2E7
330
1F
100
AcDbEntity
  8
VISIBLE
100
AcDbLine
 10
93.708887929747
 20
42.10920335828451
 30
0.0
 11
141.7921502525137
 21
14.34831891271972
 31
0.0
  0
LINE
  5
2E8
330
1F
100
AcDbEntity
  8
VISIBLE
100
AcDbLine
 10
75.25340085592529
 20
29.3310319157554
 30
0.0
 11
119.1647325332953
 21
3.978812751350855
 31
0.0
  0
LINE
  5
2E9
330
1F
100
AcDbEntity
  8
VISIBLE
100
AcDbLine
 10
122.0638703361602
 20
3.203140999469525
 30
0.0
 11
76.31406111255795
 21
29.61680567009031
 31
0.0
  0
LINE
  5
2EA
330
1F
100
AcDbEntity
  8
VISIBLE
100
AcDbLine
 10
90.80975012688215
 20
40.43538536738267
 30
0.0
 11
138.8930124496489
 21
12.67450092181788
 31
0.0
  0
ELLIPSE
  5
2EB
330
1F
100
AcDbEntity
  8
VISIBLE
100
AcDbEllipse
 10
126.13275594469
 20
3.266121941431868
 30
0.0
 11
0.5
 21
1.776356839400250E-15
 31
0.0
210
0.0
220
0.0
230
1.0
 40
0.5773502691896333
 41
3.926997853622271
 42
5.494028655963451
  0
LINE
  5
2EC
330
1F
100
AcDbEntity
  8
VISIBLE
100
AcDbLine
 10
76.31406111255794
 20
32.06629541287349
 30
0.0
 11
77.02116789374449
 21
32.47454370333735
 31
0.0
  0
ELLIPSE
  5
2ED
330
1F
100
AcDbEntity
  8
VISIBLE
100
AcDbEllipse
 10
150.8682113715328
 20
23.2548481977354
 30
0.0
 11
1.025000000000006
 21
0.0
 31
0.0
210
0.0
220
0.0
230
1.0
 40
0.5773502691896228
 41
0.7853981633974488
 42
3.141592653589793
  0
ELLIPSE
  5
2EE
330
1F
100
AcDbEntity
  8
VISIBLE
100
AcDbEllipse
 10
150.8682113715328
 20
23.2548481977354
 30
0.0
 11
1.025000000000006
 21
0.0
 31
0.0
210
0.0
220
0.0
230
1.0
 40
0.5773502691896228
 41
3.141592653589793
 42
6.283185307179586
  0
ELLIPSE
  5
2EF
330
1F
100
AcDbEntity
  8
VISIBLE
100
AcDbEllipse
 10
150.8682113715328
 20
23.2548481977354
 30
0.0
 11
1.025000000000006
 21
0.0
 31
0.0
210
0.0
220
0.0
230
1.0
 40
0.5773502691896228
 41
0.0
 42
0.7853981633974488
  0
LINE
  5
2F0
330
1F
100
AcDbEntity
  8
VISIBLE
100
AcDbLine
 10
147.5904258582434
 20
15.24646515174021
 30
0.0
 11
145.3983948365652
 21
13.98089545130224
 31
0.0
  0
ELLIPSE
  5
2F1
330
1F
100
AcDbEntity
  8
VISIBLE
100
AcDbEllipse
 10
114.003252706792
 20
3.040072436421667
 30
0.0
 11
0.5
 21
0.0
 31
0.0
210
0.0
220
0.0
230
1.0
 40
0.5773502691896226
 41
3.926990816987256
 42
5.497787143782142
  0
LINE
  5
2F2
330
1F
100
AcDbEntity
  8
VISIBLE
100
AcDbLine
 10
145.3983948365652
 20
16.43038519408542
 30
0.0
 11
97.31513251379839
 21
44.19126963965022
 31
0.0
  0
LINE
  5
2F3
330
1F
100
AcDbEntity
  8
VISIBLE
100
AcDbLine
 10
93.708887929747
 20
42.10920335828452
 30
0.0
 11
94.41599471093355
 21
42.51745164874838
 31
0.0
  0
ELLIPSE
  5
2F4
330
1F
100
AcDbEntity
  8
VISIBLE
100
AcDbEllipse
 10
70.79902781060854
 20
20.0640264753634
 30
0.0
 11
-0.5000000000000142
 21
3.552713678800501E-15
 31
0.0
210
0.0
220
0.0
230
1.0
 40
0.5773502691896062
 41
0.0
 42
0.7853981633974564
  0
LINE
  5
2F5
330
1F
100
AcDbEntity
  8
VISIBLE
100
AcDbLine
 10
153.3363546512104
 20
22.64636159174272
 30
0.0
 11
147.5904258582434
 21
19.32894805637884
 31
0.0
  0
LINE
  5
2F6
330
1F
100
AcDbEntity
  8
VISIBLE
100
AcDbLine
 10
149.3653424438487
 20
12.18873081558992
 30
0.0
 11
153.3363546512104
 21
14.48139578246546
 31
0.0
  0
LINE
  5
2F7
330
1F
100
AcDbEntity
  8
VISIBLE
100
AcDbLine
 10
73.94436861227345
 20
17.83981482636518
 30
0.0
 11
73.94436861227345
 21
20.04435559487004
 31
0.0
  0
LINE
  5
2F8
330
1F
100
AcDbEntity
  8
VISIBLE
100
AcDbLine
 10
133.8018436251058
 20
7.285623487694902
 30
0.0
 11
133.8018436251058
 21
9.735113230478078
 31
0.0
  0
LINE
  5
2F9
330
1F
100
AcDbEntity
  8
VISIBLE
100
AcDbLine
 10
133.8018436251058
 20
9.735113230478078
 30
0.0
 11
85.71858130233903
 21
37.49599767604286
 31
0.0
  0
LINE
  5
2FA
330
1F
100
AcDbEntity
  8
VISIBLE
100
AcDbLine
 10
147.5904258582434
 20
15.24646515174021
 30
0.0
 11
147.5904258582434
 21
19.32894805637885
 31
0.0
  0
LINE
  5
2FB
330
1F
100
AcDbEntity
  8
VISIBLE
100
AcDbLine
 10
119.8718393144819
 20
4.387061041814718
 30
0.0
 11
75.96050763711185
 21
29.73928020621926
 31
0.0
  0
LINE
  5
2FC
330
1F
100
AcDbEntity
  8
VISIBLE
100
AcDbLine
 10
96.60802573261185
 20
41.33353160640317
 30
0.0
 11
96.60802573261185
 21
43.78302134918635
 31
0.0
  0
LINE
  5
2FD
330
1F
100
AcDbEntity
  8
VISIBLE
100
AcDbLine
 10
136.7009814279706
 20
11.40893122137992
 30
0.0
 11
88.61771910520388
 21
39.16981566694471
 31
0.0
  0
LINE
  5
2FE
330
1F
100
AcDbEntity
  8
VISIBLE
100
AcDbLine
 10
119.1647325332953
 20
3.978812751350855
 30
0.0
 11
119.1647325332953
 21
1.529323008567676
 31
0.0
  0
LINE
  5
2FF
330
1F
100
AcDbEntity
  8
VISIBLE
100
AcDbLine
 10
135.9938746467841
 20
11.00068293091605
 30
0.0
 11
135.9938746467841
 21
8.55119318813287
 31
0.0
  0
LINE
  5
300
330
1F
100
AcDbEntity
  8
VISIBLE
100
AcDbLine
 10
82.04162604016898
 20
32.92361682284761
 30
0.0
 11
82.11233671828764
 21
32.96444165189399
 31
0.0
  0
LINE
  5
301
330
1F
100
AcDbEntity
  8
VISIBLE
100
AcDbLine
 10
73.94436861227345
 20
20.04435559487004
 30
0.0
 11
113.6496993161987
 21
-2.879527775304346
 31
0.0
  0
LINE
  5
302
330
1F
100
AcDbEntity
  8
VISIBLE
100
AcDbLine
 10
130.1955990410544
 20
5.203557206329195
 30
0.0
 11
82.11233671828765
 21
32.96444165189398
 31
0.0
  0
LINE
  5
303
330
1F
100
AcDbEntity
  8
VISIBLE
100
AcDbLine
 10
96.60802573261185
 20
43.78302134918635
 30
0.0
 11
144.6912880553786
 21
16.02213690362155
 31
0.0
  0
ELLIPSE
  5
304
330
1F
100
AcDbEntity
  8
VISIBLE
100
AcDbEllipse
 10
105.877767061811
 20
45.46125997809078
 30
0.0
 11
1.5
 21
0.0
 31
0.0
210
0.0
220
0.0
230
1.0
 40
0.5773502691896226
 41
2.356194490192351
 42
3.141592653589793
  0
ELLIPSE
  5
305
330
1F
100
AcDbEntity
  8
VISIBLE
100
AcDbEllipse
 10
105.877767061811
 20
45.46125997809078
 30
0.0
 11
1.5
 21
0.0
 31
0.0
210
0.0
220
0.0
230
1.0
 40
0.5773502691896226
 41
3.141592653589793
 42
3.926990816987254
  0
LINE
  5
306
330
1F
100
AcDbEntity
  8
VISIBLE
100
AcDbLine
 10
126.4849805123
 20
-0.7763033304674636
 30
0.0
 11
131.0179974868155
 21
1.840835240010223
 31
0.0
  0
LINE
  5
307
330
1F
100
AcDbEntity
  8
VISIBLE
100
AcDbLine
 10
142.4992570337003
 20
14.75656720318358
 30
0.0
 11
94.41599471093355
 21
42.51745164874838
 31
0.0
  0
LINE
  5
308
330
1F
100
AcDbEntity
  8
VISIBLE
100
AcDbLine
 10
130.1955990410544
 20
5.203557206329195
 30
0.0
 11
128.0035680193761
 21
3.937987505891225
 31
0.0
  0
LINE
  5
309
330
1F
100
AcDbEntity
  8
VISIBLE
100
AcDbLine
 10
136.7009814279706
 20
8.95944147859674
 30
0.0
 11
136.7009814279706
 21
11.40893122137992
 31
0.0
  0
ELLIPSE
  5
30A
330
1F
100
AcDbEntity
  8
VISIBLE
100
AcDbEllipse
 10
126.13275594469
 20
-0.5714119889284461
 30
0.0
 11
-0.5
 21
3.552713678800501E-15
 31
0.0
210
0.0
220
0.0
230
1.0
 40
0.5773502691896155
 41
0.785398163397477
 42
2.352436002373668
  0
LINE
  5
30B
330
1F
100
AcDbEntity
  8
VISIBLE
100
AcDbLine
 10
108.8055407942678
 20
48.37635580204257
 30
0.0
 11
104.8171068900312
 21
46.07363241378657
 31
0.0
  0
LINE
  5
30C
330
1F
100
AcDbEntity
  8
VISIBLE
100
AcDbLine
 10
116.972701511617
 20
4.346236212768332
 30
0.0
 11
114.3568060973853
 21
2.835948291189732
 31
0.0
  0
LINE
  5
30D
330
1F
100
AcDbEntity
  8
VISIBLE
100
AcDbLine
 10
90.80975012688215
 20
37.98589562459949
 30
0.0
 11
90.80975012688215
 21
40.43538536738267
 31
0.0
  0
LINE
  5
30E
330
1F
100
AcDbEntity
  8
VISIBLE
100
AcDbLine
 10
125.7792025447461
 20
3.061994918086864
 30
0.0
 11
124.1589524571879
 21
4.004491808269924
 31
0.0
  0
LINE
  5
30F
330
1F
100
AcDbEntity
  8
VISIBLE
100
AcDbLine
 10
122.0638703361602
 20
5.6526307422527
 30
0.0
 11
122.0638703361602
 21
3.203140999469523
 31
0.0
  0
LINE
  5
310
330
1F
100
AcDbEntity
  8
VISIBLE
100
AcDbLine
 10
142.4992570337003
 20
12.3070774604004
 30
0.0
 11
142.4992570337003
 21
14.75656720318358
 31
0.0
  0
LINE
  5
311
330
1F
100
AcDbEntity
  8
VISIBLE
100
AcDbLine
 10
131.0179974868155
 20
1.840835240010223
 30
0.0
 11
131.0179974868155
 21
4.045376008515085
 31
0.0
  0
LINE
  5
312
330
1F
100
AcDbEntity
  8
VISIBLE
100
AcDbLine
 10
73.06136983424699
 20
29.69845537717287
 30
0.0
 11
116.972701511617
 21
4.346236212768332
 31
0.0
  0
LINE
  5
313
330
1F
100
AcDbEntity
  8
VISIBLE
100
AcDbLine
 10
151.9288715433127
 20
24.68371721435892
 30
0.0
 11
153.3363546512104
 21
23.87110646313432
 31
0.0
  0
LINE
  5
314
330
1F
100
AcDbEntity
  8
VISIBLE
100
AcDbLine
 10
131.0179974868155
 20
4.045376008515085
 30
0.0
 11
149.3653424438487
 21
14.63822055837309
 31
0.0
  0
ELLIPSE
  5
315
330
1F
100
AcDbEntity
  8
VISIBLE
100
AcDbEllipse
 10
75.35982550878418
 20
28.65762919691735
 30
0.0
 11
0.5
 21
0.0
 31
0.0
210
0.0
220
0.0
230
1.0
 40
0.5773502691896226
 41
2.356194490192342
 42
3.133013049881028
  0
LINE
  5
316
330
1F
100
AcDbEntity
  8
VISIBLE
100
AcDbLine
 10
76.31406111255794
 20
32.06629541287349
 30
0.0
 11
122.0638703361602
 21
5.652630742252704
 31
0.0
  0
LINE
  5
317
330
1F
100
AcDbEntity
  8
VISIBLE
100
AcDbLine
 10
90.80975012688215
 20
40.43538536738267
 30
0.0
 11
91.5168569080687
 21
40.84363365784654
 31
0.0
  0
LINE
  5
318
330
1F
100
AcDbEntity
  8
VISIBLE
100
AcDbLine
 10
104.8171068900312
 20
44.84888754239498
 30
0.0
 11
143.7152186488317
 21
22.39105224748337
 31
0.0
  0
LINE
  5
319
330
1F
100
AcDbEntity
  8
VISIBLE
100
AcDbLine
 10
99.50716353547669
 20
43.00734959730501
 30
0.0
 11
99.50716353547669
 21
47.08983250194363
 31
0.0
  0
LINE
  5
31A
330
1F
100
AcDbEntity
  8
VISIBLE
100
AcDbLine
 10
138.8930124496489
 20
10.2250111790347
 30
0.0
 11
90.80975012688216
 21
37.98589562459949
 31
0.0
  0
LINE
  5
31B
330
1F
100
AcDbEntity
  8
VISIBLE
100
AcDbLine
 10
147.5904258582434
 20
19.32894805637884
 30
0.0
 11
99.50716353547669
 21
47.08983250194363
 31
0.0
  0
LINE
  5
31C
330
1F
100
AcDbEntity
  8
VISIBLE
100
AcDbLine
 10
133.8018436251058
 20
9.735113230478078
 30
0.0
 11
133.0947368439192
 21
9.326864940014215
 31
0.0
  0
LINE
  5
31D
330
1F
100
AcDbEntity
  8
VISIBLE
100
AcDbLine
 10
124.1589524571879
 20
2.371498646414473
 30
0.0
 11
124.1589524571879
 21
4.004491808269924
 31
0.0
  0
LINE
  5
31E
330
1F
100
AcDbEntity
  8
VISIBLE
100
AcDbLine
 10
99.43645285735803
 20
42.96652476825862
 30
0.0
 11
99.50716353547669
 21
43.00734959730501
 31
0.0
  0
LINE
  5
31F
330
1F
100
AcDbEntity
  8
VISIBLE
100
AcDbLine
 10
123.4531744990198
 20
4.005256131882767
 30
0.0
 11
123.4531744990198
 21
2.372262970027313
 31
0.0
  0
ELLIPSE
  5
320
330
1F
100
AcDbEntity
  8
VISIBLE
100
AcDbEllipse
 10
70.79902781060852
 20
27.98404331036234
 30
0.0
 11
0.5000000000000142
 21
0.0
 31
0.0
210
0.0
220
0.0
230
1.0
 40
0.5773502691896204
 41
2.356194490192319
 42
3.141592653589781
  0
ELLIPSE
  5
321
330
1F
100
AcDbEntity
  8
VISIBLE
100
AcDbEllipse
 10
70.79902781060852
 20
27.98404331036234
 30
0.0
 11
0.5000000000000142
 21
0.0
 31
0.0
210
0.0
220
0.0
230
1.0
 40
0.5773502691896204
 41
3.141592653589781
 42
3.926990816987237
  0
LINE
  5
322
330
1F
100
AcDbEntity
  8
VISIBLE
100
AcDbLine
 10
73.94436861227345
 20
17.83981482636518
 30
0.0
 11
75.85355692147714
 21
18.94208521061761
 31
0.0
  0
ELLIPSE
  5
323
330
1F
100
AcDbEntity
  8
VISIBLE
100
AcDbEllipse
 10
152.2756944794306
 20
15.09376821816126
 30
0.0
 11
-1.5
 21
0.0
 31
0.0
210
0.0
220
0.0
230
1.0
 40
0.5773502691896262
 41
2.356194490192338
 42
3.141592653589803
  0
LINE
  5
324
330
1F
100
AcDbEntity
  8
VISIBLE
100
AcDbLine
 10
141.7921502525137
 20
11.89882916993654
 30
0.0
 11
93.708887929747
 21
39.65971361550133
 31
0.0
  0
LINE
  5
325
330
1F
100
AcDbEntity
  8
VISIBLE
100
AcDbLine
 10
119.1647325332953
 20
1.529323008567676
 30
0.0
 11
116.972701511617
 21
0.2637533081297025
 31
0.0
  0
LINE
  5
326
330
1F
100
AcDbEntity
  8
VISIBLE
100
AcDbLine
 10
139.6001192308354
 20
13.08274921228174
 30
0.0
 11
91.5168569080687
 21
40.84363365784654
 31
0.0
  0
LINE
  5
327
330
1F
100
AcDbEntity
  8
VISIBLE
100
AcDbLine
 10
85.01147452115248
 20
37.087749385579
 30
0.0
 11
133.0947368439192
 21
9.326864940014215
 31
0.0
  0
ELLIPSE
  5
328
330
1F
100
AcDbEntity
  8
VISIBLE
100
AcDbEllipse
 10
152.2756944794306
 20
23.25873402743852
 30
0.0
 11
1.499999999999972
 21
0.0
 31
0.0
210
0.0
220
0.0
230
1.0
 40
0.5773502691896383
 41
0.0
 42
0.7853981633974426
  0
ELLIPSE
  5
329
330
1F
100
AcDbEntity
  8
VISIBLE
100
AcDbEllipse
 10
152.2756944794306
 20
23.25873402743852
 30
0.0
 11
1.499999999999972
 21
0.0
 31
0.0
210
0.0
220
0.0
230
1.0
 40
0.5773502691896383
 41
5.497787143782138
 42
6.283185307179586
  0
LINE
  5
32A
330
1F
100
AcDbEntity
  8
VISIBLE
100
AcDbLine
 10
82.11233671828764
 20
32.96444165189398
 30
0.0
 11
82.11233671828764
 21
35.41393139467716
 31
0.0
  0
LINE
  5
32B
330
1F
100
AcDbEntity
  8
VISIBLE
100
AcDbLine
 10
139.6001192308354
 20
10.63325946949857
 30
0.0
 11
139.6001192308354
 21
13.08274921228174
 31
0.0
  0
LINE
  5
32C
330
1F
100
AcDbEntity
  8
VISIBLE
100
AcDbLine
 10
79.2131989154228
 20
33.74011340377533
 30
0.0
 11
79.92030569660933
 21
34.14836169423919
 31
0.0
  0
LINE
  5
32D
330
1F
100
AcDbEntity
  8
VISIBLE
100
AcDbLine
 10
122.7709771173467
 20
6.060879032716569
 30
0.0
 11
77.02116789374449
 21
32.47454370333735
 31
0.0
  0
LINE
  5
32E
330
1F
100
AcDbEntity
  8
VISIBLE
100
AcDbLine
 10
113.6496993161987
 20
2.835948291189737
 30
0.0
 11
70.44547442001526
 21
27.77991916513042
 31
0.0
  0
LINE
  5
32F
330
1F
100
AcDbEntity
  8
VISIBLE
100
AcDbLine
 10
133.0947368439192
 20
6.877375197231034
 30
0.0
 11
130.9027058222409
 21
5.61180549679306
 31
0.0
  0
LINE
  5
330
330
1F
100
AcDbEntity
  8
VISIBLE
100
AcDbLine
 10
70.44547442001524
 20
28.18816745559428
 30
0.0
 11
73.06136983424699
 21
29.69845537717287
 31
0.0
  0
LINE
  5
331
330
1F
100
AcDbEntity
  8
VISIBLE
100
AcDbLine
 10
96.53731505449319
 20
41.29270677735678
 30
0.0
 11
96.60802573261185
 21
41.33353160640317
 31
0.0
  0
LINE
  5
332
330
1F
100
AcDbEntity
  8
VISIBLE
100
AcDbLine
 10
128.0035680193761
 20
6.387477248674402
 30
0.0
 11
79.92030569660935
 21
34.14836169423918
 31
0.0
  0
LINE
  5
333
330
1F
100
AcDbEntity
  8
VISIBLE
100
AcDbLine
 10
85.01147452115248
 20
34.63825964279582
 30
0.0
 11
85.01147452115248
 21
37.087749385579
 31
0.0
  0
LINE
  5
334
330
1F
100
AcDbEntity
  8
VISIBLE
100
AcDbLine
 10
128.0035680193761
 20
3.937987505891224
 30
0.0
 11
128.0035680193761
 21
6.387477248674402
 31
0.0
  0
ELLIPSE
  5
335
330
1F
100
AcDbEntity
  8
VISIBLE
100
AcDbEllipse
 10
123.8053990572441
 20
3.800364784924916
 30
0.0
 11
0.5
 21
0.0
 31
0.0
210
0.0
220
0.0
230
1.0
 40
0.5773502691896226
 41
0.7854052000324954
 42
2.352436002373628
  0
LINE
  5
336
330
1F
100
AcDbEntity
  8
VISIBLE
100
AcDbLine
 10
90.73903944876352
 20
37.94507079555312
 30
0.0
 11
90.80975012688215
 21
37.98589562459949
 31
0.0
  0
LINE
  5
337
330
1F
100
AcDbEntity
  8
VISIBLE
100
AcDbLine
 10
119.1647325332953
 20
1.529323008567676
 30
0.0
 11
116.972701511617
 21
2.794892709005655
 31
0.0
  0
LINE
  5
338
330
1F
100
AcDbEntity
  8
VISIBLE
100
AcDbLine
 10
144.6912880553786
 20
13.57264716083838
 30
0.0
 11
96.60802573261185
 21
41.33353160640317
 31
0.0
  0
LINE
  5
339
330
1F
100
AcDbEntity
  8
VISIBLE
100
AcDbLine
 10
126.4849805029143
 20
-0.7763033358862899
 30
0.0
 11
126.4849805029143
 21
3.061230594474022
 31
0.0
  0
LINE
  5
33A
330
1F
100
AcDbEntity
  8
VISIBLE
100
AcDbLine
 10
122.0638703361602
 20
3.203140999469522
 30
0.0
 11
119.8718393144819
 21
1.937571299031537
 31
0.0
  0
LINE
  5
33B
330
1F
100
AcDbEntity
  8
VISIBLE
100
AcDbLine
 10
99.50716353547669
 20
47.08983250194363
 30
0.0
 11
105.2705140253185
 21
50.41730445868797
 31
0.0
  0
LINE
  5
33C
330
1F
100
AcDbEntity
  8
VISIBLE
100
AcDbLine
 10
138.8930124496489
 20
12.67450092181788
 30
0.0
 11
138.8930124496489
 21
10.2250111790347
 31
0.0
  0
LINE
  5
33D
330
1F
100
AcDbEntity
  8
VISIBLE
100
AcDbLine
 10
127.2964612381895
 20
3.529739215427359
 30
0.0
 11
126.4849805029143
 21
3.06123059447402
 31
0.0
  0
LINE
  5
33E
330
1F
100
AcDbEntity
  8
VISIBLE
100
AcDbLine
 10
79.2131989154228
 20
33.74011340377533
 30
0.0
 11
127.2964612381895
 21
5.979228958210538
 31
0.0
  0
LINE
  5
33F
330
1F
100
AcDbEntity
  8
VISIBLE
100
AcDbLine
 10
139.6001192308354
 20
13.08274921228174
 30
0.0
 11
138.8930124496489
 21
12.67450092181788
 31
0.0
  0
LINE
  5
340
330
1F
100
AcDbEntity
  8
VISIBLE
100
AcDbLine
 10
130.9027058222409
 20
5.61180549679306
 30
0.0
 11
130.9027058222409
 21
8.06129523957624
 31
0.0
  0
LINE
  5
341
330
1F
100
AcDbEntity
  8
VISIBLE
100
AcDbLine
 10
127.2964612381895
 20
5.979228958210538
 30
0.0
 11
127.2964612381895
 21
3.529739215427359
 31
0.0
  0
ELLIPSE
  5
342
330
1F
100
AcDbEntity
  8
VISIBLE
100
AcDbEllipse
 10
144.7758788206115
 20
23.00342468317916
 30
0.0
 11
1.499999999999972
 21
0.0
 31
0.0
210
0.0
220
0.0
230
1.0
 40
0.5773502691896383
 41
3.926990816987225
 42
5.497787143782143
  0
ELLIPSE
  5
343
330
1F
100
AcDbEntity
  8
VISIBLE
100
AcDbEllipse
 10
150.8682113715328
 20
24.07134477866312
 30
0.0
 11
1.5
 21
7.105427357601002E-15
 31
0.0
210
0.0
220
0.0
230
1.0
 40
0.5773502691896274
 41
0.7853981633974391
 42
2.356194490192343
  0
LINE
  5
344
330
1F
100
AcDbEntity
  8
VISIBLE
100
AcDbLine
 10
149.3653424438487
 20
14.63822055837309
 30
0.0
 11
149.3653424438487
 21
12.18873081558991
 31
0.0
  0
LINE
  5
345
330
1F
100
AcDbEntity
  8
VISIBLE
100
AcDbLine
 10
76.31406111255794
 20
29.61680567009031
 30
0.0
 11
76.31406111255794
 21
32.06629541287349
 31
0.0
  0
LINE
  5
346
330
1F
100
AcDbEntity
  8
VISIBLE
100
AcDbLine
 10
87.91061232401732
 20
38.76156737648085
 30
0.0
 11
135.9938746467841
 21
11.00068293091605
 31
0.0
  0
LINE
  5
347
330
1F
100
AcDbEntity
  8
VISIBLE
100
AcDbLine
 10
107.3918343688781
 20
50.41730445868797
 30
0.0
 11
108.8055407942678
 21
49.60110067343416
 31
0.0
  0
LINE
  5
348
330
1F
100
AcDbEntity
  8
VISIBLE
100
AcDbLine
 10
135.9938746467841
 20
8.55119318813287
 30
0.0
 11
87.91061232401732
 21
36.31207763369766
 31
0.0
  0
LINE
  5
349
330
1F
100
AcDbEntity
  8
VISIBLE
100
AcDbLine
 10
70.29902781060852
 20
27.98404331036234
 30
0.0
 11
70.29902781060852
 21
20.0640264753634
 31
0.0
  0
LINE
  5
34A
330
1F
100
AcDbEntity
  8
VISIBLE
100
AcDbLine
 10
109.244880622488
 20
48.98872823773836
 30
0.0
 11
109.244880622488
 21
42.29251118605033
 31
0.0
  0
LINE
  5
34B
330
1F
100
AcDbEntity
  8
VISIBLE
100
AcDbLine
 10
153.7756944794306
 20
23.25873402743853
 30
0.0
 11
153.7756944794306
 21
15.09376821816127
 31
0.0
  0
LINE
  5
34C
330
1F
100
AcDbEntity
  8
TANGENT_EDGES
100
AcDbLine
 10
113.6496993161987
 20
2.835948291189734
 30
0.0
 11
113.6496993161987
 21
-2.879527775304346
 31
0.0
  0
LINE
  5
34D
330
1F
100
AcDbEntity
  8
TANGENT_EDGES
100
AcDbLine
 10
104.8171068900312
 20
44.84888754239498
 30
0.0
 11
104.8171068900312
 21
46.07363241378658
 31
0.0
  0
LINE
  5
34E
330
1F
100
AcDbEntity
  8
TANGENT_EDGES
100
AcDbLine
 10
108.8055407942678
 20
48.37635580204257
 30
0.0
 11
108.8055407942678
 21
42.54616415413898
 31
0.0
  0
LINE
  5
34F
330
1F
100
AcDbEntity
  8
TANGENT_EDGES
100
AcDbLine
 10
70.44547442001526
 20
19.85990233013147
 30
0.0
 11
70.44547442001526
 21
27.77991916513042
 31
0.0
  0
LINE
  5
350
330
1F
100
AcDbEntity
  8
TANGENT_EDGES
100
AcDbLine
 10
114.3568060973853
 20
-2.879527775304346
 30
0.0
 11
114.3568060973853
 21
2.835948291189732
 31
0.0
  0
LINE
  5
351
330
1F
100
AcDbEntity
  8
TANGENT_EDGES
100
AcDbLine
 10
153.3363546512104
 20
22.64636159174272
 30
0.0
 11
153.3363546512104
 21
14.48139578246546
 31
0.0
  0
ENDSEC
  0
SECTION
  2
OBJECTS
  0
DICTIONARY
  5
C
330
0
100
AcDbDictionary
  3
ACAD_GROUP
350
D
  3
ACAD_LAYOUT
350
1A
  3
ACAD_MATERIAL
350
3B
  3
ACAD_MLEADERSTYLE
350
374
  3
ACAD_MLINESTYLE
350
17
  3
ACAD_PLOTSETTINGS
350
19
  3
ACAD_SCALELIST
350
82
  3
ACAD_VISUALSTYLE
350
2A
  3
ACDBHEADERROUNDTRIPXREC
350
352
  3
ACDBVARIABLEDICTIONARY
350
372
  0
DICTIONARY
  5
D
102
{ACAD_REACTORS
330
C
102
}
330
C
100
AcDbDictionary
  0
DICTIONARY
  5
1A
102
{ACAD_REACTORS
330
C
102
}
330
C
100
AcDbDictionary
  0
DICTIONARY
  5
3B
102
{ACAD_REACTORS
330
C
102
}
330
C
100
AcDbDictionary
  3
BYBLOCK
350
3D
  3
BYLAYER
350
3C
  3
GLOBAL
350
3E
  0
DICTIONARY
  5
374
102
{ACAD_REACTORS
330
C
102
}
330
C
100
AcDbDictionary
  0
DICTIONARY
  5
17
102
{ACAD_REACTORS
330
C
102
}
330
C
100
AcDbDictionary
  3
STANDARD
350
18
  0
DICTIONARY
  5
19
102
{ACAD_REACTORS
330
C
102
}
330
C
100
AcDbDictionary
  0
DICTIONARY
  5
82
102
{ACAD_REACTORS
330
C
102
}
330
C
100
AcDbDictionary
  3
A0
350
83
  3
A1
350
84
  3
A2
350
85
  3
A3
350
86
  3
A4
350
87
  3
A5
350
88
  3
A6
350
89
  3
A7
350
8A
  3
A8
350
8B
  3
A9
350
8C
  3
B0
350
8D
  3
B1
350
8E
  3
B2
350
8F
  3
B3
350
90
  3
B4
350
91
  3
B5
350
92
  3
B6
350
93
  3
B7
350
94
  3
B8
350
95
  3
B9
350
96
  3
C0
350
97
  3
C1
350
98
  3
C2
350
99
  3
C3
350
9A
  3
C4
350
9B
  3
C5
350
9C
  3
C6
350
9D
  3
C7
350
9E
  3
C8
350
9F
  3
C9
350
A0
  3
D0
350
A1
  3
D1
350
A2
  3
D2
350
A3
  0
DICTIONARY
  5
2A
102
{ACAD_REACTORS
330
C
102
}
330
C
100
AcDbDictionary
  3
2DWIREFRAME
350
2F
  3
3D_HIDDEN
350
31
  3
3DWIREFRAME
350
30
  3
BASIC
350
32
  3
BRIGHTEN
350
36
  3
COLORCHANGE
350
3A
  3
CONCEPTUAL
350
34
  3
DIM
350
35
  3
FACEPATTERN
350
39
  3
FLAT
350
2B
  3
FLATWITHEDGES
350
2C
  3
GOURAUD
350
2D
  3
GOURAUDWITHEDGES
350
2E
  3
LINEPATTERN
350
38
  3
REALISTIC
350
33
  3
THICKEN
350
37
  0
DICTIONARY
  5
352
102
{ACAD_REACTORS
330
C
102
}
330
C
100
AcDbDictionary
  3
CEPSNTYPE
350
35B
  3
DIMSTYLEDATA
350
371
  3
FINGERPRINTGUID
350
35C
  3
HYPERLINKBASE
350
355
  3
INSUNITS
350
35A
  3
LAYOUTDICT
350
357
  3
LWETCUNION
350
359
  3
PLOTSETDICT
350
358
  3
PSVPSCALE
350
35E
  3
PUCSBASE
350
361
  3
PUCSORGBACK
350
367
  3
PUCSORGBOTTOM
350
363
  3
PUCSORGFRONT
350
366
  3
PUCSORGLEFT
350
364
  3
PUCSORGRIGHT
350
365
  3
PUCSORGTOP
350
362
  3
PUCSORTHOREF
350
35F
  3
PUCSORTHOVIEW
350
360
  3
STYLESHEET
350
356
  3
TSTACKALIGN
350
353
  3
TSTACKSIZE
350
354
  3
UCSBASE
350
36A
  3
UCSORGBACK
350
370
  3
UCSORGBOTTOM
350
36C
  3
UCSORGFRONT
350
36F
  3
UCSORGLEFT
350
36D
  3
UCSORGRIGHT
350
36E
  3
UCSORGTOP
350
36B
  3
UCSORTHOREF
350
368
  3
UCSORTHOVIEW
350
369
  3
VERSIONGUID
350
35D
  0
DICTIONARY
  5
372
102
{ACAD_REACTORS
330
C
102
}
330
C
100
AcDbDictionary
  3
CANNOSCALE
350
377
  3
DIMASSOC
350
378
  3
HIDETEXT
350
379
  3
PSOLHEIGHT
350
376
  3
PSOLWIDTH
350
375
  0
MATERIAL
  5
3D
102
{ACAD_REACTORS
330
3B
102
}
102
{ACAD_XDICTIONARY
360
37C
102
}
330
3B
100
AcDbMaterial
  1
ByBlock
  0
MATERIAL
  5
3C
102
{ACAD_REACTORS
330
3B
102
}
102
{ACAD_XDICTIONARY
360
37A
102
}
330
3B
100
AcDbMaterial
  1
ByLayer
  0
MATERIAL
  5
3E
102
{ACAD_REACTORS
330
3B
102
}
102
{ACAD_XDICTIONARY
360
37E
102
}
330
3B
100
AcDbMaterial
  1
Global
  0
MLINESTYLE
  5
18
102
{ACAD_REACTORS
330
17
102
}
330
17
100
AcDbMlineStyle
  2
Standard
 70
     0
  3

 62
   256
 51
90.0
 52
90.0
 71
     2
 49
0.5
 62
   256
  6
BYLAYER
 49
-0.5
 62
   256
  6
BYLAYER
  0
ACAD_PROXY_OBJECT
  5
83
102
{ACAD_REACTORS
330
82
102
}
330
82
100
AcDbProxyObject
 90
      499
 91
      503
 93
       41
310
903313A31580
  0
ACAD_PROXY_OBJECT
  5
84
102
{ACAD_REACTORS
330
82
102
}
330
82
100
AcDbProxyObject
 90
      499
 91
      503
 93
      105
310
903313A324000000000000004000
  0
ACAD_PROXY_OBJECT
  5
85
102
{ACAD_REACTORS
330
82
102
}
330
82
100
AcDbProxyObject
 90
      499
 91
      503
 93
      105
310
903313A344000000000000104000
  0
ACAD_PROXY_OBJECT
  5
86
102
{ACAD_REACTORS
330
82
102
}
330
82
100
AcDbProxyObject
 90
      499
 91
      503
 93
      105
310
903313A354000000000000144000
  0
ACAD_PROXY_OBJECT
  5
87
102
{ACAD_REACTORS
330
82
102
}
330
82
100
AcDbProxyObject
 90
      499
 91
      503
 93
      105
310
903313A384000000000000204000
  0
ACAD_PROXY_OBJECT
  5
88
102
{ACAD_REACTORS
330
82
102
}
330
82
100
AcDbProxyObject
 90
      499
 91
      503
 93
      113
310
904313A31304000000000000244000
  0
ACAD_PROXY_OBJECT
  5
89
102
{ACAD_REACTORS
330
82
102
}
330
82
100
AcDbProxyObject
 90
      499
 91
      503
 93
      113
310
904313A31364000000000000304000
  0
ACAD_PROXY_OBJECT
  5
8A
102
{ACAD_REACTORS
330
82
102
}
330
82
100
AcDbProxyObject
 90
      499
 91
      503
 93
      113
310
904313A32304000000000000344000
  0
ACAD_PROXY_OBJECT
  5
8B
102
{ACAD_REACTORS
330
82
102
}
330
82
100
AcDbProxyObject
 90
      499
 91
      503
 93
      113
310
904313A333040000000000003E4000
  0
ACAD_PROXY_OBJECT
  5
8C
102
{ACAD_REACTORS
330
82
102
}
330
82
100
AcDbProxyObject
 90
      499
 91
      503
 93
      113
310
904313A34304000000000000444000
  0
ACAD_PROXY_OBJECT
  5
8D
102
{ACAD_REACTORS
330
82
102
}
330
82
100
AcDbProxyObject
 90
      499
 91
      503
 93
      113
310
904313A35304000000000000494000
  0
ACAD_PROXY_OBJECT
  5
8E
102
{ACAD_REACTORS
330
82
102
}
330
82
100
AcDbProxyObject
 90
      499
 91
      503
 93
      121
310
905313A3130304000000000000594000
  0
ACAD_PROXY_OBJECT
  5
8F
102
{ACAD_REACTORS
330
82
102
}
330
82
100
AcDbProxyObject
 90
      499
 91
      503
 93
      105
310
903323A310000000000000010100
  0
ACAD_PROXY_OBJECT
  5
90
102
{ACAD_REACTORS
330
82
102
}
330
82
100
AcDbProxyObject
 90
      499
 91
      503
 93
      105
310
903343A310000000000000410100
  0
ACAD_PROXY_OBJECT
  5
91
102
{ACAD_REACTORS
330
82
102
}
330
82
100
AcDbProxyObject
 90
      499
 91
      503
 93
      105
310
903383A310000000000000810100
  0
ACAD_PROXY_OBJECT
  5
92
102
{ACAD_REACTORS
330
82
102
}
330
82
100
AcDbProxyObject
 90
      499
 91
      503
 93
      113
310
90431303A310000000000000910100
  0
ACAD_PROXY_OBJECT
  5
93
102
{ACAD_REACTORS
330
82
102
}
330
82
100
AcDbProxyObject
 90
      499
 91
      503
 93
      121
310
9053130303A310000000000001650100
  0
ACAD_PROXY_OBJECT
  5
94
102
{ACAD_REACTORS
330
82
102
}
330
82
100
AcDbProxyObject
 90
      499
 91
      503
 93
      257
310
90E312F31323822203D2031272D3022000000000000200FC000000000000284000
  0
ACAD_PROXY_OBJECT
  5
95
102
{ACAD_REACTORS
330
82
102
}
330
82
100
AcDbProxyObject
 90
      499
 91
      503
 93
      249
310
90D312F363422203D2031272D3022000000000000240FC000000000000284000
  0
ACAD_PROXY_OBJECT
  5
96
102
{ACAD_REACTORS
330
82
102
}
330
82
100
AcDbProxyObject
 90
      499
 91
      503
 93
      249
310
90D312F333222203D2031272D3022000000000000280FC000000000000284000
  0
ACAD_PROXY_OBJECT
  5
97
102
{ACAD_REACTORS
330
82
102
}
330
82
100
AcDbProxyObject
 90
      499
 91
      503
 93
      249
310
90D312F313622203D2031272D30220000000000002C0FC000000000000284000
  0
ACAD_PROXY_OBJECT
  5
98
102
{ACAD_REACTORS
330
82
102
}
330
82
100
AcDbProxyObject
 90
      499
 91
      503
 93
      249
310
90D332F333222203D2031272D30220000000000002E0FC000000000000284000
  0
ACAD_PROXY_OBJECT
  5
99
102
{ACAD_REACTORS
330
82
102
}
330
82
100
AcDbProxyObject
 90
      499
 91
      503
 93
      241
310
90C312F3822203D2031272D3022000000000000300FC000000000000284000
  0
ACAD_PROXY_OBJECT
  5
9A
102
{ACAD_REACTORS
330
82
102
}
330
82
100
AcDbProxyObject
 90
      499
 91
      503
 93
      249
310
90D332F313622203D2031272D3022000000000000320FC000000000000284000
  0
ACAD_PROXY_OBJECT
  5
9B
102
{ACAD_REACTORS
330
82
102
}
330
82
100
AcDbProxyObject
 90
      499
 91
      503
 93
      241
310
90C312F3422203D2031272D3022000000000000340FC000000000000284000
  0
ACAD_PROXY_OBJECT
  5
9C
102
{ACAD_REACTORS
330
82
102
}
330
82
100
AcDbProxyObject
 90
      499
 91
      503
 93
      241
310
90C332F3822203D2031272D3022000000000000360FC000000000000284000
  0
ACAD_PROXY_OBJECT
  5
9D
102
{ACAD_REACTORS
330
82
102
}
330
82
100
AcDbProxyObject
 90
      499
 91
      503
 93
      241
310
90C312F3222203D2031272D3022000000000000380FC000000000000284000
  0
ACAD_PROXY_OBJECT
  5
9E
102
{ACAD_REACTORS
330
82
102
}
330
82
100
AcDbProxyObject
 90
      499
 91
      503
 93
      241
310
90C332F3422203D2031272D30220000000000003A0FC000000000000284000
  0
ACAD_PROXY_OBJECT
  5
9F
102
{ACAD_REACTORS
330
82
102
}
330
82
100
AcDbProxyObject
 90
      499
 91
      503
 93
      161
310
90A3122203D2031272D30224000000000000284000
  0
ACAD_PROXY_OBJECT
  5
A0
102
{ACAD_REACTORS
330
82
102
}
330
82
100
AcDbProxyObject
 90
      499
 91
      503
 93
      257
310
90E312D312F3222203D2031272D30220000000000003E0FC000000000000284000
  0
ACAD_PROXY_OBJECT
  5
A1
102
{ACAD_REACTORS
330
82
102
}
330
82
100
AcDbProxyObject
 90
      499
 91
      503
 93
      225
310
90A3322203D2031272D302200000000000002100000000000000284000
  0
ACAD_PROXY_OBJECT
  5
A2
102
{ACAD_REACTORS
330
82
102
}
330
82
100
AcDbProxyObject
 90
      499
 91
      503
 93
      225
310
90A3622203D2031272D302200000000000006100000000000000284000
  0
ACAD_PROXY_OBJECT
  5
A3
102
{ACAD_REACTORS
330
82
102
}
330
82
100
AcDbProxyObject
 90
      499
 91
      503
 93
      249
310
90D31272D3022203D2031272D30220000000000000A100000000000000284000
  0
ACAD_PROXY_OBJECT
  5
2F
102
{ACAD_REACTORS
330
2A
102
}
330
2A
100
AcDbProxyObject
 90
      499
 91
      501
 93
      436
310
42CC9915DA5C99599C985B595049028333333333333E3BF0000000000000FB0107901411070040501600405405064090741402480A0340
1001
ACAD
1000
AcDbSavedByObjectVersion
1070
     0
  0
ACAD_PROXY_OBJECT
  5
31
102
{ACAD_REACTORS
330
2A
102
}
330
2A
100
AcDbProxyObject
 90
      499
 91
      501
 93
      500
310
424CD108121A5919195B90640502408333333333333E3BF0000000000000FB01079024090700405020000000000001110200405405064090740C02480A0340
1001
ACAD
1000
AcDbSavedByObjectVersion
1070
     0
  0
ACAD_PROXY_OBJECT
  5
30
102
{ACAD_REACTORS
330
2A
102
}
330
2A
100
AcDbProxyObject
 90
      499
 91
      501
 93
      436
310
42CCD915DA5C99599C985B595059028333333333333E3BF0000000000000FB0107901411070040501600405405064090741402480A0340
1001
ACAD
1000
AcDbSavedByObjectVersion
1070
     0
  0
ACAD_PROXY_OBJECT
  5
32
102
{ACAD_REACTORS
330
2A
102
}
330
2A
100
AcDbProxyObject
 90
      499
 91
      501
 93
      388
310
4150985CDA58D07406404333333333333E3BF0000000000000FB0107A41107004050150841D405064090741402480A0350
1001
ACAD
1000
AcDbSavedByObjectVersion
1070
     0
  0
ACAD_PROXY_OBJECT
  5
36
102
{ACAD_REACTORS
330
2A
102
}
330
2A
100
AcDbProxyObject
 90
      499
 91
      501
 93
      428
310
42109C9A59DA1D195B90C409028333333333333E3BF0000000000000FB010790141107004050150841D405064090741402480A029950
1001
ACAD
1000
AcDbSavedByObjectVersion
1070
     0
  0
ACAD_PROXY_OBJECT
  5
3A
102
{ACAD_REACTORS
330
2A
102
}
330
2A
100
AcDbProxyObject
 90
      499
 91
      501
 93
      452
310
42D0DBDB1BDC90DA185B99D95104090240C333333333333E3BF0000000000000FB0108901411070040501508421405064090741402480A0350
1001
ACAD
1000
AcDbSavedByObjectVersion
1070
     0
  0
ACAD_PROXY_OBJECT
  5
34
102
{ACAD_REACTORS
330
2A
102
}
330
2A
100
AcDbProxyObject
 90
      499
 91
      501
 93
      500
310
4290DBDB98D95C1D1D585B10940D028333333333333E3BF0000000000000FB0107902409070040501000000000000111010841D405064090740C02480A0340
1001
ACAD
1000
AcDbSavedByObjectVersion
1070
     0
  0
ACAD_PROXY_OBJECT
  5
35
102
{ACAD_REACTORS
330
2A
102
}
330
2A
100
AcDbProxyObject
 90
      499
 91
      501
 93
      412
310
40D11A5B50B409028333333333333E3BF0000000000000FB010790141107004050150841D405064090741402480A02677FFFFFD0
1001
ACAD
1000
AcDbSavedByObjectVersion
1070
     0
  0
ACAD_PROXY_OBJECT
  5
39
102
{ACAD_REACTORS
330
2A
102
}
330
2A
100
AcDbProxyObject
 90
      499
 91
      501
 93
      444
310
42D19858D95C185D1D195C9B90F409028333333333333E3BF0000000000000FB010790141107004050150841D405064090741402480A0350
1001
ACAD
1000
AcDbSavedByObjectVersion
1070
     0
  0
ACAD_PROXY_OBJECT
  5
2B
102
{ACAD_REACTORS
330
2A
102
}
330
2A
100
AcDbProxyObject
 90
      499
 91
      501
 93
      388
310
41119B185D240901404333333333333E3BF0000000000000F9010740A41107004050150841D405064090741402480A1B50
1001
ACAD
1000
AcDbSavedByObjectVersion
1070
     0
  0
ACAD_PROXY_OBJECT
  5
2C
102
{ACAD_REACTORS
330
2A
102
}
330
2A
100
AcDbProxyObject
 90
      499
 91
      501
 93
      476
310
43519B185D15DA5D1A115919D95CD0140901404333333333333E3BF0000000000000F9010740901411070040501600405405064090741402480A1B50
1001
ACAD
1000
AcDbSavedByObjectVersion
1070
     0
  0
ACAD_PROXY_OBJECT
  5
2D
102
{ACAD_REACTORS
330
2A
102
}
330
2A
100
AcDbProxyObject
 90
      499
 91
      501
 93
      412
310
41D1DBDD5C985D5910240902404333333333333E3BF0000000000000F9010740A411070040501641D405064090741402480A1B50
1001
ACAD
1000
AcDbSavedByObjectVersion
1070
     0
  0
ACAD_PROXY_OBJECT
  5
2E
102
{ACAD_REACTORS
330
2A
102
}
330
2A
100
AcDbProxyObject
 90
      499
 91
      501
 93
      500
310
4411DBDD5C985D5915DA5D1A115919D95CD0340902404333333333333E3BF0000000000000F9010740901411070040501600405405064090741402480A1B50
1001
ACAD
1000
AcDbSavedByObjectVersion
1070
     0
  0
ACAD_PROXY_OBJECT
  5
38
102
{ACAD_REACTORS
330
2A
102
}
330
2A
100
AcDbProxyObject
 90
      499
 91
      501
 93
      444
310
42D31A5B995C185D1D195C9B90E409028333333333333E3BF0000000000000FB010790141107004050750841D405064090741402483A0350
1001
ACAD
1000
AcDbSavedByObjectVersion
1070
     0
  0
ACAD_PROXY_OBJECT
  5
33
102
{ACAD_REACTORS
330
2A
102
}
330
2A
100
AcDbProxyObject
 90
      499
 91
      501
 93
      420
310
425499585B1A5CDD1A58D08409028333333333333E3BF0000000000000FB01079019070040501508421405064090741402480A1B40
1001
ACAD
1000
AcDbSavedByObjectVersion
1070
     0
  0
ACAD_PROXY_OBJECT
  5
37
102
{ACAD_REACTORS
330
2A
102
}
330
2A
100
AcDbProxyObject
 90
      499
 91
      501
 93
      412
310
41D51A1A58DAD95B90D409028333333333333E3BF0000000000000FB010790141107004050150C41D405064090741402480A0350
1001
ACAD
1000
AcDbSavedByObjectVersion
1070
     0
  0
XRECORD
  5
35B
102
{ACAD_REACTORS
330
352
102
}
330
352
100
AcDbXrecord
 90
        0
  0
XRECORD
  5
371
102
{ACAD_REACTORS
330
352
102
}
330
352
100
AcDbXrecord
1000
DSTYLE
1002
{
1070
    41
 40
3.0
1070
   340
340
11
1070
   140
 40
1.336918010447422
1002
}
  0
XRECORD
  5
35C
102
{ACAD_REACTORS
330
352
102
}
330
352
100
AcDbXrecord
  1
{A1898FBF-7875-4AE6-8CC2-C259DDEF5029}
  0
XRECORD
  5
355
102
{ACAD_REACTORS
330
352
102
}
330
352
100
AcDbXrecord
  1

  0
XRECORD
  5
35A
102
{ACAD_REACTORS
330
352
102
}
330
352
100
AcDbXrecord
 90
        4
  0
XRECORD
  5
357
102
{ACAD_REACTORS
330
352
102
}
330
352
100
AcDbXrecord
340
1A
  0
XRECORD
  5
359
102
{ACAD_REACTORS
330
352
102
}
330
352
100
AcDbXrecord
 90
    10781
  0
XRECORD
  5
358
102
{ACAD_REACTORS
330
352
102
}
330
352
100
AcDbXrecord
340
19
  0
XRECORD
  5
35E
102
{ACAD_REACTORS
330
352
102
}
330
352
100
AcDbXrecord
 40
0.0
  0
XRECORD
  5
361
102
{ACAD_REACTORS
330
352
102
}
330
352
100
AcDbXrecord
340
0
  0
XRECORD
  5
367
102
{ACAD_REACTORS
330
352
102
}
330
352
100
AcDbXrecord
 10
0.0
 20
0.0
 30
0.0
  0
XRECORD
  5
363
102
{ACAD_REACTORS
330
352
102
}
330
352
100
AcDbXrecord
 10
0.0
 20
0.0
 30
0.0
  0
XRECORD
  5
366
102
{ACAD_REACTORS
330
352
102
}
330
352
100
AcDbXrecord
 10
0.0
 20
0.0
 30
0.0
  0
XRECORD
  5
364
102
{ACAD_REACTORS
330
352
102
}
330
352
100
AcDbXrecord
 10
0.0
 20
0.0
 30
0.0
  0
XRECORD
  5
365
102
{ACAD_REACTORS
330
352
102
}
330
352
100
AcDbXrecord
 10
0.0
 20
0.0
 30
0.0
  0
XRECORD
  5
362
102
{ACAD_REACTORS
330
352
102
}
330
352
100
AcDbXrecord
 10
0.0
 20
0.0
 30
0.0
  0
XRECORD
  5
35F
102
{ACAD_REACTORS
330
352
102
}
330
352
100
AcDbXrecord
340
0
  0
XRECORD
  5
360
102
{ACAD_REACTORS
330
352
102
}
330
352
100
AcDbXrecord
 70
     0
  0
XRECORD
  5
356
102
{ACAD_REACTORS
330
352
102
}
330
352
100
AcDbXrecord
  1

  0
XRECORD
  5
353
102
{ACAD_REACTORS
330
352
102
}
330
352
100
AcDbXrecord
 90
        1
  0
XRECORD
  5
354
102
{ACAD_REACTORS
330
352
102
}
330
352
100
AcDbXrecord
 90
       70
  0
XRECORD
  5
36A
102
{ACAD_REACTORS
330
352
102
}
330
352
100
AcDbXrecord
340
0
  0
XRECORD
  5
370
102
{ACAD_REACTORS
330
352
102
}
330
352
100
AcDbXrecord
 10
0.0
 20
0.0
 30
0.0
  0
XRECORD
  5
36C
102
{ACAD_REACTORS
330
352
102
}
330
352
100
AcDbXrecord
 10
0.0
 20
0.0
 30
0.0
  0
XRECORD
  5
36F
102
{ACAD_REACTORS
330
352
102
}
330
352
100
AcDbXrecord
 10
0.0
 20
0.0
 30
0.0
  0
XRECORD
  5
36D
102
{ACAD_REACTORS
330
352
102
}
330
352
100
AcDbXrecord
 10
0.0
 20
0.0
 30
0.0
  0
XRECORD
  5
36E
102
{ACAD_REACTORS
330
352
102
}
330
352
100
AcDbXrecord
 10
0.0
 20
0.0
 30
0.0
  0
XRECORD
  5
36B
102
{ACAD_REACTORS
330
352
102
}
330
352
100
AcDbXrecord
 10
0.0
 20
0.0
 30
0.0
  0
XRECORD
  5
368
102
{ACAD_REACTORS
330
352
102
}
330
352
100
AcDbXrecord
340
0
  0
XRECORD
  5
369
102
{ACAD_REACTORS
330
352
102
}
330
352
100
AcDbXrecord
 70
     0
  0
XRECORD
  5
35D
102
{ACAD_REACTORS
330
352
102
}
330
352
100
AcDbXrecord
  1
{FAEB1C32-E019-11D5-929B-00C0DF256EC4}
  0
DICTIONARYVAR
  5
377
102
{ACAD_REACTORS
330
372
102
}
330
372
100
DictionaryVariables
280
     0
  1
1:1
  0
DICTIONARYVAR
  5
378
102
{ACAD_REACTORS
330
372
102
}
330
372
100
DictionaryVariables
280
     0
  1
2
  0
DICTIONARYVAR
  5
379
102
{ACAD_REACTORS
330
372
102
}
330
372
100
DictionaryVariables
280
     0
  1
1
  0
DICTIONARYVAR
  5
376
102
{ACAD_REACTORS
330
372
102
}
330
372
100
DictionaryVariables
280
     0
  1
80.000000
  0
DICTIONARYVAR
  5
375
102
{ACAD_REACTORS
330
372
102
}
330
372
100
DictionaryVariables
280
     0
  1
5.000000
  0
DICTIONARY
  5
37C
330
3D
100
AcDbDictionary
280
     1
  3
ACAD_XREC_ROUNDTRIP
360
37D
  0
DICTIONARY
  5
37A
330
3C
100
AcDbDictionary
280
     1
  3
ACAD_XREC_ROUNDTRIP
360
37B
  0
DICTIONARY
  5
37E
330
3E
100
AcDbDictionary
280
     1
  3
ACAD_XREC_ROUNDTRIP
360
37F
  0
XRECORD
  5
37D
102
{ACAD_REACTORS
330
37C
102
}
330
37C
100
AcDbXrecord
102
MATERIAL
148
0.0
149
0.0
149
0.0
 93
        0
 94
      127
282
     0
 72
     1
 77
     1
171
     1
175
     1
179
     1
273
     0
  0
XRECORD
  5
37B
102
{ACAD_REACTORS
330
37A
102
}
330
37A
100
AcDbXrecord
102
MATERIAL
148
0.0
149
0.0
149
0.0
 93
        0
 94
      127
282
     0
 72
     1
 77
     1
171
     1
175
     1
179
     1
273
     0
  0
XRECORD
  5
37F
102
{ACAD_REACTORS
330
37E
102
}
330
37E
100
AcDbXrecord
102
MATERIAL
148
0.0
149
0.0
149
0.0
 93
        0
 94
      127
282
     0
 72
     1
 77
     1
171
     1
175
     1
179
     1
273
     0
  0
ENDSEC
  0
EOF
