%FSLAX25Y25*%
%MOIN*%
G70*
G01*
G75*
G04 Layer_Color=8421504*
%ADD10R,0.03740X0.03937*%
%ADD11R,0.03937X0.03543*%
%ADD12R,0.03937X0.03740*%
%ADD13R,0.05906X0.01772*%
%ADD14R,0.03347X0.01772*%
%ADD15R,0.03347X0.01181*%
%ADD16R,0.02362X0.06102*%
%ADD17R,0.03543X0.03937*%
%ADD18R,0.03543X0.04331*%
%ADD19R,0.01575X0.03543*%
%ADD20R,0.07874X0.02362*%
%ADD21R,0.07087X0.04921*%
%ADD22R,0.03543X0.01575*%
%ADD23O,0.04331X0.01378*%
%ADD24O,0.01378X0.04331*%
%ADD25R,0.16535X0.16535*%
%ADD26R,0.04134X0.02559*%
%ADD27R,0.01181X0.05906*%
%ADD28R,0.05906X0.01181*%
%ADD29C,0.03937*%
%ADD30O,0.03347X0.01181*%
%ADD31O,0.01181X0.03347*%
%ADD32R,0.25000X0.25000*%
%ADD33R,0.08661X0.06102*%
%ADD34R,0.07008X0.14016*%
%ADD35R,0.05906X0.02165*%
%ADD36R,0.02165X0.05906*%
%ADD37C,0.02520*%
%ADD38R,0.09843X0.06890*%
%ADD39R,0.01181X0.03347*%
%ADD40R,0.08465X0.03740*%
%ADD41R,0.08465X0.12795*%
%ADD42R,0.04921X0.07087*%
%ADD43R,0.05512X0.04134*%
%ADD44R,0.06102X0.02362*%
%ADD45P,0.05568X4X360.0*%
%ADD46P,0.05568X4X270.0*%
%ADD47R,0.01772X0.05906*%
%ADD48C,0.00600*%
%ADD49C,0.01000*%
%ADD50C,0.01200*%
%ADD51C,0.00800*%
%ADD52C,0.03000*%
%ADD53C,0.01500*%
%ADD54C,0.02000*%
%ADD55C,0.00820*%
%ADD56C,0.04000*%
%ADD57C,0.02400*%
%ADD58C,0.00500*%
%ADD59C,0.06693*%
%ADD60C,0.09449*%
%ADD61C,0.07480*%
%ADD62C,0.17716*%
%ADD63C,0.22835*%
%ADD64C,0.02400*%
%ADD65R,0.08000X0.32000*%
%ADD66R,0.08000X0.08000*%
%ADD67C,0.05137*%
%ADD68C,0.07893*%
%ADD69C,0.05924*%
%ADD70C,0.11830*%
%ADD71C,0.06318*%
%ADD72C,0.02200*%
%ADD73R,0.08000X0.24000*%
%ADD74R,0.08000X0.16000*%
G04:AMPARAMS|DCode=75|XSize=99.37mil|YSize=99.37mil|CornerRadius=0mil|HoleSize=0mil|Usage=FLASHONLY|Rotation=0.000|XOffset=0mil|YOffset=0mil|HoleType=Round|Shape=Relief|Width=30mil|Gap=10mil|Entries=4|*
%AMTHD75*
7,0,0,0.09937,0.07937,0.03000,45*
%
%ADD75THD75*%
%ADD76C,0.02600*%
G04:AMPARAMS|DCode=77|XSize=126.929mil|YSize=126.929mil|CornerRadius=0mil|HoleSize=0mil|Usage=FLASHONLY|Rotation=0.000|XOffset=0mil|YOffset=0mil|HoleType=Round|Shape=Relief|Width=30mil|Gap=10mil|Entries=4|*
%AMTHD77*
7,0,0,0.12693,0.10693,0.03000,45*
%
%ADD77THD77*%
G04:AMPARAMS|DCode=78|XSize=166.299mil|YSize=166.299mil|CornerRadius=0mil|HoleSize=0mil|Usage=FLASHONLY|Rotation=0.000|XOffset=0mil|YOffset=0mil|HoleType=Round|Shape=Relief|Width=30mil|Gap=10mil|Entries=4|*
%AMTHD78*
7,0,0,0.16630,0.14630,0.03000,45*
%
%ADD78THD78*%
%ADD79R,0.06890X0.06102*%
%ADD80R,0.04134X0.05512*%
%ADD81R,0.04528X0.05709*%
%ADD82C,0.04724*%
%ADD83R,0.04528X0.07087*%
%ADD84R,0.05709X0.04528*%
%ADD85R,0.02559X0.04134*%
%ADD86R,0.13583X0.05118*%
%ADD87C,0.01969*%
%ADD88C,0.00984*%
%ADD89C,0.02362*%
%ADD90C,0.00394*%
%ADD91C,0.00787*%
%ADD92C,0.00700*%
%ADD93C,0.00799*%
%ADD94C,0.01181*%
%ADD95R,0.10472X0.10472*%
G36*
X-116791Y6791D02*
X-124665D01*
Y14665D01*
X-116791D01*
Y6791D01*
D02*
G37*
G36*
X-127735D02*
X-135609D01*
Y14665D01*
X-127735D01*
Y6791D01*
D02*
G37*
G36*
X-116791Y17735D02*
X-124665D01*
Y25609D01*
X-116791D01*
Y17735D01*
D02*
G37*
G36*
X-127735D02*
X-135609D01*
Y25609D01*
X-127735D01*
Y17735D01*
D02*
G37*
D10*
X-52350Y131300D02*
D03*
X-58650D02*
D03*
X-53050Y96700D02*
D03*
X-46750D02*
D03*
X-65950Y97000D02*
D03*
X-72250D02*
D03*
X-172250Y42400D02*
D03*
X-165950D02*
D03*
X-185650Y126100D02*
D03*
X-191950D02*
D03*
X-174450Y5400D02*
D03*
X-180750D02*
D03*
X-64750Y-49900D02*
D03*
X-71050D02*
D03*
X-63150Y-83000D02*
D03*
X-69450D02*
D03*
X-162050Y11500D02*
D03*
X-168350D02*
D03*
X-162050Y5400D02*
D03*
X-168350D02*
D03*
X-156650Y138800D02*
D03*
X-162950D02*
D03*
X-191750Y107500D02*
D03*
X-185450D02*
D03*
X-109950Y137800D02*
D03*
X-116250D02*
D03*
X-70150Y62600D02*
D03*
X-76450D02*
D03*
X-111450Y88200D02*
D03*
X-117750D02*
D03*
X-156650Y88100D02*
D03*
X-162950D02*
D03*
X-191950Y119700D02*
D03*
X-185650D02*
D03*
X-57850Y-109200D02*
D03*
X-64150D02*
D03*
X-226950Y-29400D02*
D03*
X-233250D02*
D03*
X-79450Y3500D02*
D03*
X-85750D02*
D03*
D11*
X-41500Y77850D02*
D03*
Y84150D02*
D03*
X-41400Y118650D02*
D03*
Y112350D02*
D03*
X-222600Y103250D02*
D03*
Y96950D02*
D03*
X-234500Y103250D02*
D03*
Y96950D02*
D03*
X-216700D02*
D03*
Y103250D02*
D03*
X-228600Y96950D02*
D03*
Y103250D02*
D03*
X-216300Y-68250D02*
D03*
Y-74550D02*
D03*
X-156400Y17050D02*
D03*
Y23350D02*
D03*
X-132800Y-111450D02*
D03*
Y-117750D02*
D03*
X-221400Y-41350D02*
D03*
Y-35050D02*
D03*
X-90900Y-21050D02*
D03*
Y-27350D02*
D03*
X-103000Y-54650D02*
D03*
Y-60950D02*
D03*
X-78000Y-54250D02*
D03*
Y-47950D02*
D03*
X-85400Y-27450D02*
D03*
Y-21150D02*
D03*
X-78000Y-65550D02*
D03*
Y-59250D02*
D03*
X-79700Y-27450D02*
D03*
Y-21150D02*
D03*
X-199400Y-17850D02*
D03*
Y-11550D02*
D03*
X-140500Y38650D02*
D03*
Y44950D02*
D03*
D12*
X-41300Y98950D02*
D03*
Y105250D02*
D03*
X-183900Y18650D02*
D03*
Y12350D02*
D03*
X-137700Y56150D02*
D03*
Y49850D02*
D03*
X-137300Y120150D02*
D03*
Y113850D02*
D03*
X-40700Y68850D02*
D03*
Y62550D02*
D03*
X-119900Y-111250D02*
D03*
Y-117550D02*
D03*
X-156300Y11650D02*
D03*
Y5350D02*
D03*
X-162200Y17250D02*
D03*
Y23550D02*
D03*
X-167900Y23350D02*
D03*
Y17050D02*
D03*
X-137400Y132050D02*
D03*
Y125750D02*
D03*
X-184200Y79550D02*
D03*
Y73250D02*
D03*
X-137700Y64050D02*
D03*
Y70350D02*
D03*
X-137600Y81750D02*
D03*
Y75450D02*
D03*
X-184500Y37250D02*
D03*
Y43550D02*
D03*
X-233900Y-68950D02*
D03*
Y-75250D02*
D03*
D13*
X-71217Y102684D02*
D03*
Y105243D02*
D03*
Y107802D02*
D03*
Y110361D02*
D03*
Y112920D02*
D03*
Y115480D02*
D03*
Y118039D02*
D03*
Y120598D02*
D03*
Y123157D02*
D03*
Y125716D02*
D03*
X-48383D02*
D03*
Y123157D02*
D03*
Y120598D02*
D03*
Y118039D02*
D03*
Y115480D02*
D03*
Y112920D02*
D03*
Y110361D02*
D03*
Y107802D02*
D03*
Y105243D02*
D03*
Y102684D02*
D03*
X-120939Y-105639D02*
D03*
Y-103079D02*
D03*
Y-100521D02*
D03*
Y-97961D02*
D03*
X-138261D02*
D03*
Y-100521D02*
D03*
Y-103079D02*
D03*
Y-105639D02*
D03*
X-219039Y-54739D02*
D03*
Y-52179D02*
D03*
Y-49621D02*
D03*
Y-47061D02*
D03*
X-236361D02*
D03*
Y-49621D02*
D03*
Y-52179D02*
D03*
Y-54739D02*
D03*
X-48483Y68184D02*
D03*
Y70743D02*
D03*
Y73302D02*
D03*
Y75861D02*
D03*
Y78421D02*
D03*
Y80980D02*
D03*
Y83539D02*
D03*
Y86098D02*
D03*
Y88657D02*
D03*
Y91216D02*
D03*
X-71317D02*
D03*
Y88657D02*
D03*
Y86098D02*
D03*
Y83539D02*
D03*
Y80980D02*
D03*
Y78421D02*
D03*
Y75861D02*
D03*
Y73302D02*
D03*
Y70743D02*
D03*
Y68184D02*
D03*
D14*
X-116247Y-49515D02*
D03*
Y-63885D02*
D03*
X-122153D02*
D03*
Y-49515D02*
D03*
X-117047Y-29015D02*
D03*
Y-43385D02*
D03*
X-122953D02*
D03*
Y-29015D02*
D03*
X-117547Y-9615D02*
D03*
Y-23985D02*
D03*
X-123453D02*
D03*
Y-9615D02*
D03*
X-116947Y-71415D02*
D03*
Y-85785D02*
D03*
X-122853D02*
D03*
Y-71415D02*
D03*
D15*
X-116247Y-51779D02*
D03*
Y-53747D02*
D03*
Y-55716D02*
D03*
Y-57684D02*
D03*
Y-59653D02*
D03*
Y-61621D02*
D03*
X-122153D02*
D03*
Y-59653D02*
D03*
Y-57684D02*
D03*
Y-55716D02*
D03*
Y-53747D02*
D03*
Y-51779D02*
D03*
X-117047Y-31279D02*
D03*
Y-33247D02*
D03*
Y-35216D02*
D03*
Y-37184D02*
D03*
Y-39153D02*
D03*
Y-41121D02*
D03*
X-122953D02*
D03*
Y-39153D02*
D03*
Y-37184D02*
D03*
Y-35216D02*
D03*
Y-33247D02*
D03*
Y-31279D02*
D03*
X-117547Y-11879D02*
D03*
Y-13847D02*
D03*
Y-15816D02*
D03*
Y-17784D02*
D03*
Y-19753D02*
D03*
Y-21721D02*
D03*
X-123453D02*
D03*
Y-19753D02*
D03*
Y-17784D02*
D03*
Y-15816D02*
D03*
Y-13847D02*
D03*
Y-11879D02*
D03*
X-116947Y-73679D02*
D03*
Y-75647D02*
D03*
Y-77616D02*
D03*
Y-79584D02*
D03*
Y-81553D02*
D03*
Y-83521D02*
D03*
X-122853D02*
D03*
Y-81553D02*
D03*
Y-79584D02*
D03*
Y-77616D02*
D03*
Y-75647D02*
D03*
Y-73679D02*
D03*
D16*
X-193000Y89230D02*
D03*
X-198000D02*
D03*
X-203000D02*
D03*
X-208000D02*
D03*
X-193000Y67970D02*
D03*
X-198000D02*
D03*
X-203000D02*
D03*
X-208000D02*
D03*
X-215500Y89030D02*
D03*
X-220500D02*
D03*
X-225500D02*
D03*
X-230500D02*
D03*
X-215500Y67770D02*
D03*
X-220500D02*
D03*
X-225500D02*
D03*
X-230500D02*
D03*
D17*
X-215150Y-80000D02*
D03*
X-208850D02*
D03*
X-93950Y47000D02*
D03*
X-87650D02*
D03*
X-52750Y62500D02*
D03*
X-46450D02*
D03*
X-90750Y55800D02*
D03*
X-84450D02*
D03*
X-84450Y60800D02*
D03*
X-90750D02*
D03*
X-84450Y70200D02*
D03*
X-90750D02*
D03*
X-90750Y75200D02*
D03*
X-84450D02*
D03*
X-71650Y-7400D02*
D03*
X-77950D02*
D03*
X-67950Y50700D02*
D03*
X-74250D02*
D03*
X-54450Y50500D02*
D03*
X-48150D02*
D03*
X-168350Y-100D02*
D03*
X-162050D02*
D03*
X-85450Y-49000D02*
D03*
X-91750D02*
D03*
X-60250Y-14900D02*
D03*
X-53950D02*
D03*
X-186450Y-6200D02*
D03*
X-192750D02*
D03*
X-128950Y38800D02*
D03*
X-135250D02*
D03*
X-88950Y-7400D02*
D03*
X-82650D02*
D03*
X-166650Y-6600D02*
D03*
X-172950D02*
D03*
X-39350Y-83200D02*
D03*
X-45650D02*
D03*
X-51050D02*
D03*
X-57350D02*
D03*
X-120950Y-92000D02*
D03*
X-127250D02*
D03*
D18*
X-172330Y31047D02*
D03*
X-161070D02*
D03*
Y36953D02*
D03*
X-172330D02*
D03*
D19*
X-63759Y58734D02*
D03*
X-58641D02*
D03*
Y50466D02*
D03*
X-61200D02*
D03*
X-63759D02*
D03*
D20*
X-192293Y18700D02*
D03*
Y13700D02*
D03*
X-228907Y23700D02*
D03*
Y18700D02*
D03*
Y13700D02*
D03*
Y8700D02*
D03*
Y3700D02*
D03*
X-192293D02*
D03*
Y8700D02*
D03*
X-228907Y28700D02*
D03*
Y33700D02*
D03*
Y38700D02*
D03*
Y43700D02*
D03*
Y48700D02*
D03*
Y53700D02*
D03*
Y58700D02*
D03*
X-192293Y23700D02*
D03*
Y28700D02*
D03*
Y33700D02*
D03*
Y38700D02*
D03*
Y43700D02*
D03*
Y48700D02*
D03*
Y53700D02*
D03*
Y58700D02*
D03*
D21*
X-81682Y-33400D02*
D03*
X-91918D02*
D03*
X-85682Y-55400D02*
D03*
X-95918D02*
D03*
X-91918Y-42200D02*
D03*
X-81682D02*
D03*
X-91618Y-73600D02*
D03*
X-81382D02*
D03*
X-95918Y-64500D02*
D03*
X-85682D02*
D03*
X-213418Y-41800D02*
D03*
X-203182D02*
D03*
X-67882Y-14500D02*
D03*
X-78118D02*
D03*
D22*
X-226766Y-36141D02*
D03*
Y-41259D02*
D03*
X-235034D02*
D03*
Y-38700D02*
D03*
Y-36141D02*
D03*
D23*
X-74321Y18077D02*
D03*
Y15518D02*
D03*
Y12959D02*
D03*
Y10400D02*
D03*
Y7841D02*
D03*
Y5282D02*
D03*
Y2723D02*
D03*
X-51880D02*
D03*
Y5282D02*
D03*
Y7841D02*
D03*
Y10400D02*
D03*
Y12959D02*
D03*
Y15518D02*
D03*
Y18077D02*
D03*
D24*
X-70777Y-821D02*
D03*
X-68218D02*
D03*
X-65659D02*
D03*
X-63100D02*
D03*
X-60541D02*
D03*
X-57982D02*
D03*
X-55423D02*
D03*
Y21621D02*
D03*
X-57982D02*
D03*
X-60541D02*
D03*
X-63100D02*
D03*
X-65659D02*
D03*
X-68218D02*
D03*
X-70777D02*
D03*
D26*
X-149728Y-114200D02*
D03*
X-140672Y-110460D02*
D03*
Y-117940D02*
D03*
X-217328Y-89100D02*
D03*
X-208272Y-85360D02*
D03*
Y-92840D02*
D03*
Y-105940D02*
D03*
Y-98460D02*
D03*
X-217328Y-102200D02*
D03*
D27*
X-185839Y-74330D02*
D03*
X-183870D02*
D03*
X-181902D02*
D03*
X-179933D02*
D03*
X-177965D02*
D03*
X-175996D02*
D03*
X-174028D02*
D03*
X-172059D02*
D03*
X-170091D02*
D03*
X-168122D02*
D03*
X-166154D02*
D03*
X-164185D02*
D03*
X-162216D02*
D03*
X-160248D02*
D03*
X-158280D02*
D03*
X-156311D02*
D03*
X-154342D02*
D03*
X-152374D02*
D03*
X-150406D02*
D03*
X-148437D02*
D03*
X-146468D02*
D03*
X-144500D02*
D03*
X-142532D02*
D03*
X-140563D02*
D03*
X-138594D02*
D03*
Y-13700D02*
D03*
X-140563D02*
D03*
X-142532D02*
D03*
X-144500D02*
D03*
X-146468D02*
D03*
X-148437D02*
D03*
X-150406D02*
D03*
X-152374D02*
D03*
X-154342D02*
D03*
X-156311D02*
D03*
X-158280D02*
D03*
X-160248D02*
D03*
X-162216D02*
D03*
X-164185D02*
D03*
X-166154D02*
D03*
X-168122D02*
D03*
X-170091D02*
D03*
X-172059D02*
D03*
X-174028D02*
D03*
X-175996D02*
D03*
X-177965D02*
D03*
X-179933D02*
D03*
X-181902D02*
D03*
X-183870D02*
D03*
X-185839D02*
D03*
D28*
X-131902Y-67637D02*
D03*
Y-65668D02*
D03*
Y-63700D02*
D03*
Y-61731D02*
D03*
Y-59763D02*
D03*
Y-57794D02*
D03*
Y-55826D02*
D03*
Y-53857D02*
D03*
Y-51889D02*
D03*
Y-49920D02*
D03*
Y-47952D02*
D03*
Y-45983D02*
D03*
Y-44015D02*
D03*
Y-42046D02*
D03*
Y-40078D02*
D03*
Y-38109D02*
D03*
Y-36141D02*
D03*
Y-34172D02*
D03*
Y-32204D02*
D03*
Y-30235D02*
D03*
Y-28267D02*
D03*
Y-26298D02*
D03*
Y-24330D02*
D03*
Y-22361D02*
D03*
Y-20393D02*
D03*
X-192532D02*
D03*
Y-22361D02*
D03*
Y-24330D02*
D03*
Y-26298D02*
D03*
Y-28267D02*
D03*
Y-30235D02*
D03*
Y-32204D02*
D03*
Y-34172D02*
D03*
Y-36141D02*
D03*
Y-38109D02*
D03*
Y-40078D02*
D03*
Y-42046D02*
D03*
Y-44015D02*
D03*
Y-45983D02*
D03*
Y-47952D02*
D03*
Y-49920D02*
D03*
Y-51889D02*
D03*
Y-53857D02*
D03*
Y-55826D02*
D03*
Y-57794D02*
D03*
Y-59763D02*
D03*
Y-61731D02*
D03*
Y-63700D02*
D03*
Y-65668D02*
D03*
Y-67637D02*
D03*
D30*
X-143720Y30964D02*
D03*
Y28995D02*
D03*
Y27027D02*
D03*
Y25058D02*
D03*
Y23090D02*
D03*
Y21121D02*
D03*
Y19153D02*
D03*
Y17184D02*
D03*
Y15216D02*
D03*
Y13247D02*
D03*
Y11279D02*
D03*
Y9310D02*
D03*
Y7342D02*
D03*
Y5373D02*
D03*
Y3405D02*
D03*
Y1436D02*
D03*
X-108680D02*
D03*
Y3405D02*
D03*
Y5373D02*
D03*
Y7342D02*
D03*
Y9310D02*
D03*
Y11279D02*
D03*
Y13247D02*
D03*
Y15216D02*
D03*
Y17184D02*
D03*
Y19153D02*
D03*
Y21121D02*
D03*
Y23090D02*
D03*
Y25058D02*
D03*
Y27027D02*
D03*
Y28995D02*
D03*
Y30964D02*
D03*
D31*
X-140964Y-1320D02*
D03*
X-138995D02*
D03*
X-137027D02*
D03*
X-135058D02*
D03*
X-133090D02*
D03*
X-131121D02*
D03*
X-129153D02*
D03*
X-127184D02*
D03*
X-125216D02*
D03*
X-123247D02*
D03*
X-121279D02*
D03*
X-119310D02*
D03*
X-117342D02*
D03*
X-115373D02*
D03*
X-113405D02*
D03*
X-111436D02*
D03*
Y33720D02*
D03*
X-113405D02*
D03*
X-115373D02*
D03*
X-117342D02*
D03*
X-119310D02*
D03*
X-121279D02*
D03*
X-123247D02*
D03*
X-125216D02*
D03*
X-127184D02*
D03*
X-129153D02*
D03*
X-131121D02*
D03*
X-133090D02*
D03*
X-135058D02*
D03*
X-137027D02*
D03*
X-138995D02*
D03*
X-140964D02*
D03*
D32*
X-126200Y16200D02*
D03*
D33*
X-64071Y-118500D02*
D03*
X-47929D02*
D03*
D34*
X-73096Y-101700D02*
D03*
X-110104D02*
D03*
D35*
X-97839Y103812D02*
D03*
Y106961D02*
D03*
Y110111D02*
D03*
Y113261D02*
D03*
Y116410D02*
D03*
Y119560D02*
D03*
Y122709D02*
D03*
Y125859D02*
D03*
X-130910D02*
D03*
Y122709D02*
D03*
Y119560D02*
D03*
Y116410D02*
D03*
Y113261D02*
D03*
Y110111D02*
D03*
Y106961D02*
D03*
Y103812D02*
D03*
X-144800Y103202D02*
D03*
Y106352D02*
D03*
Y109502D02*
D03*
Y112651D02*
D03*
Y115801D02*
D03*
Y118950D02*
D03*
Y122100D02*
D03*
Y125250D02*
D03*
X-177871D02*
D03*
Y122100D02*
D03*
Y118950D02*
D03*
Y115801D02*
D03*
Y112651D02*
D03*
Y109502D02*
D03*
Y106352D02*
D03*
Y103202D02*
D03*
X-144900Y54402D02*
D03*
Y57552D02*
D03*
Y60702D02*
D03*
Y63851D02*
D03*
Y67001D02*
D03*
Y70150D02*
D03*
Y73300D02*
D03*
Y76450D02*
D03*
X-177971D02*
D03*
Y73300D02*
D03*
Y70150D02*
D03*
Y67001D02*
D03*
Y63851D02*
D03*
Y60702D02*
D03*
Y57552D02*
D03*
Y54402D02*
D03*
X-97939Y54241D02*
D03*
Y57390D02*
D03*
Y60540D02*
D03*
Y63690D02*
D03*
Y66839D02*
D03*
Y69989D02*
D03*
Y73139D02*
D03*
Y76288D02*
D03*
X-131009D02*
D03*
Y73139D02*
D03*
Y69989D02*
D03*
Y66839D02*
D03*
Y63690D02*
D03*
Y60540D02*
D03*
Y57390D02*
D03*
Y54241D02*
D03*
D36*
X-103351Y131371D02*
D03*
X-106501D02*
D03*
X-109650D02*
D03*
X-112800D02*
D03*
X-115950D02*
D03*
X-119099D02*
D03*
X-122249D02*
D03*
X-125398D02*
D03*
Y98300D02*
D03*
X-122249D02*
D03*
X-119099D02*
D03*
X-115950D02*
D03*
X-112800D02*
D03*
X-109650D02*
D03*
X-106501D02*
D03*
X-103351D02*
D03*
X-150312Y130761D02*
D03*
X-153461D02*
D03*
X-156611D02*
D03*
X-159761D02*
D03*
X-162910D02*
D03*
X-166060D02*
D03*
X-169209D02*
D03*
X-172359D02*
D03*
Y97690D02*
D03*
X-169209D02*
D03*
X-166060D02*
D03*
X-162910D02*
D03*
X-159761D02*
D03*
X-156611D02*
D03*
X-153461D02*
D03*
X-150312D02*
D03*
X-150412Y81961D02*
D03*
X-153561D02*
D03*
X-156711D02*
D03*
X-159861D02*
D03*
X-163010D02*
D03*
X-166160D02*
D03*
X-169309D02*
D03*
X-172459D02*
D03*
Y48891D02*
D03*
X-169309D02*
D03*
X-166160D02*
D03*
X-163010D02*
D03*
X-159861D02*
D03*
X-156711D02*
D03*
X-153561D02*
D03*
X-150412D02*
D03*
X-103450Y81800D02*
D03*
X-106600D02*
D03*
X-109750D02*
D03*
X-112899D02*
D03*
X-116049D02*
D03*
X-119198D02*
D03*
X-122348D02*
D03*
X-125498D02*
D03*
Y48729D02*
D03*
X-122348D02*
D03*
X-119198D02*
D03*
X-116049D02*
D03*
X-112899D02*
D03*
X-109750D02*
D03*
X-106600D02*
D03*
X-103450D02*
D03*
D37*
X-20029Y105019D02*
D03*
Y100019D02*
D03*
Y95019D02*
D03*
Y90019D02*
D03*
Y85019D02*
D03*
Y80019D02*
D03*
Y75019D02*
D03*
Y70019D02*
D03*
Y65019D02*
D03*
Y60019D02*
D03*
Y55019D02*
D03*
Y50019D02*
D03*
Y45019D02*
D03*
Y40019D02*
D03*
Y35019D02*
D03*
Y30019D02*
D03*
Y25019D02*
D03*
Y20019D02*
D03*
Y15019D02*
D03*
Y10019D02*
D03*
Y5019D02*
D03*
Y19D02*
D03*
Y-4981D02*
D03*
Y-9981D02*
D03*
Y-14981D02*
D03*
Y-19981D02*
D03*
Y-24981D02*
D03*
Y-29981D02*
D03*
Y-34981D02*
D03*
Y-39981D02*
D03*
Y-44981D02*
D03*
Y-49981D02*
D03*
Y-54981D02*
D03*
Y-59981D02*
D03*
Y-64981D02*
D03*
Y-69981D02*
D03*
Y-74981D02*
D03*
Y-79981D02*
D03*
Y-84981D02*
D03*
Y-89981D02*
D03*
X-15029Y105019D02*
D03*
Y100019D02*
D03*
Y95019D02*
D03*
Y90019D02*
D03*
Y85019D02*
D03*
Y80019D02*
D03*
Y75019D02*
D03*
Y70019D02*
D03*
Y65019D02*
D03*
Y60019D02*
D03*
Y55019D02*
D03*
Y50019D02*
D03*
Y45019D02*
D03*
Y40019D02*
D03*
Y35019D02*
D03*
Y30019D02*
D03*
Y25019D02*
D03*
Y20019D02*
D03*
Y15019D02*
D03*
Y10019D02*
D03*
Y5019D02*
D03*
Y19D02*
D03*
Y-4981D02*
D03*
Y-9981D02*
D03*
Y-14981D02*
D03*
Y-19981D02*
D03*
Y-24981D02*
D03*
Y-29981D02*
D03*
Y-34981D02*
D03*
Y-39981D02*
D03*
Y-44981D02*
D03*
Y-49981D02*
D03*
Y-54981D02*
D03*
Y-59981D02*
D03*
Y-64981D02*
D03*
Y-69981D02*
D03*
Y-74981D02*
D03*
Y-79981D02*
D03*
Y-84981D02*
D03*
Y-89981D02*
D03*
X-29Y105019D02*
D03*
Y100019D02*
D03*
Y95019D02*
D03*
Y90019D02*
D03*
Y85019D02*
D03*
Y80019D02*
D03*
Y75019D02*
D03*
Y70019D02*
D03*
Y65019D02*
D03*
Y60019D02*
D03*
Y55019D02*
D03*
Y50019D02*
D03*
Y45019D02*
D03*
Y40019D02*
D03*
Y35019D02*
D03*
Y30019D02*
D03*
Y25019D02*
D03*
Y20019D02*
D03*
Y15019D02*
D03*
Y10019D02*
D03*
Y5019D02*
D03*
Y19D02*
D03*
Y-4981D02*
D03*
Y-9981D02*
D03*
Y-14981D02*
D03*
Y-19981D02*
D03*
Y-24981D02*
D03*
Y-29981D02*
D03*
Y-34981D02*
D03*
Y-39981D02*
D03*
Y-44981D02*
D03*
Y-49981D02*
D03*
Y-54981D02*
D03*
Y-59981D02*
D03*
Y-64981D02*
D03*
Y-69981D02*
D03*
Y-74981D02*
D03*
Y-79981D02*
D03*
Y-84981D02*
D03*
Y-89981D02*
D03*
X4971Y105019D02*
D03*
Y100019D02*
D03*
Y95019D02*
D03*
Y90019D02*
D03*
Y85019D02*
D03*
Y80019D02*
D03*
Y75019D02*
D03*
Y70019D02*
D03*
Y65019D02*
D03*
Y60019D02*
D03*
Y55019D02*
D03*
Y50019D02*
D03*
Y45019D02*
D03*
Y40019D02*
D03*
Y35019D02*
D03*
Y30019D02*
D03*
Y25019D02*
D03*
Y20019D02*
D03*
Y15019D02*
D03*
Y10019D02*
D03*
Y5019D02*
D03*
Y19D02*
D03*
Y-4981D02*
D03*
Y-9981D02*
D03*
Y-14981D02*
D03*
Y-19981D02*
D03*
Y-24981D02*
D03*
Y-29981D02*
D03*
Y-34981D02*
D03*
Y-39981D02*
D03*
Y-44981D02*
D03*
Y-49981D02*
D03*
Y-54981D02*
D03*
Y-59981D02*
D03*
Y-64981D02*
D03*
Y-69981D02*
D03*
Y-74981D02*
D03*
Y-79981D02*
D03*
Y-84981D02*
D03*
Y-89981D02*
D03*
D38*
X-225300Y-68900D02*
D03*
D39*
X-229237Y-74805D02*
D03*
X-227269D02*
D03*
X-225300D02*
D03*
X-223331D02*
D03*
X-221363D02*
D03*
Y-62994D02*
D03*
X-223331D02*
D03*
X-225300D02*
D03*
X-227269D02*
D03*
X-229237D02*
D03*
D40*
X-70417Y-57245D02*
D03*
Y-66300D02*
D03*
Y-75355D02*
D03*
X-71117Y-24245D02*
D03*
Y-33300D02*
D03*
Y-42355D02*
D03*
D41*
X-47583Y-66300D02*
D03*
X-48283Y-33300D02*
D03*
D42*
X-199400Y-103036D02*
D03*
Y-92800D02*
D03*
X-190533Y-103036D02*
D03*
Y-92800D02*
D03*
X-181667Y-103036D02*
D03*
Y-92800D02*
D03*
X-146200Y-102918D02*
D03*
Y-92682D02*
D03*
X-155067Y-102918D02*
D03*
Y-92682D02*
D03*
X-163933Y-102918D02*
D03*
Y-92682D02*
D03*
X-172800D02*
D03*
Y-102918D02*
D03*
X-103800Y-38718D02*
D03*
Y-28482D02*
D03*
X-81200Y47318D02*
D03*
Y37082D02*
D03*
D43*
X-126300Y-111357D02*
D03*
Y-118443D02*
D03*
D44*
X-51070Y29000D02*
D03*
Y34000D02*
D03*
Y39000D02*
D03*
Y44000D02*
D03*
X-72330Y29000D02*
D03*
Y34000D02*
D03*
Y39000D02*
D03*
Y44000D02*
D03*
X-64130Y-88300D02*
D03*
Y-93300D02*
D03*
Y-98300D02*
D03*
Y-103300D02*
D03*
X-42870Y-88300D02*
D03*
Y-93300D02*
D03*
Y-98300D02*
D03*
Y-103300D02*
D03*
D47*
X-87761Y21939D02*
D03*
X-90320D02*
D03*
X-92879D02*
D03*
X-95439D02*
D03*
Y39261D02*
D03*
X-92879D02*
D03*
X-90320D02*
D03*
X-87761D02*
D03*
D95*
X-63100Y10400D02*
D03*
M02*
