%FSLAX25Y25*%
%MOIN*%
G70*
G01*
G75*
G04 Layer_Physical_Order=4*
G04 Layer_Color=36540*
%ADD10R,0.03740X0.03937*%
%ADD11R,0.03937X0.03543*%
%ADD12R,0.03937X0.03740*%
%ADD13R,0.05906X0.01772*%
%ADD14R,0.03347X0.01772*%
%ADD15R,0.03347X0.01181*%
%ADD16R,0.02362X0.06102*%
%ADD17R,0.03543X0.03937*%
%ADD18R,0.03543X0.04331*%
%ADD19R,0.01575X0.03543*%
%ADD20R,0.07874X0.02362*%
%ADD21R,0.07087X0.04921*%
%ADD22R,0.03543X0.01575*%
%ADD23O,0.04331X0.01378*%
%ADD24O,0.01378X0.04331*%
%ADD25R,0.16535X0.16535*%
%ADD26R,0.04134X0.02559*%
%ADD27R,0.01181X0.05906*%
%ADD28R,0.05906X0.01181*%
%ADD29C,0.03937*%
%ADD30O,0.03347X0.01181*%
%ADD31O,0.01181X0.03347*%
%ADD32R,0.25000X0.25000*%
%ADD33R,0.08661X0.06102*%
%ADD34R,0.07008X0.14016*%
%ADD35R,0.05906X0.02165*%
%ADD36R,0.02165X0.05906*%
%ADD37C,0.02520*%
%ADD38R,0.09843X0.06890*%
%ADD39R,0.01181X0.03347*%
%ADD40R,0.08465X0.03740*%
%ADD41R,0.08465X0.12795*%
%ADD42R,0.04921X0.07087*%
%ADD43R,0.05512X0.04134*%
%ADD44R,0.06102X0.02362*%
%ADD45P,0.05568X4X360.0*%
%ADD46P,0.05568X4X270.0*%
%ADD47R,0.01772X0.05906*%
%ADD48C,0.00600*%
%ADD49C,0.01000*%
%ADD50C,0.01200*%
%ADD51C,0.00800*%
%ADD52C,0.03000*%
%ADD53C,0.01500*%
%ADD54C,0.02000*%
%ADD55C,0.00820*%
%ADD56C,0.04000*%
%ADD57C,0.02400*%
%ADD58C,0.00500*%
%ADD59C,0.06693*%
%ADD60C,0.09449*%
%ADD61C,0.07480*%
%ADD62C,0.17716*%
%ADD63C,0.22835*%
%ADD64C,0.02400*%
%ADD65R,0.08000X0.32000*%
%ADD66R,0.08000X0.08000*%
%ADD67C,0.05137*%
%ADD68C,0.07893*%
%ADD69C,0.05924*%
%ADD70C,0.11830*%
%ADD71C,0.06318*%
%ADD72C,0.02200*%
%ADD73R,0.08000X0.24000*%
%ADD74R,0.08000X0.16000*%
G04:AMPARAMS|DCode=75|XSize=99.37mil|YSize=99.37mil|CornerRadius=0mil|HoleSize=0mil|Usage=FLASHONLY|Rotation=0.000|XOffset=0mil|YOffset=0mil|HoleType=Round|Shape=Relief|Width=30mil|Gap=10mil|Entries=4|*
%AMTHD75*
7,0,0,0.09937,0.07937,0.03000,45*
%
%ADD75THD75*%
%ADD76C,0.02600*%
G36*
X-166600Y-49700D02*
X-168825D01*
X-169259Y-49410D01*
X-170000Y-49263D01*
X-170741Y-49410D01*
X-171175Y-49700D01*
X-182222D01*
X-182310Y-49259D01*
X-182730Y-48630D01*
X-183359Y-48210D01*
X-184100Y-48063D01*
X-184157Y-47775D01*
X-184063Y-47300D01*
X-184210Y-46559D01*
X-184630Y-45930D01*
X-185259Y-45510D01*
X-186000Y-45363D01*
X-186741Y-45510D01*
X-187370Y-45930D01*
X-187790Y-46559D01*
X-187937Y-47300D01*
X-187790Y-48041D01*
X-187370Y-48670D01*
X-186741Y-49090D01*
X-186237Y-49190D01*
X-186191Y-49259D01*
X-186426Y-49700D01*
X-194600D01*
X-200100Y-44200D01*
Y-39200D01*
X-198100Y-37200D01*
X-189077D01*
X-188990Y-37641D01*
X-188570Y-38270D01*
X-188470Y-38337D01*
Y-38830D01*
X-188890Y-39459D01*
X-189037Y-40200D01*
X-188890Y-40941D01*
X-188470Y-41570D01*
X-187841Y-41990D01*
X-187100Y-42137D01*
X-186359Y-41990D01*
X-185730Y-41570D01*
X-185310Y-40941D01*
X-185163Y-40200D01*
X-185310Y-39459D01*
X-185730Y-38830D01*
X-185830Y-38763D01*
Y-38270D01*
X-185410Y-37641D01*
X-185322Y-37200D01*
X-166600D01*
Y-49700D01*
D02*
G37*
%LPC*%
G36*
X-170200Y-43363D02*
X-170941Y-43510D01*
X-171570Y-43930D01*
X-171990Y-44559D01*
X-172137Y-45300D01*
X-171990Y-46041D01*
X-171570Y-46670D01*
X-170941Y-47090D01*
X-170200Y-47237D01*
X-169459Y-47090D01*
X-168830Y-46670D01*
X-168410Y-46041D01*
X-168263Y-45300D01*
X-168410Y-44559D01*
X-168830Y-43930D01*
X-169459Y-43510D01*
X-170200Y-43363D01*
D02*
G37*
G36*
X-170100Y-38163D02*
X-170841Y-38310D01*
X-171470Y-38730D01*
X-171890Y-39359D01*
X-172037Y-40100D01*
X-171890Y-40841D01*
X-171470Y-41470D01*
X-170841Y-41890D01*
X-170100Y-42037D01*
X-169359Y-41890D01*
X-168730Y-41470D01*
X-168310Y-40841D01*
X-168163Y-40100D01*
X-168310Y-39359D01*
X-168730Y-38730D01*
X-169359Y-38310D01*
X-170100Y-38163D01*
D02*
G37*
%LPD*%
D48*
X-155450Y-6850D02*
X-150300Y-1700D01*
X-116400D01*
X-42900Y-71500D02*
X-41600Y-72800D01*
X-40050D01*
X-39250Y-72000D01*
X-42900Y-71500D02*
Y-25330D01*
X-116400Y-1700D02*
X-112300Y2400D01*
X-116776Y-5700D02*
X-116600D01*
X-121130Y-18850D02*
X-118280Y-21700D01*
X-126300Y-18850D02*
X-121130D01*
X-129150Y-21700D02*
X-126300Y-18850D01*
X-115900Y-12050D02*
X-112800D01*
X-110650Y-14200D01*
Y-18430D02*
Y-14200D01*
X-117550Y-10400D02*
Y-6474D01*
Y-10400D02*
X-115900Y-12050D01*
X-117550Y-6474D02*
X-116776Y-5700D01*
X-134130Y-21700D02*
X-129150D01*
X-118280D02*
X-113920D01*
X-189050Y-14950D02*
X-138900D01*
X-188470Y-16350D02*
X-139480D01*
X-134130Y-21700D01*
X-138900Y-14950D02*
X-133550Y-20300D01*
X-120550Y-17450D02*
X-117700Y-20300D01*
X-114500D01*
X-126880Y-17450D02*
X-120550D01*
X-129730Y-20300D02*
X-126880Y-17450D01*
X-133550Y-20300D02*
X-129730D01*
X-195500Y-32200D02*
X-194500Y-31200D01*
X-198600Y-32200D02*
X-195500D01*
X-200600Y-30200D02*
X-198600Y-32200D01*
X-114500Y-20300D02*
X-112050Y-17850D01*
Y-14950D01*
X-113550Y-13450D02*
X-112050Y-14950D01*
X-116490Y-13450D02*
X-113550D01*
X-200700Y-30200D02*
X-200600D01*
X-113920Y-21700D02*
X-110650Y-18430D01*
X-193100Y-20980D02*
X-188470Y-16350D01*
X-193100Y-31780D02*
Y-20980D01*
X-194920Y-33600D02*
X-193100Y-31780D01*
X-198000Y-33600D02*
X-194920D01*
X-200600Y-36200D02*
X-198000Y-33600D01*
X-60150Y36900D02*
Y43100D01*
X-62350Y34700D02*
X-60150Y36900D01*
X-73480Y34700D02*
X-62350D01*
X-72200Y55150D02*
X-60150Y43100D01*
X-72200Y55150D02*
Y63170D01*
X-104300Y18587D02*
X-103687Y19200D01*
X-101020D01*
X-96500Y23720D01*
Y34920D01*
X-72200Y63170D02*
X-66400Y68970D01*
Y77025D01*
X-60850Y82575D01*
X-57625D01*
X-55750Y80700D01*
X-69200Y95350D02*
Y104305D01*
X-73350Y85450D02*
X-70150Y88650D01*
X-73350Y74300D02*
Y85450D01*
X-70150Y88650D02*
X-63150D01*
X-62100Y89700D01*
Y92150D01*
X-63400Y93450D02*
X-62100Y92150D01*
X-67300Y93450D02*
X-63400D01*
X-69200Y95350D02*
X-67300Y93450D01*
X-71950Y73650D02*
Y84730D01*
X-69430Y87250D01*
X-62570D01*
X-60700Y89120D01*
Y93350D01*
X-62200Y94850D02*
X-60700Y93350D01*
X-66650Y94850D02*
X-62200D01*
X-67800Y96000D02*
X-66650Y94850D01*
X-67800Y103725D02*
X-64150Y107375D01*
X-57625D01*
X-55850Y105600D01*
X-67800Y96000D02*
Y103725D01*
X-116800Y41224D02*
Y43500D01*
Y41224D02*
X-116776Y41200D01*
X-64730Y108775D02*
X-57575D01*
X-69200Y104305D02*
X-64730Y108775D01*
X-101465Y46185D02*
X-73350Y74300D01*
X-100815Y44785D02*
X-71950Y73650D01*
X-181200Y107500D02*
X-175800Y112900D01*
X-100700Y83400D02*
X-94090Y90010D01*
X-92101Y88610D02*
X-91100Y87609D01*
X-149300Y115800D02*
X-147100D01*
X-83700Y116009D02*
X-82900Y115209D01*
X-144100Y99300D02*
X-140300Y95500D01*
X-142700Y99880D02*
X-139720Y96900D01*
X-142700Y99880D02*
Y111380D01*
X-83700Y117509D02*
X-82900Y118309D01*
X-149300Y115800D02*
Y115900D01*
X-147100Y115780D02*
Y115800D01*
Y115780D02*
X-142700Y111380D01*
X-18600Y54800D02*
X-15100D01*
X-22400Y58600D02*
X-18600Y54800D01*
X-15100D02*
X-12600Y57300D01*
X-17609Y92600D02*
Y92657D01*
X-187300Y98500D02*
X-185100Y96300D01*
X-192600Y98500D02*
X-187300D01*
X-194700Y96400D02*
X-192600Y98500D01*
X-194700Y86600D02*
Y96400D01*
Y86600D02*
X-193000Y84900D01*
X-185100Y75300D02*
Y96300D01*
X-198000Y84900D02*
X-196100Y86800D01*
Y88300D01*
Y87200D02*
Y88300D01*
X-92101Y88610D02*
X-91900D01*
X-93510D02*
X-92101D01*
X-91990Y90010D02*
X-91100Y90900D01*
X-91990Y90010D02*
X-91490D01*
X-94090D02*
X-91990D01*
X-91490D02*
X-91000Y90500D01*
X-8500Y33500D02*
X-2500Y27500D01*
X-8500Y33500D02*
Y38500D01*
X-73400Y25600D02*
X-67600Y19800D01*
X-151530Y-106000D02*
X-144500D01*
X-135500Y-115000D01*
X-204500Y-94000D02*
X-198000Y-100500D01*
X-135500Y-115000D02*
X-66500D01*
X-60500Y-109000D01*
X-40000D01*
X-204500Y-94000D02*
Y-88000D01*
X-231500Y-71500D02*
Y-57600D01*
X-229700Y-55800D01*
X-208500Y-94000D02*
Y-89000D01*
X-16600Y-94700D02*
X-7600D01*
X-32450Y-110550D02*
X-16600Y-94700D01*
X-7600D02*
X-6600Y-93700D01*
X-59000Y-110500D02*
X-39000D01*
X-65000Y-116500D02*
X-59000Y-110500D01*
X-150500Y-116500D02*
X-65000D01*
X-162500Y-105500D02*
X-151500Y-116500D01*
X-150500D01*
X-225600Y-71200D02*
Y-17200D01*
X-150500Y-116500D02*
X-149000D01*
X-214600Y-108200D02*
Y-87200D01*
X-6600Y-93700D02*
Y-64200D01*
X-171000Y-84200D02*
X-166100Y-79300D01*
X-100120Y82000D02*
X-93510Y88610D01*
X-216800Y-27400D02*
X-213100Y-23700D01*
X-178100Y54720D02*
X-173680Y50300D01*
X-256000Y87900D02*
X-255700D01*
X-255100Y87300D01*
X-178100Y54720D02*
Y68300D01*
X-185100Y75300D02*
X-178100Y68300D01*
X-149200Y112700D02*
X-147000D01*
X-124950Y83400D02*
X-100700D01*
X-124370Y82000D02*
X-100120D01*
X-148550Y64750D02*
X-141620D01*
X-124370Y82000D01*
X-142200Y66150D02*
X-124950Y83400D01*
X-148550Y66150D02*
X-142200D01*
X-149500Y67100D02*
X-148550Y66150D01*
X-149500Y63800D02*
X-148550Y64750D01*
X-184000Y115776D02*
Y115900D01*
X-184024Y115800D02*
X-184000Y115776D01*
X-223600Y-61970D02*
Y-26700D01*
X-222800Y13700D02*
X-217100Y8000D01*
X-219100Y-82700D02*
X-214600Y-87200D01*
X-223600Y-26700D02*
X-217100Y-20200D01*
Y8000D01*
X-222600Y3600D02*
X-219600Y600D01*
Y-11200D02*
Y600D01*
X-225600Y-17200D02*
X-219600Y-11200D01*
X-39000Y-110500D02*
X-26325Y-97825D01*
X-26050Y-91800D02*
X-25850Y-91600D01*
X-26325Y-97825D02*
X-26050Y-97550D01*
Y-91800D01*
X-40000Y-109000D02*
X-28700Y-97700D01*
Y-93650D01*
X-32450Y-115250D02*
Y-110550D01*
X-155600Y-120200D02*
X-37400D01*
X-32450Y-115250D01*
X-140300Y95500D02*
X-114400D01*
X-139720Y96900D02*
X-114980D01*
X-100650Y111230D01*
Y114580D01*
X-95280Y119950D01*
X-114400Y95500D02*
X-99250Y110650D01*
Y114000D01*
X-94700Y118550D01*
X-149200Y112700D02*
X-146000D01*
X-144100Y110800D01*
Y99300D02*
Y110800D01*
X-94700Y118550D02*
X-87250D01*
X-84229Y117509D02*
X-83700D01*
X-86670Y119950D02*
X-84229Y117509D01*
X-95280Y119950D02*
X-86670D01*
X-84709Y116009D02*
X-83700D01*
X-87250Y118550D02*
X-84709Y116009D01*
X-116800Y43500D02*
X-115515Y44785D01*
X-32748Y112599D02*
Y119948D01*
X-31549Y113131D02*
Y120563D01*
X-30349Y113628D02*
Y121060D01*
X-29149Y114125D02*
Y121557D01*
Y114125D02*
X-20250Y105226D01*
X-30349Y113628D02*
X-21450Y104729D01*
X-31549Y113131D02*
X-22650Y104232D01*
X-32748Y112599D02*
X-23900Y103750D01*
X-149650Y139050D02*
X-124950D01*
X-194500Y-31200D02*
Y-20400D01*
X-189050Y-14950D01*
X-231500Y-71500D02*
X-227700Y-75300D01*
X-217200D01*
X-79900Y19550D02*
Y27400D01*
X-76100Y31200D01*
X-62850Y54600D02*
X-56550Y48300D01*
X-62850Y54600D02*
Y70505D01*
X-59480Y73875D01*
X-57500D01*
X-85050Y14400D02*
X-79900Y19550D01*
X-219200Y-25800D02*
X-215100Y-21700D01*
X-219200Y-59153D02*
Y-25800D01*
X-198900Y-69400D02*
X-197100Y-71200D01*
X-217200Y-75300D02*
X-204500Y-88000D01*
X-199600Y-84200D02*
X-171000D01*
X-223600Y-61970D02*
X-217570Y-68000D01*
X-204750Y-75050D02*
X-199600Y-80200D01*
X-182100D01*
X-222900Y18600D02*
X-217900D01*
X-215100Y15800D01*
Y-21700D02*
Y15800D01*
X-219200Y-59153D02*
X-211753Y-66600D01*
X-214600Y-108200D02*
X-211500Y-111300D01*
X-211000Y-111800D02*
X-164000D01*
X-211500Y-111300D02*
X-211000Y-111800D01*
X-164000D02*
X-155600Y-120200D01*
X-208500Y-94000D02*
X-197300Y-105200D01*
X-197000Y-105500D01*
X-157030Y-100500D02*
X-151530Y-106000D01*
X-198000Y-100500D02*
X-157030D01*
X-197000Y-105500D02*
X-162500D01*
X-208500Y-106000D02*
Y-102500D01*
Y-106000D02*
X-207700Y-106800D01*
X-163000D01*
X-152100Y-117700D01*
X-62700D01*
X-57000Y-112000D01*
X-38000D01*
X-23400Y-97400D01*
Y-90050D01*
X-26600Y-65300D02*
Y-59900D01*
X-29000Y-57500D02*
X-26600Y-59900D01*
X-30500Y-64900D02*
Y-3200D01*
X-30700Y-65100D02*
X-30500Y-64900D01*
X-68200Y25500D02*
X-63900Y21200D01*
X-29000Y-57500D02*
Y-3000D01*
X-53200Y21200D02*
X-29000Y-3000D01*
X-63900Y21200D02*
X-53200D01*
X-67600Y19800D02*
X-55800D01*
X-53500D01*
X-30500Y-3200D01*
X-28900Y9600D02*
X-27900Y10600D01*
X-14100D01*
X-10000Y6500D01*
X-23900Y79300D02*
X-22400Y77800D01*
Y58600D02*
Y77800D01*
X-23900Y79300D02*
Y103750D01*
X-45900Y133100D02*
X-32748Y119948D01*
X-12529Y52519D02*
X-9600Y55448D01*
Y96200D02*
X-5600Y100200D01*
X-9600Y55448D02*
Y96200D01*
X-21300Y118800D02*
X-18100D01*
X-5600Y106300D01*
Y100200D02*
Y106300D01*
X-123400Y140600D02*
X-43100D01*
X-114473Y139400D02*
X-43597D01*
X-113976Y138200D02*
X-44094D01*
X-113479Y137000D02*
X-44591D01*
X-112982Y135800D02*
X-45088D01*
X-45585Y134600D02*
X-31549Y120563D01*
X-45088Y135800D02*
X-30349Y121060D01*
X-44591Y137000D02*
X-29149Y121557D01*
X-122200Y129976D02*
X-113976Y138200D01*
X-44094D02*
X-27948Y122054D01*
X-123400Y130473D02*
X-114473Y139400D01*
X-43597D02*
X-26748Y122552D01*
X-124950Y139050D02*
X-123400Y140600D01*
X-43100D02*
X-21300Y118800D01*
X-96150Y133400D02*
X-46200D01*
X-97550Y132000D02*
X-96150Y133400D01*
X-46200D02*
X-45900Y133100D01*
X-210200Y-73600D02*
X-210000Y-73800D01*
X-199600Y-84200D01*
X-225600Y-71200D02*
X-223700Y-73100D01*
X-220789D01*
X-210700D02*
X-210000Y-73800D01*
X-220789Y-73100D02*
X-210700D01*
X-118950Y-10990D02*
X-116490Y-13450D01*
X-118950Y-10990D02*
Y-6626D01*
X-119876Y-5700D02*
X-118950Y-6626D01*
X-123750Y-6750D02*
X-122850Y-5850D01*
X-123750Y-8930D02*
Y-6750D01*
X-125370Y-10550D02*
X-123750Y-8930D01*
X-197450Y-10550D02*
X-125370D01*
X-230500Y93500D02*
X-228700Y91700D01*
X-184824Y113500D02*
X-184000Y112676D01*
X-223970Y86950D02*
X-218710Y92210D01*
X-228700Y88270D02*
Y91700D01*
Y88270D02*
X-227380Y86950D01*
X-223970D01*
X-184029Y115900D02*
X-184000D01*
X-185029Y114900D02*
X-184029Y115900D01*
X-224550Y88350D02*
X-220110Y92790D01*
X-226800Y88350D02*
X-224550D01*
X-227300Y91500D02*
X-225500Y93300D01*
X-227300Y88850D02*
Y91500D01*
Y88850D02*
X-226800Y88350D01*
X-185724Y113500D02*
X-184824D01*
X-186050D02*
X-185724D01*
X-206180Y114900D02*
X-185029D01*
X-220110Y92790D02*
Y100970D01*
X-205600Y113500D02*
X-186050D01*
X-218710Y92210D02*
Y100390D01*
X-220110Y100970D02*
X-206180Y114900D01*
X-218710Y100390D02*
X-205600Y113500D01*
X-220550Y84750D02*
X-218550Y86750D01*
Y88230D01*
X-212800Y93980D01*
Y99200D02*
X-203100Y108900D01*
X-181780D01*
X-176380Y114300D01*
X-145550Y122400D02*
X-139550Y116400D01*
X-125800D01*
X-211300Y93500D02*
Y98720D01*
X-202520Y107500D01*
X-181200D01*
X-212800Y93980D02*
Y99200D01*
X-146130Y121000D02*
X-138430Y113300D01*
X-126200D01*
X-125900Y113000D01*
X-196100Y88300D02*
Y97100D01*
X-193300Y99900D01*
X-186700D01*
X-183700Y96900D01*
Y75880D02*
Y96900D01*
Y75880D02*
X-176700Y68880D01*
Y55300D02*
Y68880D01*
Y55300D02*
X-173100Y51700D01*
X-143300D02*
X-129100Y65900D01*
X-126200D01*
X-125200Y66900D01*
X-173100Y51700D02*
X-164111D01*
X-164011Y51600D01*
X-162189D01*
X-162089Y51700D01*
X-143300D01*
X-173680Y50300D02*
X-164691D01*
X-164591Y50200D01*
X-161609D01*
X-161509Y50300D01*
X-122900Y64400D02*
X-122800Y64300D01*
X-142720Y50300D02*
X-128620Y64400D01*
X-122900D01*
X-161509Y50300D02*
X-142720D01*
X-57650Y117100D02*
X-55900Y115350D01*
X-62850Y117100D02*
X-57650D01*
X-80450Y99500D02*
X-62850Y117100D01*
X-80450Y75070D02*
Y99500D01*
X-116665Y46185D02*
X-101465D01*
X-115515Y44785D02*
X-100815D01*
X-55750Y75625D02*
Y75700D01*
X-57500Y73875D02*
X-55750Y75625D01*
X-99500Y14400D02*
X-85050D01*
X-27500Y-55650D02*
Y-2803D01*
Y-55650D02*
X-23550Y-59600D01*
Y-65250D02*
Y-59600D01*
X-53141Y22839D02*
X-27500Y-2803D01*
X-61238Y22839D02*
X-53141D01*
X-65600Y27200D02*
X-61238Y22839D01*
X-161220Y122400D02*
X-145550D01*
X-217100Y86350D02*
X-215500Y84750D01*
X-217100Y86350D02*
Y87700D01*
X-211300Y93500D01*
X-176380Y114300D02*
X-169320D01*
X-161220Y122400D01*
X-175800Y112900D02*
X-168740D01*
X-160640Y121000D01*
X-146130D01*
X-125600Y106900D02*
Y110189D01*
X-121000Y129479D02*
X-113479Y137000D01*
X-15400Y84500D02*
X-12600Y87300D01*
X-21450Y86774D02*
Y104729D01*
Y86774D02*
X-19176Y84500D01*
X-15400D01*
X-119800Y128982D02*
X-112982Y135800D01*
X-14700Y90200D02*
X-12600Y92300D01*
X-20250Y91550D02*
Y105226D01*
Y91550D02*
X-18900Y90200D01*
X-14700D01*
X-27948Y115051D02*
Y122054D01*
Y115051D02*
X-20847Y107950D01*
X-17800D01*
X-26748Y115549D02*
Y122552D01*
Y115549D02*
X-21810Y110610D01*
X-17609Y92657D02*
X-15200Y95066D01*
X-21810Y110610D02*
X-16310D01*
X-15200Y109500D01*
Y95066D02*
Y109500D01*
X-119800Y113210D02*
Y128982D01*
X-112485Y134600D02*
X-45585D01*
X-118600Y128485D02*
X-112485Y134600D01*
X-20900Y82300D02*
X-17600D01*
X-22650Y84050D02*
X-20900Y82300D01*
X-22650Y84050D02*
Y104232D01*
X-118600Y113707D02*
Y128485D01*
X-122800Y110000D02*
X-122600D01*
X-125600Y110189D02*
X-123400Y112389D01*
Y130473D01*
X-122600Y110000D02*
X-122200Y110400D01*
Y112660D01*
Y129976D01*
X-121000Y106180D02*
Y129479D01*
X-121350Y105830D02*
X-121000Y106180D01*
X-119800Y113210D02*
X-118895Y112305D01*
Y110065D02*
Y112305D01*
Y110065D02*
X-118750Y109920D01*
X-118600Y113707D02*
X-116550Y111657D01*
X-116960Y108380D02*
X-116550Y108790D01*
X-116960Y106540D02*
Y108380D01*
X-117000Y106500D02*
X-116960Y106540D01*
X-116550Y108790D02*
Y111657D01*
X-104700Y4700D02*
Y4808D01*
X-103908Y5600D01*
X-101225D01*
X-93500Y-2125D01*
Y-11550D02*
Y-2125D01*
Y-11550D02*
X-89890Y-15160D01*
X-55050D01*
X-44300Y-25910D01*
Y-72080D02*
Y-25910D01*
Y-72080D02*
X-42080Y-74300D01*
X-40150D01*
X-39250Y-75200D01*
Y-72000D02*
Y-71800D01*
X-104700Y7908D02*
Y8100D01*
Y7908D02*
X-103893Y7100D01*
X-92100Y-10970D02*
Y-1545D01*
Y-10970D02*
X-89310Y-13760D01*
X-54470D01*
X-42900Y-25330D01*
X-103893Y7100D02*
X-100745D01*
X-92100Y-1545D01*
X-101600Y20600D02*
X-97900Y24300D01*
Y35500D01*
X-93720Y39680D01*
X-76480D01*
X-72900Y36100D01*
X-63000D01*
X-61650Y37450D01*
Y42500D01*
X-73600Y54450D02*
X-61650Y42500D01*
X-73600Y54450D02*
Y63750D01*
X-67800Y69550D01*
Y77605D01*
X-61430Y83975D01*
X-57625D01*
X-55750Y85850D01*
X-96500Y34920D02*
X-93140Y38280D01*
X-77060D01*
X-73480Y34700D01*
X-102919Y20600D02*
X-101600D01*
X-104300Y18400D02*
Y18587D01*
X-103800Y21250D02*
X-103569D01*
X-102919Y20600D01*
X-100491Y15391D02*
X-99500Y14400D01*
X-101700Y15781D02*
X-101309Y15391D01*
X-100491D01*
X-101700Y12682D02*
X-101382Y13000D01*
X-84470D01*
X-78500Y18970D01*
Y26820D01*
X-75520Y29800D01*
X-53800D01*
X-48120Y35480D01*
Y47720D01*
X-50100Y49700D02*
X-48120Y47720D01*
X-55900Y49700D02*
X-50100D01*
X-61450Y55250D02*
X-55900Y49700D01*
X-61450Y55250D02*
Y69925D01*
X-58900Y72475D01*
X-57575D01*
X-55750Y70650D01*
X-54380Y31200D02*
X-49520Y36060D01*
Y47140D01*
X-50680Y48300D02*
X-49520Y47140D01*
X-76100Y31200D02*
X-54380D01*
X-56550Y48300D02*
X-50680D01*
X-124000Y32050D02*
X-123450Y31500D01*
Y31300D02*
X-122650Y30500D01*
X-123450Y31300D02*
Y31500D01*
X-124000Y32050D02*
Y32700D01*
Y43670D01*
X-125850Y30500D02*
X-125400Y30950D01*
Y44250D01*
X-118260Y51390D02*
X-106110D01*
X-81850Y75650D01*
Y100150D01*
X-63500Y118500D01*
X-57650D01*
X-55900Y120250D01*
X-124000Y43670D02*
X-117680Y49990D01*
X-105530D01*
X-125400Y44250D02*
X-118260Y51390D01*
X-105530Y49990D02*
X-80450Y75070D01*
X-24510Y54510D02*
X-12600Y42600D01*
X-24510Y54510D02*
Y68610D01*
X-26750Y70850D02*
X-24510Y68610D01*
X-26750Y70850D02*
Y94500D01*
X-41450Y109200D02*
X-26750Y94500D01*
X-118515Y44335D02*
X-116665Y46185D01*
X-118515Y43155D02*
Y44335D01*
X-119876Y41200D02*
Y41794D01*
X-119980Y41690D02*
X-119876Y41794D01*
X-118515Y43155D01*
X-57575Y108775D02*
X-55800Y110550D01*
X-207500Y-18620D02*
X-198030Y-9150D01*
X-206100Y-19200D02*
X-197450Y-10550D01*
X-206100Y-61850D02*
Y-19200D01*
X-200800Y-66900D02*
Y-65410D01*
X-198030Y-9150D02*
X-125950D01*
X-125400Y-8600D01*
Y-6500D01*
X-126050Y-5903D02*
Y-5850D01*
X-125400Y-6500D01*
X-220000Y28800D02*
X-217100D01*
X-213100Y24800D01*
Y-23700D02*
Y24800D01*
X-201000Y-69400D02*
X-198900D01*
X-216800Y-55047D02*
Y-27400D01*
X-206100Y-61850D02*
X-205110Y-62840D01*
X-207500Y-62430D02*
X-205690Y-64240D01*
X-207500Y-62430D02*
Y-18620D01*
X-205110Y-62840D02*
X-202340D01*
X-201970Y-64240D02*
X-200800Y-65410D01*
X-205690Y-64240D02*
X-201970D01*
X-202340Y-62840D02*
X-200700Y-61200D01*
X-211753Y-66600D02*
X-209092D01*
X-177100Y-82500D02*
X-174000Y-79400D01*
X-199300Y-82500D02*
X-177100D01*
X-206500Y-75300D02*
X-199300Y-82500D01*
X-204750Y-75050D02*
Y-70942D01*
X-209389Y-68000D02*
X-206500Y-70889D01*
Y-75300D02*
Y-70889D01*
X-217570Y-68000D02*
X-209389D01*
X-209092Y-66600D02*
X-204750Y-70942D01*
X-216800Y-55047D02*
X-210404Y-61444D01*
Y-63546D02*
Y-61444D01*
Y-63546D02*
X-204550Y-69400D01*
X-201000D01*
D49*
X-209500Y-16200D02*
Y26500D01*
X-204700Y31300D01*
X-166747D01*
X-158324Y39724D01*
X-152976D01*
X-149100Y43600D01*
X-144300D01*
X-134600Y53300D01*
X-120600D01*
X-111550Y62350D01*
X-106200D01*
X-86750Y81800D01*
Y104000D01*
X-84500Y106250D01*
X17883Y76437D02*
X21294Y74000D01*
Y77655D01*
X17883Y76437D02*
X23000D01*
D51*
X-37100Y32500D02*
X-31900Y27300D01*
X-14200D01*
X-5800Y18900D01*
X-11200Y-60900D02*
X-5800Y-55500D01*
Y18900D01*
X-11200Y-71700D02*
Y-60900D01*
X-12000Y-72500D02*
X-11200Y-71700D01*
X-17500Y-72500D02*
X-12000D01*
X16500Y71500D02*
Y79500D01*
Y71500D02*
X24500D01*
Y79500D01*
X16500D02*
X24500D01*
D52*
X-57100Y-66300D02*
X-54100D01*
X-106900Y-67400D02*
X-105100Y-69200D01*
X-83000D01*
X-80100Y-66300D01*
X-57100D01*
X-168100Y-48200D02*
X-148800Y-67500D01*
X-108942D01*
X-108842Y-67400D01*
X-106900D01*
D61*
X-255100Y87300D02*
D03*
D76*
X-155450Y-6850D02*
D03*
X-104700Y4700D02*
D03*
X-112300Y2400D02*
D03*
X-116600Y-5700D02*
D03*
X-126300Y-6800D02*
D03*
X-37100Y32500D02*
D03*
X-17500Y-72500D02*
D03*
X-125800Y116400D02*
D03*
X-84500Y106250D02*
D03*
X-91100Y87609D02*
D03*
Y90900D02*
D03*
X-55850Y110450D02*
D03*
Y105600D02*
D03*
Y70650D02*
D03*
Y75700D02*
D03*
Y80700D02*
D03*
Y85850D02*
D03*
X-82900Y118440D02*
D03*
Y115209D02*
D03*
X-41450Y109200D02*
D03*
X-55900Y115350D02*
D03*
Y120250D02*
D03*
X-97550Y132000D02*
D03*
X-17800Y107950D02*
D03*
X-220550Y84750D02*
D03*
X-215500D02*
D03*
X-230500Y93500D02*
D03*
X-225500Y93300D02*
D03*
X-198000Y84900D02*
D03*
X-193000D02*
D03*
X-204500Y-88000D02*
D03*
X-8500Y38500D02*
D03*
X-2500Y27500D02*
D03*
X-73400Y25600D02*
D03*
X-68200Y25500D02*
D03*
X-65650Y27480D02*
D03*
X-208500Y-89000D02*
D03*
X-29000Y9500D02*
D03*
X-10000Y6500D02*
D03*
X-208500Y-102500D02*
D03*
X-197100Y-71200D02*
D03*
X-209500Y-16200D02*
D03*
X-222600Y3600D02*
D03*
X-222800Y13700D02*
D03*
X-222900Y18600D02*
D03*
X-149300Y115900D02*
D03*
X-149760Y63890D02*
D03*
X-149500Y67100D02*
D03*
X-184000Y115900D02*
D03*
Y112676D02*
D03*
X-149200Y112700D02*
D03*
X-149650Y139050D02*
D03*
X-121350Y105830D02*
D03*
X-125600Y106900D02*
D03*
X-125200Y66900D02*
D03*
X-12600Y42600D02*
D03*
Y92300D02*
D03*
X-17600Y82300D02*
D03*
X-12600Y87300D02*
D03*
Y57300D02*
D03*
X-17609Y92600D02*
D03*
X-116880Y106800D02*
D03*
X-12529Y52519D02*
D03*
X-186000Y-44000D02*
D03*
X-200600Y-36200D02*
D03*
X-197700Y-43800D02*
D03*
X-200800Y-66900D02*
D03*
X-200700Y-61200D02*
D03*
X-166100Y-79300D02*
D03*
X-174000Y-79400D02*
D03*
X-197800Y-40000D02*
D03*
X-229700Y-55800D02*
D03*
X-182100Y-80200D02*
D03*
X-219100Y-82700D02*
D03*
X-6700Y-64000D02*
D03*
X-200700Y-30200D02*
D03*
X-54100Y-66300D02*
D03*
X-57100D02*
D03*
X-28700Y-93650D02*
D03*
X-23400Y-90050D02*
D03*
X-23550Y-65250D02*
D03*
X-39250Y-75200D02*
D03*
X-220000Y28800D02*
D03*
X-26300Y-91500D02*
D03*
X-30700Y-65100D02*
D03*
X-27300Y-65200D02*
D03*
X-119876Y-5700D02*
D03*
X-122900Y-6800D02*
D03*
X-125900Y113000D02*
D03*
X-123400Y109260D02*
D03*
X-118750Y109920D02*
D03*
X-122800Y64300D02*
D03*
X-119980Y41690D02*
D03*
X-116776Y41200D02*
D03*
X-125850Y30500D02*
D03*
X-122650D02*
D03*
X-101720Y15780D02*
D03*
X-101740Y12570D02*
D03*
X-104300Y21800D02*
D03*
X-39250Y-71800D02*
D03*
X-104700Y8100D02*
D03*
X-104300Y18400D02*
D03*
M02*
