%FSLAX25Y25*%
%MOIN*%
G70*
G01*
G75*
G04 Layer_Physical_Order=5*
G04 Layer_Color=128*
%ADD10R,0.03740X0.03937*%
%ADD11R,0.03937X0.03543*%
%ADD12R,0.03937X0.03740*%
%ADD13R,0.05906X0.01772*%
%ADD14R,0.03347X0.01772*%
%ADD15R,0.03347X0.01181*%
%ADD16R,0.02362X0.06102*%
%ADD17R,0.03543X0.03937*%
%ADD18R,0.03543X0.04331*%
%ADD19R,0.01575X0.03543*%
%ADD20R,0.07874X0.02362*%
%ADD21R,0.07087X0.04921*%
%ADD22R,0.03543X0.01575*%
%ADD23O,0.04331X0.01378*%
%ADD24O,0.01378X0.04331*%
%ADD25R,0.16535X0.16535*%
%ADD26R,0.04134X0.02559*%
%ADD27R,0.01181X0.05906*%
%ADD28R,0.05906X0.01181*%
%ADD29C,0.03937*%
%ADD30O,0.03347X0.01181*%
%ADD31O,0.01181X0.03347*%
%ADD32R,0.25000X0.25000*%
%ADD33R,0.08661X0.06102*%
%ADD34R,0.07008X0.14016*%
%ADD35R,0.05906X0.02165*%
%ADD36R,0.02165X0.05906*%
%ADD37C,0.02520*%
%ADD38R,0.09843X0.06890*%
%ADD39R,0.01181X0.03347*%
%ADD40R,0.08465X0.03740*%
%ADD41R,0.08465X0.12795*%
%ADD42R,0.04921X0.07087*%
%ADD43R,0.05512X0.04134*%
%ADD44R,0.06102X0.02362*%
%ADD45P,0.05568X4X360.0*%
%ADD46P,0.05568X4X270.0*%
%ADD47R,0.01772X0.05906*%
%ADD48C,0.00600*%
%ADD49C,0.01000*%
%ADD50C,0.01200*%
%ADD51C,0.00800*%
%ADD52C,0.03000*%
%ADD53C,0.01500*%
%ADD54C,0.02000*%
%ADD55C,0.00820*%
%ADD56C,0.04000*%
%ADD57C,0.02400*%
%ADD58C,0.00500*%
%ADD59C,0.06693*%
%ADD60C,0.09449*%
%ADD61C,0.07480*%
%ADD62C,0.17716*%
%ADD63C,0.22835*%
%ADD64C,0.02400*%
%ADD65R,0.08000X0.32000*%
%ADD66R,0.08000X0.08000*%
%ADD67C,0.05137*%
%ADD68C,0.07893*%
%ADD69C,0.05924*%
%ADD70C,0.11830*%
%ADD71C,0.06318*%
%ADD72C,0.02200*%
%ADD73R,0.08000X0.24000*%
%ADD74R,0.08000X0.16000*%
G04:AMPARAMS|DCode=75|XSize=99.37mil|YSize=99.37mil|CornerRadius=0mil|HoleSize=0mil|Usage=FLASHONLY|Rotation=0.000|XOffset=0mil|YOffset=0mil|HoleType=Round|Shape=Relief|Width=30mil|Gap=10mil|Entries=4|*
%AMTHD75*
7,0,0,0.09937,0.07937,0.03000,45*
%
%ADD75THD75*%
%ADD76C,0.02600*%
G04:AMPARAMS|DCode=77|XSize=126.929mil|YSize=126.929mil|CornerRadius=0mil|HoleSize=0mil|Usage=FLASHONLY|Rotation=0.000|XOffset=0mil|YOffset=0mil|HoleType=Round|Shape=Relief|Width=30mil|Gap=10mil|Entries=4|*
%AMTHD77*
7,0,0,0.12693,0.10693,0.03000,45*
%
%ADD77THD77*%
G04:AMPARAMS|DCode=78|XSize=166.299mil|YSize=166.299mil|CornerRadius=0mil|HoleSize=0mil|Usage=FLASHONLY|Rotation=0.000|XOffset=0mil|YOffset=0mil|HoleType=Round|Shape=Relief|Width=30mil|Gap=10mil|Entries=4|*
%AMTHD78*
7,0,0,0.16630,0.14630,0.03000,45*
%
%ADD78THD78*%
D49*
X17883Y84924D02*
Y82487D01*
X20076Y82244D01*
X19832Y82487D01*
X19589Y83218D01*
Y83949D01*
X19832Y84680D01*
X20320Y85168D01*
X21051Y85411D01*
X21538D01*
X22269Y85168D01*
X22756Y84680D01*
X23000Y83949D01*
Y83218D01*
X22756Y82487D01*
X22513Y82244D01*
X22025Y82000D01*
D51*
X16500Y86500D02*
Y95500D01*
X24500D01*
Y82000D02*
Y95500D01*
Y47500D02*
Y82000D01*
X16500Y47500D02*
X24500D01*
X16500D02*
Y87000D01*
Y79500D02*
Y87500D01*
Y79500D02*
X24500D01*
Y87500D01*
X16500D02*
X24500D01*
D56*
X-166978Y-119216D02*
G03*
X-170915Y-115279I-3937J0D01*
G01*
X-189813Y133147D02*
G03*
X-185875Y137084I0J3937D01*
G01*
X-232332Y124879D02*
G03*
X-228395Y128816I0J3937D01*
G01*
X-273671Y-115279D02*
X-170915D01*
X-170915Y-115279D02*
X-170915Y-115279D01*
X-166978Y-119216D02*
X-166978Y-119216D01*
Y-128271D02*
Y-119216D01*
Y-128271D02*
X27510D01*
Y143383D01*
X-185876D02*
X27510D01*
X-185876Y137084D02*
Y143383D01*
Y137084D02*
X-185875Y137084D01*
X-189813Y133147D02*
X-189813Y133147D01*
X-228395Y133147D02*
X-189813D01*
X-228395Y128816D02*
Y133147D01*
X-228395Y128816D02*
X-228395Y128816D01*
X-232332Y124879D02*
X-232332Y124879D01*
X-273671D02*
X-232332D01*
X-273671Y-115279D02*
Y124879D01*
D65*
X20500Y63500D02*
D03*
D66*
Y91500D02*
D03*
D67*
X-238100Y-87200D02*
D03*
X-228100D02*
D03*
X-248100D02*
D03*
X-258100D02*
D03*
D69*
X-255100Y87300D02*
D03*
Y49800D02*
D03*
Y-25200D02*
D03*
Y-62700D02*
D03*
Y12300D02*
D03*
D71*
X-19529Y114569D02*
D03*
X-7529Y-99531D02*
D03*
D72*
X-157600Y-300D02*
D03*
X-151300Y7000D02*
D03*
X-151400Y2800D02*
D03*
X-170100Y-23300D02*
D03*
X-155600Y-3600D02*
D03*
X-155450Y-6850D02*
D03*
X-134200Y30500D02*
D03*
X-140300Y30200D02*
D03*
X-144600Y36300D02*
D03*
X-140600Y25700D02*
D03*
X-104700Y4700D02*
D03*
X-112300Y2400D02*
D03*
X-110700Y-5700D02*
D03*
X-113400D02*
D03*
X-116600D02*
D03*
X-147200Y19700D02*
D03*
X-147900Y8400D02*
D03*
X-131300Y-6200D02*
D03*
X-135100Y-6400D02*
D03*
X-126300Y-6800D02*
D03*
X-92900Y17100D02*
D03*
X-138300Y-5200D02*
D03*
X-109000Y-10100D02*
D03*
X-141400Y-6600D02*
D03*
X-37100Y32500D02*
D03*
X-25500Y-71300D02*
D03*
X-43700Y-78400D02*
D03*
X-34900Y-2600D02*
D03*
X-17500Y-72500D02*
D03*
X-110900Y-31400D02*
D03*
X-110700Y-27200D02*
D03*
X-113100Y-35200D02*
D03*
X-110900Y-43700D02*
D03*
X-113550Y-41350D02*
D03*
X-121300Y1900D02*
D03*
X-106770Y-23050D02*
D03*
X-95200Y-23600D02*
D03*
X-110000Y-23000D02*
D03*
X-144500Y-20000D02*
D03*
X-65350Y66550D02*
D03*
X-125800Y116400D02*
D03*
X-111900Y17200D02*
D03*
X-104750Y30600D02*
D03*
X-115400Y30500D02*
D03*
X-97450Y43900D02*
D03*
X-84500Y106250D02*
D03*
X-72250Y100250D02*
D03*
X-91100Y87609D02*
D03*
X-91900Y83400D02*
D03*
X-91100Y90900D02*
D03*
X-98690Y89150D02*
D03*
X-183100Y69300D02*
D03*
X-187800Y74700D02*
D03*
X-183000Y60700D02*
D03*
X-55850Y110450D02*
D03*
Y105600D02*
D03*
X-56650Y100900D02*
D03*
X-100700Y31850D02*
D03*
X-93400Y30950D02*
D03*
X-111900Y11800D02*
D03*
X-56000Y62600D02*
D03*
X-33850Y49200D02*
D03*
X-31700Y46300D02*
D03*
X-29400Y32550D02*
D03*
X-56700Y96800D02*
D03*
X-31950Y93850D02*
D03*
X-26950Y57550D02*
D03*
X-41550Y74450D02*
D03*
X-55850Y70650D02*
D03*
Y75700D02*
D03*
Y80700D02*
D03*
Y85850D02*
D03*
X-55900Y91050D02*
D03*
X-82900Y118440D02*
D03*
Y115209D02*
D03*
X-78350Y108750D02*
D03*
X-41450Y109200D02*
D03*
X-55900Y115350D02*
D03*
Y120250D02*
D03*
Y125100D02*
D03*
X-48350Y131050D02*
D03*
X-97550Y132000D02*
D03*
X-17800Y107950D02*
D03*
X-113600Y-25100D02*
D03*
X-107400Y-59800D02*
D03*
X-110250Y-51800D02*
D03*
X-113950Y-85850D02*
D03*
X-239150Y103350D02*
D03*
X-220150Y107600D02*
D03*
X-220550Y84750D02*
D03*
X-215500D02*
D03*
X-217200Y72700D02*
D03*
X-230500Y93500D02*
D03*
X-225500Y93300D02*
D03*
X-195200Y72500D02*
D03*
X-200500Y72400D02*
D03*
X-198000Y84900D02*
D03*
X-193000D02*
D03*
X-205800Y72600D02*
D03*
X-203000Y84900D02*
D03*
X-208000D02*
D03*
X-193000Y62200D02*
D03*
X-211700Y67900D02*
D03*
X7471Y87519D02*
D03*
Y77519D02*
D03*
X-204500Y-88000D02*
D03*
X-176000Y37000D02*
D03*
X-28600Y2900D02*
D03*
X-22500Y-12600D02*
D03*
X-17500Y-12700D02*
D03*
X-177700Y25100D02*
D03*
X-174500Y23300D02*
D03*
X-169000Y108500D02*
D03*
X-8500Y38500D02*
D03*
X2500Y32500D02*
D03*
X-23500D02*
D03*
X-37500Y13000D02*
D03*
X-17500Y17500D02*
D03*
X-2500Y27500D02*
D03*
X-86600Y10500D02*
D03*
X-73400Y25600D02*
D03*
X-68200Y25500D02*
D03*
X-65650Y27480D02*
D03*
X-82500Y7500D02*
D03*
X-81500Y32000D02*
D03*
X-92250Y5150D02*
D03*
X-79000Y8000D02*
D03*
X-202500Y-85000D02*
D03*
X-208500Y-89000D02*
D03*
X-199300Y-86800D02*
D03*
X-58000Y-4500D02*
D03*
X-48000Y1000D02*
D03*
X-84000Y-11500D02*
D03*
X-24500Y15000D02*
D03*
X-29000Y9500D02*
D03*
X-10000Y6500D02*
D03*
X-17000Y2100D02*
D03*
X2500Y37500D02*
D03*
X-76700Y-42300D02*
D03*
X-23700Y-29700D02*
D03*
Y-26400D02*
D03*
X-149700Y-110200D02*
D03*
X-208500Y-102500D02*
D03*
X-5500Y22500D02*
D03*
X-8500Y30000D02*
D03*
X12000Y7500D02*
D03*
X2500Y17500D02*
D03*
X-2500Y7500D02*
D03*
X-24300Y2900D02*
D03*
X-12500Y12500D02*
D03*
X-195200Y-86900D02*
D03*
X-197100Y-71200D02*
D03*
X-202100Y-73300D02*
D03*
X-190700Y-77500D02*
D03*
X-158200Y43100D02*
D03*
X-162000Y42400D02*
D03*
X-145000Y39800D02*
D03*
X-209500Y-16200D02*
D03*
X-140500Y10300D02*
D03*
X-99400Y-112200D02*
D03*
X-116200Y-108400D02*
D03*
X-182400Y-18800D02*
D03*
X-113700Y-29300D02*
D03*
X-157700Y-19100D02*
D03*
X-181300Y-6300D02*
D03*
X-156750Y-37600D02*
D03*
X-139900Y-50300D02*
D03*
X-61400Y-33400D02*
D03*
X-58400D02*
D03*
X-55400D02*
D03*
X-64400D02*
D03*
X-153400Y-700D02*
D03*
X-174200Y-800D02*
D03*
X-174500Y11700D02*
D03*
X-153770Y32690D02*
D03*
X-66700Y58700D02*
D03*
X-256000Y-34800D02*
D03*
X-87650Y43700D02*
D03*
X-177900Y28500D02*
D03*
X-147100Y85500D02*
D03*
X-76318Y55518D02*
D03*
X-198300Y28700D02*
D03*
X-205900Y23900D02*
D03*
X-203200Y13600D02*
D03*
X-200500Y9000D02*
D03*
X-184900Y54600D02*
D03*
X-222600Y3600D02*
D03*
X-222800Y13700D02*
D03*
X-222900Y18600D02*
D03*
X-199320Y55821D02*
D03*
X-201880Y52380D02*
D03*
X-200600Y33700D02*
D03*
Y38700D02*
D03*
X-203600Y-9700D02*
D03*
X-221400Y48700D02*
D03*
X-218700Y43500D02*
D03*
X-221300Y58700D02*
D03*
X-255500Y2900D02*
D03*
X-256100Y40800D02*
D03*
X-255700Y77400D02*
D03*
X-149300Y115900D02*
D03*
X-140000Y103200D02*
D03*
X-136800Y107400D02*
D03*
X-131600Y100400D02*
D03*
X-141500Y81500D02*
D03*
X-143600Y85200D02*
D03*
X-150300Y77000D02*
D03*
X-149730Y57510D02*
D03*
X-149760Y63890D02*
D03*
X-149500Y67100D02*
D03*
X-163100Y77300D02*
D03*
X-165800Y70800D02*
D03*
X-165600Y65200D02*
D03*
X-166190Y61570D02*
D03*
X-168750Y55090D02*
D03*
X-173220Y57640D02*
D03*
X-163500Y67900D02*
D03*
X-163000Y57100D02*
D03*
X-166200Y57900D02*
D03*
X-172400Y54500D02*
D03*
X-176500Y83800D02*
D03*
X-172359Y91700D02*
D03*
X-166060Y92300D02*
D03*
X-159761Y92139D02*
D03*
X-156600Y92900D02*
D03*
X-153461Y92239D02*
D03*
X-150300Y89000D02*
D03*
Y104400D02*
D03*
X-172670Y104630D02*
D03*
X-169420Y105110D02*
D03*
X-164000Y124200D02*
D03*
X-163900Y114300D02*
D03*
X-184000Y115900D02*
D03*
Y112676D02*
D03*
X-172400Y109500D02*
D03*
X-173000Y118900D02*
D03*
Y122100D02*
D03*
X-117900Y72900D02*
D03*
X-113620Y65230D02*
D03*
X-109380Y65140D02*
D03*
X-129500Y86600D02*
D03*
X-126090Y88860D02*
D03*
X-122300Y88900D02*
D03*
X-119100Y92500D02*
D03*
X-166100Y104600D02*
D03*
X-159800Y104500D02*
D03*
X-156660Y105870D02*
D03*
X-153160Y105920D02*
D03*
X-149200Y112700D02*
D03*
X-149650Y139050D02*
D03*
X-163430Y135310D02*
D03*
X-121350Y105830D02*
D03*
X-125600Y106900D02*
D03*
X-112900Y92300D02*
D03*
X-109700Y92200D02*
D03*
X-125200Y73300D02*
D03*
Y66900D02*
D03*
X-125300Y62200D02*
D03*
X-125600Y58700D02*
D03*
X-121300Y59900D02*
D03*
Y56500D02*
D03*
X-103400Y89500D02*
D03*
X-125800Y122700D02*
D03*
Y119600D02*
D03*
X-17300Y37900D02*
D03*
X-81000Y55900D02*
D03*
X-84300Y78700D02*
D03*
X-12600Y42600D02*
D03*
Y92300D02*
D03*
X-17600Y82300D02*
D03*
X-12600Y87300D02*
D03*
X-17600Y57300D02*
D03*
Y62300D02*
D03*
X-12600Y57300D02*
D03*
X-100800Y91700D02*
D03*
X-106500Y91500D02*
D03*
X-8500Y102400D02*
D03*
X-2700Y77600D02*
D03*
X-17609Y92600D02*
D03*
X-112920Y115630D02*
D03*
X-116880Y106800D02*
D03*
X-120300Y137800D02*
D03*
X-17529Y-62481D02*
D03*
X2471Y92519D02*
D03*
X7411Y92460D02*
D03*
X-2529Y82519D02*
D03*
X2471D02*
D03*
X7471Y-42481D02*
D03*
X-2529Y-47481D02*
D03*
Y-52481D02*
D03*
X-17529Y72519D02*
D03*
Y77519D02*
D03*
X2571Y-37381D02*
D03*
X-2500Y-32500D02*
D03*
X2471Y102519D02*
D03*
X-2529Y97519D02*
D03*
Y87519D02*
D03*
X-12529Y52519D02*
D03*
X2471Y-47481D02*
D03*
X-12629Y47419D02*
D03*
X-12600Y-12500D02*
D03*
X-2400Y-12000D02*
D03*
X-2200Y-7500D02*
D03*
X2900Y-7100D02*
D03*
X2600Y-2500D02*
D03*
X-12600Y77200D02*
D03*
X-2900Y42900D02*
D03*
X-188000Y-22300D02*
D03*
X-177900Y-6200D02*
D03*
X-186100Y-26300D02*
D03*
X-183800Y-29100D02*
D03*
X-186000Y-44000D02*
D03*
X-200600Y-36200D02*
D03*
X-197700Y-43800D02*
D03*
X-200600Y-53400D02*
D03*
X-200800Y-66900D02*
D03*
X-200700Y-61200D02*
D03*
X-168100Y-69700D02*
D03*
X-136900Y-37300D02*
D03*
X-137200Y-42300D02*
D03*
X-162100Y-79200D02*
D03*
X-162000Y-68200D02*
D03*
X-166100Y-79300D02*
D03*
X-174000Y-79400D02*
D03*
X-153300Y-69500D02*
D03*
X-176000D02*
D03*
X-179800D02*
D03*
X-184100Y-50000D02*
D03*
X-184300Y-55800D02*
D03*
X-183800Y-64000D02*
D03*
X-187100Y-63700D02*
D03*
Y-69300D02*
D03*
X-65200Y-42300D02*
D03*
X-64500Y-75400D02*
D03*
X-95200Y-49000D02*
D03*
X-69900Y-88300D02*
D03*
X-53200Y-98300D02*
D03*
X-56000D02*
D03*
X-58700D02*
D03*
X-99300Y-105200D02*
D03*
Y-98200D02*
D03*
Y-90500D02*
D03*
X-200600Y-47700D02*
D03*
X-197800Y-40000D02*
D03*
X-229800Y-33500D02*
D03*
X-233900Y-65300D02*
D03*
X-237900Y-58400D02*
D03*
X-229700Y-55800D02*
D03*
X-217700Y-98600D02*
D03*
X-217500Y-92100D02*
D03*
X-194900Y-92700D02*
D03*
X-186000Y-92800D02*
D03*
X-190400Y-86900D02*
D03*
X-177400Y-92700D02*
D03*
X-181800Y-86800D02*
D03*
X-168500Y-92700D02*
D03*
X-172900Y-86800D02*
D03*
X-159600Y-92800D02*
D03*
X-164000Y-86900D02*
D03*
X-150500Y-92700D02*
D03*
X-154900Y-86800D02*
D03*
X-141900Y-92800D02*
D03*
X-146300Y-86900D02*
D03*
X-136700Y-108700D02*
D03*
X-137000Y-94200D02*
D03*
X-125600Y-103100D02*
D03*
X-187100Y-40200D02*
D03*
X-187000Y-33700D02*
D03*
X-112550Y-55700D02*
D03*
X-211100Y33300D02*
D03*
X-182100Y-80200D02*
D03*
X-145100Y-123200D02*
D03*
X-212100Y-75700D02*
D03*
X-217600Y-64400D02*
D03*
X-219100Y-82700D02*
D03*
X-6700Y-64000D02*
D03*
X-200700Y-30200D02*
D03*
X-145100Y46800D02*
D03*
X-184100Y22300D02*
D03*
X-184600Y47300D02*
D03*
X-158100Y-81700D02*
D03*
X-9150Y-92250D02*
D03*
X-113400Y-77500D02*
D03*
X-110400Y-73600D02*
D03*
X-110700Y-79500D02*
D03*
X-107900Y-75700D02*
D03*
X-108200Y-81600D02*
D03*
X-111200Y-83800D02*
D03*
X-66500Y-70900D02*
D03*
X-12529Y-52481D02*
D03*
X-17529Y-57481D02*
D03*
X-12529Y-47481D02*
D03*
X-17529D02*
D03*
X-76200Y-75355D02*
D03*
X-150500Y32900D02*
D03*
X-12300Y-37300D02*
D03*
X2500Y-17500D02*
D03*
X-2300Y-22800D02*
D03*
X2600Y-22400D02*
D03*
Y-27500D02*
D03*
X-12200Y-32800D02*
D03*
X-12100Y-17100D02*
D03*
X-17529Y-42481D02*
D03*
X-54100Y-66300D02*
D03*
X-57100D02*
D03*
X-28700Y-93650D02*
D03*
X-23400Y-90050D02*
D03*
X-23550Y-65250D02*
D03*
X-39250Y-75200D02*
D03*
X-112690Y122470D02*
D03*
X-109600Y106500D02*
D03*
X-88900Y110950D02*
D03*
X-88700Y115900D02*
D03*
X-68000Y131000D02*
D03*
X-77000Y96000D02*
D03*
Y89400D02*
D03*
Y86000D02*
D03*
X-78000Y79000D02*
D03*
X-78500Y120000D02*
D03*
Y131000D02*
D03*
X-92860Y26710D02*
D03*
X-83590Y26160D02*
D03*
X-219500Y-78000D02*
D03*
X3253Y130053D02*
D03*
X1400Y123200D02*
D03*
X7000Y118400D02*
D03*
Y114000D02*
D03*
X13500Y119500D02*
D03*
Y115500D02*
D03*
X22200Y134100D02*
D03*
X23000Y130700D02*
D03*
X-2529Y107519D02*
D03*
X-104950Y69900D02*
D03*
X-116100Y76800D02*
D03*
X-107100Y67500D02*
D03*
X-115800Y67600D02*
D03*
X-111520Y68120D02*
D03*
X-28800Y-82600D02*
D03*
X-220000Y28800D02*
D03*
X-26300Y-91500D02*
D03*
X-30700Y-65100D02*
D03*
X-27300Y-65200D02*
D03*
X-111700Y111300D02*
D03*
X-112840Y118920D02*
D03*
X-109429Y122471D02*
D03*
X-178000Y-18900D02*
D03*
X-167800Y-19300D02*
D03*
X-112650Y-61600D02*
D03*
X-112900Y-71500D02*
D03*
X-110350Y-64100D02*
D03*
X-110000Y-57700D02*
D03*
X-112700Y-49600D02*
D03*
X-107700Y-53900D02*
D03*
X-111000Y-37900D02*
D03*
X-108500Y-33900D02*
D03*
X-103900Y-43900D02*
D03*
X-108300Y-40000D02*
D03*
X-101200Y-21300D02*
D03*
X-98800Y-23600D02*
D03*
X-119876Y-5700D02*
D03*
X-122900Y-6800D02*
D03*
X-160100D02*
D03*
X-125900Y113000D02*
D03*
X-123400Y109260D02*
D03*
X-118750Y109920D02*
D03*
X-113800Y108800D02*
D03*
X-125100Y70100D02*
D03*
X-122800Y64300D02*
D03*
X-119980Y41690D02*
D03*
X-112600Y30400D02*
D03*
X-116776Y41200D02*
D03*
X-121350Y37900D02*
D03*
X-125850Y30500D02*
D03*
X-122650D02*
D03*
X-101720Y15780D02*
D03*
X-101740Y12570D02*
D03*
X-104300Y21800D02*
D03*
X-169230Y93060D02*
D03*
X-149510Y54310D02*
D03*
X-84790Y-17500D02*
D03*
X-39250Y-71800D02*
D03*
X-104700Y8100D02*
D03*
X-104300Y18400D02*
D03*
D77*
X-265100Y77300D02*
D03*
X-245100Y97300D02*
D03*
X-265100D02*
D03*
X-245100Y77300D02*
D03*
Y39800D02*
D03*
X-265100Y59800D02*
D03*
X-245100D02*
D03*
X-265100Y39800D02*
D03*
X-245100Y-35200D02*
D03*
X-265100Y-15200D02*
D03*
X-245100D02*
D03*
X-265100Y-35200D02*
D03*
X-245100Y-72700D02*
D03*
X-265100Y-52700D02*
D03*
X-245100D02*
D03*
X-265100Y-72700D02*
D03*
Y2300D02*
D03*
X-245100Y22300D02*
D03*
X-265100D02*
D03*
X-245100Y2300D02*
D03*
D78*
X-230364Y116021D02*
D03*
X-15403Y131572D02*
D03*
X-15500Y-116500D02*
D03*
X-230364Y-106617D02*
D03*
M02*
